<?xml version="1.0" encoding="utf-8"?>
<!DOCTYPE svg>
<svg version="1.1" baseProfile="full" xmlns="http://www.w3.org/2000/svg" xmlns:xlink="http://www.w3.org/1999/xlink" x="0px" y="0px" width="320px" height="52px" viewBox="0 0 320 52" enable-background="new 0 0 320 52" xml:space="preserve">
<path d="M11.916,42.044c0.063-0.063,0.124-0.095,0.206-0.093c0.081,0.002,0.145,0.041,0.24,0.137c0.069,0.069,0.111,0.121,0.128,0.191c-0.001-0.017,0.005-0.033,0-0.05c-0.016-0.071-0.059-0.124-0.128-0.194c-0.095-0.095-0.159-0.135-0.24-0.137c-0.082-0.002-0.143,0.03-0.206,0.093l-0.172,0.175l0.026,0.025L11.916,42.044z M13.46,40.499l0.083,0.081l0.026-0.025l-0.108-0.108l-0.381,0.382l0.026,0.025L13.46,40.499z M13.019,40.941l0.082,0.082l0.026-0.026l-0.108-0.107l-0.381,0.381l0.026,0.025L13.019,40.941z M11.625,42.335l0.083,0.081l0.025-0.025l-0.108-0.107l-0.381,0.382l0.025,0.024L11.625,42.335z M13.923,40.037l0.083,0.081l0.026-0.025l-0.108-0.108l-0.343,0.344l0.025,0.025L13.923,40.037z M10.871,43.088l0.325,0.152l-0.031-0.069l-0.294-0.136l-0.122,0.122l0.037,0.016L10.871,43.088z M14.605,40.073c0.042-0.043,0.052-0.079,0.04-0.116c-0.006,0.019-0.018,0.04-0.04,0.063l-0.066,0.065l-0.224-0.225l-0.026,0.027l0.25,0.25L14.605,40.073z M14.72,39.24l0.659,0.312l0.002-0.003l-0.095-0.094l-0.567-0.268l-0.11,0.111l0.026,0.025L14.72,39.24z M14.04,40.558l-0.21-0.211l-0.026,0.026l0.236,0.236l0.199-0.2l0.083,0.082l0.026-0.025l-0.109-0.108L14.04,40.558z M12.953,42l-0.084,0.084l-0.173-0.258l-0.06-0.04l-0.002,0.003l0.233,0.348l0.115-0.115L12.953,42z M13.436,40.74l0.67,0.669l0.026-0.025l-0.669-0.67L13.436,40.74z M14.383,40.902l-0.209-0.211l-0.026,0.026l0.235,0.236l0.229-0.228l0.089,0.088l0.026-0.025l-0.115-0.116L14.383,40.902z M12.356,41.55l0.021,0.032l0.076-0.075l0.952,0.606l0.032-0.033l-0.984-0.625L12.356,41.55z M12.958,42.266l0.119,0.175l0.021-0.021l-0.119-0.176L12.958,42.266z M12.994,41.183l0.668,0.67l0.027-0.026l-0.669-0.67L12.994,41.183z M14.641,40.24l0.316,0.317l0.026-0.026l-0.317-0.317L14.641,40.24z M15.048,39.554l-0.002,0.003l0.457,0.456l0.026-0.025l-0.393-0.393L15.048,39.554z M14.896,39.012l0.026,0.025l0.089-0.089l0.778,0.777l0.027-0.025l-0.804-0.805L14.896,39.012z M14.69,39.688c-0.156-0.153-0.303-0.168-0.439-0.031l-0.185,0.184l0.027,0.027l0.158-0.159c0.136-0.136,0.285-0.123,0.439,0.033c0.094,0.094,0.135,0.187,0.102,0.3l0.456,0.228l0.035-0.037l-0.491-0.242C14.824,39.876,14.782,39.781,14.69,39.688z M10.557,43.618l-0.026,0.027l0.236,0.235l0.199-0.2l0.082,0.083l0.026-0.025l-0.108-0.109l-0.199,0.2L10.557,43.618z M10.272,43.853l0.026-0.025l-0.108-0.109L9.808,44.1l0.026,0.025l0.356-0.354L10.272,43.853z M10.165,44.013l0.669,0.668l0.026-0.025l-0.669-0.67L10.165,44.013z M11.112,44.174l-0.209-0.211l-0.026,0.026l0.235,0.236l0.229-0.228l0.088,0.088l0.026-0.025l-0.114-0.115L11.112,44.174z M10.651,43.309l0.083,0.081l0.026-0.025l-0.108-0.107L10.309,43.6l0.026,0.025L10.651,43.309z M11.6,42.578l0.668,0.668l0.027-0.026l-0.669-0.669L11.6,42.578z M11.491,43.534l0.155,0.335l0.018-0.016l-0.142-0.304L11.491,43.534z M12.295,42.376l-0.055,0.055l-0.247-0.247l-0.027,0.027l0.273,0.272l0.055-0.056c0.048-0.047,0.057-0.085,0.044-0.122C12.333,42.327,12.321,42.351,12.295,42.376z M11.168,42.738l-0.122,0.122l0.016,0.038l0.105-0.105l0.229,0.536l0.552,0.237l0.037-0.035l-0.587-0.256L11.168,42.738z M12.349,42.592l0.288,0.287l0.027-0.027l-0.288-0.286L12.349,42.592z M45.289,51.648C45.216,51.577,45.247,51.607,45.289,51.648L45.289,51.648z M36.166,33.231c0,0,0.983,1.119,1.508,1.642c0.526,0.526,1.669,1.615,1.669,1.615s-0.674-0.813-1.482-1.62C37.054,34.061,36.166,33.231,36.166,33.231z M41.009,35.149c-2.778-2.776-5.568-5.818-8.112-8.578l7.236-7.236c1.84-1.839,5.891-3.765,5.891-3.765l5.079-5.078L52,9.168l-6.57-6.571l-1.322,0.896l-5.081,5.082c0,0-1.923,4.052-3.762,5.892l-7.089,7.087c-0.159-0.162-0.319-0.326-0.474-0.48c-2.662-2.661-7.077-6.662-9.055-8.438l4.752-4.754V6.67c0,0-0.966-1.361-3.138-3.533C18.091,0.963,16.728,0,16.728,0h-1.211L0,15.517v1.209c0,0,0.964,1.363,3.137,3.535c1.721,1.722,3.534,3.138,3.534,3.138h1.211l4.744-4.745c1.778,1.979,5.78,6.393,8.442,9.055c0.154,0.153,0.317,0.313,0.48,0.475L6.364,43.367c-0.89,0.89-2.358,1.292-2.358,1.292l-1.398,1.398c0,0,1.124,1.787,2.56,3.223l0,0C6.603,50.717,8.531,52,8.531,52l1.407-1.408c0,0,0.403-1.468,1.293-2.357l15.335-15.333c2.76,2.542,5.8,5.334,8.578,8.113c5.369,5.369,10.091,10.58,10.224,10.713c0.74,0.74,2.624-0.112,4.433-1.923c1.906-1.908,2.594-3.76,1.962-4.391C51.529,45.179,46.376,40.519,41.009,35.149z M19.486,14.265c2.229,2.019,5.589,5.102,7.757,7.271c0.151,0.151,0.312,0.317,0.473,0.479l-1.177,1.179c-0.704-0.703-1.476-1.476-1.476-1.476s0.695,0.887,1.336,1.613l-0.83,0.829c-0.938-0.949-1.735-1.755-2.057-2.076c-0.956-0.957-1.964-1.938-2.369-2.343c-0.404-0.403-1.104-1.239-1.535-1.67c-0.431-0.43-1.158-1.076-1.669-1.588c-0.15-0.15-0.386-0.38-0.655-0.643c0.249-0.284,0.538-0.551,0.833-0.786c0.701,0.756,1.502,1.604,2.272,2.371c1.979,1.979,4.186,3.89,4.186,3.89s-1.614-1.615-4.051-4.051c-0.805-0.805-1.602-1.603-2.297-2.297C18.677,14.625,19.133,14.361,19.486,14.265L19.486,14.265z M24.843,24.888l-0.373,0.371c-0.301-0.294-0.589-0.578-0.83-0.819c-1.429-1.428-3.184-3.262-4.894-4.97c-0.649-0.648-1.483-1.489-2.269-2.283c0.061-0.176,0.136-0.354,0.229-0.53c0.87,0.834,1.817,1.748,2.551,2.482c0.967,0.967,2.478,2.233,2.478,2.233c-1.116-1.144-2.468-2.647-2.947-3.128c-0.503-0.501-1.229-1.168-1.944-1.816c0.083-0.133,0.178-0.265,0.284-0.396c0.283,0.23,0.514,0.426,0.702,0.613c0.552,0.554,1.46,1.427,1.784,1.75c0.323,0.323,1.205,1.185,1.852,1.831c0.646,0.646,1.999,2.116,2.335,2.452c0.6,0.598,1.116,1.098,1.644,1.605l-0.459,0.459c-1.875-1.735-4.16-3.809-4.16-3.809C21.299,21.408,22.946,23.025,24.843,24.888z M11.793,13.165l-0.917-0.916l-0.176,0.176l-0.143-0.143l0.032-0.033L10.7,12.36l0.176-0.177l0.917,0.916l0.121-0.119l0.032,0.032L11.793,13.165z M11.028,12.031l0.145-0.144l0.033,0.033l-0.145,0.145L11.028,12.031z M12.143,12.815l-0.339-0.77l-0.703-0.309l0.045-0.045l0.657,0.286l0.339,0.771l0.141-0.14l0.02,0.044L12.143,12.815z M11.491,11.348l0.021-0.02l0.178,0.386l-0.039-0.019L11.491,11.348z M12.567,12.391l-0.452-0.207l-0.039-0.083l0.49,0.226l0.115-0.115l0.045,0.019L12.567,12.391z M12.797,12.162l-1.061-1.06l0.033-0.033l1.027,1.026l0.12-0.119l0.033,0.033L12.797,12.162z M12.031,11.028l0.079-0.078c0.12-0.12,0.202-0.037,0.301,0.063c0.076,0.076,0.131,0.136,0.112,0.209c-0.015-0.047-0.06-0.093-0.112-0.146c-0.099-0.1-0.181-0.181-0.301-0.063l-0.046,0.047L12.031,11.028z M12.535,11.531l0.077-0.077c0.09-0.092,0.114-0.178,0.109-0.267l0,0.002c0.027,0.109,0.002,0.218-0.11,0.331l-0.045,0.044L12.535,11.531z M8.458,8.458c-3,3-7.252,7.526-7.252,7.526s0.867,1.66,2.709,3.501c1.841,1.843,3.5,2.708,3.5,2.708l0.198,0.555H6.877c0,0-1.133-0.798-3.281-2.946c-2.148-2.147-2.948-3.28-2.948-3.28v-0.734L15.787,0.65h0.734c0,0,1.134,0.798,3.281,2.946c2.149,2.147,2.948,3.281,2.948,3.281v0.734l-0.557-0.198c0,0-0.929-1.596-2.771-3.438c-1.841-1.841-3.438-2.771-3.438-2.771S11.458,5.457,8.458,8.458z M16.407,17.429c1.083,1.034,2.196,2.102,2.681,2.587c1.086,1.086,2.697,2.845,3.687,3.833c0.304,0.305,0.911,0.873,1.599,1.506l-0.231,0.23c-1.225-1.193-2.908-2.821-5.25-5.163c-0.936-0.937-1.802-1.784-2.552-2.507C16.345,17.754,16.367,17.591,16.407,17.429z M16.987,19.383c-0.359-0.36-0.545-0.73-0.614-1.104c1.327,1.285,2.831,2.748,3.887,3.806c1.061,1.06,2.454,2.398,3.759,3.627L23.67,26.06C21.458,23.847,18.475,20.867,16.987,19.383z M9.884,46.889c-1.064,1.065-1.598,2.307-1.598,2.307h0l-0.888,0.888l1.066,1.064c0,0-1.856-1.342-2.837-2.325c-0.982-0.982-2.176-2.688-2.176-2.688l0.887-0.888c0,0,1.421-0.354,2.484-1.419l27.92-27.92l0.064-0.065l0.917-0.917c1.862-1.86,3.904-6.032,3.904-6.032l4.898-4.897l0.826-0.558l5.81,5.81l-0.559,0.827l0,0l0,0l-4.897,4.896c0,0-5.058,1.154-6.92,3.017l-0.981,0.981h-0.001L9.884,46.889z M50.891,47.443c-0.691-0.602-3.118-2.712-3.659-3.253c-0.633-0.634-2.424-2.43-2.8-2.807c-0.377-0.376-1.73-1.434-1.73-1.434s0.935,1.022,1.192,1.277c0.255,0.257,1.683,1.441,2.747,2.506c0.914,0.913,3.352,3.392,4.023,4.074c-0.217,0.313-0.501,0.67-0.869,1.071c-0.582-0.51-2.424-2.125-3.236-2.937c-0.97-0.97-1.832-1.75-2.855-2.774c-1.022-1.022-2.033-1.92-2.935-2.822c-0.902-0.902-3.5-3.615-3.5-3.615s2.652,3.03,3.635,4.014c0.983,0.982,1.682,1.467,2.854,2.64c1.171,1.171,2.941,3.016,3.642,3.716c0.564,0.564,1.81,1.553,2.269,1.909c-0.104,0.11-0.21,0.222-0.327,0.339c-0.176,0.177-0.342,0.333-0.503,0.48c0,0,0.001-0.002,0.002-0.003c-0.165-0.021-0.343-0.159-0.563-0.379c-0.247-0.246-5.24-5.319-10.61-10.69c-1.995-1.996-5.938-5.632-6.49-6.117c-0.445-0.392-0.658-0.784-0.716-1.179c0.587,0.538,1.178,1.098,1.712,1.631c1.537,1.537,3.154,2.965,3.154,2.965s-2.631-2.709-3.791-3.868c-0.258-0.259-0.642-0.604-1.092-0.992c0.007-0.223,0.057-0.443,0.147-0.663c0.732,0.719,1.279,1.259,1.508,1.487c1.144,1.145,2.451,2.559,3.124,3.231c0.672,0.674,2.53,2.586,2.53,2.586s-2.503-2.829-3.957-4.282c-0.704-0.702-1.9-1.928-3.133-3.19c0.044-0.091,0.093-0.181,0.148-0.272c0.048-0.08,0.11-0.163,0.17-0.246c1.316,1.357,2.547,2.629,2.95,3.032c1.322,1.32,3.137,3.222,4.064,4.15c0.93,0.931,3.03,2.943,4.093,4.007c1.064,1.063,2.478,2.428,3.419,3.371c0.943,0.942,3.495,3.106,3.495,3.106s-4.06-4-5.513-5.455c-1.454-1.453-3.298-3.088-4.201-3.991c-1.257-1.258-3.325-3.475-4.389-4.538c-1.063-1.064-1.387-1.252-1.615-1.48c-0.164-0.164-1.346-1.401-2.224-2.31c0.604-0.764,1.644-1.555,2.378-1.615c2.261,2.45,4.692,5.07,7.11,7.488c5.371,5.371,10.68,10.188,10.736,10.243C51.324,45.893,51.523,46.378,50.891,47.443z"/>
<path d="M93.524,42v-1.846c0,0-1.645-0.526-2.36-0.703C90.525,39.292,89.726,39.112,89,39V13h7l2.25,6H100c0.096-0.6,0.187-1.244,0.25-2c0.064-0.756,0.203-1.965,0.25-2.75s0.119-0.994,0.15-1.75c0.032-0.759,0.1-1.251,0.1-1.847V10h-28.5v0.653c0,0.596,0.068,1.088,0.1,1.847c0.031,0.756,0.103,0.965,0.15,1.75s0.186,1.994,0.25,2.75c0.063,0.756,0.154,1.4,0.25,2h1.75L77,13h7v26c-0.726,0.112-1.525,0.292-2.165,0.451c-0.715,0.177-2.36,0.703-2.36,0.703V42H93.524z"/>
<path d="M117.955,20.625c-0.896-0.669-1.934-1.155-3.084-1.444c-1.134-0.286-2.3-0.431-3.464-0.431c-3.606,0-6.44,1.028-8.424,3.056c-1.979,2.021-2.982,4.988-2.982,8.819c0,1.793,0.262,3.431,0.778,4.867c0.519,1.447,1.292,2.711,2.3,3.753c1.01,1.046,2.289,1.859,3.799,2.418c1.501,0.555,3.256,0.837,5.214,0.837c0.901,0,1.801-0.1,2.672-0.294c0.871-0.197,1.684-0.465,2.417-0.795c0.739-0.332,1.405-0.732,1.981-1.189c0.588-0.468,1.029-0.977,1.311-1.514l0.106-0.204l-1.062-1.094l-0.243,0.193c-0.547,0.439-1.393,0.804-2.515,1.083c-1.142,0.287-2.283,0.432-3.394,0.432c-1.352,0-2.542-0.221-3.536-0.656c-0.993-0.432-1.826-1.033-2.477-1.785c-0.654-0.757-1.152-1.661-1.48-2.688c-0.301-0.941-0.468-1.913-0.495-2.989h15.214l0.057-0.308c0.133-0.602,0.226-1.17,0.276-1.69c0.049-0.522,0.075-1.045,0.075-1.551c0-1.629-0.283-3.02-0.842-4.132C119.599,22.206,118.857,21.3,117.955,20.625z M111.111,21.25c1.534,0,2.625,0.482,3.336,1.474c0.729,1.016,1.098,2.412,1.098,4.149c0,0.219-0.046,0.974-0.063,1.127h-9.937c0.209-2.482,0.757-4.242,1.631-5.23C108.083,21.746,109.369,21.25,111.111,21.25z"/>
<path d="M268.955,20.625c-0.896-0.669-1.935-1.155-3.084-1.444c-1.135-0.286-2.301-0.431-3.465-0.431c-3.606,0-6.44,1.028-8.424,3.056c-1.979,2.021-2.982,4.988-2.982,8.819c0,1.793,0.262,3.431,0.778,4.867c0.519,1.447,1.292,2.711,2.3,3.753c1.01,1.046,2.289,1.859,3.8,2.418c1.501,0.555,3.256,0.837,5.214,0.837c0.902,0,1.801-0.1,2.672-0.294c0.871-0.197,1.685-0.465,2.418-0.795c0.738-0.332,1.405-0.732,1.981-1.189c0.588-0.468,1.028-0.977,1.312-1.514l0.105-0.204l-1.062-1.094l-0.242,0.193c-0.547,0.439-1.394,0.804-2.516,1.083c-1.142,0.287-2.283,0.432-3.395,0.432c-1.352,0-2.541-0.221-3.535-0.656c-0.994-0.432-1.826-1.033-2.477-1.785c-0.654-0.757-1.152-1.661-1.48-2.688c-0.301-0.941-0.468-1.913-0.494-2.989h15.214l0.057-0.308c0.134-0.602,0.226-1.17,0.276-1.69c0.049-0.522,0.074-1.045,0.074-1.551c0-1.629-0.283-3.02-0.842-4.132C270.6,22.206,269.857,21.3,268.955,20.625z M262.111,21.25c1.533,0,2.625,0.482,3.336,1.474c0.729,1.016,1.099,2.412,1.099,4.149c0,0.219-0.046,0.974-0.063,1.127h-9.937c0.209-2.482,0.757-4.242,1.631-5.23C259.082,21.746,260.369,21.25,262.111,21.25z"/>
<path d="M122,42h8.65v-1.65c-0.38-0.212-0.933-0.494-1.313-0.675c-0.261-0.124-0.542-0.244-0.837-0.356l4.727-6.607l4.683,6.605c-0.251,0.098-0.502,0.211-0.753,0.341c-0.376,0.194-0.967,0.452-1.406,0.692V42H146v-1.65c-0.391-0.249-0.963-0.536-1.401-0.706c-0.396-0.154-0.798-0.301-1.208-0.442l-7.181-9.5l6.188-7.85c1.132-0.327,2.152-0.81,2.75-1.201V19h-8.5v1.65c0.462,0.359,1.298,0.786,2.187,1.089l-4.254,5.973l-4.336-5.97c0.289-0.101,0.561-0.22,0.813-0.356c0.372-0.201,0.919-0.499,1.29-0.735V19h-10.1v1.65c0.387,0.246,0.953,0.577,1.321,0.744c0.34,0.156,0.721,0.307,1.133,0.45l6.802,8.744l-6.745,8.599c-0.865,0.219-1.901,0.663-2.761,1.162V42z"/>
<path d="M147,22h4v13.796c0,2.324,0.383,4.041,1.451,5.104c1.069,1.062,2.626,1.601,4.628,1.601c0.76,0,1.515-0.094,2.243-0.277c0.718-0.181,1.391-0.411,2-0.686c0.604-0.272,1.151-0.564,1.626-0.868c0.482-0.307,1.303-1.061,1.303-1.061l-0.569-1.128c0,0-1.569,0.427-2.403,0.497c-0.851,0.073-1.569,0.11-2.133,0.11c-1.124,0-1.847-0.322-2.395-0.986c-0.556-0.674-0.75-1.869-0.75-3.554V22h7v-3h-7v-6h-1.707l-0.132,0.027c-0.578,0.242-1.198,0.477-1.734,0.779c-0.531,0.3-1.427,0.963-1.427,0.963v3.98c-1.282,0.32-2.836,0.797-4,1.5V22z"/>
<path d="M215,22h4v13.796c0,2.324,0.383,4.041,1.451,5.104c1.068,1.062,2.626,1.601,4.628,1.601c0.76,0,1.515-0.094,2.243-0.277c0.717-0.181,1.391-0.411,1.999-0.686c0.604-0.272,1.151-0.564,1.626-0.868c0.482-0.307,1.303-1.061,1.303-1.061l-0.569-1.128c0,0-1.569,0.427-2.403,0.497c-0.852,0.073-1.568,0.11-2.133,0.11c-1.124,0-1.848-0.322-2.395-0.986c-0.556-0.674-0.75-1.869-0.75-3.554V22h7v-3h-7v-6h-1.707l-0.131,0.027c-0.578,0.242-1.199,0.477-1.734,0.779c-0.531,0.3-1.428,0.963-1.428,0.963V18.7c-1.281,0.32-2.836,0.847-4,1.55V22z"/>
<path d="M233,22h4v13.796c0,2.324,0.383,4.041,1.451,5.104c1.068,1.062,2.626,1.601,4.628,1.601c0.76,0,1.515-0.094,2.243-0.277c0.717-0.181,1.391-0.411,1.999-0.686c0.604-0.272,1.151-0.564,1.626-0.868c0.482-0.307,1.303-1.061,1.303-1.061l-0.569-1.128c0,0-1.569,0.427-2.403,0.497c-0.852,0.073-1.568,0.11-2.133,0.11c-1.124,0-1.848-0.322-2.395-0.986c-0.556-0.674-0.75-1.869-0.75-3.554V22h7v-3h-7v-6h-1.707l-0.131,0.027c-0.578,0.242-1.199,0.477-1.734,0.779c-0.531,0.3-1.428,0.963-1.428,0.963V18.7c-1.281,0.32-2.836,0.847-4,1.55V22z"/>
<path d="M177,49.35c-0.586-0.337-1.224-0.63-1.75-0.8c-0.429-0.139-0.818-0.232-1.25-0.3v-6.398c0.639,0.243,1.197,0.422,1.752,0.533c0.682,0.138,1.629,0.208,2.818,0.208c1.71,0,3.293-0.294,4.703-0.875c1.414-0.579,2.635-1.42,3.629-2.494c0.992-1.071,1.766-2.404,2.301-3.963C189.736,33.712,190,31.905,190,30c0-4.028-0.805-6.938-2.404-8.751c-1.609-1.824-3.895-2.749-6.795-2.749c-1.901,0-3.471,0.482-4.664,1.435c-0.865,0.691-1.553,1.561-2.137,2.591V18.5l-1.602,0.003c-1.025,0.152-2.082,0.357-3.139,0.61c-1.073,0.257-2.135,0.601-3.158,1.021L166,20.219v1.679l3,0.357V48.25c-0.952,0.241-2,0.656-3,1.1V51h11V49.35z M184.797,30.055c0,1.454-0.156,2.803-0.465,4.01c-0.307,1.197-0.748,2.257-1.312,3.146c-0.555,0.877-1.238,1.563-2.029,2.042c-0.783,0.473-1.678,0.713-2.658,0.713c-1.111,0-2.021-0.08-2.705-0.237c-0.609-0.141-1.127-0.346-1.627-0.611V26.829c0.365-1.524,0.945-2.738,1.807-3.607c0.852-0.856,2.021-1.29,3.475-1.29c1.016,0,1.881,0.196,2.572,0.585c0.691,0.388,1.258,0.944,1.686,1.65c0.436,0.724,0.758,1.59,0.955,2.577C184.695,27.746,184.797,28.859,184.797,30.055z"/>
<path d="M215.5,39.25l-3.5-0.5V26.085c0-0.838-0.03-1.689-0.2-2.531c-0.175-0.866-0.44-1.667-1.001-2.381c-0.562-0.717-1.388-1.307-2.451-1.756c-1.054-0.442-2.465-0.667-4.198-0.667c-1.911,0-3.674,0.197-5.241,0.585c-1.566,0.388-3.01,0.932-4.291,1.617l-0.188,0.102l0.015,0.204c0.066,0.923,0.229,1.877,0.482,2.833c0.251,0.949,0.548,1.879,0.882,2.764l0.08,0.215h1.764l2.371-5.358c0.488-0.165,0.989-0.269,1.488-0.308c0.572-0.042,1.09-0.064,1.543-0.064c0.92,0,1.67,0.182,2.225,0.54c0.555,0.357,0.981,0.874,1.271,1.531c0.299,0.683,0.402,1.521,0.449,2.491v3.094c-2.207,0.115-4.201,0.282-5.883,0.492c-1.783,0.224-3.306,0.596-4.527,1.105c-1.25,0.523-2.213,1.253-2.86,2.165c-0.649,0.918-0.979,2.099-0.979,3.51c0,1.854,0.684,3.373,2.031,4.519c1.337,1.138,3.08,1.714,5.185,1.714c1.097,0,2.093-0.154,2.958-0.461c0.859-0.305,1.621-0.707,2.262-1.197c0.645-0.492,1.174-1.063,1.572-1.696c0.168-0.263,0.314-0.529,0.438-0.794c0.027,0.54,0.061,1.053,0.102,1.534c0.069,0.844,0.281,1.632,0.629,2.339L208,42.412l1.537-0.005c0.938-0.147,1.933-0.374,2.957-0.671c1.021-0.296,2.158-0.695,3.006-1.086V39.25z M205.503,37.714c-0.402,0.383-0.909,0.72-1.502,0.996c-0.582,0.271-1.269,0.407-2.044,0.407c-1.18,0-2.078-0.308-2.748-0.941c-0.66-0.625-0.994-1.532-0.994-2.701c0-0.688,0.125-1.304,0.369-1.831c0.234-0.505,0.673-0.936,1.302-1.282c0.659-0.359,1.591-0.629,2.772-0.798c1.131-0.163,2.594-0.251,4.342-0.26v4.25c-0.094,0.263-0.266,0.588-0.503,0.967C206.245,36.923,205.91,37.324,205.503,37.714z"/>
<path d="M286.75,40.35c-0.652-0.334-1.436-0.651-2.083-0.817c-0.548-0.141-1.121-0.218-1.667-0.282V26.485c0.386-0.981,0.846-1.735,1.324-2.238c0.459-0.479,0.844-1.075,1.146-1.247H292v-1.202l-0.016-0.099c-0.159-0.506-0.327-0.988-0.502-1.45c-0.178-0.469-0.385-0.905-0.613-1.303l-0.082-0.144l-0.165-0.017c-0.89-0.092-1.767-0.007-2.61,0.255c-0.832,0.259-1.609,0.638-2.309,1.123c-0.695,0.482-1.319,1.033-1.854,1.639c-0.318,0.358-0.615,0.721-0.85,1.083V18.75h-1.5c-0.988,0.149-2.064,0.389-3.13,0.638c-1.084,0.254-2.352,0.696-3.37,1.112V22l3,0.5v16.75c-0.427,0.104-0.734,0.227-1.16,0.352c-0.523,0.153-1.259,0.446-1.84,0.748V42h11.75V40.35z"/>
<path d="M320,40.35c-0.809-0.483-1.8-0.882-3-1.1V28.345c0-1.847-0.289-3.4-0.65-4.616c-0.367-1.235-0.99-2.237-1.697-2.979c-0.715-0.746-1.617-1.272-2.685-1.568c-1.038-0.286-2.229-0.432-3.538-0.432c-1.867,0-3.486,0.513-4.809,1.524c-0.98,0.749-1.981,1.617-2.621,2.593V18.75h-1.5c-1.199,0.208-2.266,0.452-3.354,0.716c-1.104,0.268-2.303,0.707-3.146,1.034V22l3,0.5v16.75c-1.223,0.311-2.232,0.734-3,1.1V42h11v-1.65c-0.877-0.498-2.064-0.903-3-1.1V26.681c0.213-0.572,0.688-1.132,1.049-1.666c0.367-0.547,0.811-1.044,1.316-1.479c0.5-0.431,1.084-0.774,1.735-1.024c0.649-0.249,1.364-0.375,2.123-0.375c1.749,0,2.975,0.579,3.626,1.771c0.679,1.242,1.15,2.973,1.15,5.143V39.25c-0.949,0.283-2.182,0.712-3,1.1V42h11V40.35z"/>
</svg>
