<svg height="238" viewBox="0 0 380 238" width="380" xmlns="http://www.w3.org/2000/svg" xmlns:xlink="http://www.w3.org/1999/xlink"><linearGradient id="a" gradientTransform="matrix(1 0 0 -1 -101 -537.5)" gradientUnits="userSpaceOnUse" x1="294.575" x2="312.156" y1="-644.675" y2="-627.094"><stop offset=".125" stop-color="#7b6c35"/><stop offset=".875" stop-color="#b9aa69"/></linearGradient><linearGradient id="b" gradientTransform="matrix(1 0 0 -1 -101 -537.5)" gradientUnits="userSpaceOnUse" x1="294.558" x2="311.847" y1="-644.657" y2="-627.368"><stop offset="0" stop-color="#2b2414"/><stop offset=".75" stop-color="#624e22"/></linearGradient><linearGradient id="c" gradientTransform="matrix(1 0 0 -1 -101 -537.5)" gradientUnits="userSpaceOnUse" x1="308.349" x2="296.258" y1="-630.825" y2="-642.916"><stop offset=".5" stop-color="#2d2400"/><stop offset=".875" stop-color="#211700"/></linearGradient><linearGradient id="d" gradientTransform="matrix(1 0 0 -1 -101 -537.5)" gradientUnits="userSpaceOnUse" x1="230.289" x2="251.714" y1="-562.785" y2="-584.21"><stop offset="0" stop-color="#fff"/><stop offset="1" stop-color="#666"/></linearGradient><linearGradient id="e" gradientTransform="matrix(1 0 0 -1 -101 -537.5)" gradientUnits="userSpaceOnUse" x1="217.045" x2="264.76" y1="-597.449" y2="-549.734"><stop offset="0" stop-color="#0a0a0a"/><stop offset=".5" stop-color="#0f0f0f"/><stop offset="1" stop-color="#1a1a1a"/></linearGradient><linearGradient id="f" gradientTransform="matrix(1 0 0 -1 -101 -537.5)" gradientUnits="userSpaceOnUse" x1="206.455" x2="227.879" y1="-586.62" y2="-608.044"><stop offset="0" stop-color="#999"/><stop offset="1" stop-color="#1a1a1a"/></linearGradient><linearGradient id="g" gradientTransform="matrix(1 0 0 -1 -101 -537.5)" gradientUnits="userSpaceOnUse" x1="254.121" x2="275.544" y1="-538.953" y2="-560.376"><stop offset="0" stop-color="#ccc"/><stop offset="1" stop-color="#333"/></linearGradient><linearGradient id="h" gradientTransform="matrix(1 0 0 -1 -101 -537.5)" gradientUnits="userSpaceOnUse" x1="314.633" x2="360.704" y1="-572.832" y2="-572.832"><stop offset=".125" stop-color="#cdcdcb"/><stop offset=".875" stop-color="#a09ea1"/></linearGradient><path d="m257.2 153.3c-5.6 5.6-11.4 8.2-13.6 5.9-.8-.8 0 0 0 0-.4-.4-14.9-16.4-31.5-33-15-15-32.5-30.1-43.3-40.9s-28.8-31-28.8-31l-1.2-1.4 8.7-9.5 9.3-8.6 1.4 1.2s20.2 18 31 28.8 26 28.4 40.9 43.3c16.5 16.5 32.4 30.9 33.1 31.6 2 2-.1 7.7-6 13.6z"/><path d="m187.8 66.3c-10.7-10.7-30.9-28.7-30.9-28.7l-8 7.4-7.4 8s18 20.2 28.7 30.9 28.3 25.9 43.3 41c16.5 16.5 31.2 32.7 31.4 33 .3.3 3.4 1.6 10.8-5.9 7.5-7.5 6.2-10.6 6-10.7-.2-.2-16.5-15-33-31.5-15-15.3-30.2-32.8-40.9-43.5z" fill="url(#a)"/><path d="m254.3 153.3c-.5-.1-1.1-.5-1.7-1.2-.8-.8-16.1-16.4-32.6-32.9-6.1-6.1-18.3-17.3-20-18.8-3-2.6-2.7-5.3-1.1-7.8 1.6-2.6 5.5-5.8 8.1-6.1-2.5-2.7-5-5.4-7.4-8-7.2 4-15.5 8.8-16.7 7.6-5.8-5.8-20.4-20.4-26.6-26.5-2.7-2.7-2.3-5.6-.8-8.5 1.7-3.1 6-6.6 8.5-7.3-4.2-3.8-7-6.3-7-6.3l-8 7.4-7.4 8s18 20.2 28.7 30.9 28.3 25.9 43.3 41c16.5 16.5 31.2 32.7 31.4 33 .2.2 2.9 1.3 9.3-4.5z" fill="url(#b)"/><path d="m225.1 112.3s-2.1-2.5-4.6-5-5.2-5-5.2-5 3 3.4 4.6 5.1c1.6 1.5 5.2 4.9 5.2 4.9zm-37.8-39.3-6.2-6.2s3.6 4.6 5.7 6.7c2.2 2.2 2.9 1.9.5-.5zm-5.3 9.4c-3.8-3.8-9.9-9.6-19.9-19.5-7.7-7.7-13.8-13.4-15.7-15.2l-.4.5c2.7 2.6 14.1 13.5 20.4 19.8 7.1 7.1 19.3 18.5 22.5 21.1s9.4 8 14.2 12.8c4.7 4.7 9.7 9.1 9.7 9.1s-8.1-8.3-11.7-11.9-14.7-12.3-19.1-16.7zm-2.4-16.8-12.5-12.5-13-13c1.5 1.7 7.4 8.2 12.6 13.5 6.1 6.1 12.9 12 12.9 12zm-15.2-9c1 1 3.7 3.6 5.7 5.6s6.2 6.5 7.2 7.5c4.1 4.1 7 6.7 11.9 11.6s16.9 17.4 19.3 19.8c4.1 4.1 9.7 9.9 12.5 12.8 2.9 2.9 9.3 9.1 12.6 12.3 3.3 3.3 7.6 7.5 10.5 10.4s10.8 9.6 10.8 9.6-12.5-12.3-17-16.8-10.1-9.5-12.9-12.3c-3.9-3.9-10.2-10.7-13.5-14s-4.3-3.9-5-4.6-7.5-7.9-9.4-9.7c-1.8-1.8-17.8-18-20.7-21-2.9-2.9-6-6-7.3-7.2-1.2-1.2-3.4-3.8-4.7-5.1s-3.6-3.3-5.1-4.9c-1.5-1.5-5.5-5.4-8-7.9l-.9.8c4.3 4.2 6.9 5.9 8.6 7.6 1.6 1.8 4.4 4.5 5.4 5.5zm9.7 16.8c3 3 15.7 14.5 15.7 14.5s-8.7-8.3-13.1-12.7-9.8-10-15.1-15.3c-4.4-4.4-11.5-11.6-13.8-13.9l-.7.7c3 2.8 12.7 12 15.5 14.9 3.5 3.3 8.4 8.7 11.5 11.8zm64.4 59.4c-3.1-3.1-6.3-5.9-9-8.7-2.8-2.8-10.8-11.1-10.8-11.1s8.2 9.3 11.2 12.3 5.2 4.5 8.8 8.1 9.1 9.3 11.2 11.4c1.7 1.7 5.6 4.8 7 5.9l.4-.4c-1.8-1.6-7.5-6.5-10-9-3-2.9-5.7-5.3-8.8-8.5zm10.8 3.2-8.6-8.6-5.3-4.4s2.9 3.1 3.7 3.9 5.2 4.4 8.4 7.7c2.8 2.8 10.3 10.4 12.4 12.5.3-.4.5-.8.7-1.1-2.1-1.8-9.6-8.4-11.3-10zm-78.4-70.2c-3.4-3.5-7.6-8.1-9.1-9.6-3.4-3.4-10.1-9.2-12.5-11.6l-.4.4-.1.1c2.5 2.4 9.8 9.3 14.4 13.9 3 2.9 7.7 6.8 7.7 6.8zm-2.8-1.4c3.7 3.7 31.2 30.6 34.7 34.1s7.5 7.9 9.6 9.9c2.1 2.1 7.8 8 7.8 8s-7.7-8.7-12.2-13.2-15.4-15.8-20.5-20.9c-3.7-3.6-19.4-17.9-19.4-17.9z" fill="#6b5600"/><path d="m212.6 120c-5.1-5.1-14.9-14.4-19.2-18.7-.7-.7-9.3-9.2-11.2-11-1.8-1.8-17.8-16.3-20.7-19.2s-6.3-6.9-7.5-8.2c-1.2-1.2-3.6-4-4.9-5.3s-3.4-3.5-4.9-5.1c-.5-.5-.9-.8-1.2-.9l-.2.2c.1.2.4.7 1 1.3 1.7 1.7 3.9 4.4 4.9 5.4s4.3 4.2 6.3 6.2 5.8 6.3 6.8 7.3c4.1 4.1 7.4 6.3 12.3 11.2s16.5 16.6 18.9 19c4.1 4.1 10 9.2 12.9 12 2.9 2.9 9.3 9.7 12.6 12.9 3.3 3.3 7.6 7.8 10.5 10.7s10.8 10.3 10.8 10.3c-12-12.2-11.6-12.6-15.8-16.8-4.5-4.6-8.6-8.5-11.4-11.3zm26.6 21.4c-4.1-4.1-7.2-7.4-11.5-11.7s-9.2-8.9-13-12.7-14.8-14.4-14.8-14.4 10.9 11.4 15 15.5c4.2 4.1 7.5 7.5 12.4 12.4 5 4.9 12.4 12.7 15.4 15.6 2.5 2.5 9.5 8.8 9.5 8.8l1.1-.9c.1.1-7.9-6.5-14.1-12.6zm-82.4-77.7c3.6 3.8 26.1 24.6 29.3 28 3.2 3.5 17.8 17 17.8 17s-9.8-9.7-14.5-14.7-22.5-20.6-28.1-26.6-15.4-15.8-15.4-15.8l-.9.7s8.3 7.6 11.8 11.4zm89.5 90.6c-2.7-2.9-5.4-5.1-5.4-5.1s3.2 4.2 4.7 5.5c1 .9 2.1 2 2.8 2.7.3-.1.6-.2.9-.4-.6-.4-1.6-1.2-3-2.7zm-58.9-68.7s-.1 0 0 0c1.4 1.4 2.4 2.3 2.4 2.3s-.9-.9-2.4-2.3zm10.3 11.2c0-.3-.1-.5 0-.8-3.4-2.9-8-6.7-11.7-9.9-.2 0-.3.1-.5.1 1.4 1.3 2.5 2.3 3.2 2.8 2.2 1.8 5.6 4.7 9 7.8zm.7-3.4c-3.1-3.1-6.2-6.3-8.7-8.8-.3.1-.5.2-.7.3 3.4 3.4 6.7 6.5 9.2 9 0-.1.1-.3.2-.5zm-38.3-47.3-5.9-5.9c.8.9 3 3.3 5.6 6.2.1-.2.2-.3.3-.3zm39.5 45.4c-1.1-1.1-2-2.1-2.5-2.6-.6-.6-2.6-2.7-5.3-5.3-.1.1-.2.1-.3.2 2.3 2.3 5.1 5.2 7.9 8.1 0-.2.1-.3.2-.4zm-44.9-38.6c-2.8-2.9-5.5-5.5-6.7-6.8-.2.3-.4.5-.6.8 1.4 1.4 4.2 4 7.1 6.8 0-.3.1-.6.2-.8zm2.5-4.2c-1.8-1.8-4.3-4.2-6-5.9l-.8.8c2.8 2.7 4.8 4.4 6.4 5.7.1-.2.2-.4.4-.6zm-2.9 6.4c-3.7-3.5-6.4-6.1-7.7-7.3-.2.2-.3.4-.4.5 1.4 1.4 4.6 4.4 8.2 7.8-.1-.2-.1-.6-.1-1zm1.2-3.9c.1-.2.3-.4.4-.6-2.6-2.4-5.2-4.7-6.5-6l-.3.3-.2.2c1.3 1.2 3.8 3.6 6.5 6.2 0-.1 0-.1.1-.1z" fill="url(#c)"/><path d="m155.5 0s4.2 3 10.9 9.7 9.7 10.9 9.7 10.9v3.7l-47.8 47.7h-3.7s-5.6-4.4-10.9-9.7c-6.7-6.7-9.7-10.9-9.7-10.9v-3.7l47.7-47.7z"/><path d="m154.8 2h-2.3l-46.5 46.6v2.3s2.5 3.5 9.1 10.1 10.1 9.1 10.1 9.1h2.3l46.5-46.7v-2.3s-2.5-3.5-9.1-10.1c-6.6-6.5-10.1-9-10.1-9z" fill="url(#d)"/><path d="m154.8 2h-2.3l-46.5 46.6v2.3s2.5 3.5 9.1 10.1 10.1 9.1 10.1 9.1h2.3l46.5-46.7v-2.3s-2.5-3.5-9.1-10.1c-6.6-6.5-10.1-9-10.1-9z" fill="url(#d)"/><path d="m172.3 22.8s-13.1 13.9-22.3 23.2c-9.2 9.2-23.2 22.3-23.2 22.3s-5.1-2.7-10.8-8.3c-5.7-5.7-8.3-10.8-8.3-10.8s13.1-13.9 22.3-23.2c9.2-9.2 23.2-22.3 23.2-22.3s4.9 2.9 10.6 8.5c5.6 5.7 8.5 10.6 8.5 10.6z" fill="url(#e)"/><path d="m126.8 68.3s-5.1-2.7-10.8-8.3c-5.7-5.7-8.3-10.8-8.3-10.8l-1.7-.6v2.3s2.5 3.5 9.1 10.1 10.1 9.1 10.1 9.1h2.3z" fill="url(#f)"/><path d="m174 23.4v-2.3s-2.5-3.5-9.1-10.1c-6.6-6.5-10.1-9-10.1-9h-2.3l.6 1.7s4.9 2.9 10.6 8.5c5.7 5.7 8.5 10.6 8.5 10.6z" fill="url(#g)"/><path d="m137.5 37.7-.5.5-.4-.4 1.5-1.5.4.4-.5.5 2.8 2.8-.5.5zm2.8-.6-2.2-.9.5-.5 1.3.6-.6-1.3.5-.5.9 2.2 2.4 1-.5.5-1.5-.7.7 1.5-.5.5zm-.2-2.9.7-.7c.3-.3.5-.4.8-.4s.6.2 1 .6c.3.3.5.5.5.8.1.3 0 .7-.3 1l-.2.2 1.3 1.3-.5.5zm2 1 .2-.2c.4-.4.2-.6-.2-.9-.3-.3-.6-.6-.9-.2l-.2.2z" fill="#494949"/><g fill="#191919"><path d="m137.5 37.3-.5.5-.4-.4 1.5-1.6.4.4-.5.5 2.8 2.8-.5.5z"/><path d="m140.3 36.7-2.2-.9.5-.5 1.3.6-.6-1.3.5-.5.9 2.2 2.4 1-.5.5-1.5-.7.7 1.5-.5.5zm-.2-2.9.7-.7c.3-.3.5-.4.8-.4s.6.2 1 .6c.3.3.5.5.5.8.1.3 0 .7-.3 1l-.2.2 1.3 1.3-.5.5zm2 1 .2-.2c.4-.4.2-.6-.2-.9-.3-.3-.6-.6-.9-.2l-.2.2z"/></g><path d="m137.5 37.5-.5.5-.4-.4 1.4-1.6.4.4-.5.5 2.8 2.8-.5.5zm2.8-.6-2.2-.9.5-.5 1.4.5-.6-1.3.5-.5.9 2.2 2.4 1-.5.5-1.5-.7.7 1.5-.5.5zm-.2-2.9.7-.7c.3-.3.5-.4.8-.4s.6.2 1 .6c.3.3.5.5.5.8.1.3 0 .7-.3 1l-.2.2 1.3 1.3-.5.5zm2 1 .2-.2c.4-.4.2-.6-.2-.9-.3-.3-.6-.6-.9-.2l-.2.2z" fill="#2d2d2d"/><path d="m119.9 151.6c-4.4-4.4-7.9-9.9-7.9-9.9l4.3-4.3s4.5-1.2 7.3-4l88.9-88.9c5.7-5.7 11.6-18.1 11.6-18.1l15.6-15.6 4.1-2.8 20.2 20.2-2.8 4.1-15.6 15.6s-12.5 5.9-18.1 11.6l-88.9 88.9c-2.7 2.7-4 7.3-4 7.3l-4.3 4.3s-6-3.9-10.4-8.4z"/><path d="m241 12.3-15.1 15.1s-3.6 15.6-9.3 21.3l-3 3 6.7 6.7 3-3c5.7-5.7 21.3-9.3 21.3-9.3l15.1-15.1z" fill="url(#h)"/><path d="m220.3 58.4 2.7 2.7 3-3c5.7-5.7 18.6-12 18.6-12s-15.6 3.5-21.3 9.3z" fill="#616161"/><path d="m210.9 48.9 2.7 2.7 3-3c5.7-5.7 9.3-21.3 9.3-21.3s-6.3 12.8-12 18.6z" fill="#ebe9e9"/><path d="m213.8 51.5-86.1 86.1c-3.3 3.3-7.1 4.9-7.1 4.9l8.9 8.9s1.6-3.8 4.9-7.1l86.1-86.1z" fill="#fc3"/><path d="m114.6 142s3.7 5.2 6.7 8.3c3 3 8.7 7.2 8.7 7.2z" fill="#bfbfbf"/><path d="m259.7 31 1.7-2.5-17.9-17.9-2.5 1.7" fill="#ebe9e9"/><path d="m134.9 135.6-.4.4-.3-.3 1.2-1.2.3.3-.4.4 2.1 2.1-.4.4zm.8-1.4 1.1-1.1.3.3-.7.7.7.7.6-.6.3.3-.6.6.7.7.7-.7.4.4-1.1 1.1zm3-.7-1.6-.7.4-.4 1 .5-.5-1 .4-.4.7 1.7 1.8.8-.4.4-1.1-.5.5 1.1-.4.4zm.6-2.3-.4.4-.3-.3 1.2-1.2.3.3-.4.4 2.1 2.1-.4.4zm.8-1.5.5-.5c.2-.2.4-.3.6-.3s.4.1.7.4c.2.2.3.4.4.6.1.3 0 .5-.3.8l-.2.2 1 1-.4.4zm1.6.9.2-.2c.3-.3.1-.5-.1-.7s-.4-.4-.7-.1l-.2.2zm.3-2.7.3-.3 3 1.9-.4.4-.6-.4-.5.5.4.6-.4.4zm.9.5.7 1.1.4-.4zm.7-1.5-.4.4-.3-.3 1.2-1.2.3.3-.4.4 2.1 2.1-.4.4zm1.4-1.3-.4.4-.3-.3 1.2-1.2.3.3-.4.4 2.1 2.1-.4.4zm.8-1.5 1.1-1.1.3.3-.7.7.7.7.6-.6.3.3-.6.6.7.7.7-.7.4.4-1.1 1.1zm1.5-1.5.6-.6c.4-.4.9-.4 1.4.1.3.3.4.6.3.9l1.5.7-.4.4-1.4-.7-.2.2 1.1 1.1-.4.4zm1.4.7.2-.2c.2-.2.1-.4-.1-.7-.3-.2-.4-.3-.7-.1l-.2.2zm.3-2.4.3-.3 2 1-1.5-1.5.4-.4 2.5 2.5-.3.3-2-.9 1.5 1.5-.4.4z" fill="#ba9c0a"/><path d="m134.9 135.9-.4.4-.3-.3 1.2-1.2.3.3-.4.4 2.1 2.1-.4.4zm.8-1.4 1.1-1.1.3.3-.7.7.7.7.6-.6.3.3-.6.6.7.7.7-.7.4.4-1.1 1.1zm3-.7-1.6-.7.4-.4 1 .5-.5-1 .4-.4.7 1.7 1.8.8-.4.4-1.1-.5.5 1.1-.4.4zm.6-2.3-.4.4-.3-.3 1.2-1.2.3.3-.4.4 2.1 2.1-.4.4zm.8-1.4.5-.5c.2-.2.4-.3.6-.3s.4.1.7.4c.2.2.3.4.4.6.1.3 0 .5-.3.8l-.2.2 1 1-.4.4zm1.6.8.2-.2c.3-.3.1-.5-.1-.7s-.4-.4-.7-.1l-.2.2zm.3-2.7.3-.3 3 1.9-.4.4-.6-.4-.5.5.4.6-.4.4zm.9.5.7 1.1.4-.4zm.7-1.5-.4.4-.3-.3 1.2-1.2.3.3-.4.4 2.1 2.1-.4.4zm1.4-1.3-.4.4-.3-.3 1.2-1.2.3.3-.4.4 2.1 2.1-.4.4zm.8-1.5 1.1-1.1.3.3-.7.7.7.7.6-.6.3.3-.6.6.7.7.7-.7.4.4-1.1 1.1zm1.5-1.5.6-.6c.4-.4.9-.4 1.4.1.3.3.4.6.3.9l1.5.7-.4.4-1.4-.7-.3.3 1.1 1.1-.4.4zm1.4.8.2-.2c.2-.2.1-.4-.1-.7-.3-.2-.4-.3-.7-.1l-.2.2zm.3-2.5.3-.3 2 1-1.5-1.5.4-.4 2.5 2.5-.3.3-2-.9 1.5 1.5-.4.4z" fill="#ecd74c"/><path d="m134.9 135.8-.4.4-.3-.3 1.2-1.2.3.3-.4.4 2.1 2.1-.4.4zm.8-1.5 1.1-1.1.3.3-.7.7.7.7.6-.6.3.3-.6.6.7.7.7-.7.4.4-1.1 1.1zm3-.6-1.6-.7.4-.4 1 .5-.5-1 .4-.4.7 1.6 1.8.8-.4.4-1.1-.5.5 1.1-.4.4zm.6-2.3-.4.4-.3-.3 1.2-1.2.3.3-.4.4 2.1 2.1-.4.4zm.8-1.5.5-.5c.2-.2.4-.3.6-.3s.4.1.7.4c.2.2.3.4.4.6.1.3 0 .5-.3.8l-.2.2 1 1-.4.4zm1.6.8.2-.2c.3-.3.1-.5-.1-.7s-.4-.4-.7-.1l-.2.2zm.3-2.7.3-.3 3 1.9-.3.4-.6-.4-.5.5.4.6-.4.4zm.9.6.7 1.1.4-.4zm.7-1.5-.4.4-.3-.3 1.2-1.2.3.3-.4.4 2.1 2.1-.4.4zm1.4-1.4-.4.4-.3-.3 1.2-1.2.3.3-.4.4 2.1 2.1-.4.4zm.8-1.4 1.1-1.1.3.3-.7.7.7.7.6-.6.3.3-.6.6.7.7.7-.7.4.4-1.1 1.1zm1.5-1.5.6-.6c.4-.4.9-.4 1.4.1.3.3.4.6.3.9l1.5.8-.4.4-1.4-.7-.2.2 1.1 1.1-.4.4zm1.4.7.2-.2c.2-.2.1-.4-.1-.7-.3-.2-.4-.3-.7-.1l-.2.2zm.3-2.4.3-.3 2 1-1.5-1.5.4-.4 2.5 2.5-.3.3-2-.9 1.5 1.5-.4.4z" fill="#fcc332"/><path d="m126.78 154.16 2.758-2.756 3.252 3.254-2.76 2.756z" fill="#3d2812"/><path d="m117.903 145.245-3.25-3.254 2.758-2.756 3.252 3.255z" fill="#e2d9ac"/><path d="m129.495 151.434-2.76 2.757-8.836-8.84 2.757-2.756z" fill="#fcc332"/><path d="m223.2 60.9-2.7-2.7-86.1 86.1c-3.3 3.3-4.9 7.1-4.9 7.1l3.3 3.3s1.1-4.4 4.4-7.6z" fill="#473015"/><path d="m211.1 48.8-86.1 86.1c-3.3 3.3-7.6 4.4-7.6 4.4l3.3 3.3s3.8-1.6 7.1-4.9l86.1-86.1z" fill="#ede5b2"/><path d="m42.6 189.9c.1-1 .3-2 .3-3.2l.2-3.5c.1-1.2.1-2.4.2-3.5 0-1.1.1-2.2.1-3.1v-.5l-43.4-.1v1c0 .9 0 1.5.1 2.7 0 1.2.1 2.3.2 3.5s.2 2.4.3 3.5c.1 1.2.2 2.2.4 3.1l.1.4h2.6l3.9-9.7h10.3v39.8c-1.1.2-2.2.4-3.2.6-1.1.3-2.2.6-3.3 1l-.3.1v2.8h21.5v-2.8l-.3-.1c-1-.4-2.1-.7-3.3-1-1-.2-2-.4-3.1-.6v-39.9h10.1l3.8 9.7h2.7zm26.6 1.7c-1.3-1-2.9-1.8-4.6-2.2s-3.4-.7-5.2-.7c-5.4 0-9.6 1.6-12.6 4.7-2.9 3.1-4.4 7.7-4.4 13.6 0 2.8.4 5.3 1.2 7.5s1.9 4.2 3.4 5.8 3.4 2.9 5.7 3.7c2.2.9 4.9 1.3 7.8 1.3 1.3 0 2.7-.2 4-.5s2.5-.7 3.6-1.2 2.1-1.1 3-1.8 1.5-1.5 2-2.3l.2-.3-1.6-1.7-.4.3c-.8.7-2.1 1.2-3.7 1.7-1.7.4-3.4.7-5.1.7-2 0-3.8-.3-5.3-1s-2.7-1.6-3.7-2.7c-1-1.2-1.7-2.6-2.2-4.1-.4-1.5-.7-3-.7-4.7h22.7l.1-.4c.2-.9.3-1.8.4-2.6s.1-1.6.1-2.4c0-2.5-.4-4.6-1.3-6.4-.9-1.9-2-3.3-3.4-4.3zm-10 1.1c2.3 0 4 .8 5.1 2.4s1.7 3.9 1.7 6.6v1.1c0 .2 0 .5-.1.7h-15.2c.3-4 1.1-6.8 2.5-8.4s3.3-2.4 6-2.4zm51.7 28.7c-.6-.2-1.2-.5-1.9-.7l-11.2-14.4 9.7-11.9c1.8-.5 3.1-1 4.1-1.6l.2-.1v-2.5h-13.2v2.5l.2.1c.7.5 1.8 1 3.1 1.5l-6.6 9.1-6.8-9.1c.4-.2.9-.3 1.3-.5.6-.3 1.2-.6 1.7-1l.2-.1v-2.5h-15.6v2.5l.2.1c.6.4 1.2.7 1.8.9.5.2 1.1.5 1.8.7l10.6 13.3-10.5 13c-1.3.3-2.7.9-4.1 1.6l-.3.1v2.5h13.5v-2.5l-.3-.1-1.8-.9c-.4-.2-.8-.4-1.3-.5l7.4-10 7.3 10c-.4.1-.8.3-1.2.5-.6.3-1.2.6-1.9 1l-.3.1v2.4h16v-2.5l-.2-.1c-.5-.3-1.2-.6-1.9-.9zm27.9-2.2c-.9.3-2 .5-3.2.6-1.3.1-2.4.2-3.2.2-1.7 0-2.9-.5-3.8-1.5-.8-1-1.3-2.9-1.3-5.4v-19.1h11v-4.5h-11v-8.9h-2.5c-.8.4-1.7.7-2.5 1.1-.9.4-1.7.9-2.3 1.4l-.2.1v5.6c-1.9.5-3.8 1.3-5.6 2.4l-.2.1v2.6h5.8v21c0 3.5.8 6.2 2.4 7.8s4 2.4 7 2.4c1.2 0 2.3-.1 3.4-.4s2.1-.6 3-1 1.8-.9 2.5-1.3c.7-.5 1.3-.9 1.7-1.4l.2-.3-.9-1.7zm26.2-30.5c-2.9 0-5.3.7-7.2 2.2-1.3 1-2.5 2.4-3.4 3.9v-6.1h-2.4c-1.6.2-3.2.5-4.8.9-1.7.4-3.3.9-4.9 1.5l-.3.1v2.5l4.8.5v39.4c-1.5.4-3 .9-4.5 1.6l-.3.1v2.5h17.2v-2.5l-.3-.1c-.9-.5-1.8-.9-2.6-1.2-.7-.2-1.3-.4-2-.5v-9.6c1 .4 1.9.6 2.8.8 1 .2 2.5.3 4.3.3 2.6 0 5.1-.4 7.2-1.3 2.2-.9 4-2.2 5.6-3.8 1.5-1.6 2.7-3.6 3.5-6s1.2-5 1.2-7.9c0-6.1-1.2-10.6-3.7-13.4-2.2-2.5-5.7-3.9-10.2-3.9zm6.2 17.5c0 2.2-.2 4.3-.7 6.1s-1.2 3.4-2 4.8c-.9 1.3-1.9 2.4-3.1 3.1s-2.6 1.1-4.1 1.1c-1.7 0-3.1-.1-4.2-.4-.9-.2-1.8-.5-2.6-.9v-18.6c.6-2.3 1.5-4.2 2.8-5.5s3.1-2 5.3-2c1.6 0 2.9.3 4 .9s1.9 1.4 2.6 2.5 1.2 2.4 1.5 3.9.5 3.2.5 5zm41 11.4c0-.7-.1-1.6-.1-2.5 0-2.3.1-4.7.2-7.2s.2-5.2.2-7.9c0-1.3-.1-2.6-.4-3.9s-.8-2.6-1.6-3.7-2-2-3.6-2.7c-1.5-.7-3.6-1-6.2-1-2.8 0-5.4.3-7.7.9s-4.4 1.4-6.3 2.5l-.3.2v.3c.1 1.4.3 2.9.7 4.4s.8 2.9 1.3 4.3l.1.3h2.6l3.5-8.2c.7-.3 1.4-.4 2.2-.5s1.6-.1 2.3-.1c1.3 0 2.4.3 3.3.8s1.4 1.3 1.9 2.4c.4 1.1.7 2.3.8 3.8.1 1.4 0 3-.1 4.8-3.2.2-6.1.4-8.6.8-2.6.3-4.8.9-6.6 1.7s-3.2 1.9-4.2 3.3-1.4 3.2-1.4 5.4c0 2.9 1 5.2 3 7s4.5 2.6 7.6 2.6c1.6 0 3.1-.2 4.3-.7 1.3-.5 2.4-1.1 3.3-1.8.9-.8 1.7-1.6 2.3-2.6.2-.4.5-.8.6-1.2 0 .8.1 1.6.1 2.4.1 1.3.4 2.5.9 3.6l.1.3h2.2c1.4-.2 2.8-.6 4.3-1 1.5-.5 2.9-1 4.1-1.6l.3-.1v-2.2l-5.1-.7c.1-1 0-1.6 0-2.2zm-9.5.3c-.6.6-1.3 1.1-2.2 1.5s-1.9.6-3 .6c-1.7 0-3-.5-4-1.5s-1.5-2.4-1.5-4.2c0-1.1.2-2 .5-2.8s1-1.4 1.9-2c1-.6 2.3-1 4.1-1.2 1.7-.2 3.8-.4 6.4-.4v6.5c-.1.4-.4.9-.7 1.5-.4.8-.9 1.4-1.5 2zm41.4 1.3c-.9.3-2 .5-3.2.6-1.3.1-2.4.2-3.2.2-1.7 0-2.9-.5-3.8-1.5-.8-1-1.3-2.9-1.3-5.4v-19.1h11v-4.5h-11v-8.9h-2.5c-.8.4-1.7.7-2.5 1.1-.9.4-1.7.9-2.3 1.4l-.2.1v5.6c-1.9.5-3.8 1.3-5.6 2.4l-.2.1v2.6h5.8v21c0 3.5.8 6.2 2.4 7.8s4 2.4 7 2.4c1.2 0 2.3-.1 3.4-.4s2.1-.6 3-1 1.8-.9 2.5-1.3c.7-.5 1.3-.9 1.7-1.4l.2-.3-.9-1.7zm27 0c-.9.3-2 .5-3.2.6-1.3.1-2.4.2-3.2.2-1.7 0-2.9-.5-3.8-1.5-.8-1-1.3-2.9-1.3-5.4v-19.1h11v-4.5h-11v-8.9h-2.5c-.8.4-1.7.7-2.5 1.1-.9.4-1.7.9-2.3 1.4l-.2.1v5.6c-1.9.5-3.8 1.3-5.6 2.4l-.2.1v2.6h5.8v21c0 3.5.8 6.2 2.4 7.8s4 2.4 7 2.4c1.2 0 2.3-.1 3.4-.4s2.1-.6 3-1 1.8-.9 2.5-1.3c.7-.5 1.3-.9 1.7-1.4l.2-.3-.9-1.7zm30.8-27.6c-1.3-1-2.9-1.8-4.6-2.2s-3.4-.7-5.2-.7c-5.4 0-9.6 1.6-12.6 4.7-2.9 3.1-4.4 7.7-4.4 13.6 0 2.8.4 5.3 1.2 7.5s1.9 4.2 3.4 5.8 3.4 2.9 5.7 3.7c2.2.9 4.9 1.3 7.8 1.3 1.3 0 2.7-.2 4-.5s2.5-.7 3.6-1.2 2.1-1.1 3-1.8 1.5-1.5 2-2.3l.2-.3-1.6-1.7-.4.3c-.8.7-2.1 1.2-3.7 1.7-1.7.4-3.4.7-5.1.7-2 0-3.8-.3-5.3-1s-2.7-1.6-3.7-2.7c-1-1.2-1.7-2.6-2.2-4.1-.4-1.5-.7-3-.7-4.7h22.7l.1-.4c.2-.9.3-1.8.4-2.6s.1-1.6.1-2.4c0-2.5-.4-4.6-1.3-6.4-1-1.9-2.1-3.3-3.4-4.3zm-10.1 1.1c2.3 0 4 .8 5.1 2.4s1.7 3.9 1.7 6.6v1.1c0 .2 0 .5-.1.7h-15.1c.3-4 1.1-6.8 2.5-8.4 1.3-1.6 3.3-2.4 5.9-2.4zm44.4-1.2c-.3-.7-.6-1.4-.9-2l-.1-.2h-.3c-1.4-.1-2.7 0-4 .4s-2.5 1-3.6 1.7-2 1.6-2.9 2.5c-.5.6-.9 1.1-1.3 1.7v-6.3h-2.4c-1.5.2-3.1.5-4.8.9s-3.3.9-4.9 1.6l-.3.1v2.5l4.8.5v25.8c-.7.2-1.3.3-2 .5-.8.2-1.7.6-2.6 1.1l-.3.1v2.5h18.4v-2.5l-.3-.1c-1-.5-2-.9-3-1.2-.8-.2-1.7-.4-2.5-.5v-19.6c.6-1.5 1.3-2.7 2-3.4s1.3-1.2 1.8-1.5h10v-2.5c-.2-.7-.5-1.4-.8-2.1zm43.6 30.9c-1.2-.7-2.8-1.3-4.6-1.6v-16.8c0-2.8-.3-5.2-.8-7.1-.6-1.9-1.4-3.4-2.5-4.6-1.1-1.1-2.4-2-4.1-2.4-1.6-.4-3.4-.7-5.4-.7-2.8 0-5.3.8-7.3 2.3-1.5 1.2-2.7 2.5-3.7 4v-6.3h-2.4c-1.8.3-3.6.7-5.2 1.1-1.7.4-3.2.9-4.4 1.4l-.3.1v2.6l4.8.5v25.8c-1.8.5-3.4 1-4.5 1.6l-.3.1v2.5h16.8v-2.5l-.2-.1c-1.3-.8-2.7-1.3-4.1-1.6v-19.3c.3-.9.8-1.7 1.3-2.6.6-.8 1.2-1.6 2-2.3s1.6-1.2 2.6-1.6 2.1-.6 3.2-.6c2.6 0 4.4.9 5.4 2.7 1 1.9 1.5 4.6 1.5 7.9v15.7c-1.4.4-2.8 1-4 1.6l-.3.1v2.5h16.7v-2.5z"/></svg>
