<svg height="34" viewBox="0 0 208 34" width="208" xmlns="http://www.w3.org/2000/svg" xmlns:xlink="http://www.w3.org/1999/xlink"><linearGradient id="a" gradientTransform="matrix(1 0 0 -1 -101 -22.5)" gradientUnits="userSpaceOnUse" x1="120.036" x2="123.772" y1="-45.273" y2="-41.537"><stop offset=".125" stop-color="#7b6c35"/><stop offset=".875" stop-color="#b9aa69"/></linearGradient><linearGradient id="b" gradientTransform="matrix(1 0 0 -1 -101 -22.5)" gradientUnits="userSpaceOnUse" x1="120.032" x2="123.706" y1="-45.27" y2="-41.596"><stop offset="0" stop-color="#2b2414"/><stop offset=".75" stop-color="#624e22"/></linearGradient><linearGradient id="c" gradientTransform="matrix(1 0 0 -1 -101 -22.5)" gradientUnits="userSpaceOnUse" x1="122.961" x2="120.392" y1="-42.33" y2="-44.898"><stop offset=".5" stop-color="#2d2400"/><stop offset=".875" stop-color="#211700"/></linearGradient><linearGradient id="d" gradientTransform="matrix(1 0 0 -1 -101 -22.5)" gradientUnits="userSpaceOnUse" x1="106.375" x2="110.927" y1="-27.872" y2="-32.424"><stop offset="0" stop-color="#fff"/><stop offset="1" stop-color="#666"/></linearGradient><linearGradient id="e" gradientTransform="matrix(1 0 0 -1 -101 -22.5)" gradientUnits="userSpaceOnUse" x1="103.56" x2="113.7" y1="-35.239" y2="-25.099"><stop offset="0" stop-color="#0a0a0a"/><stop offset=".5" stop-color="#0f0f0f"/><stop offset="1" stop-color="#1a1a1a"/></linearGradient><linearGradient id="f" gradientTransform="matrix(1 0 0 -1 -101 -22.5)" gradientUnits="userSpaceOnUse" x1="101.31" x2="105.862" y1="-32.936" y2="-37.488"><stop offset="0" stop-color="#999"/><stop offset="1" stop-color="#1a1a1a"/></linearGradient><linearGradient id="g" gradientTransform="matrix(1 0 0 -1 -101 -22.5)" gradientUnits="userSpaceOnUse" x1="111.439" x2="115.992" y1="-22.807" y2="-27.359"><stop offset="0" stop-color="#ccc"/><stop offset="1" stop-color="#333"/></linearGradient><linearGradient id="h" gradientTransform="matrix(1 0 0 -1 -101 -22.5)" gradientUnits="userSpaceOnUse" x1="124.297" x2="134.087" y1="-30.008" y2="-30.008"><stop offset=".125" stop-color="#cdcdcb"/><stop offset=".875" stop-color="#a09ea1"/></linearGradient><path d="m32.562 32.566c-1.183 1.183-2.415 1.74-2.898 1.256-.18-.18 0 0 0 0-.086-.086-3.175-3.493-6.685-7.004-3.18-3.18-6.907-6.405-9.204-8.702-2.295-2.295-6.11-6.58-6.115-6.583l-.255-.288 1.85-2.012 1.988-1.824.287.255c.004.003 4.29 3.82 6.584 6.113 2.298 2.297 5.52 6.025 8.7 9.206 3.51 3.51 6.88 6.558 7.033 6.71.412.414-.038 1.625-1.285 2.872z"/><path d="m17.812 14.08c-2.278-2.28-6.565-6.1-6.565-6.1l-1.705 1.567-1.564 1.703s3.82 4.288 6.098 6.565c2.278 2.278 6.01 5.51 9.204 8.702 3.51 3.512 6.628 6.95 6.683 7.004s.713.332 2.3-1.255c1.585-1.585 1.307-2.247 1.27-2.283-.037-.037-3.508-3.187-7.02-6.7-3.193-3.193-6.423-6.925-8.7-9.203z" fill="url(#a)"/><path d="m31.935 32.578c-.108-.014-.225-.104-.37-.246-.16-.162-3.425-3.48-6.937-6.99-1.304-1.305-3.883-3.682-4.243-4-.63-.555-.573-1.12-.24-1.666.34-.558 1.165-1.24 1.72-1.29-.537-.583-1.06-1.15-1.56-1.69-1.534.852-3.295 1.876-3.554 1.616-1.226-1.228-4.33-4.33-5.642-5.64-.577-.575-.5-1.194-.173-1.803.356-.667 1.267-1.397 1.808-1.543-.883-.8-1.495-1.345-1.495-1.345l-1.706 1.566-1.563 1.703s3.82 4.29 6.097 6.566c2.277 2.277 6.01 5.51 9.203 8.7 3.51 3.513 6.628 6.95 6.683 7.005.05.052.622.292 1.972-.942z" fill="url(#b)"/><path d="m25.725 23.86s-.44-.53-.968-1.06c-.528-.528-1.11-1.07-1.11-1.07s.644.73.987 1.073c.344.343 1.09 1.057 1.09 1.057zm-8.017-8.34-1.32-1.32s.757.968 1.215 1.426.607.395.105-.105zm-1.136 1.982c-.807-.807-2.112-2.042-4.22-4.148-1.63-1.632-2.934-2.85-3.342-3.228l-.095.104c.566.54 2.998 2.874 4.332 4.21 1.516 1.514 4.09 3.925 4.776 4.483.687.56 2.006 1.707 3.012 2.715 1.005 1.006 2.063 1.938 2.063 1.938s-1.72-1.77-2.48-2.53c-.756-.76-3.113-2.61-4.046-3.544zm-.503-3.564-2.65-2.65c-1.22-1.218-2.436-2.435-2.764-2.763l-.006.005c.325.363 1.566 1.75 2.682 2.864 1.293 1.294 2.737 2.544 2.737 2.544zm-3.245-1.91c.21.21.788.773 1.21 1.197.422.422 1.308 1.383 1.528 1.602.878.88 1.483 1.425 2.52 2.464 1.04 1.04 3.593 3.695 4.104 4.208.864.863 2.05 2.105 2.658 2.714.607.608 1.98 1.923 2.676 2.62.696.694 1.62 1.587 2.236 2.202.616.618 2.285 2.032 2.285 2.032s-2.654-2.615-3.603-3.566c-.95-.95-2.157-2.02-2.747-2.61-.822-.822-2.173-2.27-2.87-2.968-.695-.694-.906-.82-1.056-.97-.148-.148-1.602-1.672-1.99-2.06-.385-.385-3.775-3.83-4.4-4.454-.624-.625-1.284-1.267-1.548-1.53-.264-.265-.723-.81-1.004-1.093-.282-.28-.758-.703-1.092-1.038-.316-.316-1.176-1.144-1.707-1.672l-.183.17c.906.887 1.473 1.264 1.818 1.608.362.36.956.932 1.167 1.145zm2.067 3.565c.646.646 3.345 3.08 3.345 3.08s-1.846-1.76-2.78-2.694-2.082-2.133-3.2-3.25c-.93-.933-2.45-2.467-2.926-2.95l-.14.15c.63.598 2.69 2.557 3.29 3.157.71.71 1.765 1.86 2.412 2.506zm13.685 12.633c-.67-.67-1.33-1.255-1.92-1.846-.59-.588-2.288-2.36-2.288-2.36s1.733 1.98 2.375 2.623c.643.642 1.1.957 1.866 1.724.767.767 1.924 1.972 2.382 2.43.37.37 1.184 1.014 1.483 1.248.027-.03.056-.058.082-.086-.38-.333-1.584-1.39-2.116-1.92-.63-.637-1.195-1.146-1.863-1.814zm2.306.67-1.83-1.836c-.248-.245-1.132-.937-1.132-.937s.612.668.78.835c.167.168 1.1.94 1.796 1.638.598.597 2.192 2.218 2.63 2.663.058-.084.11-.16.15-.235-.45-.393-2.04-1.776-2.393-2.13zm-16.672-14.923c-.728-.747-1.612-1.73-1.926-2.045-.723-.722-2.146-1.958-2.656-2.462l-.086.08-.01.013c.52.505 2.08 1.976 3.06 2.954.632.632 1.62 1.46 1.62 1.46zm-.593-.286c.794.79 6.625 6.5 7.373 7.247.748.75 1.602 1.674 2.042 2.115.44.44 1.654 1.69 1.654 1.69s-1.637-1.85-2.587-2.8c-.95-.952-3.28-3.357-4.353-4.432-.788-.786-4.13-3.82-4.13-3.82z" fill="#6b5600"/><path d="m23.083 25.506c-1.08-1.08-3.173-3.06-4.083-3.97-.15-.148-1.986-1.946-2.374-2.334-.387-.388-3.772-3.46-4.397-4.085s-1.33-1.476-1.594-1.74c-.264-.265-.764-.852-1.045-1.134-.28-.282-.713-.747-1.048-1.08-.115-.115-.2-.18-.25-.202l-.04.037c.023.053.092.143.22.27.36.362.827.935 1.038 1.146.21.21.916.9 1.338 1.324.423.422 1.223 1.34 1.442 1.56.88.88 1.568 1.34 2.607 2.38 1.04 1.04 3.51 3.518 4.02 4.03.865.862 2.134 1.944 2.74 2.552.608.606 1.98 2.05 2.676 2.744.696.696 1.616 1.65 2.232 2.266.616.617 2.29 2.183 2.29 2.183-2.554-2.603-2.474-2.68-3.363-3.567-.95-.953-1.82-1.79-2.41-2.38zm5.656 4.54c-.87-.87-1.52-1.563-2.44-2.478-.92-.913-1.955-1.888-2.766-2.694-.812-.806-3.148-3.054-3.148-3.054s2.307 2.418 3.19 3.295c.884.878 1.592 1.6 2.646 2.646 1.054 1.05 2.646 2.697 3.275 3.32.53.53 2.01 1.865 2.01 1.865l.235-.193s-1.7-1.405-3.003-2.706zm-17.514-16.503c.756.81 5.537 5.22 6.225 5.957.69.735 3.774 3.61 3.774 3.61s-2.083-2.073-3.076-3.14c-.995-1.064-4.782-4.376-5.97-5.65-1.19-1.272-3.28-3.346-3.28-3.346l-.187.146s1.76 1.613 2.516 2.423zm19.016 19.25c-.578-.612-1.155-1.088-1.155-1.088s.68.883 1.002 1.172c.212.19.454.434.595.576.057-.024.117-.053.18-.086-.126-.092-.327-.26-.623-.574zm-12.516-14.608-.02.007.53.482-.51-.49zm2.192 2.385c-.01-.058-.012-.117-.01-.175-.716-.62-1.698-1.427-2.477-2.106-.032.01-.065.02-.097.028.3.27.542.482.69.604.45.366 1.168.984 1.894 1.648zm.133-.716c-.65-.665-1.316-1.345-1.84-1.878-.055.024-.106.048-.16.07l1.953 1.916c.015-.036.03-.072.047-.108zm-8.132-10.067c-.6-.6-1.076-1.075-1.262-1.263l-.006.005c.18.2.637.71 1.195 1.312l.073-.055zm8.392 9.656c-.228-.235-.425-.44-.536-.55-.124-.124-.56-.567-1.117-1.13l-.072.033c.484.492 1.09 1.117 1.673 1.718l.052-.07zm-9.536-8.204c-.602-.61-1.16-1.174-1.426-1.445-.045.057-.088.11-.128.163.305.29.898.853 1.51 1.437.01-.053.027-.105.044-.156zm.527-.884c-.39-.384-.91-.886-1.277-1.25l-.178.164-.005.004c.584.572 1.026.93 1.36 1.207.033-.04.064-.082.1-.124zm-.614 1.358c-.777-.75-1.354-1.288-1.63-1.544-.03.043-.06.08-.083.113.303.29.97.932 1.732 1.667-.015-.077-.02-.157-.02-.236zm.248-.845c.022-.044.053-.087.08-.13-.558-.507-1.107-1-1.385-1.272l-.06.053-.034.044c.267.258.8.764 1.388 1.326l.01-.02z" fill="url(#c)"/><path d="m10.937 0s.892.63 2.312 2.05 2.05 2.312 2.05 2.312v.792l-10.145 10.144h-.792s-1.186-.925-2.31-2.05c-1.422-1.42-2.052-2.31-2.052-2.31v-.793l10.145-10.145z"/><path d="m10.803.426h-.48l-9.899 9.896v.48s.522.742 1.926 2.145c1.406 1.405 2.147 1.928 2.147 1.928h.48l9.898-9.897v-.48s-.522-.74-1.927-2.145c-1.404-1.406-2.145-1.927-2.145-1.927z" fill="url(#d)"/><path d="m10.803.426h-.48l-9.899 9.896v.48s.522.742 1.926 2.145c1.406 1.405 2.147 1.928 2.147 1.928h.48l9.898-9.897v-.48s-.522-.74-1.927-2.145c-1.404-1.406-2.145-1.927-2.145-1.927z" fill="url(#d)"/><path d="m14.51 4.848s-2.78 2.96-4.74 4.92-4.922 4.742-4.922 4.742-1.085-.566-2.288-1.77c-1.205-1.206-1.77-2.29-1.77-2.29s2.78-2.96 4.74-4.92 4.92-4.74 4.92-4.74 1.045.606 2.25 1.81 1.81 2.248 1.81 2.248z" fill="url(#e)"/><path d="m4.848 14.51s-1.085-.566-2.288-1.77c-1.205-1.206-1.77-2.29-1.77-2.29l-.365-.13v.48s.522.743 1.926 2.146c1.406 1.405 2.147 1.928 2.147 1.928h.48z" fill="url(#f)"/><path d="m14.875 4.977v-.48s-.522-.74-1.927-2.145c-1.404-1.404-2.145-1.926-2.145-1.926h-.48l.128.363s1.045.606 2.25 1.81 1.81 2.248 1.81 2.248l.365.13z" fill="url(#g)"/><path d="m7.112 8.008-.116.115-.093-.094.33-.33.092.094-.115.116.6.598-.1.098-.598-.598zm.605-.132-.46-.2.106-.105.28.13-.13-.28.105-.105.198.462.506.22-.105.106-.32-.148.148.32-.106.105-.223-.504zm-.042-.616.148-.15c.055-.053.108-.082.177-.08.07 0 .125.035.207.117.06.06.097.106.11.168.02.073.003.144-.07.216l-.05.053.27.27-.1.098-.692-.69zm.428.228.047-.047c.08-.08.034-.13-.036-.197-.065-.066-.118-.12-.196-.042l-.052.054.237.234z" fill="#494949"/><path d="m7.112 7.924-.116.114-.093-.093.33-.33.092.095-.115.114.6.6-.1.1zm.605-.134-.46-.2.106-.104.28.13-.13-.282.105-.104.198.462.506.22-.105.105-.32-.148.148.318-.106.106-.223-.503zm-.042-.616.148-.15c.055-.053.108-.08.177-.08s.125.036.208.118c.06.06.097.106.11.17.02.07.002.14-.07.214l-.05.05.27.272-.1.098zm.428.23.047-.05c.08-.078.034-.128-.036-.197-.065-.064-.12-.12-.196-.04l-.052.05z" fill="#191919"/><g fill="#2d2d2d"><path d="m7.112 7.966-.116.115-.093-.094.33-.328.092.094-.115.114.6.6-.1.098-.598-.598z"/><path d="m7.717 7.833-.46-.2.106-.104.28.13-.13-.283.105-.104.198.462.506.22-.105.106-.32-.147.148.32-.106.104-.223-.504zm-.042-.615.148-.15c.055-.054.108-.082.177-.08s.125.033.207.117c.06.06.097.105.11.168.02.072.003.143-.07.216l-.05.05.27.27-.1.098-.692-.69zm.428.228.047-.046c.08-.082.034-.13-.036-.2-.065-.065-.118-.118-.196-.042l-.052.052z" fill="#2d2d2d"/></g><path d="m3.378 32.223c-.94-.94-1.674-2.106-1.674-2.106l.915-.915s.958-.263 1.54-.845l18.899-18.897c1.203-1.203 2.46-3.854 2.46-3.854l3.322-3.322.864-.586 4.296 4.296-.587.866-3.32 3.32s-2.65 1.258-3.853 2.46l-18.896 18.898c-.582.583-.846 1.542-.846 1.542l-.92.92s-1.26-.84-2.2-1.777z"/><path d="m29.113 2.613-3.203 3.202s-.754 3.306-1.972 4.523l-.642.642 1.42 1.422.643-.643c1.217-1.218 4.523-1.973 4.523-1.973l3.203-3.2-3.973-3.974z" fill="url(#h)"/><path d="m24.718 12.402.58.58.642-.642c1.217-1.22 3.944-2.553 3.944-2.553s-3.307.755-4.524 1.973z" fill="#616161"/><path d="m22.717 10.4.58.58.642-.642c1.216-1.218 1.97-4.523 1.97-4.523s-1.332 2.725-2.549 3.945z" fill="#ebe9e9"/><path d="m23.34 10.938-18.3 18.3c-.697.695-1.508 1.044-1.508 1.044l1.884 1.884s.35-.812 1.045-1.507l18.298-18.3-1.42-1.422z" fill="#fc3"/><path d="m2.257 30.165s.78 1.115 1.422 1.757c.64.643 1.854 1.52 1.854 1.52l-3.277-3.277z" fill="#bfbfbf"/><path d="m33.087 6.587.365-.54-3.8-3.798-.54.363" fill="#ebe9e9"/><path d="m6.57 28.82-.086.086-.07-.07.25-.25.07.07-.086.087.455.455-.076.074-.456-.453zm.17-.312.224-.224.07.07-.148.15.154.153.13-.13.07.07-.13.13.155.154.15-.148.074.076-.225.224-.526-.524zm.637-.138-.348-.15.08-.08.21.1-.097-.215.08-.08.15.352.384.167-.08.08-.243-.11.112.24-.08.08-.17-.383zm.133-.49-.087.088-.07-.07.25-.25.07.07-.087.087.455.454-.074.075-.456-.454zm.168-.31.113-.114c.042-.04.082-.062.136-.06.052 0 .095.025.157.09.045.044.073.078.083.126.014.055 0 .108-.055.164l-.037.04.206.203-.076.074-.526-.524zm.326.173.036-.036c.062-.06.026-.098-.026-.15-.05-.05-.09-.09-.15-.03l-.04.038zm.076-.575.062-.062.644.41-.076.073-.135-.09-.102.102.09.135-.076.075-.408-.644zm.183.12-.002.002.153.227.076-.075-.227-.153zm.157-.318-.087.086-.07-.07.25-.25.07.07-.087.088.455.454-.074.076-.456-.455zm.29-.29-.087.088-.07-.07.25-.252.07.072-.086.087.455.454-.075.075zm.17-.312.223-.224.07.07-.148.15.155.156.13-.13.07.07-.13.13.153.154.15-.15.076.076-.226.225-.525-.527zm.317-.318.12-.12c.09-.088.187-.08.29.02.06.063.087.123.065.2l.32.157-.078.08-.295-.155-.046.045.225.226-.077.075-.526-.527zm.31.16.043-.042c.052-.053.03-.09-.02-.143-.055-.054-.092-.074-.147-.02l-.04.04.164.166zm.046-.515.072-.072.43.204.002-.002-.316-.317.076-.075.526.526-.07.07-.432-.202-.002.002.315.316-.075.074-.525-.525z" fill="#ba9c0a"/><path d="m6.57 28.888-.086.087-.07-.07.25-.25.07.07-.086.088.455.453-.076.076-.456-.454zm.17-.312.224-.225.07.072-.148.15.154.153.13-.13.07.07-.13.13.155.155.15-.15.074.077-.225.223-.526-.524zm.637-.136-.348-.152.08-.08.21.1-.097-.215.08-.08.15.352.384.166-.08.082-.243-.112.112.242-.08.08-.17-.383zm.133-.49-.087.086-.07-.07.25-.25.07.07-.087.088.455.454-.074.076-.456-.455zm.168-.31.113-.114c.042-.042.082-.062.136-.06.052 0 .095.024.157.088.045.045.073.08.083.128.014.055 0 .108-.055.163l-.037.04.206.203-.076.076-.526-.525zm.326.172.036-.036c.062-.062.026-.098-.026-.15-.05-.05-.09-.09-.15-.03l-.04.04zm.076-.576.062-.062.644.408-.076.076-.135-.09-.102.102.09.136-.076.075-.408-.644zm.183.12v.002l.15.227.077-.074-.227-.154zm.157-.318-.087.087-.07-.072.25-.248.07.07-.087.087.455.455-.074.076-.456-.455zm.29-.29-.087.088-.07-.07.25-.25.07.07-.086.087.455.455-.075.074zm.17-.31.223-.225.07.07-.148.15.154.153.128-.13.07.07-.13.13.154.156.15-.15.076.075-.225.226-.524-.525zm.317-.318.12-.122c.09-.09.187-.08.29.022.06.06.087.122.065.196l.32.16-.078.08-.295-.155-.046.046.225.224-.077.076-.526-.527zm.31.158.043-.042c.052-.052.03-.09-.02-.143-.055-.054-.092-.073-.147-.018l-.04.04zm.046-.513.072-.073.43.203.002-.002-.316-.316.076-.074.526.524-.07.07-.432-.2.314.316-.075.076-.527-.525z" fill="#ecd74c"/><path d="m6.57 28.854-.086.086-.07-.07.25-.25.07.07-.086.09.455.453-.076.075-.456-.454zm.17-.312.224-.224.07.07-.148.148.154.155.13-.13.07.072-.13.13.155.153.15-.148.074.075-.224.225-.527-.525zm.637-.137-.348-.152.08-.08.21.1-.097-.213.08-.08.15.35.384.168-.08.08-.243-.11.112.24-.08.08-.17-.383zm.133-.492-.087.087-.07-.07.25-.248.07.07-.09.088.456.455-.076.074-.454-.457zm.168-.309.113-.112c.042-.043.082-.063.136-.062.052 0 .095.026.157.09.045.045.073.08.083.127.014.055 0 .108-.055.165l-.036.038.206.204-.075.075-.527-.526zm.326.174.036-.036c.062-.062.026-.1-.026-.15-.05-.05-.09-.09-.15-.032l-.04.04zm.076-.575.062-.062.644.41-.076.075-.135-.092-.102.103.09.135-.076.077-.408-.644zm.183.12.15.23.077-.076-.227-.155zm.157-.32-.087.087-.07-.07.25-.25.07.07-.087.088.455.455-.074.076-.456-.457zm.29-.289-.087.088-.07-.072.25-.248.07.07-.086.087.455.452-.075.077-.457-.456zm.17-.312.223-.224.07.07-.148.15.154.153.128-.13.07.072-.13.13.154.154.15-.148.076.074-.225.224-.524-.524zm.317-.317.12-.12c.09-.09.187-.08.29.02.06.062.087.122.065.197l.32.158-.078.08-.295-.153-.046.045.225.224-.077.075-.526-.525zm.31.16.043-.043c.052-.053.03-.09-.02-.143-.055-.054-.092-.073-.147-.02l-.04.04.164.164zm.046-.515.072-.073.43.204h.002l-.316-.318.076-.074.526.525-.07.07-.432-.2.314.317-.075.074z" fill="#fcc332"/><path d="m4.836 32.747.58-.58.698.696-.58.58z" fill="#3d2812"/><path d="m2.955 30.86-.696-.695.58-.58.696.696z" fill="#e2d9ac"/><path d="m5.417 32.167-.58.58-1.884-1.884.58-.58z" fill="#fcc332"/><path d="m25.34 12.94-.58-.58-18.298 18.3c-.696.694-1.045 1.506-1.045 1.506l.697.697s.232-.928.93-1.625l18.297-18.3z" fill="#473015"/><path d="m22.76 10.358-18.3 18.3c-.695.696-1.623.928-1.623.928l.696.696s.812-.348 1.51-1.045l18.296-18.3-.58-.58z" fill="#ede5b2"/><path d="m61 27v-1.2s-1.164-.357-1.64-.473c-.426-.104-.876-.223-1.36-.297v-17.03h4.583l1.5 4h1.166c.063-.393.124-.91.166-1.406.043-.496.135-1.29.167-1.805.032-.517.08-.654.1-1.15.022-.497.067-.82.067-1.21v-.429h-19.5v.43c0 .39.045.713.066 1.21.02.496.07.634.1 1.15.032.514.125 1.308.168 1.804.042.496.103 1.014.167 1.406h1.167l1.5-4h4.583v17.03c-.484.074-.934.192-1.36.297-.476.115-1.64.473-1.64.473v1.2zm15.97-14.027c-.598-.437-1.29-.753-2.056-.94-.756-.19-1.534-.282-2.31-.282-2.404 0-4.294.67-5.616 1.995-1.32 1.316-1.988 3.254-1.988 5.754 0 1.17.174 2.238.52 3.176.345.944.86 1.77 1.532 2.45.673.682 1.526 1.212 2.533 1.577 1 .362 2.17.547 3.476.547.602 0 1.2-.064 1.782-.192.58-.13 1.123-.303 1.612-.52.493-.216.937-.478 1.32-.775.393-.306.687-.637.875-.987l.07-.134-.71-.714-.16.126c-.365.287-.93.525-1.678.708-.76.186-1.522.28-2.263.28-.9 0-1.695-.143-2.358-.428-.662-.28-1.217-.673-1.65-1.165-.437-.495-.77-1.086-.987-1.756-.2-.613-.312-.99-.33-1.694h10.143l.038-.456c.09-.394.15-.765.184-1.104.033-.342.05-.683.05-1.012 0-1.064-.19-1.97-.56-2.698-.374-.726-.868-1.317-1.47-1.757zm-4.562.408c1.022 0 1.75.315 2.224.963.486.663.732 1.574.732 2.708 0 .144-.03.85-.042.95h-6.625c.14-1.62.504-2.982 1.087-3.628.604-.668 1.462-.99 2.624-.99zm102.562-.408c-.598-.437-1.29-.753-2.056-.94-.756-.19-1.533-.282-2.31-.282-2.404 0-4.294.67-5.616 1.995-1.318 1.316-1.988 3.254-1.988 5.754 0 1.17.174 2.238.52 3.176.346.944.86 1.77 1.533 2.45.673.682 1.525 1.212 2.533 1.577 1 .362 2.17.547 3.476.547.6 0 1.2-.064 1.78-.192.582-.13 1.123-.303 1.613-.52.492-.216.937-.478 1.32-.775.392-.306.686-.637.874-.987l.07-.134-.71-.714-.16.126c-.364.287-.93.525-1.677.708-.762.186-1.523.28-2.264.28-.9 0-1.694-.143-2.358-.428-.662-.28-1.217-.673-1.65-1.165-.437-.495-.77-1.086-.986-1.756-.2-.613-.312-.99-.33-1.694h10.143l.036-.456c.09-.394.15-.765.185-1.104.033-.342.05-.683.05-1.012 0-1.064-.188-1.97-.56-2.698-.374-.726-.868-1.317-1.47-1.757zm-4.562.408c1.02 0 1.75.315 2.224.963.486.663.732 1.574.732 2.708 0 .144-.03.85-.042.95h-6.625c.14-1.62.505-2.982 1.088-3.628.604-.668 1.46-.99 2.623-.99zm-91.408 13.619h5.767v-1.076c-.253-.138-.622-.322-.875-.44-.174-.08-.36-.16-.558-.233l3.15-4.308 3.123 4.308c-.167.064-.335.138-.502.223-.25.127-.645.295-.938.452v1.074h6.833v-1.076c-.26-.163-.642-.35-.934-.46-.264-.102-.532-.197-.805-.29l-4.786-6.194 4.125-5.12c.754-.213 1.434-.527 1.833-.783v-1.077h-5.667v1.076c.31.234.866.513 1.458.71l-2.836 3.896-2.89-3.894c.19-.065.373-.144.54-.232.25-.132.614-.325.86-.48v-1.076h-6.732v1.076c.258.16.635.377.88.484.227.103.48.2.756.295l4.535 5.703-4.497 5.606c-.577.144-1.268.434-1.84.76zm21.23-19c-.376.157-.78.327-1.127.525-.345.195-1.103.63-1.103.63v2.597c-.833.21-1.244.52-2 .978v1.27h2v8.875c0 1.518.424 2.636 1.12 3.33.694.693 1.706 1.045 3.007 1.045.493 0 .984-.06 1.458-.183.467-.117.903-.268 1.3-.446.392-.176.747-.368 1.056-.566.315-.2.848-.69.848-.69l-.37-.735s-1.02.277-1.562.32c-.553.05-1.02.073-1.385.073-.73 0-1.2-.21-1.555-.644-.36-.44-.413-1.22-.413-2.32v-8.059h4.5v-2h-4.5v-4h-1.272zm44 0c-.376.157-.78.327-1.127.525-.345.195-1.103.63-1.103.63v2.597c-.833.21-1.244.52-2 .978v1.27h2v8.875c0 1.518.424 2.636 1.12 3.33.693.693 1.705 1.045 3.007 1.045.492 0 .983-.06 1.457-.183.467-.117.903-.268 1.3-.446.392-.176.747-.368 1.056-.566.314-.2.847-.69.847-.69l-.37-.735s-1.02.277-1.562.32c-.553.05-1.02.073-1.385.073-.73 0-1.2-.21-1.557-.644-.36-.44-.412-1.22-.412-2.32v-8.059h4.5v-2h-4.5v-4h-1.27zm-28.73 23.8c-.39-.22-.898-.488-1.25-.6-.285-.092-.463-.156-.75-.2v-4.232c.426.16.632.276 1 .35.456.09 1.088.135 1.88.135 1.14 0 2.196-.19 3.136-.57.942-.38 1.756-.93 2.42-1.633.66-.7 1.177-1.57 1.534-2.59.354-1.013.53-2.194.53-3.44 0-2.633-.537-4.536-1.604-5.722-1.07-1.19-2.596-1.797-4.53-1.797-1.267 0-2.313.317-3.108.938-.577.453-.87 1.02-1.258 1.695v-2.634l-1.234.002c-.684.1-1.387.233-2.092.4-.717.167-1.492.39-2.174.666v1.154l2 .233v17.045c-.635.158-1.334.51-2 .8v1.2h7.5zm5.03-12.745c0 .95-.103 1.832-.31 2.62-.204.784-.498 1.477-.874 2.06-.37.572-.825 1.02-1.353 1.334-.522.308-1.12.465-1.772.465-.74 0-1.347-.053-1.803-.155-.406-.09-.584-.226-.918-.4v-8.034c.243-.995.462-1.79 1.037-2.358.567-.56 1.347-.842 2.317-.842.676 0 1.252.128 1.714.382.46.254.84.618 1.123 1.08.29.472.506 1.04.64 1.684.133.654.2 1.38.2 2.163zm19.47 6.075-2-.327v-8.266c0-.548-.14-1.103-.25-1.653-.115-.564-.48-1.087-.85-1.554s-.916-.853-1.616-1.145c-.694-.288-1.626-.436-2.77-.436-1.26 0-2.42.127-3.454.38-1.033.252-1.985.607-2.83 1.056l-.123.065.01.135c.043.602.15 1.226.317 1.85.166.62.362 1.227.583 1.803l.052.14h1.16l1.564-3.496c.322-.107.652-.175.982-.2.377-.028.72-.043 1.017-.043.607 0 1.1.117 1.467.352.366.233.647.57.84 1 .196.445.37.993.4 1.626v2.02c-1.456.075-2.876.184-3.984.32-1.177.146-2.18.39-2.985.723-.823.342-1.458.817-1.885 1.413-.428.597-.645 1.368-.645 2.29 0 1.21.45 2.2 1.34 2.947.88.742 2.03 1.12 3.417 1.12.724 0 1.38-.102 1.95-.302.568-.198 1.07-.46 1.492-.78.423-.322.772-.696 1.035-1.108.11-.17.185-.345.265-.517.02.352.064.687.09 1 .047.552.187 1.065.416 1.527l.05.122 1.013-.003c.617-.1 1.273-.246 1.948-.44.674-.193 1.424-.453 1.982-.71v-.91zm-6.592-1.004c-.265.25-.6.47-.99.65-.384.176-.837.264-1.348.264-.777 0-1.37-.198-1.81-.612-.437-.407-.657-1-.657-1.764 0-.45.082-.85.244-1.195.152-.33.443-.61.857-.836.434-.236 1.05-.41 1.827-.52.748-.107 1.816-.165 2.97-.17v2.773c-.063.17-.28.383-.437.63-.165.263-.386.525-.655.78zm52.592 1.791c-.432-.22-1.07-.427-1.5-.536-.363-.09-.64-.142-1-.184v-8.373c.255-.644.354-1.138.67-1.468.305-.314.56-.706.76-.818h4.32v-.788l-.01-.066c-.105-.332-.217-.648-.333-.95-.118-.31-.254-.595-.405-.855l-.055-.095-.11-.01c-.587-.062-1.167-.005-1.726.166-.55.172-1.065.42-1.528.736-.46.317-.872.68-1.227 1.076-.21.234-.2.473-.355.71v-2.712h-1.198c-.654.098-1.366.255-2.07.417-.72.168-1.558.457-2.23.73v.983l2 .328v10.987c-.283.068-.502.15-.784.23-.346.1-.832.293-1.217.49v1.085h8v-1.083zm22 0c-.54-.316-1.2-.577-2-.72v-7.154c0-1.212-.192-2.23-.434-3.027-.244-.812-.66-1.468-1.13-1.955-.478-.487-1.08-.833-1.792-1.026-.69-.188-1.484-.283-2.357-.283-1.246 0-2.324.337-3.207 1-.652.49-1.153 1.062-1.58 1.7v-2.7h-1.167c-.8.136-1.51.297-2.236.47-.736.174-1.534.462-2.097.677v.984l2 .33v10.986c-.814.203-1.488.48-2 .72v1.081h7.5v-1.083c-.584-.326-1.377-.593-2-.72v-8.247c.142-.374.293-.74.533-1.09.244-.36.54-.687.877-.972.333-.282.723-.51 1.157-.672.433-.163.91-.246 1.415-.246 1.166 0 1.883.38 2.317 1.16.45.817.7 1.952.7 3.375v6.69c-.633.185-1.456.467-2 .72v1.085h7.5v-1.083zm-52.77-17.917c-.376.157-.78.327-1.127.525-.345.195-1.103.63-1.103.63v2.597c-.833.21-1.244.52-2 .978v1.27h2v8.875c0 1.518.424 2.636 1.12 3.33.693.693 1.705 1.045 3.007 1.045.492 0 .983-.06 1.457-.183.467-.117.903-.268 1.3-.446.392-.176.747-.368 1.056-.566.314-.2.847-.69.847-.69l-.37-.735s-1.02.277-1.562.32c-.553.05-1.02.073-1.385.073-.73 0-1.2-.21-1.557-.644-.36-.44-.412-1.22-.412-2.32v-8.059h4.5v-2h-4.5v-4h-1.27z"/></svg>
