<svg viewBox="0 0 208 34" width="208" height="34" xmlns="http://www.w3.org/2000/svg"><linearGradient id="a" gradientUnits="userSpaceOnUse" x1="19.035" x2="22.771" y1="22.774" y2="19.0379"><stop offset=".125" stop-color="#7b6c35"/><stop offset=".875" stop-color="#b9aa69"/></linearGradient><linearGradient id="b" gradientUnits="userSpaceOnUse" x1="19.0315" x2="22.7055" y1="22.7705" y2="19.0965"><stop offset="0" stop-color="#2b2414"/><stop offset=".75" stop-color="#624e22"/></linearGradient><linearGradient id="c" gradientUnits="userSpaceOnUse" x1="21.96" x2="19.3901" y1="19.8319" y2="22.4008"><stop offset=".5" stop-color="#2d2400"/><stop offset=".875" stop-color="#211700"/></linearGradient><linearGradient id="d" gradientUnits="userSpaceOnUse" x1="5.3725" x2="9.926" y1="5.3734" y2="9.927"><stop offset="0" stop-color="#fff"/><stop offset="1" stop-color="#666"/></linearGradient><linearGradient id="e" gradientUnits="userSpaceOnUse" x1="2.5595" x2="12.6995" y1="12.7395" y2="2.5995"><stop offset="0" stop-color="#0a0a0a"/><stop offset=".5" stop-color="#0f0f0f"/><stop offset="1" stop-color="#1a1a1a"/></linearGradient><linearGradient id="f" gradientUnits="userSpaceOnUse" x1=".3087" x2="4.8623" y1="10.4362" y2="14.9897"><stop offset="0" stop-color="#999"/><stop offset="1" stop-color="#1a1a1a"/></linearGradient><linearGradient id="g" gradientUnits="userSpaceOnUse" x1="10.4389" x2="14.9913" y1=".3101" y2="4.8616"><stop offset="0" stop-color="#ccc"/><stop offset="1" stop-color="#333"/></linearGradient><linearGradient id="h" gradientUnits="userSpaceOnUse" x1="23.296" x2="33.085" y1="7.507" y2="7.507"><stop offset=".125" stop-color="#cdcdcb"/><stop offset=".875" stop-color="#a09ea1"/></linearGradient><path d="m32.6 32.6c-1.2 1.2-2.4 1.7-2.9 1.3-.2-.2 0 0 0 0-.1-.1-3.2-3.5-6.7-7-3.2-3.2-6.9-6.4-9.2-8.7s-6.1-6.6-6.1-6.6l-.3-.3 1.9-2 2-1.8.3.3s4.3 3.8 6.6 6.1 5.5 6 8.7 9.2c3.5 3.5 6.9 6.6 7 6.7.4.3-.1 1.5-1.3 2.8z"/><path d="m17.8 14.1c-2.3-2.3-6.6-6.1-6.6-6.1l-1.7 1.5-1.5 1.7s3.8 4.3 6.1 6.6 6 5.5 9.2 8.7c3.5 3.5 6.6 6.9 6.7 7s.7.3 2.3-1.3 1.3-2.2 1.3-2.3c0 0-3.5-3.2-7-6.7-3.3-3.1-6.5-6.8-8.8-9.1z" fill="url(#a)"/><path d="m31.9 32.6c-.1 0-.2-.1-.4-.2-.2-.2-3.4-3.5-6.9-7-1.3-1.3-3.9-3.7-4.2-4-.6-.6-.6-1.1-.2-1.7.3-.6 1.2-1.2 1.7-1.3-.5-.6-1.1-1.1-1.6-1.7-1.5.9-3.3 1.9-3.6 1.6-1.2-1.2-4.3-4.3-5.6-5.6-.6-.6-.5-1.2-.2-1.8.4-.7 1.3-1.4 1.8-1.5-.8-.9-1.5-1.4-1.5-1.4l-1.7 1.5-1.5 1.7s3.8 4.3 6.1 6.6 6 5.5 9.2 8.7c3.5 3.5 6.6 7 6.7 7 0 .1.6.3 1.9-.9z" fill="url(#b)"/><path d="m25.7 23.9s-.4-.5-1-1.1c-.5-.5-1.1-1.1-1.1-1.1s.6.7 1 1.1c.4.3 1.1 1.1 1.1 1.1zm-8-8.4-1.3-1.3s.8 1 1.2 1.4c.5.5.6.4.1-.1zm-1.1 2c-.8-.8-2.1-2-4.2-4.1-1.6-1.6-2.9-2.8-3.3-3.2l-.1.1c.6.5 3 2.9 4.3 4.2 1.5 1.5 4.1 3.9 4.8 4.5s2 1.7 3 2.7 2.1 1.9 2.1 1.9-1.7-1.8-2.5-2.5c-.8-.8-3.2-2.7-4.1-3.6zm-.5-3.6-2.6-2.7c-1.2-1.2-2.4-2.4-2.8-2.8.3.4 1.6 1.8 2.7 2.9 1.2 1.4 2.7 2.6 2.7 2.6zm-3.3-1.9 1.2 1.2c.4.4 1.3 1.4 1.5 1.6.9.9 1.5 1.4 2.5 2.5 1 1 3.6 3.7 4.1 4.2.9.9 2 2.1 2.7 2.7.6.6 2 1.9 2.7 2.6l2.2 2.2c.6.6 2.3 2 2.3 2s-2.7-2.6-3.6-3.6c-1-1-2.2-2-2.7-2.6-.8-.8-2.2-2.3-2.9-3s-.9-.8-1.1-1c-.1-.1-1.6-1.7-2-2.1s-3.8-3.8-4.4-4.5c-.6-.6-1.3-1.3-1.5-1.5-.3-.3-.7-.8-1-1.1s-.8-.7-1.1-1-1.2-1.1-1.7-1.7l-.2.4c.9.9 1.5 1.3 1.8 1.6.4.3 1 .9 1.2 1.1zm2.1 3.6c.6.6 3.3 3.1 3.3 3.1s-1.8-1.8-2.8-2.7c-.9-.9-2.1-2.1-3.2-3.2-.9-.9-2.4-2.5-2.9-2.9h-.1c.6.6 2.7 2.6 3.3 3.2.7.7 1.7 1.8 2.4 2.5zm13.7 12.6c-.7-.7-1.3-1.3-1.9-1.8-.6-.6-2.3-2.4-2.3-2.4s1.7 2 2.4 2.6c.6.6 1.1 1 1.9 1.7.8.8 1.9 2 2.4 2.4.4.4 1.2 1 1.5 1.2 0 0 .1-.1.1-.1-.4-.3-1.6-1.4-2.1-1.9-.8-.5-1.4-1-2-1.7zm2.3.7-1.8-1.8c-.2-.2-1.1-.9-1.1-.9s.6.7.8.8c.2.2 1.1.9 1.8 1.6.6.6 2.2 2.2 2.6 2.7.1-.1.1-.2.2-.2-.6-.5-2.2-1.9-2.5-2.2zm-16.7-14.9c-.7-.7-1.6-1.7-1.9-2-.7-.7-2.1-2-2.7-2.5h-.1c.5.5 2.1 2 3.1 3 .6.6 1.6 1.5 1.6 1.5zm-.6-.3c.8.8 6.6 6.5 7.4 7.2.7.8 1.6 1.7 2 2.1s1.7 1.7 1.7 1.7-1.6-1.9-2.6-2.8c-1-1-3.3-3.4-4.4-4.4-.7-.8-4.1-3.8-4.1-3.8z" fill="#6b5600"/><path d="m23.1 25.5c-1.1-1.1-3.2-3.1-4.1-4-.1-.1-2-1.9-2.4-2.3s-3.8-3.5-4.4-4.1-1.3-1.5-1.6-1.7c-.3-.3-.8-.9-1-1.1-.3-.3-.7-.7-1-1.1-.2-.2-.3-.2-.3-.2 0 .1.1.1.2.3.4.4.8.9 1 1.1l1.3 1.3c.4.4 1.2 1.3 1.4 1.6.9.9 1.6 1.3 2.6 2.4l4 4c.9.9 2.1 1.9 2.7 2.6l2.7 2.7c.7.7 1.6 1.6 2.2 2.3.6.6 2.3 2.2 2.3 2.2-2.6-2.6-2.5-2.7-3.4-3.6-.8-1-1.6-1.8-2.2-2.4zm5.6 4.5c-.9-.9-1.5-1.6-2.4-2.5s-2-1.9-2.8-2.7-3.1-3.1-3.1-3.1 2.3 2.4 3.2 3.3l2.6 2.6c1.1 1 2.6 2.7 3.3 3.3.5.5 2 1.9 2 1.9l.2-.2c0 .2-1.7-1.3-3-2.6zm-17.5-16.5c.8.8 5.5 5.2 6.2 6 .7.7 3.8 3.6 3.8 3.6s-2.1-2.1-3.1-3.1c-1-1.1-4.8-4.4-6-5.6-1.1-1.4-3.2-3.4-3.2-3.4l-.2.1s1.8 1.6 2.5 2.4zm19 19.3c-.6-.6-1.2-1.1-1.2-1.1s.7.9 1 1.2c.2.2.5.4.6.6.1 0 .1-.1.2-.1-.1-.1-.3-.3-.6-.6zm-12.5-14.6.5.5zm2.2 2.4c0-.1 0-.1 0-.2-.7-.6-1.7-1.4-2.5-2.1h-.1c.3.3.5.5.7.6.5.4 1.2 1 1.9 1.7zm.2-.7c-.6-.7-1.3-1.3-1.8-1.9-.1 0-.1 0-.2.1l2 1.9c-.1-.1-.1-.1 0-.1zm-8.2-10.1c-.6-.6-1.1-1.1-1.3-1.3.2.2.7.7 1.3 1.3zm8.4 9.6c-.2-.2-.4-.4-.5-.5s-.6-.6-1.1-1.1h-.1c.5.5 1.1 1.1 1.7 1.6zm-9.5-8.2c-.6-.6-1.2-1.2-1.4-1.4 0 .1-.1.1-.1.2.3.3.9.9 1.5 1.4-.1-.1 0-.1 0-.2zm.5-.8c-.4-.4-.9-.9-1.3-1.3l-.2.2c.6.6 1 .9 1.4 1.2 0-.1.1-.1.1-.1zm-.6 1.3c-.8-.8-1.4-1.3-1.6-1.5 0 0-.1.1-.1.1.3.3 1 .9 1.7 1.7 0-.1 0-.2 0-.3zm.2-.8s.1-.1.1-.1c-.6-.5-1.1-1-1.4-1.3.2.3.7.8 1.3 1.4z" fill="url(#c)"/><path d="m10.9 0s.9.6 2.3 2 2.1 2.3 2.1 2.3v.8l-10.1 10.2h-.8s-1.2-.9-2.3-2.1c-1.5-1.4-2.1-2.3-2.1-2.3v-.8l10.1-10.1z"/><path d="m10.8.4h-.5l-9.9 9.9v.5s.5.7 1.9 2.1 2.1 1.9 2.1 1.9h.6l9.9-9.8v-.5s-.5-.7-1.9-2.1c-1.5-1.5-2.2-2-2.2-2z" fill="url(#d)"/><path d="m10.8.4h-.5l-9.9 9.9v.5s.5.7 1.9 2.1 2.1 1.9 2.1 1.9h.6l9.9-9.8v-.5s-.5-.7-1.9-2.1c-1.5-1.5-2.2-2-2.2-2z" fill="url(#d)"/><path d="m14.5 4.8s-2.8 3-4.7 4.9-4.9 4.7-4.9 4.7-1.1-.6-2.3-1.8-1.8-2.3-1.8-2.3 2.8-3 4.7-4.9 4.9-4.7 4.9-4.7 1 .6 2.2 1.8 1.9 2.3 1.9 2.3z" fill="url(#e)"/><path d="m4.8 14.5s-1.1-.6-2.3-1.8-1.8-2.3-1.8-2.3l-.4-.1v.5s.5.7 1.9 2.1 2.1 1.9 2.1 1.9h.7z" fill="url(#f)"/><path d="m14.9 5v-.5s-.5-.7-1.9-2.1-2.1-1.9-2.1-1.9h-.5l.1.4s1 .6 2.2 1.8 1.8 2.2 1.8 2.2z" fill="url(#g)"/><path d="m3.4 32.2c-.9-.9-1.7-2.1-1.7-2.1l.9-.9s1-.3 1.5-.8l19-18.9c1.2-1.2 2.5-3.9 2.5-3.9l3.3-3.3.9-.6 4.2 4.3-.6.9-3.3 3.3s-2.6 1.3-3.9 2.5l-18.9 18.8c-.6.6-.8 1.5-.8 1.5l-.9 1s-1.3-.8-2.2-1.8z"/><path d="m29.1 2.6-3.2 3.2s-.8 3.3-2 4.5l-.6.7 1.4 1.4.6-.6c1.2-1.2 4.5-2 4.5-2l3.2-3.2z" fill="url(#h)"/><path d="m24.7 12.4.6.6.6-.6c1.2-1.2 3.9-2.6 3.9-2.6s-3.3.8-4.5 2z" fill="#616161"/><path d="m22.7 10.4.6.6.6-.6c1.2-1.2 2-4.5 2-4.5s-1.3 2.7-2.5 3.9z" fill="#ebe9e9"/><path d="m23.3 10.9-18.3 18.3c-.7.7-1.5 1-1.5 1l1.9 1.9s.3-.8 1-1.5l18.3-18.3z" fill="#fc3"/><path d="m2.3 30.2s.8 1.1 1.4 1.8c.6.6 1.9 1.5 1.9 1.5z" fill="#bfbfbf"/><path d="m33.1 6.6.4-.6-3.8-3.8-.5.4" fill="#ebe9e9"/><path d="m4.8 32.7.6-.6.7.7-.6.6z" fill="#3d2812"/><path d="m3 30.9-.7-.7.6-.6.7.7z" fill="#e2d9ac"/><path d="m5.4 32.2-.6.6-1.8-1.9.6-.6z" fill="#fcc332"/><path d="m25.3 12.9-.6-.6-18.2 18.4c-.7.7-1 1.5-1 1.5l.7.7s.2-.9.9-1.6z" fill="#473015"/><path d="m22.8 10.4-18.3 18.3c-.7.7-1.6.9-1.6.9l.7.7s.8-.3 1.5-1l18.3-18.3z" fill="#ede5b2"/><path d="m61 27v-1.2s-1.2-.4-1.6-.5-.9-.2-1.4-.3v-17h4.6l1.5 4h1.2c.1-.4.1-.9.2-1.4 0-.5.1-1.3.2-1.8 0-.5.1-.7.1-1.2s.1-.8.1-1.2v-.4h-19.7v.4c0 .4 0 .7.1 1.2 0 .5.1.6.1 1.1s.1 1.3.2 1.8c0 .5.1 1 .2 1.4h1.2l1.5-4h4.5v17c-.5.1-.9.2-1.4.3s-1.6.5-1.6.5v1.3zm16-14c-.6-.4-1.3-.8-2.1-.9-.8-.2-1.5-.3-2.3-.3-2.4 0-4.3.7-5.6 2s-2 3.3-2 5.8c0 1.2.2 2.2.5 3.2.3.9.9 1.8 1.5 2.5.7.7 1.5 1.2 2.5 1.6s2.2.5 3.5.5c.6 0 1.2-.1 1.8-.2s1.1-.3 1.6-.5.9-.5 1.3-.8.7-.6.9-1l.1-.1-.7-.9-.2.1c-.4.3-.9.5-1.7.7s-1.5.3-2.3.3c-.9 0-1.7-.1-2.4-.4s-1.2-.7-1.7-1.2c-.4-.5-.8-1.1-1-1.8-.2-.6-.3-1-.3-1.7h10.1v-.5c.1-.4.2-.8.2-1.1s.1-.7.1-1c0-1.1-.2-2-.6-2.7-.1-.6-.6-1.2-1.2-1.6zm-4.6.4c1 0 1.8.3 2.2 1 .5.7.7 1.6.7 2.7v1h-6.6c.1-1.6.5-3 1.1-3.6.6-.8 1.4-1.1 2.6-1.1zm102.6-.4c-.6-.4-1.3-.8-2.1-.9-.8-.2-1.5-.3-2.3-.3-2.4 0-4.3.7-5.6 2s-2 3.3-2 5.8c0 1.2.2 2.2.5 3.2.3.9.9 1.8 1.5 2.5.7.7 1.5 1.2 2.5 1.6s2.2.5 3.5.5c.6 0 1.2-.1 1.8-.2s1.1-.3 1.6-.5.9-.5 1.3-.8.7-.6.9-1l.1-.1-.7-.7-.2.1c-.4.3-.9.5-1.7.7s-1.5.3-2.3.3c-.9 0-1.7-.1-2.4-.4s-1.2-.7-1.6-1.2-.8-1.1-1-1.8c-.2-.6-.3-1-.3-1.7h10.1v-.5c.1-.4.1-.8.2-1.1 0-.3.1-.7.1-1 0-1.1-.2-2-.6-2.7-.2-.8-.7-1.4-1.3-1.8zm-4.6.4c1 0 1.8.3 2.2 1 .5.7.7 1.6.7 2.7v1h-6.6c.1-1.6.5-3 1.1-3.6.6-.8 1.4-1.1 2.6-1.1zm-91.4 13.6h5.8v-1.1c-.3-.1-.6-.3-.9-.4-.2-.1-.4-.2-.6-.2l3.2-4.3 3.1 4.3c-.2.1-.3.1-.5.2s-.6.3-.9.5v1h6.8v-1.1c-.3-.2-.6-.4-.9-.5s-.5-.2-.8-.3l-4.8-6.1 4.1-5.1c.8-.2 1.4-.5 1.8-.8v-1.1h-5.7v1.1c.3.2.9.5 1.5.7l-2.8 3.9-2.9-3.9c.2-.1.4-.1.5-.2.2-.1.6-.3.9-.5v-1.1h-6.7v1.1c.3.2.6.4.9.5.2.1.5.2.8.3l4.5 5.7-4.5 5.6c-.6.1-1.3.4-1.8.8v1zm21.2-19c-.4.2-.8.3-1.1.5s-1.1.7-1.1.7v2.6c-.8.2-1.2.5-2 1v1.2h2v8.9c0 1.5.4 2.6 1.1 3.3s1.7 1 3 1c.5 0 1-.1 1.5-.2s.9-.3 1.3-.4c.4-.2.7-.4 1.1-.6.3-.2.8-.7.8-.7l-.4-.7s-1 .3-1.6.3-1 .1-1.4.1c-.7 0-1.2-.2-1.6-.6s-.4-1.2-.4-2.3v-8.1h4.5v-2h-4.5v-4zm44 0c-.4.2-.8.3-1.1.5s-1.1.6-1.1.6v2.6c-.8.2-1.2.5-2 1v1.3h2v8.9c0 1.5.4 2.6 1.1 3.3s1.7 1 3 1c.5 0 1-.1 1.5-.2s.9-.3 1.3-.4c.4-.2.7-.4 1.1-.6.3-.2.8-.7.8-.7l-.4-.7s-1 .3-1.6.3-1 .1-1.4.1c-.7 0-1.2-.2-1.6-.6s-.4-1.2-.4-2.3v-8.1h4.5v-2h-4.5v-4zm-28.7 23.8c-.4-.2-.9-.5-1.2-.6s-.5-.2-.8-.2v-4.2c.4.2.6.3 1 .4.5.1 1.1.1 1.9.1 1.1 0 2.2-.2 3.1-.6s1.8-.9 2.4-1.6c.7-.7 1.2-1.6 1.5-2.6.4-1 .5-2.2.5-3.4 0-2.6-.5-4.5-1.6-5.7s-2.6-1.8-4.5-1.8c-1.3 0-2.3.3-3.1.9-.6.5-.9 1-1.3 1.7v-2.6h-1.2c-.7.1-1.4.2-2.1.4s-1.5.4-2.2.7v1.2l2 .2v17c-.6.2-1.3.5-2 .8v1.1h7.5zm5-12.7c0 1-.1 1.8-.3 2.6s-.5 1.5-.9 2.1-.8 1-1.4 1.3c-.5.3-1.1.5-1.8.5s-1.3-.1-1.8-.2c-.4-.1-.6-.2-.9-.4v-8c.2-1 .5-1.8 1-2.4.6-.6 1.3-.8 2.3-.8.7 0 1.3.1 1.7.4.5.3.8.6 1.1 1.1s.5 1 .6 1.7c.4.5.4 1.3.4 2.1zm19.5 6-2-.3v-8.3c0-.5-.1-1.1-.2-1.7s-.5-1.1-.9-1.6-.9-.9-1.6-1.1c-.7-.3-1.6-.4-2.8-.4-1.3 0-2.4.1-3.5.4-1 .3-2 .6-2.8 1.1l-.1.1v.1c0 .6.2 1.2.3 1.9.2.6.4 1.2.6 1.8l.1.1h1.2l1.6-3.5c.3-.1.7-.2 1-.2h1c.6 0 1.1.1 1.5.4.4.2.6.6.8 1s.4 1 .4 1.6v2c-1.5.1-2.9.2-4 .3-1.2.1-2.2.4-3 .7s-1.5.8-1.9 1.4-.6 1.4-.6 2.3c0 1.2.4 2.2 1.3 2.9s2 1.1 3.4 1.1c.7 0 1.4-.1 1.9-.3.6-.2 1.1-.5 1.5-.8s.8-.7 1-1.1c.1-.2.2-.3.3-.5 0 .4.1.7.1 1 0 .6.2 1.1.4 1.5l.1.1h1c.6-.1 1.3-.2 1.9-.4.7-.2 1.4-.5 2-.7zm-6.6-1c-.3.2-.6.5-1 .6-.4.2-.8.3-1.3.3-.8 0-1.4-.2-1.8-.6s-.7-1-.7-1.8c0-.5.1-.9.2-1.2.2-.3.4-.6.9-.8.4-.2 1.1-.4 1.8-.5s1.8-.2 3-.2v2.8c-.1.2-.3.4-.4.6-.2.3-.4.6-.7.8zm52.6 1.8c-.4-.2-1.1-.4-1.5-.5s-.6-.1-1-.2v-8.4c.3-.6.4-1.1.7-1.5.3-.3.6-.7.8-.8h4.3v-.8-.1c-.1-.3-.2-.6-.3-.9s-.3-.6-.4-.9l-.1-.1h-.1c-.6-.1-1.2 0-1.7.2-.6.2-1.1.4-1.5.7-.5.3-.9.7-1.2 1.1-.2.2-.2.5-.4.7v-2.7h-1.2c-.7.1-1.4.3-2.1.4-.7.2-1.6.5-2.2.7v1l2 .3v11c-.3.1-.5.1-.8.2s-.8.3-1.2.5v1.2h8zm22 0c-.5-.3-1.2-.6-2-.7v-7.2c0-1.2-.2-2.2-.4-3s-.7-1.5-1.1-2c-.5-.5-1.1-.8-1.8-1s-1.5-.3-2.4-.3c-1.2 0-2.3.3-3.2 1-.7.5-1.2 1.1-1.6 1.7v-2.7h-1.2c-.8.1-1.5.3-2.2.5s-1.5.5-2.1.7v1l2 .3v11c-.8.2-1.5.5-2 .7v1.1h7.5v-1.1c-.6-.3-1.4-.6-2-.7v-8.2c.1-.4.3-.7.5-1.1s.5-.7.9-1c.3-.3.7-.5 1.2-.7.4-.2.9-.2 1.4-.2 1.2 0 1.9.4 2.3 1.2s.7 2 .7 3.4v6.7c-.6.2-1.5.5-2 .7v1h7.5zm-52.8-17.9c-.4.2-.8.3-1.1.5s-1.1.6-1.1.6v2.6c-.8.2-1.2.5-2 1v1.3h2v8.9c0 1.5.4 2.6 1.1 3.3s1.7 1 3 1c.5 0 1-.1 1.5-.2s.9-.3 1.3-.4c.4-.2.7-.4 1.1-.6.3-.2.8-.7.8-.7l-.4-.7s-1 .3-1.6.3-1 .1-1.4.1c-.7 0-1.2-.2-1.6-.6s-.4-1.2-.4-2.3v-8.1h4.5v-2h-4.5v-4z"/></svg>