<svg height="238" viewBox="0 0 380 238" width="380" xmlns="http://www.w3.org/2000/svg"><path d="m42.6 189.9c.1-1 .3-2 .3-3.2l.2-3.5c.1-1.2.1-2.4.2-3.5 0-1.1.1-2.2.1-3.1v-.5l-43.4-.1v1c0 .9 0 1.5.1 2.7 0 1.2.1 2.3.2 3.5s.2 2.4.3 3.5c.1 1.2.2 2.2.4 3.1l.1.4h2.6l3.9-9.7h10.3v39.8c-1.1.2-2.2.4-3.2.6-1.1.3-2.2.6-3.3 1l-.3.1v2.8h21.5v-2.8l-.3-.1c-1-.4-2.1-.7-3.3-1-1-.2-2-.4-3.1-.6v-39.9h10.1l3.8 9.7h2.7zm26.6 1.7c-1.3-1-2.9-1.8-4.6-2.2s-3.4-.7-5.2-.7c-5.4 0-9.6 1.6-12.6 4.7-2.9 3.1-4.4 7.7-4.4 13.6 0 2.8.4 5.3 1.2 7.5s1.9 4.2 3.4 5.8 3.4 2.9 5.7 3.7c2.2.9 4.9 1.3 7.8 1.3 1.3 0 2.7-.2 4-.5s2.5-.7 3.6-1.2 2.1-1.1 3-1.8 1.5-1.5 2-2.3l.2-.3-1.6-1.7-.4.3c-.8.7-2.1 1.2-3.7 1.7-1.7.4-3.4.7-5.1.7-2 0-3.8-.3-5.3-1s-2.7-1.6-3.7-2.7c-1-1.2-1.7-2.6-2.2-4.1-.4-1.5-.7-3-.7-4.7h22.7l.1-.4c.2-.9.3-1.8.4-2.6s.1-1.6.1-2.4c0-2.5-.4-4.6-1.3-6.4-.9-1.9-2-3.3-3.4-4.3zm-10 1.1c2.3 0 4 .8 5.1 2.4s1.7 3.9 1.7 6.6v1.1c0 .2 0 .5-.1.7h-15.2c.3-4 1.1-6.8 2.5-8.4s3.3-2.4 6-2.4zm51.7 28.7c-.6-.2-1.2-.5-1.9-.7l-11.2-14.4 9.7-11.9c1.8-.5 3.1-1 4.1-1.6l.2-.1v-2.5h-13.2v2.5l.2.1c.7.5 1.8 1 3.1 1.5l-6.6 9.1-6.8-9.1c.4-.2.9-.3 1.3-.5.6-.3 1.2-.6 1.7-1l.2-.1v-2.5h-15.6v2.5l.2.1c.6.4 1.2.7 1.8.9.5.2 1.1.5 1.8.7l10.6 13.3-10.5 13c-1.3.3-2.7.9-4.1 1.6l-.3.1v2.5h13.5v-2.5l-.3-.1-1.8-.9c-.4-.2-.8-.4-1.3-.5l7.4-10 7.3 10c-.4.1-.8.3-1.2.5-.6.3-1.2.6-1.9 1l-.3.1v2.4h16v-2.5l-.2-.1c-.5-.3-1.2-.6-1.9-.9zm27.9-2.2c-.9.3-2 .5-3.2.6-1.3.1-2.4.2-3.2.2-1.7 0-2.9-.5-3.8-1.5-.8-1-1.3-2.9-1.3-5.4v-19.1h11v-4.5h-11v-8.9h-2.5c-.8.4-1.7.7-2.5 1.1-.9.4-1.7.9-2.3 1.4l-.2.1v5.6c-1.9.5-3.8 1.3-5.6 2.4l-.2.1v2.6h5.8v21c0 3.5.8 6.2 2.4 7.8s4 2.4 7 2.4c1.2 0 2.3-.1 3.4-.4s2.1-.6 3-1 1.8-.9 2.5-1.3c.7-.5 1.3-.9 1.7-1.4l.2-.3-.9-1.7zm26.2-30.5c-2.9 0-5.3.7-7.2 2.2-1.3 1-2.5 2.4-3.4 3.9v-6.1h-2.4c-1.6.2-3.2.5-4.8.9-1.7.4-3.3.9-4.9 1.5l-.3.1v2.5l4.8.5v39.4c-1.5.4-3 .9-4.5 1.6l-.3.1v2.5h17.2v-2.5l-.3-.1c-.9-.5-1.8-.9-2.6-1.2-.7-.2-1.3-.4-2-.5v-9.6c1 .4 1.9.6 2.8.8 1 .2 2.5.3 4.3.3 2.6 0 5.1-.4 7.2-1.3 2.2-.9 4-2.2 5.6-3.8 1.5-1.6 2.7-3.6 3.5-6s1.2-5 1.2-7.9c0-6.1-1.2-10.6-3.7-13.4-2.2-2.5-5.7-3.9-10.2-3.9zm6.2 17.5c0 2.2-.2 4.3-.7 6.1s-1.2 3.4-2 4.8c-.9 1.3-1.9 2.4-3.1 3.1s-2.6 1.1-4.1 1.1c-1.7 0-3.1-.1-4.2-.4-.9-.2-1.8-.5-2.6-.9v-18.6c.6-2.3 1.5-4.2 2.8-5.5s3.1-2 5.3-2c1.6 0 2.9.3 4 .9s1.9 1.4 2.6 2.5 1.2 2.4 1.5 3.9.5 3.2.5 5zm41 11.4c0-.7-.1-1.6-.1-2.5 0-2.3.1-4.7.2-7.2s.2-5.2.2-7.9c0-1.3-.1-2.6-.4-3.9s-.8-2.6-1.6-3.7-2-2-3.6-2.7c-1.5-.7-3.6-1-6.2-1-2.8 0-5.4.3-7.7.9s-4.4 1.4-6.3 2.5l-.3.2v.3c.1 1.4.3 2.9.7 4.4s.8 2.9 1.3 4.3l.1.3h2.6l3.5-8.2c.7-.3 1.4-.4 2.2-.5s1.6-.1 2.3-.1c1.3 0 2.4.3 3.3.8s1.4 1.3 1.9 2.4c.4 1.1.7 2.3.8 3.8.1 1.4 0 3-.1 4.8-3.2.2-6.1.4-8.6.8-2.6.3-4.8.9-6.6 1.7s-3.2 1.9-4.2 3.3-1.4 3.2-1.4 5.4c0 2.9 1 5.2 3 7s4.5 2.6 7.6 2.6c1.6 0 3.1-.2 4.3-.7 1.3-.5 2.4-1.1 3.3-1.8.9-.8 1.7-1.6 2.3-2.6.2-.4.5-.8.6-1.2 0 .8.1 1.6.1 2.4.1 1.3.4 2.5.9 3.6l.1.3h2.2c1.4-.2 2.8-.6 4.3-1 1.5-.5 2.9-1 4.1-1.6l.3-.1v-2.2l-5.1-.7c.1-1 0-1.6 0-2.2zm-9.5.3c-.6.6-1.3 1.1-2.2 1.5s-1.9.6-3 .6c-1.7 0-3-.5-4-1.5s-1.5-2.4-1.5-4.2c0-1.1.2-2 .5-2.8s1-1.4 1.9-2c1-.6 2.3-1 4.1-1.2 1.7-.2 3.8-.4 6.4-.4v6.5c-.1.4-.4.9-.7 1.5-.4.8-.9 1.4-1.5 2zm41.4 1.3c-.9.3-2 .5-3.2.6-1.3.1-2.4.2-3.2.2-1.7 0-2.9-.5-3.8-1.5-.8-1-1.3-2.9-1.3-5.4v-19.1h11v-4.5h-11v-8.9h-2.5c-.8.4-1.7.7-2.5 1.1-.9.4-1.7.9-2.3 1.4l-.2.1v5.6c-1.9.5-3.8 1.3-5.6 2.4l-.2.1v2.6h5.8v21c0 3.5.8 6.2 2.4 7.8s4 2.4 7 2.4c1.2 0 2.3-.1 3.4-.4s2.1-.6 3-1 1.8-.9 2.5-1.3c.7-.5 1.3-.9 1.7-1.4l.2-.3-.9-1.7zm27 0c-.9.3-2 .5-3.2.6-1.3.1-2.4.2-3.2.2-1.7 0-2.9-.5-3.8-1.5-.8-1-1.3-2.9-1.3-5.4v-19.1h11v-4.5h-11v-8.9h-2.5c-.8.4-1.7.7-2.5 1.1-.9.4-1.7.9-2.3 1.4l-.2.1v5.6c-1.9.5-3.8 1.3-5.6 2.4l-.2.1v2.6h5.8v21c0 3.5.8 6.2 2.4 7.8s4 2.4 7 2.4c1.2 0 2.3-.1 3.4-.4s2.1-.6 3-1 1.8-.9 2.5-1.3c.7-.5 1.3-.9 1.7-1.4l.2-.3-.9-1.7zm30.8-27.6c-1.3-1-2.9-1.8-4.6-2.2s-3.4-.7-5.2-.7c-5.4 0-9.6 1.6-12.6 4.7-2.9 3.1-4.4 7.7-4.4 13.6 0 2.8.4 5.3 1.2 7.5s1.9 4.2 3.4 5.8 3.4 2.9 5.7 3.7c2.2.9 4.9 1.3 7.8 1.3 1.3 0 2.7-.2 4-.5s2.5-.7 3.6-1.2 2.1-1.1 3-1.8 1.5-1.5 2-2.3l.2-.3-1.6-1.7-.4.3c-.8.7-2.1 1.2-3.7 1.7-1.7.4-3.4.7-5.1.7-2 0-3.8-.3-5.3-1s-2.7-1.6-3.7-2.7c-1-1.2-1.7-2.6-2.2-4.1-.4-1.5-.7-3-.7-4.7h22.7l.1-.4c.2-.9.3-1.8.4-2.6s.1-1.6.1-2.4c0-2.5-.4-4.6-1.3-6.4-1-1.9-2.1-3.3-3.4-4.3zm-10.1 1.1c2.3 0 4 .8 5.1 2.4s1.7 3.9 1.7 6.6v1.1c0 .2 0 .5-.1.7h-15.1c.3-4 1.1-6.8 2.5-8.4 1.3-1.6 3.3-2.4 5.9-2.4zm44.4-1.2c-.3-.7-.6-1.4-.9-2l-.1-.2h-.3c-1.4-.1-2.7 0-4 .4s-2.5 1-3.6 1.7-2 1.6-2.9 2.5c-.5.6-.9 1.1-1.3 1.7v-6.3h-2.4c-1.5.2-3.1.5-4.8.9s-3.3.9-4.9 1.6l-.3.1v2.5l4.8.5v25.8c-.7.2-1.3.3-2 .5-.8.2-1.7.6-2.6 1.1l-.3.1v2.5h18.4v-2.5l-.3-.1c-1-.5-2-.9-3-1.2-.8-.2-1.7-.4-2.5-.5v-19.6c.6-1.5 1.3-2.7 2-3.4s1.3-1.2 1.8-1.5h10v-2.5c-.2-.7-.5-1.4-.8-2.1zm43.6 30.9c-1.2-.7-2.8-1.3-4.6-1.6v-16.8c0-2.8-.3-5.2-.8-7.1-.6-1.9-1.4-3.4-2.5-4.6-1.1-1.1-2.4-2-4.1-2.4-1.6-.4-3.4-.7-5.4-.7-2.8 0-5.3.8-7.3 2.3-1.5 1.2-2.7 2.5-3.7 4v-6.3h-2.4c-1.8.3-3.6.7-5.2 1.1-1.7.4-3.2.9-4.4 1.4l-.3.1v2.6l4.8.5v25.8c-1.8.5-3.4 1-4.5 1.6l-.3.1v2.5h16.8v-2.5l-.2-.1c-1.3-.8-2.7-1.3-4.1-1.6v-19.3c.3-.9.8-1.7 1.3-2.6.6-.8 1.2-1.6 2-2.3s1.6-1.2 2.6-1.6 2.1-.6 3.2-.6c2.6 0 4.4.9 5.4 2.7 1 1.9 1.5 4.6 1.5 7.9v15.7c-1.4.4-2.8 1-4 1.6l-.3.1v2.5h16.7v-2.5zm-239.1-93c.2-.2.4-.3.6-.3s.4.1.7.4c.2.2.3.4.4.6v-.2c-.1-.2-.2-.4-.4-.6-.3-.3-.5-.4-.7-.4s-.4.1-.6.3l-.5.5.1.1zm4.7-4.8.3.2.1-.1-.3-.3-1.2 1.2.1.1zm-1.3 1.4.2.3.1-.1-.3-.3-1.2 1.2.1.1zm-4.3 4.3.3.2.1-.1-.3-.3-1.2 1.2.1.1zm7-7.1.3.2.1-.1-.3-.3-1.1 1.1.1.1zm-9.4 9.4 1 .5-.1-.2-.9-.4-.4.4h.1zm11.5-9.3c.1-.1.2-.2.1-.4 0 .1-.1.1-.1.2l-.2.2-.7-.7-.1.1.8.8zm.4-2.6 2 1-.3-.3-1.7-.8-.3.3.1.1zm-2.1 4.1-.6-.6-.1.1.7.7.6-.6.3.3.1-.1-.3-.3zm-3.3 4.4-.3.3-.5-.8-.2-.1.7 1.1zm1.4-3.8 2.1 2.1.1-.1zm3 .5-.6-.6-.1.1.7.7.7-.7.3.3.1-.1-.4-.4zm-6.3 1.9.3-.1 2.9 1.9.1-.1-3-1.9zm1.9 2.2.4.5.1-.1zm.1-3.3 2.1 2.1.1-.1zm5.1-2.9 1 1 .1-.1zm1.2-2.1 1.4 1.4.1-.1-1.2-1.2zm-.5-1.7.4-.2 2.4 2.4.1-.1-2.5-2.5zm-.6 2.1c-.5-.5-.9-.5-1.4-.1l-.6.6.1.1.5-.5c.4-.4.9-.4 1.4.1.3.3.4.6.3.9l1.4.7.1-.1-1.5-.7c.1-.4 0-.7-.3-1zm-12.7 12.1.6.8.6-.6.3.3.1-.1-.3-.3-.6.6zm-.9.7-.3-.4-1.2 1.2.1.1 1.1-1.1zm-.3.5 2.1 2.1.1-.1zm2.9.5-.6-.6-.1.1.7.7.7-.7.3.3.1-.1-.4-.4zm-1.4-2.6.3.2.1-.1-.3-.3-1.1 1.1.1.1zm2.9-2.3 2.1 2.1.1-.1zm-.3 3 .5 1h.1zm2.4-3.6-.2.2-.8-.8-.1.1.8.8.2-.2c.1-.1.2-.3.1-.4.1.1.1.2 0 .3zm-3.4 1.1-.4.4.1.1.3-.3.7 1.6 1.7.7.1-.1-1.8-.8zm3.6-.4.9.9.1-.1zm101.3 27.8c-.2-.2-.1-.1 0 0zm-28-56.7s3 3.4 4.6 5.1c1.6 1.6 5.1 5 5.1 5s-2.1-2.5-4.6-5c-2.4-2.5-5.1-5.1-5.1-5.1zm14.9 6c-8.5-8.5-17.1-17.9-25-26.4l22.3-22.3c5.7-5.7 18.1-11.6 18.1-11.6l15.6-15.6 2.8-4.1-20.2-20.2-4.1 2.8-15.6 15.6s-5.9 12.5-11.6 18.1l-21.8 21.8-1.5-1.5c-8.2-8.2-21.8-20.5-27.9-26l14.7-14.6v-3.7s-3-4.2-9.7-10.9c-6.6-6.6-10.8-9.6-10.8-9.6h-3.7l-47.8 47.7v3.7s3 4.2 9.7 10.9c5.3 5.3 10.9 9.7 10.9 9.7h3.7l14.6-14.6c5.5 6.1 17.8 19.7 26 27.9l1.5 1.5-46.7 46.7c-2.7 2.7-7.3 4-7.3 4l-4.3 4.3s3.5 5.5 7.9 9.9 10.4 8.4 10.4 8.4l4.3-4.3s1.2-4.5 4-7.3l47.2-47.2c8.5 7.8 17.8 16.4 26.4 25 16.5 16.5 31 32.6 31.5 33 2.3 2.3 8.1-.3 13.6-5.9 5.9-5.9 8-11.6 6-13.5-.8-.9-16.7-15.2-33.2-31.7zm-66.2-64.3c6.9 6.2 17.2 15.7 23.9 22.4l1.5 1.5-3.6 3.6-4.5-4.5s2.1 2.7 4.1 5l-2.6 2.6c-2.9-2.9-5.3-5.4-6.3-6.4-2.9-2.9-6-6-7.3-7.2-1.2-1.2-3.4-3.8-4.7-5.1s-3.6-3.3-5.1-4.9l-2-2c.8-.9 1.7-1.7 2.6-2.4 2.2 2.3 4.6 4.9 7 7.3 6.1 6.1 12.9 12 12.9 12l-12.5-12.5-7.1-7.1c1.2-1.2 2.6-2 3.7-2.3zm16.4 32.7-1.1 1.1c-.9-.9-1.8-1.8-2.6-2.5-4.4-4.4-9.8-10-15.1-15.3l-7-7c.2-.5.4-1.1.7-1.6 2.7 2.6 5.6 5.4 7.9 7.6 3 3 7.6 6.9 7.6 6.9-3.4-3.5-7.6-8.1-9.1-9.6s-3.8-3.6-6-5.6c.3-.4.5-.8.9-1.2.9.7 1.6 1.3 2.2 1.9 1.7 1.7 4.5 4.4 5.5 5.4s3.7 3.6 5.7 5.6 6.2 6.5 7.2 7.5c1.8 1.8 3.4 3.4 5.1 4.9l-1.4 1.4c-5.8-5.3-12.8-11.7-12.8-11.7 1.4 1.5 6.5 6.4 12.3 12.2zm-40.1-36.1-2.8-2.8-.5.5-.4-.4.1-.1.3.3.5-.5 2.8 2.8.4-.4.1.1zm-2.4-3.5.4-.4.1.1-.4.4zm3.5 2.4-1-2.4-2.2-.9.1-.1 2 .9 1 2.4.4-.4.1.1zm-2-4.5.6 1.1-.1-.1zm3.3 3.2-1.4-.6-.1-.3 1.5.7.4-.4.1.1zm.7-.7-3.3-3.3.1-.1 3.2 3.2.4-.4.1.1zm-2.4-3.5.2-.2c.4-.4.6-.1.9.2.2.2.4.4.3.6 0-.1-.2-.3-.3-.4-.3-.3-.6-.6-.9-.2l-.1.1zm1.6 1.6.2-.2c.3-.3.4-.5.3-.8.1.3 0 .7-.3 1l-.1.1zm-12.6-9.5c-9.2 9.2-22.3 23.2-22.3 23.2s2.7 5.1 8.3 10.8c5.7 5.7 10.8 8.3 10.8 8.3l.6 1.7h-2.3s-3.5-2.5-10.1-9.1-9.1-10.1-9.1-10.1v-2.3l46.7-46.5h2.3s3.5 2.5 10.1 9.1 9.1 10.1 9.1 10.1v2.3l-1.7-.6s-2.9-4.9-8.5-10.6c-5.7-5.7-10.6-8.5-10.6-8.5s-14 13-23.3 22.2zm24.5 27.6c3.3 3.2 6.8 6.5 8.2 8 3.3 3.3 8.3 8.8 11.3 11.8.9.9 2.8 2.7 4.9 4.6l-.7.7c-3.8-3.7-8.9-8.7-16.2-15.9-2.9-2.9-5.5-5.5-7.9-7.7.2-.5.3-1 .4-1.5zm1.8 6c-1.1-1.1-1.7-2.2-1.9-3.4 4.1 4 8.7 8.5 12 11.7 3.3 3.3 7.6 7.4 11.6 11.2l-1.1 1.1c-6.9-6.8-16.1-16-20.6-20.6zm-21.9 84.7c-3.3 3.3-4.9 7.1-4.9 7.1l-2.7 2.7 3.3 3.3s-5.7-4.1-8.7-7.2c-3-3-6.7-8.3-6.7-8.3l2.7-2.7s4.4-1.1 7.6-4.4l85.9-85.9.2-.2 2.8-2.8c5.7-5.7 12-18.6 12-18.6l15.1-15 2.5-1.7 17.9 17.9-1.7 2.5-15.1 15.1s-15.6 3.5-21.3 9.3l-3 3zm126.2 1.7c-2.1-1.9-9.6-8.3-11.3-10l-8.6-8.6c-1.2-1.2-5.3-4.4-5.3-4.4s2.9 3.1 3.7 3.9 5.2 4.4 8.4 7.7c2.8 2.8 10.3 10.4 12.4 12.5-.7 1-1.5 2.1-2.7 3.3-1.8-1.6-7.5-6.5-10-9-3-3-5.6-5.4-8.8-8.5-3.1-3.1-6.3-5.9-9-8.7-2.8-2.8-10.8-11.1-10.8-11.1s8.2 9.3 11.2 12.3 5.2 4.5 8.8 8.1 9 9.3 11.2 11.4c1.7 1.7 5.6 4.8 7 5.9-.3.3-.6.7-1 1-.5.5-1.1 1-1.6 1.5-.5-.1-1.1-.5-1.7-1.2-.8-.8-16.1-16.4-32.6-32.9-6.1-6.1-18.3-17.3-20-18.8-1.4-1.2-2-2.4-2.2-3.6 1.8 1.7 3.6 3.4 5.3 5 4.7 4.7 9.7 9.1 9.7 9.1s-8.1-8.3-11.7-11.9c-.8-.8-2-1.9-3.4-3.1 0-.7.2-1.4.5-2 2.3 2.2 3.9 3.9 4.6 4.6 3.5 3.5 7.5 7.9 9.6 9.9 2.1 2.1 7.8 8 7.8 8s-7.7-8.7-12.2-13.2c-2.2-2.2-5.8-5.9-9.6-9.8.1-.3.3-.6.5-.8.1-.2.3-.5.5-.8 4 4.2 7.8 8.1 9.1 9.3 4.1 4.1 9.7 9.9 12.5 12.8 2.9 2.9 9.3 9.1 12.6 12.3 3.3 3.3 7.6 7.5 10.5 10.4s10.8 9.6 10.8 9.6-12.5-12.3-17-16.8-10.1-9.5-12.9-12.3c-3.9-3.9-10.2-10.7-13.5-14s-4.3-3.9-5-4.6c-.5-.5-4.1-4.3-6.8-7.1 1.9-2.3 5.1-4.8 7.3-5 7 7.5 14.4 15.6 21.9 23 16.5 16.5 32.9 31.3 33 31.5.1.3.7 1.8-1.2 5.1z" fill="#fff"/></svg>