<svg viewBox="0 0 320 52" width="320" height="52" xmlns="http://www.w3.org/2000/svg"><linearGradient id="a" gradientUnits="userSpaceOnUse" x1="29.112" x2="34.8265" y1="34.831" y2="29.1165"><stop offset=".125" stop-color="#7b6c35"/><stop offset=".875" stop-color="#b9aa69"/></linearGradient><linearGradient id="b" gradientUnits="userSpaceOnUse" x1="29.1062" x2="34.7248" y1="34.8248" y2="29.2051"><stop offset="0" stop-color="#2b2414"/><stop offset=".75" stop-color="#624e22"/></linearGradient><linearGradient id="c" gradientUnits="userSpaceOnUse" x1="33.5888" x2="29.6568" y1="30.3297" y2="34.2617"><stop offset=".5" stop-color="#2d2400"/><stop offset=".875" stop-color="#211700"/></linearGradient><linearGradient id="d" gradientUnits="userSpaceOnUse" x1="8.218" x2="15.1805" y1="8.217" y2="15.1795"><stop offset="0" stop-color="#fff"/><stop offset="1" stop-color="#666"/></linearGradient><linearGradient id="e" gradientUnits="userSpaceOnUse" x1="3.9167" x2="19.4228" y1="19.4827" y2="3.9767"><stop offset="0" stop-color="#0a0a0a"/><stop offset=".5" stop-color="#0f0f0f"/><stop offset="1" stop-color="#1a1a1a"/></linearGradient><linearGradient id="f" gradientUnits="userSpaceOnUse" x1=".473" x2="7.4345" y1="15.9619" y2="22.9235"><stop offset="0" stop-color="#999"/><stop offset="1" stop-color="#1a1a1a"/></linearGradient><linearGradient id="g" gradientUnits="userSpaceOnUse" x1="15.9637" x2="22.9258" y1=".4732" y2="7.4352"><stop offset="0" stop-color="#ccc"/><stop offset="1" stop-color="#333"/></linearGradient><linearGradient id="h" gradientUnits="userSpaceOnUse" x1="35.631" x2="50.604" y1="11.481" y2="11.481"><stop offset=".125" stop-color="#cdcdcb"/><stop offset=".875" stop-color="#a09ea1"/></linearGradient><path d="m49.8 49.8c-1.8 1.8-3.7 2.7-4.4 1.9-.3-.3 0 0 0 0-.1-.1-4.9-5.3-10.2-10.7-4.9-4.9-10.6-9.8-14.1-13.3s-9.3-10.1-9.4-10.1l-.4-.4 2.8-3.1 3-2.8.4.4s6.6 5.8 10.1 9.4c3.5 3.5 8.4 9.2 13.3 14.1 5.4 5.4 10.5 10 10.8 10.3.7.5 0 2.4-1.9 4.3z"/><path d="m27.2 21.5c-3.5-3.5-10-9.3-10-9.3l-2.6 2.4-2.4 2.6s5.8 6.6 9.3 10c3.5 3.5 9.2 8.4 14.1 13.3 5.4 5.4 10.1 10.6 10.2 10.7s1.1.5 3.5-1.9 2-3.4 1.9-3.5-5.4-4.9-10.7-10.2c-4.8-4.9-9.8-10.6-13.3-14.1z" fill="url(#a)"/><path d="m48.8 49.8c-.2 0-.3-.2-.6-.4-.2-.2-5.2-5.3-10.5-10.6-2-2-5.9-5.6-6.5-6.1-1-.8-.9-1.7-.4-2.5.5-.9 1.8-1.9 2.6-2-.8-.9-1.6-1.8-2.4-2.6-2.3 1.3-5 2.9-5.4 2.5-1.9-1.9-6.6-6.6-8.6-8.6-.9-.9-.8-1.8-.3-2.8s1.9-2.1 2.8-2.4c-1.4-1.2-2.3-2.1-2.3-2.1l-2.6 2.4-2.4 2.6s5.8 6.6 9.3 10c3.5 3.5 9.2 8.4 14.1 13.3 5.4 5.4 10.1 10.6 10.2 10.7s1 .5 3-1.4z" fill="url(#b)"/><path d="m39.3 36.5s-.7-.8-1.5-1.6-1.7-1.6-1.7-1.6 1 1.1 1.5 1.6c.6.5 1.7 1.6 1.7 1.6zm-12.2-12.8c-.8-.8-2-2-2-2s1.2 1.5 1.9 2.2.9.6.1-.2zm-1.8 3.1c-1.2-1.2-3.2-3.1-6.5-6.3-2.5-2.5-4.5-4.4-5.1-4.9l-.1.2c.9.8 4.6 4.4 6.6 6.4 2.3 2.3 6.3 6 7.3 6.9s3.1 2.6 4.6 4.2c1.5 1.5 3.2 3 3.2 3s-2.6-2.7-3.8-3.9c-1.1-1.4-4.7-4.2-6.2-5.6zm-.7-5.5-4.1-4.1-4.2-4.2c.5.6 2.4 2.7 4.1 4.4 2 2 4.2 3.9 4.2 3.9zm-5-2.9c.3.3 1.2 1.2 1.9 1.8.6.6 2 2.1 2.3 2.5 1.3 1.3 2.3 2.2 3.9 3.8s5.5 5.6 6.3 6.4c1.3 1.3 3.1 3.2 4.1 4.2.9.9 3 2.9 4.1 4s2.5 2.4 3.4 3.4c.9.9 3.5 3.1 3.5 3.1s-4.1-4-5.5-5.5c-1.5-1.5-3.3-3.1-4.2-4-1.3-1.3-3.3-3.5-4.4-4.5-1.1-1.1-1.4-1.3-1.6-1.5s-2.5-2.6-3-3.1c-.6-.6-5.8-5.9-6.7-6.8-1-1-2-1.9-2.4-2.3s-1.1-1.2-1.5-1.7c-.4-.4-1.2-1.1-1.7-1.6s-1.8-1.7-2.6-2.6l-.5.2c1.4 1.4 2.3 1.9 2.8 2.5.6.5 1.5 1.4 1.8 1.7zm3.2 5.4c1 1 5.1 4.7 5.1 4.7s-2.8-2.7-4.2-4.1-3.2-3.3-4.9-5c-1.5-1.4-3.8-3.7-4.5-4.4l-.2.2c1 .9 4.1 3.9 5 4.8 1.1 1.1 2.7 2.9 3.7 3.8zm20.9 19.4c-1-1-2-1.9-2.9-2.8s-3.5-3.6-3.5-3.6 2.7 3 3.6 4c1 1 1.7 1.5 2.9 2.6 1.2 1.2 2.9 3 3.6 3.7.6.6 1.8 1.5 2.3 1.9l.1-.1c-.6-.5-2.4-2.1-3.2-2.9-1-1-1.9-1.8-2.9-2.8zm3.5 1-2.8-2.8c-.4-.4-1.7-1.4-1.7-1.4s.9 1 1.2 1.3 1.7 1.4 2.7 2.5c.9.9 3.4 3.4 4 4.1.1-.1.2-.2.2-.4-.6-.7-3-2.8-3.6-3.3zm-25.5-22.8c-1.1-1.1-2.5-2.6-2.9-3.1-1.1-1.1-3.3-3-4.1-3.8l-.1.1c.8.8 3.2 3 4.7 4.5.9 1 2.4 2.3 2.4 2.3zm-.9-.5c1.2 1.2 10.2 10 11.3 11.1s2.5 2.6 3.1 3.2c.7.7 2.5 2.6 2.5 2.6s-2.5-2.8-4-4.3-5-5.1-6.7-6.8c-1.1-1.1-6.2-5.8-6.2-5.8z" fill="#6b5600"/><path d="m35.3 39c-1.7-1.7-4.9-4.7-6.2-6.1-.2-.2-3-3-3.6-3.6s-5.8-5.3-6.7-6.2c-1-1-2-2.3-2.4-2.7s-1.2-1.3-1.6-1.7-1.1-1.1-1.6-1.7c-.2-.2-.3-.3-.4-.3l-.1.1c0 .1.1.2.3.4.6.6 1.3 1.4 1.6 1.8l2 2c.6.6 1.9 2 2.2 2.4 1.3 1.3 2.4 2 4 3.6s5.4 5.4 6.1 6.2c1.3 1.3 3.3 3 4.2 3.9s3 3.1 4.1 4.2 2.5 2.5 3.4 3.5c.9.9 3.5 3.3 3.5 3.3-3.9-4-3.8-4.1-5.1-5.5-1.5-1.4-2.8-2.7-3.7-3.6zm8.7 7c-1.3-1.3-2.3-2.4-3.7-3.8s-3-2.9-4.2-4.1-4.8-4.7-4.8-4.7 3.5 3.7 4.9 5l4 4c1.6 1.6 4 4.1 5 5.1.8.8 3.1 2.8 3.1 2.8l.4-.3c-.2.1-2.8-2.1-4.7-4zm-26.8-25.3c1.2 1.2 8.5 8 9.5 9.1s5.8 5.5 5.8 5.5-3.2-3.2-4.7-4.8-7.3-6.7-9.1-8.6-5-5.1-5-5.1l-.4.2s2.7 2.5 3.9 3.7zm29.1 29.5c-.9-.9-1.8-1.7-1.8-1.7s1 1.3 1.5 1.8l.9.9c.1 0 .2-.1.3-.1-.2-.2-.5-.5-.9-.9zm-19.2-22.4c.5.5.8.7.8.7zm3.4 3.7c0-.1 0-.2 0-.3-1.1-.9-2.6-2.2-3.8-3.2h-.1c.5.4.8.7 1.1.9.6.6 1.7 1.5 2.8 2.6zm.2-1.1c-1-1-2-2.1-2.8-2.9-.1 0-.2.1-.2.1l3 2.9c-.1 0-.1-.1 0-.1zm-12.5-15.4-1.9-2c.3.3 1 1.1 1.8 2zm12.9 14.7c-.3-.4-.6-.7-.8-.8-.2-.2-.9-.9-1.7-1.7 0 0-.1 0-.1.1.7.8 1.7 1.7 2.6 2.6-.1-.1-.1-.1 0-.2zm-14.6-12.5c-.9-.9-1.8-1.8-2.2-2.2-.1.1-.1.2-.2.2.5.4 1.4 1.3 2.3 2.2 0-.1.1-.1.1-.2zm.8-1.4c-.6-.6-1.4-1.4-2-1.9l-.3.2c.9.9 1.6 1.4 2.1 1.8.1.1.1 0 .2-.1zm-1 2.1c-1.2-1.1-2.1-2-2.5-2.4-.1.1-.1.1-.1.2.5.4 1.5 1.4 2.7 2.5 0 0-.1-.2-.1-.3zm.4-1.3c0-.1.1-.1.1-.2-.9-.8-1.7-1.5-2.1-1.9l-.1.1-.1.1c.5.3 1.3 1.1 2.2 1.9z" fill="url(#c)"/><path d="m16.7 0s1.4 1 3.5 3.1c2.2 2.2 3.1 3.5 3.1 3.5v1.2l-15.4 15.6h-1.2s-1.8-1.4-3.5-3.1c-2.2-2.2-3.2-3.6-3.2-3.6v-1.2l15.5-15.5z"/><path d="m16.5.6h-.7l-15.2 15.2v.7s.8 1.1 2.9 3.3c2.1 2.1 3.3 2.9 3.3 2.9h.7l15.3-15.1v-.7s-.8-1.1-2.9-3.3c-2.2-2.2-3.4-3-3.4-3z" fill="url(#d)"/><path d="m16.5.6h-.7l-15.2 15.2v.7s.8 1.1 2.9 3.3c2.1 2.1 3.3 2.9 3.3 2.9h.7l15.3-15.1v-.7s-.8-1.1-2.9-3.3c-2.2-2.2-3.4-3-3.4-3z" fill="url(#d)"/><path d="m22.2 7.4s-4.2 4.5-7.2 7.5-7.5 7.2-7.5 7.2-1.7-.9-3.5-2.7c-1.9-1.8-2.8-3.4-2.8-3.4s4.3-4.5 7.3-7.5 7.5-7.2 7.5-7.2 1.6.9 3.4 2.8c1.9 1.7 2.8 3.3 2.8 3.3z" fill="url(#e)"/><path d="m7.4 22.2s-1.7-.9-3.5-2.7c-1.8-1.9-2.7-3.5-2.7-3.5l-.6-.2v.7s.8 1.1 2.9 3.3c2.1 2.1 3.3 2.9 3.3 2.9h.7z" fill="url(#f)"/><path d="m22.8 7.6v-.7s-.8-1.1-2.9-3.3c-2.1-2.1-3.3-2.9-3.3-2.9h-.7l.1.5s1.6.9 3.4 2.8c1.8 1.8 2.8 3.4 2.8 3.4z" fill="url(#g)"/><path d="m5.2 49.3c-1.4-1.4-2.6-3.2-2.6-3.2l1.4-1.4s1.5-.4 2.4-1.3l28.9-28.9c1.8-1.8 3.8-5.9 3.8-5.9l5.1-5.1 1.3-.9 6.5 6.6-.9 1.3-5.1 5.1s-4 1.9-5.9 3.8l-28.9 28.8c-.9.9-1.3 2.4-1.3 2.4l-1.4 1.4s-1.9-1.3-3.3-2.7z"/><path d="m44.5 4-4.9 4.9s-1.2 5.1-3 6.9l-1 1 2.2 2.2 1-1c1.9-1.9 6.9-3 6.9-3l4.9-4.9z" fill="url(#h)"/><path d="m37.8 19 .9.9 1-1c1.9-1.9 6-3.9 6-3.9s-5.1 1.2-6.9 3z" fill="#616161"/><path d="m34.7 15.9.9.9 1-1c1.9-1.9 3-6.9 3-6.9s-2 4.2-3.9 6z" fill="#ebe9e9"/><path d="m35.7 16.7-28 28c-1.1 1.1-2.3 1.6-2.3 1.6l2.9 2.9s.5-1.2 1.6-2.3l28-28z" fill="#fc3"/><path d="m3.5 46.1s1.2 1.7 2.2 2.7 2.8 2.3 2.8 2.3z" fill="#bfbfbf"/><path d="m50.6 10.1.6-.8-5.8-5.8-.9.5" fill="#ebe9e9"/><path d="m7.4 50.1.9-.9 1.1 1.1-.9.9z" fill="#3d2812"/><path d="m4.5 47.2-1.1-1.1.9-.9 1.1 1.1z" fill="#e2d9ac"/><path d="m8.3 49.2-.9.9-2.9-2.9.9-.9z" fill="#fcc332"/><path d="m38.8 19.8-.9-.9-28 28c-1.1 1.1-1.6 2.3-1.6 2.3l1.1 1.1s.4-1.4 1.4-2.5z" fill="#473015"/><path d="m34.8 15.8-28 28c-1.1 1.1-2.5 1.4-2.5 1.4l1.1 1.1s1.2-.5 2.3-1.6l28-28z" fill="#ede5b2"/><path d="m93.5 42v-1.8s-1.6-.5-2.4-.7c-.6-.2-1.4-.3-2.2-.5v-26h7l2.2 6h1.8c.1-.6.2-1.2.2-2 .1-.8.2-2 .2-2.7s.1-1 .2-1.8c0-.8.1-1.2.1-1.8v-.7h-28.4v.7c0 .6.1 1.1.1 1.8 0 .8.1 1 .2 1.8s.2 2 .2 2.7c.1.8.2 1.4.2 2h1.8l2.2-6h7v26c-.7.1-1.5.3-2.2.5s-2.4.7-2.4.7v1.8zm24.5-21.4c-.9-.7-1.9-1.2-3.1-1.4-1.1-.3-2.3-.4-3.5-.4-3.6 0-6.4 1-8.4 3.1-2 2-3 5-3 8.8 0 1.8.3 3.4.8 4.9.5 1.4 1.3 2.7 2.3 3.8 1 1 2.3 1.9 3.8 2.4 1.5.6 3.3.8 5.2.8.9 0 1.8-.1 2.7-.3s1.7-.5 2.4-.8 1.4-.7 2-1.2 1-1 1.3-1.5l.1-.2-1.1-1.1-.2.2c-.5.4-1.4.8-2.5 1.1s-2.3.4-3.4.4c-1.4 0-2.5-.2-3.5-.7-1-.4-1.8-1-2.5-1.8s-1.2-1.7-1.5-2.7c-.3-.9-.5-1.9-.5-3h15.2l.1-.3c.1-.6.2-1.2.3-1.7s.1-1 .1-1.5c0-1.6-.3-3-.8-4.1-.7-1.2-1.4-2.1-2.3-2.8zm-6.9.6c1.5 0 2.6.5 3.3 1.5s1.1 2.4 1.1 4.1c0 .2 0 1-.1 1.1h-9.9c.2-2.5.8-4.2 1.6-5.2 1-1 2.3-1.5 4-1.5zm157.9-.6c-.9-.7-1.9-1.2-3.1-1.4-1.1-.3-2.3-.4-3.5-.4-3.6 0-6.4 1-8.4 3.1-2 2-3 5-3 8.8 0 1.8.3 3.4.8 4.9.5 1.4 1.3 2.7 2.3 3.8 1 1 2.3 1.9 3.8 2.4 1.5.6 3.3.8 5.2.8.9 0 1.8-.1 2.7-.3s1.7-.5 2.4-.8 1.4-.7 2-1.2 1-1 1.3-1.5l.1-.2-1.1-1.1-.2.2c-.5.4-1.4.8-2.5 1.1s-2.3.4-3.4.4c-1.4 0-2.5-.2-3.5-.7-1-.4-1.8-1-2.5-1.8s-1.2-1.7-1.5-2.7c-.3-.9-.5-1.9-.5-3h15.2l.1-.3c.1-.6.2-1.2.3-1.7 0-.5.1-1 .1-1.5 0-1.6-.3-3-.8-4.1-.7-1.2-1.4-2.1-2.3-2.8zm-6.9.6c1.5 0 2.6.5 3.3 1.5s1.1 2.4 1.1 4.1c0 .2 0 1-.1 1.1h-9.9c.2-2.5.8-4.2 1.6-5.2 1-1 2.3-1.5 4-1.5zm-140.1 20.8h8.6v-1.7c-.4-.2-.9-.5-1.3-.7-.3-.1-.5-.2-.8-.4l4.7-6.6 4.7 6.6c-.2.1-.5.2-.8.3-.4.2-1 .5-1.4.7v1.8h10.3v-1.7c-.4-.2-1-.5-1.4-.7s-.8-.3-1.2-.4l-7.2-9.5 6.2-7.9c1.1-.3 2.2-.8 2.8-1.2v-1.6h-8.5v1.6c.5.4 1.3.8 2.2 1.1l-4.3 6-4.3-6c.3-.1.6-.2.8-.4.4-.2.9-.5 1.3-.7v-1.6h-10.1v1.6c.4.2 1 .6 1.3.7.3.2.7.3 1.1.5l6.8 8.7-6.7 8.6c-.9.2-1.9.7-2.8 1.2zm25-20h4v13.8c0 2.3.4 4 1.4 5.1 1.1 1.1 2.6 1.6 4.6 1.6.8 0 1.5-.1 2.2-.3s1.4-.4 2-.7 1.1-.6 1.6-.9 1.3-1.1 1.3-1.1l-.6-1.1s-1.6.4-2.4.5c-.9.1-1.6.1-2.1.1-1.1 0-1.8-.3-2.4-1s-.8-1.9-.8-3.6v-12.4h7v-3h-7v-6h-1.7-.1c-.6.2-1.2.5-1.7.8s-1.4 1-1.4 1v4c-1.3.3-2.8.8-4 1.5zm68 0h4v13.8c0 2.3.4 4 1.4 5.1 1.1 1.1 2.6 1.6 4.6 1.6.8 0 1.5-.1 2.2-.3s1.4-.4 2-.7 1.1-.6 1.6-.9 1.3-1.1 1.3-1.1l-.6-1.1s-1.6.4-2.4.5c-.9.1-1.6.1-2.1.1-1.1 0-1.8-.3-2.4-1s-.8-1.9-.8-3.6v-12.4h7v-3h-7v-6h-1.7-.1c-.6.2-1.2.5-1.7.8s-1.4 1-1.4 1v3.9c-1.3.3-2.8.8-4 1.5v1.8zm18 0h4v13.8c0 2.3.4 4 1.4 5.1 1.1 1.1 2.6 1.6 4.6 1.6.8 0 1.5-.1 2.2-.3s1.4-.4 2-.7 1.1-.6 1.6-.9 1.3-1.1 1.3-1.1l-.6-1.1s-1.6.4-2.4.5c-.9.1-1.6.1-2.1.1-1.1 0-1.8-.3-2.4-1s-.8-1.9-.8-3.6v-12.4h7v-3h-7v-6h-1.7-.1c-.6.2-1.2.5-1.7.8s-1.4 1-1.4 1v3.9c-1.3.3-2.8.8-4 1.5v1.8zm-56 27.3c-.6-.3-1.2-.6-1.8-.8-.4-.1-.8-.2-1.2-.3v-6.4c.6.2 1.2.4 1.8.5.7.1 1.6.2 2.8.2 1.7 0 3.3-.3 4.7-.9s2.6-1.4 3.6-2.5 1.8-2.4 2.3-4c.5-1.5.8-3.4.8-5.3 0-4-.8-6.9-2.4-8.8-1.6-1.8-3.9-2.8-6.8-2.8-1.9 0-3.5.5-4.7 1.4-.9.7-1.6 1.6-2.1 2.6v-4h-1.6c-1 .2-2.1.4-3.1.6-1.1.3-2.1.6-3.2 1l-.1.1v1.7l3 .4v26c-1 .2-2 .7-3 1.1v1.9h11zm7.8-19.2c0 1.5-.2 2.8-.5 4s-.7 2.3-1.3 3.1c-.6.9-1.2 1.6-2 2-.8.5-1.7.7-2.7.7-1.1 0-2-.1-2.7-.2-.6-.1-1.1-.3-1.6-.6v-12.3c.4-1.5.9-2.7 1.8-3.6s2-1.3 3.5-1.3c1 0 1.9.2 2.6.6s1.3.9 1.7 1.6.8 1.6 1 2.6c.1 1 .2 2.2.2 3.4zm30.7 9.1-3.5-.5v-12.6c0-.8 0-1.7-.2-2.5-.2-.9-.4-1.7-1-2.4s-1.4-1.3-2.5-1.8c-1.1-.4-2.5-.7-4.2-.7-1.9 0-3.7.2-5.2.6-1.6.4-3 .9-4.3 1.6l-.2.1v.2c.1.9.2 1.9.5 2.8.2 1 .5 1.9.9 2.8l.1.2h1.8l2.4-5.4c.5-.2 1-.3 1.5-.3.6 0 1.1-.1 1.5-.1.9 0 1.7.2 2.2.5.6.4 1 .9 1.3 1.5.3.7.4 1.5.4 2.5v3.3c-2.2.1-4.2.3-5.9.5-1.8.2-3.3.6-4.5 1.1s-2.2 1.3-2.9 2.2c-.6.9-1 2.1-1 3.5 0 1.9.7 3.4 2 4.5s3.1 1.7 5.2 1.7c1.1 0 2.1-.2 3-.5s1.6-.7 2.3-1.2c.6-.5 1.2-1.1 1.6-1.7.2-.3.3-.5.4-.8 0 .5.1 1.1.1 1.5.1.8.3 1.6.6 2.3l.1.2h1.5c.9-.1 1.9-.4 3-.7 1-.3 2.2-.7 3-1.1zm-10-1.5c-.4.4-.9.7-1.5 1s-1.3.4-2 .4c-1.2 0-2.1-.3-2.7-.9-.7-.6-1-1.5-1-2.7 0-.7.1-1.3.4-1.8.2-.5.7-.9 1.3-1.3.7-.4 1.6-.6 2.8-.8 1.1-.2 2.6-.2 4.3-.3v4.3c-.1.3-.3.6-.5 1-.4.3-.7.7-1.1 1.1zm81.3 2.6c-.7-.3-1.4-.7-2.1-.8-.5-.1-1.1-.2-1.7-.3v-12.7c.4-1 .8-1.7 1.3-2.2s.8-1.1 1.1-1.2h6.5v-1.2-.1c-.2-.5-.3-1-.5-1.5s-.4-.9-.6-1.3l-.1-.1h-.2c-.9-.1-1.8 0-2.6.3s-1.6.6-2.3 1.1-1.3 1-1.9 1.6c-.3.4-.6.7-.9 1.1v-4.1h-1.5c-1 .1-2.1.4-3.1.6-1.1.3-2.4.7-3.4 1.1v1.4l3 .5v16.8c-.4.1-.7.2-1.2.4s-1.3.4-1.8.7v1.6h11.8zm33.2 0c-.8-.5-1.8-.9-3-1.1v-10.9c0-1.8-.3-3.4-.6-4.6-.4-1.2-1-2.2-1.7-3-.7-.7-1.6-1.3-2.7-1.6-1-.3-2.2-.4-3.5-.4-1.9 0-3.5.5-4.8 1.5-1 .8-2 1.6-2.6 2.6v-4.1h-1.5c-1.2.2-2.3.5-3.4.7-1.1.3-2.3.7-3.1 1v1.6l3 .5v16.8c-1.2.3-2.2.7-3 1.1v1.6h11v-1.7c-.9-.5-2.1-.9-3-1.1v-12.5c.2-.6.7-1.1 1-1.7.4-.5.8-1 1.3-1.5.5-.4 1.1-.8 1.7-1s1.4-.4 2.1-.4c1.8 0 3 .6 3.6 1.8.7 1.2 1.1 3 1.1 5.1v10.2c-1 .3-2.2.7-3 1.1v1.7h11z"/></svg>