<svg height="52" viewBox="0 0 320 52" width="320" xmlns="http://www.w3.org/2000/svg"><path d="m45.3 51.6c-.1 0-.1 0 0 0zm-9.1-18.4s1 1.1 1.5 1.6 1.7 1.6 1.7 1.6-.7-.8-1.5-1.6c-.8-.7-1.7-1.6-1.7-1.6zm4.8 1.9c-2.8-2.8-5.6-5.8-8.1-8.6l7.2-7.2c1.8-1.8 5.9-3.8 5.9-3.8l5.1-5.1.9-1.2-6.6-6.6-1.3.9-5.1 5.1s-1.9 4.1-3.8 5.9l-7.1 7.1c-.2-.2-.3-.3-.5-.5-2.7-2.7-7.1-6.7-9.1-8.4l4.8-4.8v-1.2s-1-1.4-3.1-3.5c-2.1-2.2-3.5-3.2-3.5-3.2h-1.2l-15.5 15.5v1.2s1 1.4 3.1 3.5c1.7 1.7 3.5 3.1 3.5 3.1h1.2l4.7-4.7c1.8 2 5.8 6.4 8.4 9.1l.5.5-15 15.2c-.9.9-2.4 1.3-2.4 1.3l-1.4 1.4s1.1 1.8 2.6 3.2c1.4 1.4 3.3 2.7 3.3 2.7l1.4-1.4s.4-1.5 1.3-2.4l15.3-15.3c2.8 2.5 5.8 5.3 8.6 8.1 5.4 5.4 10.1 10.6 10.2 10.7.7.7 2.6-.1 4.4-1.9 1.9-1.9 2.6-3.8 2-4.4-.2-.2-5.3-4.9-10.7-10.3zm-21.5-20.8c2.2 2 5.6 5.1 7.8 7.3l.5.5-1.2 1.2-1.5-1.5s.7.9 1.3 1.6l-.8.8c-.9-1-1.7-1.8-2.1-2.1-1-1-2-1.9-2.4-2.3s-1.1-1.2-1.5-1.7c-.4-.4-1.2-1.1-1.7-1.6-.1-.1-.4-.4-.7-.6.2-.3.5-.6.8-.8.7.8 1.5 1.6 2.3 2.4 2 2 4.2 3.9 4.2 3.9l-4-4-2.3-2.4c.5-.4.9-.6 1.3-.7zm5.3 10.6-.4.4c-.3-.3-.6-.6-.8-.8-1.4-1.4-3.2-3.3-4.9-5-.6-.6-1.5-1.5-2.3-2.3.1-.2.1-.4.2-.5.9.8 1.8 1.7 2.5 2.5 1 1 2.5 2.2 2.5 2.2-1.1-1.1-2.5-2.6-2.9-3.1-.5-.5-1.2-1.2-1.9-1.8.1-.1.2-.3.3-.4.3.2.5.4.7.6.6.6 1.5 1.4 1.8 1.8.3.3 1.2 1.2 1.9 1.8.6.6 2 2.1 2.3 2.5l1.6 1.6-.4.3c-1.9-1.7-4.2-3.8-4.2-3.8zm-16.3-16.4c-3 3-7.3 7.5-7.3 7.5s.9 1.7 2.7 3.5 3.5 2.7 3.5 2.7l.2.6h-.7s-1.1-.8-3.3-2.9-3-3.3-3-3.3v-.7l15.2-15.3h.7s1.1.8 3.3 2.9c2.1 2.1 2.9 3.3 2.9 3.3v.7l-.6-.2s-.9-1.6-2.8-3.4c-1.7-1.8-3.3-2.7-3.3-2.7s-4.5 4.3-7.5 7.3zm7.9 8.9c1.1 1 2.2 2.1 2.7 2.6 1.1 1.1 2.7 2.8 3.7 3.8.3.3.9.9 1.6 1.5l-.2.2c-1.2-1.2-2.9-2.8-5.2-5.2-.9-.9-1.8-1.8-2.6-2.5-.1 0 0-.2 0-.4zm.6 2c-.4-.4-.5-.7-.6-1.1 1.3 1.3 2.8 2.7 3.9 3.8s2.5 2.4 3.8 3.6l-.4.3c-2.2-2.2-5.2-5.1-6.7-6.6zm-7.1 27.5c-1.1 1.1-1.6 2.3-1.6 2.3l-.9.9 1.1 1.1s-1.9-1.3-2.8-2.3c-1-1-2.2-2.7-2.2-2.7l.9-.9s1.4-.4 2.5-1.4l27.9-27.9.1-.1.9-.9c1.9-1.9 3.9-6 3.9-6l4.8-5 .8-.6 5.8 5.8-.6.8-4.8 5s-5.1 1.2-6.9 3l-1 1zm41 .5c-.7-.6-3.1-2.7-3.7-3.3l-2.8-2.8c-.4-.4-1.7-1.4-1.7-1.4s.9 1 1.2 1.3 1.7 1.4 2.7 2.5c.9.9 3.4 3.4 4 4.1-.2.3-.5.7-.9 1.1-.6-.5-2.4-2.1-3.2-2.9-1-1-1.8-1.8-2.9-2.8-1-1-2-1.9-2.9-2.8s-3.5-3.6-3.5-3.6 2.7 3 3.6 4c1 1 1.7 1.5 2.9 2.6 1.2 1.2 2.9 3 3.6 3.7.6.6 1.8 1.6 2.3 1.9-.1.1-.2.2-.3.3-.2.2-.3.3-.5.5-.2 0-.3-.2-.6-.4-.2-.2-5.2-5.3-10.5-10.6-2-2-5.9-5.6-6.5-6.1-.4-.4-.7-.8-.7-1.2.6.5 1.2 1.1 1.7 1.6 1.5 1.5 3.2 3 3.2 3s-2.6-2.7-3.8-3.9c-.3-.3-.6-.6-1.1-1 0-.2.1-.4.1-.7.7.7 1.3 1.3 1.5 1.5 1.1 1.1 2.5 2.6 3.1 3.2.7.7 2.5 2.6 2.5 2.6s-2.5-2.8-4-4.3c-.7-.7-1.9-1.9-3.1-3.2 0-.1.1-.2.1-.3s.1-.2.2-.2c1.3 1.4 2.5 2.6 3 3 1.3 1.3 3.1 3.2 4.1 4.2.9.9 3 2.9 4.1 4s2.5 2.4 3.4 3.4c.9.9 3.5 3.1 3.5 3.1s-4.1-4-5.5-5.5c-1.5-1.5-3.3-3.1-4.2-4-1.3-1.3-3.3-3.5-4.4-4.5-1.1-1.1-1.4-1.2-1.6-1.5-.2-.2-1.3-1.4-2.2-2.3.6-.8 1.6-1.6 2.4-1.6 2.3 2.5 4.7 5.1 7.1 7.5 5.4 5.4 10.7 10.2 10.7 10.2 0 .1.2.6-.4 1.6zm42.6-5.4v-1.8s-1.6-.5-2.4-.7c-.6-.2-1.4-.3-2.2-.5v-26h7l2.2 6h1.8c.1-.6.2-1.2.2-2 .1-.8.2-2 .2-2.7s.1-1 .2-1.8c0-.8.1-1.2.1-1.8v-.7h-28.4v.7c0 .6.1 1.1.1 1.8 0 .8.1 1 .2 1.8s.2 2 .2 2.7c.1.8.2 1.4.2 2h1.8l2.2-6h7v26c-.7.1-1.5.3-2.2.5s-2.4.7-2.4.7v1.8zm24.5-21.4c-.9-.7-1.9-1.2-3.1-1.4-1.1-.3-2.3-.4-3.5-.4-3.6 0-6.4 1-8.4 3.1-2 2-3 5-3 8.8 0 1.8.3 3.4.8 4.9.5 1.4 1.3 2.7 2.3 3.8 1 1 2.3 1.9 3.8 2.4 1.5.6 3.3.8 5.2.8.9 0 1.8-.1 2.7-.3s1.7-.5 2.4-.8 1.4-.7 2-1.2 1-1 1.3-1.5l.1-.2-1.1-1.1-.2.2c-.5.4-1.4.8-2.5 1.1s-2.3.4-3.4.4c-1.4 0-2.5-.2-3.5-.7-1-.4-1.8-1-2.5-1.8s-1.2-1.7-1.5-2.7c-.3-.9-.5-1.9-.5-3h15.2l.1-.3c.1-.6.2-1.2.3-1.7s.1-1 .1-1.5c0-1.6-.3-3-.8-4.1-.7-1.2-1.4-2.1-2.3-2.8zm-6.9.6c1.5 0 2.6.5 3.3 1.5s1.1 2.4 1.1 4.1c0 .2 0 1-.1 1.1h-9.9c.2-2.5.8-4.2 1.6-5.2 1-1 2.3-1.5 4-1.5zm157.9-.6c-.9-.7-1.9-1.2-3.1-1.4-1.1-.3-2.3-.4-3.5-.4-3.6 0-6.4 1-8.4 3.1-2 2-3 5-3 8.8 0 1.8.3 3.4.8 4.9.5 1.4 1.3 2.7 2.3 3.8 1 1 2.3 1.9 3.8 2.4 1.5.6 3.3.8 5.2.8.9 0 1.8-.1 2.7-.3s1.7-.5 2.4-.8 1.4-.7 2-1.2 1-1 1.3-1.5l.1-.2-1.1-1.1-.2.2c-.5.4-1.4.8-2.5 1.1s-2.3.4-3.4.4c-1.4 0-2.5-.2-3.5-.7-1-.4-1.8-1-2.5-1.8s-1.2-1.7-1.5-2.7c-.3-.9-.5-1.9-.5-3h15.2l.1-.3c.1-.6.2-1.2.3-1.7 0-.5.1-1 .1-1.5 0-1.6-.3-3-.8-4.1-.7-1.2-1.4-2.1-2.3-2.8zm-6.9.6c1.5 0 2.6.5 3.3 1.5s1.1 2.4 1.1 4.1c0 .2 0 1-.1 1.1h-9.9c.2-2.5.8-4.2 1.6-5.2 1-1 2.3-1.5 4-1.5zm-140.1 20.8h8.6v-1.7c-.4-.2-.9-.5-1.3-.7-.3-.1-.5-.2-.8-.4l4.7-6.6 4.7 6.6c-.2.1-.5.2-.8.3-.4.2-1 .5-1.4.7v1.8h10.3v-1.7c-.4-.2-1-.5-1.4-.7s-.8-.3-1.2-.4l-7.2-9.5 6.2-7.9c1.1-.3 2.2-.8 2.8-1.2v-1.6h-8.5v1.6c.5.4 1.3.8 2.2 1.1l-4.3 6-4.3-6c.3-.1.6-.2.8-.4.4-.2.9-.5 1.3-.7v-1.6h-10.1v1.6c.4.2 1 .6 1.3.7.3.2.7.3 1.1.5l6.8 8.7-6.7 8.6c-.9.2-1.9.7-2.8 1.2zm25-20h4v13.8c0 2.3.4 4 1.4 5.1 1.1 1.1 2.6 1.6 4.6 1.6.8 0 1.5-.1 2.2-.3s1.4-.4 2-.7 1.1-.6 1.6-.9 1.3-1.1 1.3-1.1l-.6-1.1s-1.6.4-2.4.5c-.9.1-1.6.1-2.1.1-1.1 0-1.8-.3-2.4-1s-.8-1.9-.8-3.6v-12.4h7v-3h-7v-6h-1.7-.1c-.6.2-1.2.5-1.7.8s-1.4 1-1.4 1v4c-1.3.3-2.8.8-4 1.5zm68 0h4v13.8c0 2.3.4 4 1.4 5.1 1.1 1.1 2.6 1.6 4.6 1.6.8 0 1.5-.1 2.2-.3s1.4-.4 2-.7 1.1-.6 1.6-.9 1.3-1.1 1.3-1.1l-.6-1.1s-1.6.4-2.4.5c-.9.1-1.6.1-2.1.1-1.1 0-1.8-.3-2.4-1s-.8-1.9-.8-3.6v-12.4h7v-3h-7v-6h-1.7-.1c-.6.2-1.2.5-1.7.8s-1.4 1-1.4 1v3.9c-1.3.3-2.8.8-4 1.5v1.8zm18 0h4v13.8c0 2.3.4 4 1.4 5.1 1.1 1.1 2.6 1.6 4.6 1.6.8 0 1.5-.1 2.2-.3s1.4-.4 2-.7 1.1-.6 1.6-.9 1.3-1.1 1.3-1.1l-.6-1.1s-1.6.4-2.4.5c-.9.1-1.6.1-2.1.1-1.1 0-1.8-.3-2.4-1s-.8-1.9-.8-3.6v-12.4h7v-3h-7v-6h-1.7-.1c-.6.2-1.2.5-1.7.8s-1.4 1-1.4 1v3.9c-1.3.3-2.8.8-4 1.5v1.8zm-56 27.3c-.6-.3-1.2-.6-1.8-.8-.4-.1-.8-.2-1.2-.3v-6.4c.6.2 1.2.4 1.8.5.7.1 1.6.2 2.8.2 1.7 0 3.3-.3 4.7-.9s2.6-1.4 3.6-2.5 1.8-2.4 2.3-4c.5-1.5.8-3.4.8-5.3 0-4-.8-6.9-2.4-8.8-1.6-1.8-3.9-2.8-6.8-2.8-1.9 0-3.5.5-4.7 1.4-.9.7-1.6 1.6-2.1 2.6v-4h-1.6c-1 .2-2.1.4-3.1.6-1.1.3-2.1.6-3.2 1l-.1.1v1.7l3 .4v26c-1 .2-2 .7-3 1.1v1.9h11zm7.8-19.2c0 1.5-.2 2.8-.5 4s-.7 2.3-1.3 3.1c-.6.9-1.2 1.6-2 2-.8.5-1.7.7-2.7.7-1.1 0-2-.1-2.7-.2-.6-.1-1.1-.3-1.6-.6v-12.3c.4-1.5.9-2.7 1.8-3.6s2-1.3 3.5-1.3c1 0 1.9.2 2.6.6s1.3.9 1.7 1.6.8 1.6 1 2.6c.1 1 .2 2.2.2 3.4zm30.7 9.1-3.5-.5v-12.6c0-.8 0-1.7-.2-2.5-.2-.9-.4-1.7-1-2.4s-1.4-1.3-2.5-1.8c-1.1-.4-2.5-.7-4.2-.7-1.9 0-3.7.2-5.2.6-1.6.4-3 .9-4.3 1.6l-.2.1v.2c.1.9.2 1.9.5 2.8.2 1 .5 1.9.9 2.8l.1.2h1.8l2.4-5.4c.5-.2 1-.3 1.5-.3.6 0 1.1-.1 1.5-.1.9 0 1.7.2 2.2.5.6.4 1 .9 1.3 1.5.3.7.4 1.5.4 2.5v3.3c-2.2.1-4.2.3-5.9.5-1.8.2-3.3.6-4.5 1.1s-2.2 1.3-2.9 2.2c-.6.9-1 2.1-1 3.5 0 1.9.7 3.4 2 4.5s3.1 1.7 5.2 1.7c1.1 0 2.1-.2 3-.5s1.6-.7 2.3-1.2c.6-.5 1.2-1.1 1.6-1.7.2-.3.3-.5.4-.8 0 .5.1 1.1.1 1.5.1.8.3 1.6.6 2.3l.1.2h1.5c.9-.1 1.9-.4 3-.7 1-.3 2.2-.7 3-1.1zm-10-1.5c-.4.4-.9.7-1.5 1s-1.3.4-2 .4c-1.2 0-2.1-.3-2.7-.9-.7-.6-1-1.5-1-2.7 0-.7.1-1.3.4-1.8.2-.5.7-.9 1.3-1.3.7-.4 1.6-.6 2.8-.8 1.1-.2 2.6-.2 4.3-.3v4.3c-.1.3-.3.6-.5 1-.4.3-.7.7-1.1 1.1zm81.3 2.6c-.7-.3-1.4-.7-2.1-.8-.5-.1-1.1-.2-1.7-.3v-12.7c.4-1 .8-1.7 1.3-2.2s.8-1.1 1.1-1.2h6.5v-1.2-.1c-.2-.5-.3-1-.5-1.5s-.4-.9-.6-1.3l-.1-.1h-.2c-.9-.1-1.8 0-2.6.3s-1.6.6-2.3 1.1-1.3 1-1.9 1.6c-.3.4-.6.7-.9 1.1v-4.1h-1.5c-1 .1-2.1.4-3.1.6-1.1.3-2.4.7-3.4 1.1v1.4l3 .5v16.8c-.4.1-.7.2-1.2.4s-1.3.4-1.8.7v1.6h11.8zm33.2 0c-.8-.5-1.8-.9-3-1.1v-10.9c0-1.8-.3-3.4-.6-4.6-.4-1.2-1-2.2-1.7-3-.7-.7-1.6-1.3-2.7-1.6-1-.3-2.2-.4-3.5-.4-1.9 0-3.5.5-4.8 1.5-1 .8-2 1.6-2.6 2.6v-4.1h-1.5c-1.2.2-2.3.5-3.4.7-1.1.3-2.3.7-3.1 1v1.6l3 .5v16.8c-1.2.3-2.2.7-3 1.1v1.6h11v-1.7c-.9-.5-2.1-.9-3-1.1v-12.5c.2-.6.7-1.1 1-1.7.4-.5.8-1 1.3-1.5.5-.4 1.1-.8 1.7-1s1.4-.4 2.1-.4c1.8 0 3 .6 3.6 1.8.7 1.2 1.1 3 1.1 5.1v10.2c-1 .3-2.2.7-3 1.1v1.7h11z"/></svg>