<?xml version="1.0" encoding="utf-8"?>
<!DOCTYPE svg>
<svg version="1.1" baseProfile="full" xmlns="http://www.w3.org/2000/svg" xmlns:xlink="http://www.w3.org/1999/xlink" x="0px" y="0px" width="160px" height="32px" viewBox="0 0 160 32" enable-background="new 0 0 160 32" xml:space="preserve">
<g id="svg-hamburger" fill="#333333">
	<rect x="4" y="6" width="24" height="4"/>
	<rect x="4" y="14" width="24" height="4"/>
	<rect x="4" y="22" width="24" height="4"/>
</g>
<g id="svg-facebook">
	<rect fill="#3b5998" x="32" width="32" height="32"/>
	<path fill="#ffffff" d="M54,32V20h4l0.8-5H54v-3.3c0-1.4,0.5-2.4,2.5-2.4H59V5c-0.4-0.1-1.9-0.2-3.7-0.2c-3.7,0-6.3,2.3-6.3,6.4V15h-4v5h4v12H54z"/>
</g>
<g id="svg-twitter">
	<rect fill="#00aced" x="64" width="32" height="32"/>
	<path fill="#ffffff" d="M90.666,9.384c-0.784,0.348-1.628,0.583-2.515,0.689c0.904-0.542,1.599-1.399,1.926-2.422c-0.847,0.5-1.782,0.866-2.779,1C86.5,7.8,85.361,7.269,84.104,7.269c-2.418,0-4.376,1.959-4.376,4.376c0,0.343,0,0.677,0.113,1c-3.638-0.183-6.863-1.925-9-4.573c-0.376,0.646-0.592,1.397-0.592,2.2c0,1.519,0.772,2.858,1.947,3.643c-0.717,0-1.392-0.22-1.982-0.547l0,0c0,2.12,1.5,3.889,3.511,4.292c-0.367,0.1-0.754,0.152-1.153,0.152c-0.282,0-0.556,0-0.823,0c0.557,1.739,2.173,3,4,3c-1.498,1.176-3.385,1.875-5.436,1.875c-0.354,0-0.702,0-1-0.062c1.937,1.241,4.237,1.967,6.709,1.967c8.05,0,12.454-6.669,12.454-12.453c0-0.19,0-0.378,0-0.566C89.338,11.032,90.08,10.262,90.666,9.384z"/>
</g>
<g id="svg-googleplus">
	<rect fill="#ce3825" x="96" width="32" height="32"/>
	<g fill="#ffffff">
		<polygon points="127,8 122,8 122,3 120,3 120,8 115,8 115,10 120,10 120,15 122,15 122,10 127,10"/>
		<path d="M114.5,2h-9.7c-1.288,0-2.667,0.151-4.138,0.452c-1.487,0.349-2.92,1.094-4.299,2.236C96.238,4.809,96.117,4.932,96,5.055v11.91c1.32,1.239,3.113,1.873,5.381,1.9c0.488,0,1.008-0.031,1.559-0.098c-0.092,0.256-0.19,0.535-0.297,0.838c-0.121,0.287-0.182,0.646-0.182,1.076c0,0.717,0.159,1.332,0.479,1.842c0.273,0.525,0.586,1.021,0.935,1.483c-1.131,0.031-2.554,0.173-4.267,0.427c-1.242,0.215-2.445,0.59-3.607,1.116v2.683c0.216-0.301,0.455-0.567,0.719-0.803c0.463-0.381,0.92-0.674,1.366-0.881c0.448-0.189,0.795-0.332,1.043-0.429c1.049-0.315,2.077-0.547,3.081-0.688c1.02-0.096,1.652-0.127,1.9-0.096c0.416,0,0.779,0.016,1.088,0.047c1.807,1.271,3.135,2.34,3.984,3.213c0.803,0.922,1.205,1.998,1.205,3.235c0,0.058-0.003,0.112-0.005,0.169h2.841c0.19-0.667,0.287-1.357,0.287-2.074c-0.029-1.666-0.408-3.013-1.135-4.045c-0.771-1.015-1.668-1.941-2.689-2.783l-1.646-1.355c-0.237-0.236-0.48-0.514-0.732-0.832c-0.297-0.332-0.445-0.753-0.445-1.262c0-0.521,0.145-0.981,0.434-1.379c0.246-0.381,0.514-0.723,0.803-1.022c0.506-0.444,0.982-0.88,1.43-1.309c0.404-0.428,0.789-0.896,1.149-1.403c0.737-1.047,1.12-2.442,1.149-4.187c0-0.952-0.107-1.784-0.32-2.498c-0.259-0.714-0.555-1.332-0.891-1.855c-0.35-0.555-0.709-1.023-1.074-1.403c-0.38-0.366-0.723-0.402-1.027-0.592h2.99L114.5,2z M107.607,14.247c-0.117,0.651-0.381,1.287-0.791,1.906c-0.853,0.875-1.916,1.333-3.192,1.384c-1.011,0-1.909-0.311-2.694-0.932c-0.787-0.62-1.429-1.375-1.926-2.265c-1.027-1.906-1.54-3.743-1.54-5.506c-0.032-1.334,0.32-2.542,1.056-3.623c0.871-1.033,1.963-1.565,3.278-1.597c0.994,0.032,1.872,0.326,2.638,0.883c0.748,0.588,1.353,1.35,1.812,2.288c0.978,1.955,1.467,3.894,1.467,5.816C107.713,13.047,107.678,13.595,107.607,14.247z"/>
	</g>
</g>
<g id="svg-search" fill="#333333">
	<path d="M132,13c0-5,4-9,9-9s9,4,9,9s-4,9-9,9S132,18,132,13z M141,19c3.3,0,6-2.7,6-6s-2.7-6-6-6s-6,2.7-6,6S137.7,19,141,19z"/>
	<path d="M145.5,19l1.5-1.5l4.5,3L156,25c0,0,0,1.5-0.75,2.25S153,28,153,28l-4.5-4.5L145.5,19z"/>
</g>
</svg>
