<svg role="img" viewBox="0 0 256 256" xmlns="http://www.w3.org/2000/svg"><title>Textpattern icon</title><path d="m223 254.3c-.4-.4-.2-.2 0 0zm-45-90.7s4.8 5.5 7.4 8.1 8.2 7.9 8.2 7.9-3.3-4-7.3-8c-3.9-3.9-8.3-8-8.3-8zm23.9 9.4c-13.7-13.7-27.4-28.6-39.9-42.2l35.6-35.6c9.1-9.1 29-18.5 29-18.5l25-25 4.4-6.5-32.3-32.3-6.5 4.4-25 25s-9.5 19.9-18.5 29l-34.9 34.9c-.8-.8-1.6-1.6-2.3-2.4-13.1-13.1-34.8-32.8-44.6-41.6l23.4-23.4v-6s-4.8-6.7-15.4-17.4c-10.8-10.7-17.5-15.4-17.5-15.4h-6l-76.4 76.4v6s4.7 6.7 15.4 17.4c8.5 8.5 17.4 15.4 17.4 15.4h6l23.4-23.4c8.8 9.8 28.5 31.5 41.6 44.6.8.8 1.6 1.5 2.4 2.3l-74.8 74.7c-4.4 4.4-11.6 6.4-11.6 6.4l-6.9 6.9s5.5 8.8 12.6 15.9c7 7.1 16.5 13.4 16.5 13.4l6.9-6.9s2-7.2 6.4-11.6l75.5-75.5c13.6 12.5 28.6 26.3 42.2 39.9 26.4 26.4 49.7 52.1 50.3 52.7 3.6 3.7 12.9-.5 21.8-9.5 9.4-9.4 12.8-18.5 9.7-21.6-1.1-1.1-26.5-24-52.9-50.5zm-106-102.8c11 9.9 27.5 25.1 38.2 35.8.7.8 1.5 1.6 2.3 2.4l-5.8 5.8c-3.5-3.5-7.3-7.2-7.3-7.2s3.4 4.4 6.6 7.9l-4.1 4.1c-4.6-4.7-8.5-8.6-10.1-10.2-4.7-4.7-9.7-9.5-11.7-11.5s-5.4-6.1-7.6-8.2c-2.1-2.1-5.7-5.3-8.2-7.8-.7-.7-1.9-1.9-3.2-3.2 1.2-1.4 2.7-2.7 4.1-3.9 3.5 3.7 7.4 7.9 11.2 11.7 9.7 9.8 20.6 19.2 20.6 19.2s-7.9-8.1-19.9-20.1c-4-4-7.9-7.9-11.3-11.3 2.3-1.7 4.5-3 6.2-3.5zm26.4 52.3-1.8 1.8c-1.5-1.4-2.9-2.8-4.1-4-7-7-15.7-16.1-24.1-24.5-3.2-3.2-7.3-7.3-11.2-11.2.3-.9.7-1.8 1.1-2.6 4.3 4.1 8.9 8.6 12.6 12.2 4.8 4.8 12.2 11 12.2 11-5.5-5.6-12.1-13-14.5-15.4-2.5-2.5-6.1-5.8-9.6-8.9.4-.7.9-1.3 1.4-2 1.4 1.1 2.5 2.1 3.5 3 2.7 2.7 7.2 7 8.8 8.6s5.9 5.8 9.1 9 9.8 10.4 11.5 12.1c2.9 2.9 5.5 5.4 8.1 7.9l-2.3 2.3c-9.2-8.5-20.5-18.8-20.5-18.8 2.4 2.4 10.5 10.4 19.8 19.5zm-80.7-80.9c-14.7 14.8-35.7 37.1-35.7 37.1s4.3 8.2 13.3 17.2c9.1 9.1 17.2 13.3 17.2 13.3l1 2.7h-3.6s-5.6-3.9-16.2-14.5c-10.5-10.5-14.4-16.1-14.4-16.1v-3.6l74.5-74.5h3.6s5.6 3.9 16.2 14.5 14.5 16.2 14.5 16.2v3.6l-2.7-1s-4.6-7.8-13.6-16.9c-9.1-9.1-17-13.7-17-13.7s-22.3 21-37.1 35.7zm39.2 44.2c5.3 5.1 10.8 10.4 13.2 12.7 5.4 5.3 13.3 14 18.2 18.9 1.5 1.5 4.5 4.3 7.9 7.4l-1.1 1.1c-6-5.9-14.3-13.9-25.8-25.4-4.6-4.6-8.9-8.8-12.6-12.3-.1-.8 0-1.6.2-2.4zm2.8 9.6c-1.8-1.8-2.7-3.6-3-5.4 6.5 6.3 13.9 13.5 19.1 18.7s12.1 11.8 18.5 17.9l-1.7 1.7c-10.9-10.9-25.5-25.6-32.9-32.9zm-34.9 135.4c-5.2 5.2-7.9 11.4-7.9 11.4l-4.4 4.4 5.2 5.2s-9.1-6.6-14-11.5c-4.8-4.8-10.7-13.2-10.7-13.2l4.4-4.4s7-1.7 12.2-7l137.5-137.4.3-.3 4.5-4.5c9.2-9.2 19.2-29.7 19.2-29.7l24.1-24.1 4.1-2.8 28.6 28.6-2.8 4.1-24 24.1s-24.9 5.7-34.1 14.8l-4.8 4.8zm201.8 2.8c-3.4-3-15.4-13.4-18-16-3.1-3.1-11.9-11.9-13.8-13.8-1.9-1.8-8.5-7.1-8.5-7.1s4.6 5 5.9 6.3 8.3 7.1 13.5 12.3c4.5 4.5 16.5 16.7 19.8 20.1-1.1 1.5-2.5 3.3-4.3 5.3-2.9-2.5-11.9-10.5-15.9-14.5-4.8-4.8-9-8.6-14.1-13.7-5-5-10-9.5-14.4-13.9-4.4-4.5-17.2-17.8-17.2-17.8s13.1 14.9 17.9 19.8c4.8 4.8 8.3 7.2 14.1 13s14.5 14.8 17.9 18.3c2.8 2.8 8.9 7.6 11.2 9.4-.5.5-1 1.1-1.6 1.7-.9.9-1.7 1.6-2.5 2.4-.8-.1-1.7-.8-2.8-1.9-1.2-1.2-25.8-26.2-52.2-52.6-9.8-9.8-29.2-27.7-31.9-30.1-2.2-1.9-3.2-3.9-3.5-5.8 2.9 2.7 5.8 5.4 8.4 8 7.6 7.6 15.5 14.6 15.5 14.6s-13-13.3-18.7-19c-1.3-1.3-3.2-3-5.4-4.9 0-1.1.3-2.2.7-3.3 3.6 3.5 6.3 6.2 7.4 7.3 5.6 5.6 12.1 12.6 15.4 15.9s12.5 12.7 12.5 12.7-12.3-13.9-19.5-21.1c-3.5-3.5-9.4-9.5-15.4-15.7.2-.4.5-.9.7-1.4.2-.4.5-.8.8-1.2 6.5 6.7 12.5 12.9 14.5 14.9 6.5 6.5 15.4 15.9 20 20.4 4.6 4.6 14.9 14.5 20.1 19.7s12.2 12 16.8 16.6 17.2 15.3 17.2 15.3-20-19.7-27.1-26.9c-7.2-7.2-16.2-15.2-20.7-19.6-6.2-6.2-16.4-17.1-21.6-22.3s-6.8-6.2-7.9-7.3c-.8-.8-6.6-6.9-10.9-11.4 3-3.8 8.1-7.6 11.7-8 11.1 12.1 23.1 25 35 36.9 26.4 26.4 52.6 50.2 52.8 50.4.3.3 1.3 2.7-1.9 8z" fill="#fff"/></svg>
