<svg height="64" viewBox="0 0 64 64" width="64" xmlns="http://www.w3.org/2000/svg" xmlns:xlink="http://www.w3.org/1999/xlink"><linearGradient id="a" gradientUnits="userSpaceOnUse" x1="35.837" x2="42.855" y1="42.864" y2="35.846"><stop offset=".148" stop-color="#7b6c35"/><stop offset=".835" stop-color="#b9aa69"/></linearGradient><linearGradient id="b" gradientUnits="userSpaceOnUse" x1="35.831" x2="42.744" y1="42.858" y2="35.945"><stop offset=".093" stop-color="#2b2414"/><stop offset=".736" stop-color="#624e22"/></linearGradient><linearGradient id="c" gradientUnits="userSpaceOnUse" x1="41.342" x2="36.504" y1="37.328" y2="42.166"><stop offset=".516" stop-color="#2d2400"/><stop offset=".863" stop-color="#211700"/></linearGradient><linearGradient id="d" gradientUnits="userSpaceOnUse" x1="10.115" x2="18.687" y1="10.115" y2="18.688"><stop offset="0" stop-color="#fff"/><stop offset="1" stop-color="#666"/></linearGradient><linearGradient id="e" gradientUnits="userSpaceOnUse" x1="4.82" x2="23.903" y1="23.982" y2="4.899"><stop offset=".077" stop-color="#0a0a0a"/><stop offset=".533" stop-color="#0f0f0f"/><stop offset=".912" stop-color="#1a1a1a"/></linearGradient><linearGradient id="f" gradientUnits="userSpaceOnUse" x1=".58" x2="9.149" y1="19.651" y2="28.22"><stop offset="0" stop-color="#999"/><stop offset="1" stop-color="#1a1a1a"/></linearGradient><linearGradient id="g" gradientUnits="userSpaceOnUse" x1="19.649" x2="28.222" y1=".579" y2="9.151"><stop offset="0" stop-color="#ccc"/><stop offset="1" stop-color="#333"/></linearGradient><linearGradient id="h" gradientUnits="userSpaceOnUse" x1="43.853" x2="62.277" y1="14.132" y2="14.132"><stop offset=".125" stop-color="#cdcdcb"/><stop offset=".875" stop-color="#a09ea1"/></linearGradient><path d="m61.3 61.3c-2.233 2.222-4.558 3.272-5.458 2.358-.34-.332 0 0 0 0-.166-.154-5.98-6.562-12.584-13.178-5.984-5.98-12.998-12.047-17.326-16.348-4.324-4.344-11.506-12.414-11.512-12.422l-.48-.54 3.484-3.786 3.742-3.436.538.476c.004.004 8.08 7.196 12.42 11.514 4.31 4.322 10.368 11.348 16.35 17.33 6.614 6.6 12.952 12.338 13.23 12.637.782.77-.075 3.06-2.403 5.396z"/><path d="m33.514 26.506c-4.27-4.288-12.342-11.48-12.342-11.48l-3.206 2.944-2.943 3.208s7.188 8.074 11.478 12.35c4.285 4.293 11.31 10.377 17.327 16.39 6.607 6.603 12.475 13.077 12.576 13.177.102.105 1.338.62 4.328-2.36 2.985-2.974 2.458-4.224 2.396-4.3-.07-.06-6.605-5.984-13.21-12.604-6.025-6.02-12.104-13.036-16.402-17.324z" fill="url(#a)"/><path d="m60.117 61.326c-.21-.025-.426-.197-.703-.46-.297-.31-6.45-6.552-13.055-13.167-2.46-2.458-7.31-6.93-7.978-7.522-1.195-1.04-1.09-2.104-.467-3.135.646-1.045 2.2-2.355 3.24-2.453l-2.934-3.166c-2.884 1.63-6.218 3.545-6.695 3.033-2.305-2.26-8.146-8.137-10.62-10.604-1.084-1.084-.938-2.245-.326-3.394.67-1.257 2.387-2.627 3.405-2.907-1.664-1.5-2.814-2.527-2.814-2.527l-3.205 2.943-2.943 3.207s7.188 8.076 11.478 12.353c4.284 4.293 11.31 10.377 17.326 16.39 6.607 6.603 12.474 13.076 12.576 13.176.09.097 1.174.55 3.715-1.768z" fill="url(#b)"/><path d="m48.418 44.904s-.822-.996-1.816-1.98c-.996-1.006-2.084-2.025-2.084-2.025s1.213 1.382 1.85 2.028c.642.648 2.05 1.976 2.05 1.976zm-15.048-15.688c-.906-.948-2.522-2.487-2.522-2.487s1.47 1.824 2.32 2.683c.842.87 1.144.745.203-.197zm-2.168 3.734c-1.526-1.524-3.98-3.847-7.948-7.812-3.068-3.067-5.523-5.36-6.292-6.073l-.176.19c1.06 1.027 5.638 5.413 8.15 7.925 2.857 2.854 7.71 7.375 8.99 8.445 1.31 1.06 3.776 3.21 5.667 5.098 1.896 1.898 3.887 3.668 3.887 3.668s-3.23-3.343-4.668-4.77c-1.414-1.417-5.876-4.92-7.61-6.67zm-.952-6.714-4.986-4.984c-2.296-2.298-4.592-4.584-5.206-5.204l-.01.008c.612.683 2.95 3.292 5.046 5.39 2.44 2.44 5.156 4.79 5.156 4.79zm-6.104-3.59c.4.39 1.48 1.454 2.275 2.253.795.788 2.46 2.6 2.875 3.013 1.65 1.654 2.794 2.686 4.772 4.642 1.934 1.933 6.736 6.946 7.7 7.915 1.63 1.62 3.856 3.963 5 5.105 1.136 1.14 3.724 3.615 5.04 4.924 1.31 1.315 3.047 3.003 4.205 4.155 1.174 1.16 4.303 3.814 4.303 3.814s-5-4.92-6.785-6.708c-1.79-1.793-4.066-3.805-5.178-4.906-1.54-1.555-4.08-4.275-5.39-5.588-1.31-1.31-1.708-1.55-1.99-1.822-.288-.27-3.024-3.145-3.743-3.887-.726-.71-7.115-7.206-8.29-8.378-1.176-1.178-2.415-2.386-2.913-2.882-.502-.5-1.356-1.52-1.89-2.056-.537-.53-1.43-1.328-2.057-1.958-.596-.597-2.214-2.152-3.21-3.146l-.353.318c1.706 1.674 2.772 2.376 3.427 3.03.684.682 1.8 1.758 2.202 2.157zm3.888 6.71c1.214 1.218 6.32 5.813 6.32 5.813s-3.498-3.315-5.257-5.083c-1.758-1.764-3.92-4.018-6.025-6.12-1.75-1.76-4.608-4.646-5.51-5.556l-.265.285c1.185 1.118 5.07 4.808 6.196 5.945 1.34 1.334 3.32 3.496 4.54 4.715zm25.76 23.773c-1.263-1.255-2.505-2.362-3.618-3.47-1.117-1.11-4.305-4.445-4.305-4.445s3.267 3.725 4.48 4.93c1.2 1.21 2.072 1.805 3.504 3.25 1.44 1.447 3.623 3.72 4.486 4.57.7.693 2.23 1.91 2.793 2.35.04-.055.104-.107.156-.16-.724-.635-2.99-2.62-3.98-3.615-1.185-1.198-2.255-2.145-3.517-3.41zm4.335 1.265c-.774-.78-2.974-3-3.44-3.455-.458-.463-2.132-1.768-2.132-1.768s1.152 1.26 1.473 1.572c.312.31 2.07 1.775 3.376 3.088 1.125 1.12 4.12 4.166 4.943 5.008.114-.154.204-.3.29-.45-.855-.734-3.843-3.328-4.51-3.995zm-31.374-28.086c-1.378-1.403-3.04-3.262-3.63-3.846-1.36-1.368-4.042-3.69-5-4.638l-.16.146-.025.026c.982.948 3.92 3.718 5.765 5.556 1.19 1.198 3.05 2.756 3.05 2.756zm-1.12-.542c1.49 1.492 12.468 12.244 13.882 13.658 1.398 1.39 3.014 3.14 3.846 3.97.814.82 3.102 3.18 3.102 3.18s-3.074-3.487-4.865-5.276c-1.79-1.79-6.167-6.297-8.167-8.327-1.49-1.51-7.797-7.204-7.797-7.204z" fill="#6b5600"/><path d="m43.457 47.998c-2.04-2.033-5.975-5.746-7.688-7.447-.294-.288-3.76-3.675-4.477-4.4-.722-.735-7.098-6.516-8.276-7.688-1.174-1.182-2.498-2.782-2.998-3.276-.5-.5-1.44-1.604-1.97-2.14-.53-.53-1.343-1.4-1.973-2.03-.216-.218-.378-.34-.466-.38l-.075.066c.042.096.166.27.412.506.68.676 1.552 1.762 1.956 2.156.396.396 1.722 1.698 2.518 2.49.793.798 2.3 2.525 2.715 2.943 1.652 1.648 2.952 2.52 4.908 4.513 1.956 1.926 6.593 6.576 7.56 7.54 1.643 1.636 4.02 3.667 5.16 4.808 1.15 1.143 3.734 3.863 5.04 5.168 1.31 1.318 3.038 3.11 4.208 4.27 1.157 1.158 4.308 4.1 4.308 4.1-4.816-4.885-4.658-5.037-6.342-6.707-1.777-1.79-3.417-3.373-4.52-4.492zm10.645 8.564c-1.645-1.63-2.87-2.94-4.605-4.672-1.732-1.717-3.672-3.55-5.195-5.068-1.53-1.514-5.918-5.746-5.918-5.746s4.328 4.557 5.992 6.19c1.664 1.667 2.992 3.01 4.98 4.987 1.99 1.973 4.985 5.086 6.173 6.25.99.996 3.784 3.5 3.784 3.5l.434-.352c-.002.002-3.19-2.646-5.646-5.088zm-32.972-31.068c1.426 1.52 10.416 9.822 11.678 11.213 1.37 1.393 7.142 6.8 7.142 6.8s-3.91-3.913-5.764-5.917c-1.85-1.998-9.027-8.236-11.264-10.628-2.242-2.397-6.178-6.304-6.178-6.304l-.344.276c.002.002 3.308 3.034 4.73 4.56zm35.806 36.226c-1.094-1.147-2.184-2.05-2.184-2.05s1.28 1.678 1.88 2.21c.415.368.855.815 1.12 1.085.115-.05.234-.098.354-.156-.24-.18-.62-.498-1.17-1.09zm-23.54-27.462c-.013.004-.02.012-.036.012.553.52.99.9.99.9s-.41-.385-.955-.912zm4.104 4.452c-.02-.1-.02-.202-.02-.306-1.352-1.166-3.172-2.697-4.72-3.977-.045.01-.085.025-.123.04.595.552.99.93 1.29 1.157.833.687 2.202 1.853 3.573 3.087zm.24-1.323c-1.217-1.266-2.463-2.537-3.432-3.55-.11.058-.205.108-.318.163 1.36 1.316 2.658 2.586 3.662 3.576.032-.053.055-.13.088-.19zm-15.306-18.965c-1.12-1.124-2.02-2.02-2.376-2.374l-.01.008c.332.376 1.196 1.34 2.25 2.477.05-.04.092-.07.136-.11zm15.806 18.18c-.443-.438-.803-.828-1.018-1.04-.236-.218-1.06-1.083-2.086-2.134-.045.02-.098.04-.145.064.903.934 2.044 2.104 3.142 3.24.038-.044.07-.087.108-.13zm-17.956-15.448c-1.138-1.143-2.187-2.206-2.688-2.71-.086.104-.164.208-.244.3.578.548 1.694 1.604 2.845 2.704.02-.094.053-.196.087-.294zm.992-1.658c-.74-.718-1.717-1.666-2.406-2.354l-.34.31-.01.007c1.1 1.075 1.932 1.753 2.56 2.273.066-.083.124-.16.196-.237zm-1.16 2.556c-1.46-1.412-2.548-2.426-3.068-2.907l-.158.214c.572.55 1.828 1.75 3.263 3.14-.03-.15-.04-.294-.037-.448zm.464-1.592c.044-.076.102-.162.15-.242-1.05-.954-2.084-1.88-2.604-2.394l-.11.098c-.023.03-.042.052-.063.084.5.482 1.502 1.432 2.612 2.496.003-.014.01-.028.015-.042z" fill="url(#c)"/><path d="m20.592 0s1.672 1.186 4.35 3.862c2.673 2.668 3.862 4.35 3.862 4.35v1.494l-19.104 19.094h-1.492s-2.23-1.737-4.352-3.864c-2.672-2.67-3.856-4.344-3.856-4.344v-1.494l19.096-19.098z"/><path d="m20.334.798h-.902l-18.634 18.634v.906s.984 1.393 3.624 4.036c2.646 2.642 4.04 3.628 4.04 3.628h.904l18.634-18.628v-.912s-.976-1.388-3.626-4.038c-2.644-2.636-4.04-3.626-4.04-3.626z" fill="url(#d)"/><path d="m20.334.798h-.902l-18.634 18.634v.906s.984 1.393 3.624 4.036c2.646 2.642 4.04 3.628 4.04 3.628h.904l18.634-18.628v-.912s-.976-1.388-3.626-4.038c-2.644-2.636-4.04-3.626-4.04-3.626z" fill="url(#d)"/><path d="m27.318 9.13s-5.234 5.572-8.927 9.262c-3.69 3.688-9.267 8.923-9.267 8.923s-2.044-1.063-4.306-3.335c-2.267-2.263-3.334-4.303-3.334-4.303s5.23-5.576 8.926-9.27c3.69-3.685 9.262-8.922 9.262-8.922s1.966 1.145 4.234 3.415c2.264 2.262 3.412 4.23 3.412 4.23z" fill="url(#e)"/><path d="m9.124 27.314s-2.046-1.062-4.308-3.334c-2.267-2.263-3.334-4.303-3.334-4.303l-.685-.246v.907s.984 1.393 3.624 4.036c2.647 2.641 4.039 3.626 4.039 3.626h.905l-.24-.686z" fill="url(#f)"/><path d="m28 9.372v-.91s-.976-1.388-3.626-4.038c-2.644-2.638-4.04-3.628-4.04-3.628h-.902l.244.687s1.966 1.144 4.232 3.416c2.262 2.26 3.41 4.228 3.41 4.228l.682.244z" fill="url(#g)"/><path d="m13.388 15.074-.216.218-.178-.176.618-.616.178.172-.216.218 1.13 1.13-.188.185-1.128-1.13zm1.142-.248-.872-.376.2-.2.53.25-.245-.534.2-.194.372.87.95.414-.2.194-.6-.274.277.603-.2.2-.412-.954zm-.082-1.156.28-.282c.102-.105.203-.153.33-.15.134 0 .233.064.392.223.114.113.18.2.206.315.038.134 0 .268-.13.405l-.095.095.512.508-.192.187-1.302-1.3zm.806.424.088-.088c.152-.152.06-.246-.065-.372-.126-.122-.225-.22-.368-.076l-.102.1.446.436z" fill="#494949"/><path d="m13.388 14.92-.216.21-.178-.172.618-.62.178.174-.216.22 1.13 1.127-.188.185-1.128-1.125zm1.142-.25-.872-.38.2-.196.53.244-.245-.532.2-.197.37.87.95.415-.198.2-.602-.278.277.598-.2.198-.41-.943zm-.082-1.164.28-.28c.102-.1.203-.15.334-.15.13.003.23.064.39.22.114.117.18.2.206.313.038.135 0 .27-.13.404l-.097.1.512.51-.192.185-1.302-1.304zm.806.43.088-.092c.15-.147.06-.242-.065-.365-.126-.126-.225-.23-.37-.08l-.1.097z" fill="#191919"/><path d="m13.388 14.996-.216.214-.178-.178.618-.616.178.176-.216.216 1.13 1.132-.188.18zm1.142-.248-.872-.38.2-.196.53.248-.245-.532.2-.2.37.873.95.416-.198.196-.6-.275.277.598-.2.2-.412-.947zm-.082-1.164.28-.278c.102-.1.203-.153.334-.153.132.002.23.07.39.222.11.114.178.202.204.315.038.14 0 .27-.13.406l-.095.1.512.51-.192.184-1.302-1.306zm.806.432.088-.088c.148-.147.06-.242-.065-.376-.126-.122-.225-.22-.37-.076l-.1.1z" fill="#2d2d2d"/><path d="m6.358 60.658c-1.767-1.77-3.154-3.96-3.154-3.96l1.726-1.726s1.807-.49 2.898-1.594l35.578-35.573c2.26-2.266 4.625-7.25 4.625-7.25l6.255-6.255 1.635-1.105 8.08 8.09-1.113 1.63-6.25 6.254s-4.98 2.365-7.25 4.627l-35.564 35.574c-1.097 1.103-1.59 2.894-1.59 2.894l-1.734 1.736s-2.376-1.586-4.142-3.342z"/><path d="m54.81 4.922-6.036 6.02s-1.424 6.23-3.715 8.52l-1.206 1.21 2.67 2.67 1.21-1.207c2.284-2.29 8.505-3.714 8.505-3.714l6.038-6.02-7.47-7.478z" fill="url(#h)"/><path d="m46.53 23.344 1.087 1.094 1.205-1.205c2.295-2.297 7.426-4.81 7.426-4.81s-6.22 1.425-8.51 3.713l-1.207 1.208z" fill="#616161"/><path d="m42.762 19.58 1.094 1.092 1.21-1.208c2.288-2.292 3.708-8.52 3.708-8.52s-2.514 5.136-4.805 7.432l-1.209 1.204z" fill="#ebe9e9"/><path d="m43.928 20.592-34.442 34.45c-1.31 1.302-2.832 1.97-2.832 1.97l3.544 3.535s.658-1.53 1.964-2.828l34.443-34.454-2.677-2.674z" fill="#fc3"/><path d="m4.25 56.78s1.466 2.103 2.68 3.31c1.208 1.21 3.488 2.863 3.488 2.863z" fill="#bfbfbf"/><path d="m62.28 12.402.69-1.016-7.15-7.15-1.01.686" fill="#ebe9e9"/><path d="m12.37 54.254-.162.154-.136-.12.47-.468.132.13-.164.153.86.865-.145.135-.855-.85zm.316-.588.423-.428.133.14-.278.278.288.293.248-.243.133.125-.244.234.287.305.28-.294.142.154-.423.424-.99-.988zm1.2-.262-.658-.29.152-.146.402.186-.19-.395.152-.157.284.666.722.31-.15.155-.456-.215.21.45-.15.157-.318-.723zm.25-.924-.168.16-.132-.13.47-.468.132.125-.163.168.857.855-.144.14zm.316-.593.218-.2c.074-.08.15-.122.25-.116.103 0 .178.052.292.165.09.09.142.152.16.242.024.098 0 .2-.098.305l-.078.066.39.398-.14.133zm.612.342.07-.07c.11-.112.05-.183-.05-.284-.097-.094-.17-.172-.28-.055l-.074.07.334.34zm.14-1.096.122-.12 1.21.776-.14.136-.257-.162-.194.193.168.25-.14.145-.77-1.22zm.35.23h-.006l.294.434.14-.14zm.3-.599-.16.16-.14-.123.47-.48.133.138-.164.168.855.855-.14.15-.854-.866zm.546-.554-.166.173-.13-.146.468-.455.13.13-.164.16.86.864-.143.135-.855-.86zm.314-.577.42-.422.132.132-.28.29.29.282.244-.246.135.145-.244.23.29.3.285-.292.14.146-.422.43-.99-.993zm.598-.59.228-.238c.164-.164.344-.154.54.04.116.12.164.233.124.374l.608.302-.154.154-.555-.297-.084.08.422.423-.14.135-.99-.975zm.584.29.084-.073c.092-.105.054-.174-.045-.273-.098-.1-.168-.135-.277-.03l-.07.065.308.31zm.09-.966.132-.14.81.378h.002l-.598-.605.142-.134.992.988-.136.136-.81-.377-.003.008.597.595-.145.14-.984-.988z" fill="#ba9c0a"/><path d="m12.37 54.38-.162.16-.136-.142.47-.46.132.126-.164.166.86.855-.145.145zm.316-.583.423-.422.133.133-.278.273.288.284.247-.234.132.123-.244.246.288.298.28-.29.142.15-.422.42-.99-.98zm1.2-.267-.658-.28.152-.154.402.19-.19-.4.152-.145.284.657.722.314-.15.142-.456-.205.21.455-.15.156-.318-.727zm.25-.917-.168.16-.132-.13.47-.478.135.135-.163.164.857.852-.144.164-.854-.867zm.316-.578.218-.217c.074-.076.15-.123.25-.12.103 0 .178.056.292.17.09.085.142.15.16.235.024.104 0 .2-.098.312l-.078.072.39.39-.14.14zm.612.317.07-.062c.11-.12.05-.193-.05-.287-.097-.094-.17-.166-.28-.05l-.074.07.334.33zm.14-1.088.122-.115 1.21.77-.136.142-.257-.176-.193.195.17.255-.143.15-.773-1.22zm.35.228h-.006l.294.436.14-.135-.428-.3zm.3-.605-.16.168-.14-.14.47-.462.133.133-.164.168.855.855-.14.15-.854-.873zm.546-.539-.166.162-.13-.13.468-.47.13.13-.164.163.86.863-.143.137zm.314-.578.42-.434.132.145-.28.28.29.283.244-.23.135.118-.244.24.29.298.285-.29.14.144-.422.436-.99-.988zm.598-.602.228-.232c.164-.166.344-.15.54.045.116.112.164.228.124.368l.608.3-.154.153-.555-.29-.084.082.422.418-.14.146-.99-.988zm.584.3.084-.085c.092-.094.054-.164-.045-.27-.098-.094-.168-.133-.277-.033l-.07.072.308.317zm.09-.97.132-.135.81.37h.002l-.598-.593.142-.152.992.994-.136.146-.81-.39-.003.003.597.603-.145.143-.984-.988z" fill="#ecd74c"/><path d="m12.37 54.312-.162.164-.136-.13.47-.483.132.146-.164.157.86.863-.145.145-.855-.863zm.316-.58.423-.436.133.13-.278.292.288.293.247-.25.132.13-.244.25.288.292.28-.277.142.135-.422.43-.99-.988zm1.2-.252-.658-.297.152-.152.402.19-.19-.396.152-.154.284.648.722.322-.15.156-.456-.21.21.46-.15.13-.318-.696zm.25-.93-.168.16-.132-.138.47-.47.135.138-.163.166.857.857-.144.14-.854-.852zm.316-.593.218-.203c.074-.084.15-.12.25-.117.103 0 .178.05.292.16.09.09.142.152.16.246.024.102 0 .197-.098.3l-.078.08.39.386-.14.136-.994-.99zm.612.328.07-.062c.11-.123.05-.184-.05-.28-.097-.097-.17-.17-.28-.06l-.074.07zm.14-1.082.122-.12 1.21.77-.14.14-.257-.16-.194.19.168.247-.14.15-.77-1.217zm.35.235h-.006l.294.426.14-.145-.428-.282zm.3-.612-.16.164-.14-.127.47-.473.133.133-.164.162.855.865-.14.14zm.546-.553-.166.176-.13-.146.468-.46.13.128-.164.16.86.868-.143.137-.855-.864zm.314-.57.42-.422.132.124-.28.287.29.292.244-.24.135.125-.244.246.29.287.284-.275.14.135-.422.432-.988-.99zm.598-.599.228-.225c.164-.177.344-.157.54.032.116.115.164.234.124.37l.608.302-.154.154-.555-.3-.084.093.422.415-.14.137-.99-.978zm.584.29.084-.077c.092-.102.054-.168-.045-.266-.098-.093-.168-.134-.277-.032l-.07.076.308.3zm.09-.958.132-.14.81.378h.002l-.598-.607.142-.14.992.997-.136.127-.81-.372-.003.006.597.598-.145.135-.984-.98z" fill="#fcc332"/><path d="m11.51 61.843-1.086 1.094-1.31-1.3 1.084-1.095z" fill="#3d2812"/><path d="m5.34 55.687 1.31 1.316-1.098 1.09-1.308-1.316z" fill="#e2d9ac"/><path d="m5.553 58.106 1.087-1.094 3.56 3.537-1.09 1.091z" fill="#fcc332"/><path d="m47.695 24.358-1.09-1.084-34.443 34.446c-1.31 1.298-1.964 2.823-1.964 2.823l1.312 1.3s.437-1.743 1.75-3.046l34.435-34.44z" fill="#473015"/><path d="m42.846 19.5-34.442 34.45c-1.32 1.31-3.062 1.737-3.062 1.737l1.31 1.326s1.526-.668 2.835-1.97l34.44-34.452-1.08-1.09z" fill="#ede5b2"/></svg>