<svg height="128" viewBox="0 0 128 128" width="128" xmlns="http://www.w3.org/2000/svg" xmlns:xlink="http://www.w3.org/1999/xlink"><linearGradient id="a" gradientUnits="userSpaceOnUse" x1="71.675" x2="85.71" y1="85.727" y2="71.692"><stop offset=".148" stop-color="#7b6c35"/><stop offset=".835" stop-color="#b9aa69"/></linearGradient><linearGradient id="b" gradientUnits="userSpaceOnUse" x1="71.662" x2="85.489" y1="85.718" y2="71.891"><stop offset=".093" stop-color="#2b2414"/><stop offset=".736" stop-color="#624e22"/></linearGradient><linearGradient id="c" gradientUnits="userSpaceOnUse" x1="82.682" x2="73.007" y1="74.654" y2="84.33"><stop offset=".516" stop-color="#2d2400"/><stop offset=".863" stop-color="#211700"/></linearGradient><linearGradient id="d" gradientUnits="userSpaceOnUse" x1="20.228" x2="37.374" y1="20.23" y2="37.375"><stop offset="0" stop-color="#fff"/><stop offset="1" stop-color="#666"/></linearGradient><linearGradient id="e" gradientUnits="userSpaceOnUse" x1="9.639" x2="47.805" y1="47.964" y2="9.797"><stop offset=".077" stop-color="#0a0a0a"/><stop offset=".533" stop-color="#0f0f0f"/><stop offset=".912" stop-color="#1a1a1a"/></linearGradient><linearGradient id="f" gradientUnits="userSpaceOnUse" x1="1.158" x2="18.297" y1="39.301" y2="56.44"><stop offset="0" stop-color="#999"/><stop offset="1" stop-color="#1a1a1a"/></linearGradient><linearGradient id="g" gradientUnits="userSpaceOnUse" x1="39.298" x2="56.443" y1="1.157" y2="18.302"><stop offset="0" stop-color="#ccc"/><stop offset="1" stop-color="#333"/></linearGradient><linearGradient id="h" gradientUnits="userSpaceOnUse" x1="87.707" x2="124.555" y1="28.264" y2="28.264"><stop offset=".125" stop-color="#cdcdcb"/><stop offset=".875" stop-color="#a09ea1"/></linearGradient><path d="m122.602 122.602c-4.47 4.44-9.117 6.543-10.918 4.715-.68-.664 0 0 0 0-.332-.31-11.957-13.125-25.168-26.355-11.97-11.958-25.996-24.095-34.653-32.696-8.646-8.69-23.012-24.83-23.023-24.846l-.96-1.08 6.968-7.572 7.484-6.87 1.076.95c.008.008 16.16 14.393 24.842 23.027 8.617 8.645 20.734 22.695 32.695 34.66 13.23 13.2 25.906 24.676 26.46 25.273 1.568 1.54-.147 6.122-4.803 10.794z"/><path d="m67.027 53.012c-8.543-8.576-24.684-22.96-24.684-22.96l-6.413 5.888-5.886 6.416s14.376 16.148 22.956 24.7c8.567 8.585 22.616 20.753 34.65 32.776 13.216 13.207 24.95 26.156 25.153 26.355.203.21 2.676 1.242 8.656-4.72 5.968-5.948 4.913-8.448 4.788-8.6-.14-.118-13.21-11.97-26.422-25.208-12.045-12.043-24.2-26.072-32.8-34.648z" fill="url(#a)"/><path d="m120.234 122.652c-.422-.05-.852-.395-1.406-.918-.594-.625-12.898-13.105-26.11-26.336-4.917-4.914-14.616-13.86-15.952-15.043-2.39-2.082-2.18-4.207-.934-6.27 1.293-2.09 4.402-4.71 6.48-4.906l-5.867-6.333c-5.77 3.262-12.438 7.09-13.393 6.066-4.61-4.518-16.293-16.273-21.24-21.207-2.168-2.168-1.877-4.49-.652-6.787 1.344-2.513 4.775-5.253 6.812-5.813-3.328-3-5.63-5.055-5.63-5.055l-6.41 5.887-5.888 6.415s14.376 16.151 22.956 24.703c8.567 8.585 22.616 20.753 34.65 32.776 13.216 13.208 24.95 26.157 25.153 26.356.18.197 2.35 1.103 7.43-3.534z" fill="url(#b)"/><path d="m96.836 89.81s-1.645-1.993-3.633-3.962c-1.992-2.012-4.168-4.05-4.168-4.05s2.426 2.765 3.7 4.058c1.285 1.296 4.1 3.953 4.1 3.953zm-30.094-31.38c-1.814-1.896-5.047-4.975-5.047-4.975s2.938 3.65 4.64 5.367c1.685 1.74 2.29 1.492.407-.392zm-4.338 7.47c-3.053-3.05-7.96-7.693-15.896-15.625-6.138-6.135-11.048-10.723-12.584-12.145l-.352.378c2.12 2.057 11.275 10.828 16.303 15.852 5.713 5.71 15.418 14.75 17.98 16.89 2.617 2.118 7.55 6.42 11.332 10.196 3.793 3.797 7.773 7.336 7.773 7.336s-6.46-6.688-9.336-9.54c-2.827-2.835-11.754-9.842-15.22-13.342zm-1.904-13.427s-3.973-3.97-9.973-9.97c-4.592-4.595-9.184-9.167-10.412-10.407l-.02.016c1.225 1.365 5.9 6.584 10.092 10.78 4.88 4.88 10.313 9.58 10.313 9.58zm-12.207-7.183c.8.782 2.96 2.91 4.55 4.507 1.59 1.578 4.92 5.2 5.75 6.027 3.3 3.31 5.587 5.37 9.544 9.283 3.867 3.866 13.473 13.893 15.403 15.83 3.257 3.243 7.71 7.927 10 10.212 2.27 2.28 7.444 7.23 10.077 9.847 2.617 2.633 6.094 6.008 8.41 8.312 2.348 2.32 8.605 7.628 8.605 7.628s-10-9.836-13.57-13.414c-3.578-3.586-8.133-7.61-10.355-9.812-3.078-3.11-8.16-8.55-10.777-11.176-2.625-2.62-3.418-3.098-3.984-3.645-.574-.542-6.047-6.288-7.484-7.772-1.45-1.418-14.23-14.41-16.576-16.754-2.354-2.355-4.832-4.77-5.828-5.764-1.004-1-2.713-3.043-3.78-4.11-1.073-1.062-2.856-2.657-4.112-3.917-1.19-1.193-4.428-4.305-6.42-6.293l-.705.637c3.413 3.348 5.546 4.752 6.855 6.06 1.36 1.363 3.593 3.515 4.398 4.312zm7.775 13.42c2.428 2.44 12.64 11.63 12.64 11.63s-6.995-6.63-10.513-10.164c-3.516-3.527-7.84-8.035-12.05-12.24-3.5-3.52-9.218-9.29-11.02-11.11l-.53.567c2.37 2.236 10.14 9.615 12.393 11.89 2.68 2.664 6.64 6.988 9.08 9.428zm51.518 47.548c-2.523-2.508-5.008-4.723-7.234-6.938-2.234-2.22-8.61-8.89-8.61-8.89s6.532 7.448 8.958 9.858c2.402 2.422 4.145 3.61 7.008 6.5 2.88 2.895 7.246 7.438 8.973 9.14 1.4 1.388 4.462 3.82 5.587 4.7.082-.11.207-.215.312-.32-1.446-1.27-5.978-5.238-7.962-7.23-2.368-2.394-4.51-4.29-7.032-6.82zm8.672 2.53c-1.547-1.56-5.945-6-6.875-6.91-.918-.925-4.266-3.534-4.266-3.534s2.305 2.52 2.945 3.145c.62.62 4.14 3.55 6.75 6.175 2.25 2.242 8.242 8.332 9.887 10.016.23-.308.41-.6.58-.897-1.71-1.47-7.686-6.658-9.022-7.994zm-62.746-56.172c-2.756-2.807-6.08-6.523-7.26-7.69-2.72-2.737-8.084-7.382-10-9.276l-.32.29-.05.053c1.962 1.896 7.835 7.436 11.526 11.11 2.385 2.397 6.104 5.512 6.104 5.512zm-2.24-1.084c2.98 2.985 24.935 24.49 27.763 27.317 2.797 2.78 6.027 6.28 7.69 7.94 1.63 1.642 6.204 6.356 6.204 6.356s-6.15-6.973-9.73-10.55c-3.583-3.583-12.337-12.595-16.337-16.657-2.977-3.018-15.592-14.408-15.592-14.408z" fill="#6b5600"/><path d="m86.914 95.996c-4.082-4.066-11.95-11.492-15.374-14.896-.587-.577-7.52-7.35-8.952-8.804-1.443-1.47-14.195-13.03-16.553-15.373-2.348-2.363-4.996-5.564-5.996-6.553-1-1-2.88-3.207-3.937-4.28-1.064-1.06-2.688-2.802-3.947-4.06-.432-.436-.756-.68-.932-.76l-.152.133c.084.19.332.54.824 1.012 1.36 1.352 3.104 3.523 3.912 4.312.79.79 3.443 3.396 5.035 4.98 1.584 1.597 4.596 5.052 5.428 5.888 3.306 3.297 5.905 5.04 9.817 9.025 3.913 3.853 13.186 13.153 15.12 15.083 3.285 3.27 8.043 7.332 10.32 9.613 2.3 2.285 7.47 7.727 10.082 10.336 2.616 2.637 6.073 6.223 8.413 8.54 2.312 2.315 8.613 8.198 8.613 8.198-9.633-9.77-9.316-10.074-12.684-13.414-3.554-3.578-6.835-6.742-9.038-8.98zm21.29 17.13c-3.29-3.26-5.743-5.884-9.212-9.345-3.465-3.433-7.344-7.097-10.39-10.136-3.063-3.027-11.837-11.492-11.837-11.492s8.656 9.113 11.984 12.383c3.327 3.332 5.983 6.02 9.956 9.973 3.98 3.945 9.973 10.172 12.348 12.5 1.98 1.992 7.57 7 7.57 7l.867-.703c.002 0-6.373-5.297-11.287-10.18zm-65.944-62.139c2.852 3.043 20.832 19.645 23.355 22.426 2.74 2.785 14.283 13.602 14.283 13.602s-7.82-7.828-11.527-11.836c-3.698-3.996-18.054-16.473-22.526-21.256-4.485-4.793-12.355-12.606-12.355-12.606l-.69.55c.005.004 6.616 6.07 9.46 9.12zm71.61 72.45c-2.187-2.293-4.366-4.098-4.366-4.098s2.56 3.355 3.762 4.418c.828.738 1.707 1.633 2.238 2.172.23-.102.47-.195.707-.312-.476-.36-1.237-.993-2.34-2.18zm-47.08-54.921c-.024.008-.04.023-.07.023 1.104 1.038 1.98 1.8 1.98 1.8s-.817-.77-1.91-1.824zm8.21 8.906c-.04-.203-.04-.406-.04-.613-2.702-2.333-6.343-5.396-9.437-7.954-.092.02-.172.05-.248.082 1.19 1.102 1.982 1.86 2.58 2.312 1.665 1.37 4.403 3.703 7.145 6.172zm.48-2.65c-2.434-2.53-4.926-5.073-6.863-7.1-.22.116-.41.218-.637.327 2.723 2.632 5.316 5.17 7.324 7.15.063-.103.11-.26.176-.377zm-30.613-37.927c-2.242-2.248-4.04-4.04-4.752-4.748l-.02.016c.664.752 2.393 2.678 4.5 4.953.1-.08.184-.14.272-.22zm31.613 36.36c-.887-.876-1.605-1.657-2.035-2.083-.473-.433-2.117-2.163-4.172-4.265-.09.043-.195.082-.29.13 1.806 1.866 4.087 4.206 6.282 6.48.075-.09.14-.176.215-.262zm-35.912-30.897c-2.275-2.286-4.373-4.413-5.377-5.42-.17.206-.327.415-.487.6 1.156 1.095 3.39 3.206 5.69 5.407.043-.19.107-.393.175-.588zm1.985-3.318c-1.48-1.436-3.434-3.332-4.812-4.71l-.68.622-.02.012c2.2 2.152 3.865 3.508 5.12 4.55.133-.165.248-.32.393-.474zm-2.32 5.112c-2.92-2.824-5.097-4.852-6.138-5.814-.123.168-.225.307-.316.428 1.144 1.1 3.655 3.504 6.524 6.28-.056-.3-.075-.586-.072-.894zm.927-3.184c.088-.152.203-.324.3-.484-2.097-1.908-4.167-3.76-5.208-4.787l-.22.194c-.048.06-.085.104-.128.168 1 .965 3.004 2.863 5.225 4.992.007-.027.018-.057.03-.084z" fill="url(#c)"/><path d="m41.184 0s3.344 2.37 8.697 7.725c5.35 5.336 7.728 8.7 7.728 8.7v2.987l-38.209 38.188h-2.984s-4.46-3.475-8.703-7.73c-5.346-5.34-7.713-8.685-7.713-8.685v-2.988l38.19-38.197z"/><path d="m40.668 1.596h-1.805l-37.267 37.267v1.812s1.97 2.785 7.248 8.072c5.293 5.283 8.08 7.256 8.08 7.256h1.81l37.266-37.255v-1.824s-1.95-2.775-7.252-8.076c-5.287-5.272-8.08-7.252-8.08-7.252z" fill="url(#d)"/><path d="m40.668 1.596h-1.805l-37.267 37.267v1.812s1.97 2.785 7.248 8.072c5.293 5.283 8.08 7.256 8.08 7.256h1.81l37.266-37.255v-1.824s-1.95-2.775-7.252-8.076c-5.287-5.272-8.08-7.252-8.08-7.252z" fill="url(#d)"/><path d="m54.637 18.26s-10.47 11.145-17.854 18.523c-7.383 7.377-18.535 17.847-18.535 17.847s-4.088-2.126-8.61-6.67c-4.534-4.524-6.67-8.604-6.67-8.604s10.46-11.153 17.852-18.54c7.383-7.37 18.523-17.844 18.523-17.844s3.932 2.287 8.47 6.832c4.527 4.52 6.824 8.456 6.824 8.456z" fill="url(#e)"/><path d="m18.248 54.63s-4.092-2.126-8.615-6.67c-4.533-4.524-6.668-8.604-6.668-8.604l-1.37-.492v1.812s1.97 2.785 7.25 8.072c5.292 5.283 8.08 7.256 8.08 7.256h1.808l-.485-1.375z" fill="url(#f)"/><path d="m56 18.744v-1.82s-1.95-2.775-7.252-8.076c-5.287-5.275-8.08-7.256-8.08-7.256h-1.805l.488 1.373s3.933 2.287 8.466 6.832c4.523 4.523 6.82 8.46 6.82 8.46l1.364.487z" fill="url(#g)"/><path d="m26.775 30.148-.432.436-.355-.352 1.237-1.232.355.344-.432.436 2.26 2.26-.377.37-2.255-2.262zm2.285-.496-1.744-.752.4-.4 1.06.5-.49-1.068.4-.39.745 1.74 1.9.83-.4.388-1.198-.55.555 1.206-.398.4zm-.164-2.312.56-.564c.204-.21.407-.307.663-.303.265 0 .464.13.78.447.23.225.36.396.412.63.076.267 0 .534-.26.81l-.19.19 1.022 1.015-.384.374-2.604-2.6zm1.612.848.176-.176c.305-.305.12-.492-.13-.744-.253-.244-.45-.44-.737-.152l-.2.197.89.875z" fill="#494949"/><path d="m26.775 29.84-.432.42-.355-.344 1.236-1.24.355.348-.433.438 2.26 2.256-.377.37-2.255-2.248zm2.285-.5-1.743-.76.4-.393 1.06.488-.49-1.064.4-.394.74 1.744 1.9.828-.395.402-1.203-.56.554 1.196-.398.396-.825-1.882zm-.164-2.328.56-.56c.204-.2.407-.304.67-.304.26.008.458.13.778.443.23.233.36.397.412.626.076.27 0 .543-.26.81l-.193.198 1.02 1.02-.383.37-2.604-2.602zm1.612.86.176-.185c.3-.295.117-.484-.13-.73-.253-.25-.45-.457-.74-.16l-.202.195z" fill="#191919"/><path d="m26.775 29.992-.432.428-.355-.355 1.236-1.232.355.352-.433.432 2.26 2.264-.377.362-2.255-2.25zm2.285-.496-1.743-.76.4-.393 1.06.496-.49-1.065.4-.4.74 1.746 1.9.83-.395.394-1.2-.55.556 1.194-.398.4zm-.164-2.328.56-.557c.204-.198.407-.306.67-.306.263.004.462.14.778.443.22.23.355.404.408.63.076.278 0 .538-.26.813l-.19.2 1.022 1.017-.384.372zm1.612.863.176-.175c.297-.295.12-.484-.13-.752-.253-.244-.45-.44-.74-.152l-.202.198.896.883z" fill="#2d2d2d"/><path d="m12.717 121.316c-3.533-3.543-6.31-7.918-6.31-7.918l3.452-3.453s3.612-.98 5.796-3.188l71.157-71.147c4.52-4.53 9.25-14.5 9.25-14.5l12.508-12.51 3.27-2.21 16.16 16.177-2.227 3.26-12.5 12.508s-9.957 4.732-14.5 9.256l-71.125 71.15c-2.193 2.203-3.18 5.785-3.18 5.785l-3.468 3.474s-4.752-3.172-8.283-6.684z"/><path d="m109.617 9.844-12.07 12.04s-2.848 12.456-7.43 17.04l-2.41 2.416 5.34 5.344 2.422-2.416c4.565-4.58 17.007-7.428 17.007-7.428l12.078-12.04-14.938-14.956z" fill="url(#h)"/><path d="m93.062 46.688 2.172 2.188 2.41-2.41c4.59-4.594 14.852-9.62 14.852-9.62s-12.44 2.85-17.02 7.427z" fill="#616161"/><path d="m85.523 39.16 2.188 2.184 2.42-2.416c4.577-4.584 7.417-17.04 7.417-17.04s-5.027 10.272-9.61 14.864l-2.414 2.408z" fill="#ebe9e9"/><path d="m87.855 41.184-68.883 68.902c-2.62 2.602-5.664 3.938-5.664 3.938l7.088 7.07s1.316-3.06 3.928-5.656l68.886-68.906z" fill="#fc3"/><path d="m8.5 113.562s2.932 4.203 5.36 6.617c2.415 2.42 6.976 5.726 6.976 5.726z" fill="#bfbfbf"/><path d="m124.562 24.805 1.376-2.034-14.298-14.297-2.023 1.37" fill="#ebe9e9"/><path d="m24.74 108.508-.324.31-.27-.24.938-.937.264.26-.328.308 1.72 1.73-.288.27-1.712-1.7zm.63-1.176.847-.855.268.28-.557.556.576.586.496-.486.264.25-.488.47.576.608.56-.59.284.31-.844.847-1.98-1.978zm2.4-.522-1.315-.583.305-.29.805.372-.38-.79.304-.312.567 1.332 1.443.625-.3.31-.913-.43.42.9-.3.313-.636-1.45zm.5-1.85-.335.32-.264-.257.94-.938.264.25-.326.336 1.715 1.712-.287.28-1.705-1.7zm.634-1.187.436-.402c.148-.16.3-.24.5-.23.205 0 .355.103.584.33.18.18.283.304.32.483.05.195 0 .402-.195.61l-.157.132.78.797-.28.266-1.99-1.985zm1.225.684.138-.14c.225-.224.104-.364-.1-.567-.19-.188-.336-.344-.56-.11l-.147.142.67.675zm.279-2.191.244-.242 2.42 1.555-.28.272-.513-.324-.388.387.336.5-.28.29-1.54-2.44zm.7.46h-.013l.588.868.28-.28-.856-.587zm.599-1.199-.322.32-.277-.246.94-.964.265.277-.328.336 1.71 1.71-.278.297zm1.093-1.105-.33.344-.263-.293.938-.91.26.262-.328.316 1.72 1.73-.284.27-1.712-1.718zm.628-1.156.84-.844.264.262-.562.582.584.562.486-.492.27.29-.488.46.58.598.568-.582.28.29-.845.858zm1.197-1.18.455-.477c.328-.33.688-.31 1.08.077.232.242.328.47.248.75l1.217.605-.31.31-1.108-.595-.168.164.845.845-.28.27-1.98-1.95zm1.168.578.168-.145c.185-.212.108-.35-.09-.548-.194-.2-.335-.27-.554-.06l-.14.13.617.622zm.18-1.93.264-.277 1.62.754h.003l-1.195-1.206.283-.27 1.984 1.977-.27.27-1.622-.753-.004.016 1.193 1.188-.29.282-1.967-1.978z" fill="#ba9c0a"/><path d="m24.74 108.758-.324.32-.27-.28.938-.92.264.25-.328.333 1.72 1.712-.288.29-1.712-1.704zm.63-1.164.847-.844.268.266-.557.547.576.566.496-.47.264.246-.488.492.576.598.56-.582.284.305-.844.835-1.98-1.96zm2.4-.532-1.315-.562.305-.31.805.38-.38-.797.304-.293.567 1.312 1.443.63-.3.28-.913-.41.42.91-.303.312zm.5-1.835-.335.32-.264-.258.94-.958.27.27-.328.328 1.715 1.703-.287.328-1.71-1.733zm.634-1.157.436-.434c.148-.152.3-.246.5-.238.205 0 .355.11.584.336.18.172.283.305.32.473.05.207 0 .402-.195.625l-.157.145.78.78-.28.278-1.99-1.965zm1.225.633.138-.125c.225-.242.104-.387-.1-.574-.19-.188-.336-.332-.56-.098l-.147.137.67.66zm.279-2.176.244-.23 2.42 1.54-.27.288-.515-.352-.387.39.34.51-.285.3zm.7.457h-.013l.588.87.28-.27-.856-.6zm.599-1.211-.322.336-.277-.282.94-.922.265.266-.328.336 1.71 1.71-.278.302-1.71-1.747zm1.093-1.078-.33.324-.263-.263.938-.938.26.257-.328.328 1.72 1.727-.284.273-1.712-1.71zm.628-1.155.84-.868.264.29-.562.558.584.566.486-.457.27.233-.488.48.58.594.568-.578.28.284-.845.87-1.977-1.975zm1.197-1.204.455-.465c.328-.33.688-.3 1.08.09.232.224.328.454.248.735l1.217.602-.31.305-1.108-.582-.168.164.845.836-.28.293-1.98-1.977zm1.168.602.168-.172c.185-.188.108-.328-.09-.54-.194-.187-.335-.265-.554-.065l-.14.146.617.632zm.18-1.942.264-.27 1.62.738h.003l-1.195-1.184.283-.305 1.984 1.988-.27.293-1.622-.78-.004.007 1.193 1.203-.29.285-1.967-1.974z" fill="#ecd74c"/><path d="m24.74 108.625-.324.328-.27-.262.938-.964.264.293-.328.315 1.72 1.727-.288.29zm.63-1.16.847-.87.268.26-.557.583.576.586.496-.504.264.262-.488.5.576.582.56-.555.284.27-.844.858-1.98-1.973zm2.4-.505-1.315-.593.305-.305.805.375-.38-.79.304-.308.567 1.296 1.443.645-.3.313-.913-.422.42.923-.303.258-.633-1.39zm.5-1.858-.335.32-.264-.277.94-.938.27.273-.328.332 1.715 1.715-.287.28-1.71-1.705zm.634-1.188.436-.406c.148-.168.3-.242.5-.234.205 0 .355.102.584.32.18.18.283.305.32.492.05.203 0 .395-.195.602l-.157.156.78.773-.28.273-1.99-1.976zm1.225.656.138-.125c.225-.246.104-.367-.1-.562-.19-.19-.336-.34-.56-.117l-.147.14.67.664zm.279-2.164.244-.242 2.42 1.54-.28.28-.513-.32-.388.383.336.492-.28.3-1.54-2.434zm.7.47h-.013l.588.85.28-.288-.856-.563zm.599-1.224-.322.328-.277-.254.94-.945.265.267-.328.324 1.71 1.73-.278.282-1.71-1.73zm1.093-1.105-.33.352-.263-.29.938-.922.26.258-.328.32 1.72 1.734-.285.273-1.71-1.726zm.628-1.141.84-.844.264.246-.562.574.584.582.486-.48.27.25-.488.492.58.574.568-.55.28.27-.845.862zm1.197-1.199.455-.45c.328-.35.688-.31 1.08.067.232.23.328.47.248.738l1.217.605-.31.31-1.108-.6-.168.185.845.828-.28.273-1.98-1.956zm1.168.582.168-.157c.185-.203.108-.336-.09-.53-.194-.19-.335-.27-.554-.067l-.14.152.617.6zm.18-1.919.264-.276 1.62.754h.003l-1.195-1.215.283-.277 1.984 1.992-.27.254-1.622-.746-.004.012 1.193 1.195-.29.27-1.967-1.962z" fill="#fcc332"/><path d="m23.02 123.687-2.17 2.187-2.623-2.6 2.17-2.19z" fill="#3d2812"/><path d="m10.682 111.374 2.617 2.632-2.195 2.182-2.617-2.633z" fill="#e2d9ac"/><path d="m11.107 116.212 2.174-2.188 7.118 7.073-2.174 2.188z" fill="#fcc332"/><path d="m95.39 48.717-2.18-2.168-68.886 68.888c-2.617 2.598-3.928 5.648-3.928 5.648l2.623 2.602s.872-3.488 3.5-6.094l68.87-68.877z" fill="#473015"/><path d="m85.69 39-68.88 68.898c-2.64 2.62-6.125 3.477-6.125 3.477l2.62 2.652s3.052-1.336 5.67-3.94l68.882-68.903z" fill="#ede5b2"/></svg>