<svg viewBox="0 0 256 256" xmlns="http://www.w3.org/2000/svg"><linearGradient id="a" gradientUnits="userSpaceOnUse" x1="143.3452" x2="171.4173" y1="171.4542" y2="143.3803"><stop offset=".148" stop-color="#7b6c35"/><stop offset=".835" stop-color="#b9aa69"/></linearGradient><linearGradient id="b" gradientUnits="userSpaceOnUse" x1="143.3217" x2="170.978" y1="171.4359" y2="143.7806"><stop offset=".093" stop-color="#2b2414"/><stop offset=".736" stop-color="#624e22"/></linearGradient><linearGradient id="c" gradientUnits="userSpaceOnUse" x1="165.3634" x2="146.0133" y1="149.3091" y2="168.6602"><stop offset=".516" stop-color="#2d2400"/><stop offset=".863" stop-color="#211700"/></linearGradient><linearGradient id="d" gradientUnits="userSpaceOnUse" x1="40.4567" x2="74.7463" y1="40.4612" y2="74.7507"><stop offset="0" stop-color="#fff"/><stop offset="1" stop-color="#666"/></linearGradient><linearGradient id="e" gradientUnits="userSpaceOnUse" x1="19.2769" x2="95.6085" y1="95.9251" y2="19.5935"><stop offset=".077" stop-color="#0a0a0a"/><stop offset=".533" stop-color="#0f0f0f"/><stop offset=".912" stop-color="#1a1a1a"/></linearGradient><linearGradient id="f" gradientUnits="userSpaceOnUse" x1="2.3193" x2="36.5948" y1="78.6026" y2="112.8791"><stop offset="0" stop-color="#999"/><stop offset="1" stop-color="#1a1a1a"/></linearGradient><linearGradient id="g" gradientUnits="userSpaceOnUse" x1="78.5953" x2="112.8843" y1="2.3147" y2="36.6037"><stop offset="0" stop-color="#ccc"/><stop offset="1" stop-color="#333"/></linearGradient><linearGradient id="h" gradientUnits="userSpaceOnUse" x1="175.414" x2="249.11" y1="56.5279" y2="56.5279"><stop offset=".125" stop-color="#cdcdcb"/><stop offset=".875" stop-color="#a09ea1"/></linearGradient><path d="m245.2 245.2c-8.9 8.9-18.2 13.1-21.8 9.4-1.4-1.3 0 0 0 0-.7-.6-23.9-26.2-50.3-52.7-23.9-23.9-52-48.2-69.3-65.4-17.3-17.4-46-49.7-46-49.7l-1.9-2.2 13.9-15.1 15-13.7 2.2 1.9s32.3 28.8 49.7 46.1c17.2 17.3 41.5 45.4 65.4 69.3 26.5 26.4 51.8 49.4 52.9 50.5 2.9 3.1-.5 12.3-9.8 21.6z"/><path d="m134.1 106c-17.1-17.1-49.4-45.9-49.4-45.9l-12.8 11.8-11.8 12.8s28.8 32.3 45.9 49.4c17.1 17.2 45.2 41.5 69.3 65.6 26.4 26.4 49.9 52.3 50.3 52.7s5.4 2.5 17.3-9.4 9.8-16.9 9.6-17.2c-.3-.2-26.4-23.9-52.8-50.4-24.1-24.2-48.4-52.2-65.6-69.4z" fill="url(#a)"/><path d="m240.5 245.3c-.8-.1-1.7-.8-2.8-1.8-1.2-1.2-25.8-26.2-52.2-52.7-9.8-9.8-29.2-27.7-31.9-30.1-4.8-4.2-4.4-8.4-1.9-12.5 2.6-4.2 8.8-9.4 13-9.8-4-4.4-8-8.6-11.7-12.7-11.5 6.5-24.9 14.2-26.8 12.1-9.2-9-32.6-32.5-42.5-42.4-4.3-4.3-3.8-9-1.3-13.6 2.7-5 9.6-10.5 13.6-11.6-6.7-6-11.3-10.1-11.3-10.1l-12.8 11.8-11.8 12.8s28.8 32.3 45.9 49.4c17.1 17.2 45.2 41.5 69.3 65.6 26.4 26.4 49.9 52.3 50.3 52.7s4.7 2.2 14.9-7.1z" fill="url(#b)"/><path d="m193.7 179.6s-3.3-4-7.3-7.9c-4-4-8.3-8.1-8.3-8.1s4.9 5.5 7.4 8.1 8.2 7.9 8.2 7.9zm-60.2-62.7c-3.6-3.8-10.1-9.9-10.1-9.9s5.9 7.3 9.3 10.7c3.3 3.4 4.5 2.9.8-.8zm-8.7 14.9c-6.1-6.1-15.9-15.4-31.8-31.3-12.3-12.2-22.1-21.4-25.2-24.2l-.7.7c4.2 4.1 22.5 21.7 32.6 31.7 11.4 11.4 30.8 29.5 36 33.8 5.2 4.2 15.1 12.8 22.7 20.4s15.5 14.7 15.5 14.7-12.9-13.4-18.7-19.1c-5.6-5.7-23.5-19.7-30.4-26.7zm-3.8-26.9s-7.9-7.9-19.9-19.9c-9.2-9.2-18.4-18.3-20.8-20.8 2.3 2.8 11.7 13.2 20.1 21.6 9.7 9.7 20.6 19.1 20.6 19.1zm-24.4-14.3c1.6 1.6 5.9 5.8 9.1 9s9.8 10.4 11.5 12.1c6.6 6.6 11.2 10.7 19.1 18.6 7.7 7.7 26.9 27.8 30.8 31.7 6.5 6.5 15.4 15.9 20 20.4 4.5 4.6 14.9 14.5 20.2 19.7 5.2 5.3 12.2 12 16.8 16.6 4.7 4.6 17.2 15.3 17.2 15.3s-20-19.7-27.1-26.8c-7.2-7.2-16.3-15.2-20.7-19.6-6.2-6.2-16.3-17.1-21.6-22.4-5.2-5.2-6.8-6.2-8-7.3-1.1-1.1-12.1-12.6-15-15.5-2.9-2.8-28.5-28.8-33.2-33.5s-9.7-9.5-11.7-11.5-5.4-6.1-7.6-8.2c-2.1-2.1-5.7-5.3-8.2-7.8-2.4-2.4-8.9-8.6-12.8-12.6l-1.4 1.3c6.8 6.7 11.1 9.5 13.7 12.1 2.8 2.5 7.3 6.8 8.9 8.4zm15.5 26.8c4.9 4.9 25.3 23.3 25.3 23.3s-14-13.3-21-20.3c-7-7.1-15.7-16.1-24.1-24.5-7-7-18.4-18.6-22-22.2l-1.1 1.1c4.7 4.5 20.3 19.2 24.8 23.8 5.3 5.3 13.3 13.9 18.1 18.8zm103.1 95.1c-5-5-10-9.4-14.5-13.9-4.5-4.4-17.2-17.8-17.2-17.8s13.1 14.9 17.9 19.7 8.3 7.2 14 13c5.8 5.8 14.5 14.9 17.9 18.3 2.8 2.8 8.9 7.6 11.2 9.4l.6-.6c-2.9-2.5-12-10.5-15.9-14.5-4.7-4.7-9-8.5-14-13.6zm17.3 5.1c-3.1-3.1-11.9-12-13.8-13.8-1.8-1.9-8.5-7.1-8.5-7.1s4.6 5 5.9 6.3c1.2 1.2 8.3 7.1 13.5 12.4 4.5 4.5 16.5 16.7 19.8 20 .5-.6.8-1.2 1.2-1.8-3.5-3-15.4-13.3-18.1-16zm-125.5-112.4c-5.5-5.6-12.2-13-14.5-15.4-5.4-5.5-16.2-14.8-20-18.6l-.6.6-.1.2c3.9 3.8 15.7 14.9 23.1 22.2 4.7 4.8 12.1 11 12.1 11zm-4.5-2.1c6 6 49.9 49 55.5 54.6s12.1 12.6 15.4 15.9 12.4 12.7 12.4 12.7-12.3-13.9-19.5-21.1-24.7-25.2-32.7-33.3c-5.8-6.1-31.1-28.8-31.1-28.8z" fill="#6b5600"/><path d="m173.8 192c-8.2-8.1-23.9-23-30.8-29.8-1.2-1.2-15-14.7-17.9-17.6s-28.4-26.1-33.1-30.7c-4.7-4.7-10-11.1-12-13.1s-5.8-6.4-7.9-8.6c-2.1-2.1-5.4-5.6-7.9-8.1-.9-.9-1.5-1.4-1.9-1.5l-.3.3c.2.4.7 1.1 1.6 2 2.7 2.7 6.2 7 7.8 8.6s6.9 6.8 10.1 10 9.2 10.1 10.9 11.8c6.6 6.6 11.8 10.1 19.6 18.1 7.8 7.7 26.4 26.3 30.2 30.2 6.6 6.5 16.1 14.7 20.6 19.2 4.6 4.6 14.9 15.5 20.2 20.7 5.2 5.3 12.1 12.4 16.8 17.1 4.6 4.6 17.2 16.4 17.2 16.4-19.3-19.5-18.6-20.1-25.4-26.8-6.8-7.4-13.4-13.7-17.8-18.2zm42.6 34.2c-6.6-6.5-11.5-11.8-18.4-18.7s-14.7-14.2-20.8-20.3-23.7-23-23.7-23 17.3 18.2 24 24.8l19.9 19.9c8 7.9 19.9 20.3 24.7 25 4 4 15.1 14 15.1 14l1.7-1.4c.1.1-12.7-10.5-22.5-20.3zm-131.9-124.2c5.7 6.1 41.7 39.3 46.7 44.9 5.5 5.6 28.6 27.2 28.6 27.2s-15.6-15.7-23.1-23.7c-7.4-8-36.1-32.9-45.1-42.5-8.9-9.6-24.6-25.3-24.6-25.3l-1.4 1.1s13.2 12.2 18.9 18.3zm143.2 144.9c-4.4-4.6-8.7-8.2-8.7-8.2s5.1 6.7 7.5 8.8c1.7 1.5 3.4 3.3 4.5 4.3.5-.2.9-.4 1.4-.6-.9-.7-2.5-2-4.7-4.3zm-94.1-109.9h-.1c2.2 2.1 4 3.6 4 3.6s-1.7-1.5-3.9-3.6zm16.4 17.8c-.1-.4-.1-.8-.1-1.2-5.4-4.7-12.7-10.8-18.9-15.9-.2 0-.3.1-.5.2 2.4 2.2 4 3.7 5.2 4.6 3.3 2.7 8.8 7.4 14.3 12.3zm1-5.3c-4.9-5.1-9.9-10.1-13.7-14.2-.4.2-.8.4-1.3.7 5.4 5.3 10.6 10.3 14.6 14.3.1-.2.2-.5.4-.8zm-61.3-75.8c-4.5-4.5-8.1-8.1-9.5-9.5 1.3 1.5 4.8 5.4 9 9.9.2-.1.4-.3.5-.4zm63.3 72.7c-1.8-1.8-3.2-3.3-4.1-4.2s-4.2-4.3-8.3-8.5c-.2.1-.4.2-.6.3 3.6 3.7 8.2 8.4 12.6 13 .1-.2.2-.4.4-.6zm-71.9-61.8c-4.6-4.6-8.7-8.8-10.8-10.8-.3.4-.7.8-1 1.2 2.3 2.2 6.8 6.4 11.4 10.8.2-.4.3-.8.4-1.2zm4-6.6c-3-2.9-6.9-6.7-9.6-9.4l-1.4 1.2c4.4 4.3 7.7 7 10.2 9.1.3-.3.5-.6.8-.9zm-4.6 10.2c-5.8-5.6-10.2-9.7-12.3-11.6-.2.3-.4.6-.6.9 2.3 2.2 7.3 7 13.1 12.6-.2-.7-.2-1.3-.2-1.9zm1.8-6.4c.2-.3.4-.6.6-1-4.2-3.8-8.3-7.5-10.4-9.6l-.4.4c-.1.1-.2.2-.3.3 2 1.9 6 5.7 10.4 10 .1.1.1 0 .1-.1z" fill="url(#c)"/><path d="m82.4 0s6.7 4.7 17.4 15.4 15.5 17.4 15.5 17.4v6l-76.4 76.4h-6s-8.9-6.9-17.4-15.5c-10.8-10.6-15.5-17.3-15.5-17.3v-6l76.4-76.4z"/><path d="m81.3 3.2h-3.6l-74.5 74.5v3.6s3.9 5.6 14.5 16.1c10.6 10.7 16.1 14.6 16.1 14.6h3.6l74.6-74.5v-3.7s-3.9-5.5-14.5-16.1c-10.6-10.5-16.2-14.5-16.2-14.5z" fill="url(#d)"/><path d="m81.3 3.2h-3.6l-74.5 74.5v3.6s3.9 5.6 14.5 16.1c10.6 10.7 16.1 14.6 16.1 14.6h3.6l74.6-74.5v-3.7s-3.9-5.5-14.5-16.1c-10.6-10.5-16.2-14.5-16.2-14.5z" fill="url(#d)"/><path d="m109.3 36.5s-20.9 22.3-35.7 37c-14.8 14.8-37.1 35.7-37.1 35.7s-8.2-4.2-17.2-13.3c-9.1-9-13.4-17.2-13.4-17.2s20.9-22.3 35.7-37.1c14.8-14.7 37-35.7 37-35.7s7.9 4.6 16.9 13.7c9.2 9 13.8 16.9 13.8 16.9z" fill="url(#e)"/><path d="m36.5 109.3s-8.2-4.2-17.2-13.3c-9.1-9.1-13.4-17.3-13.4-17.3l-2.7-1v3.6s3.9 5.6 14.5 16.1c10.6 10.7 16.1 14.6 16.1 14.6h3.6z" fill="url(#f)"/><path d="m112 37.5v-3.6s-3.9-5.5-14.5-16.2c-10.6-10.6-16.2-14.5-16.2-14.5h-3.6l1 2.7s7.9 4.6 16.9 13.7c9 9 13.6 16.9 13.6 16.9z" fill="url(#g)"/><path d="m25.4 242.6c-7.1-7.1-12.6-15.8-12.6-15.8l6.9-6.9s7.2-2 11.6-6.4l142.3-142.3c9-9.1 18.5-29 18.5-29l25-25 6.5-4.4 32.4 32.3-4.5 6.5-25 25s-19.9 9.5-29 18.5l-142.2 142.4c-4.4 4.4-6.4 11.6-6.4 11.6l-6.9 6.9s-9.5-6.3-16.6-13.4z"/><path d="m219.2 19.7-24.1 24.1s-5.7 24.9-14.9 34.1l-4.8 4.8 10.7 10.7 4.8-4.8c9.1-9.2 34-14.9 34-14.9l24.2-24.1z" fill="url(#h)"/><path d="m186.1 93.4 4.3 4.4 4.8-4.8c9.2-9.2 29.7-19.2 29.7-19.2s-24.9 5.7-34 14.9z" fill="#616161"/><path d="m171 78.3 4.4 4.4 4.8-4.8c9.2-9.2 14.8-34.1 14.8-34.1s-10 20.5-19.1 29.7z" fill="#ebe9e9"/><path d="m175.7 82.4-137.8 137.8c-5.2 5.2-11.3 7.9-11.3 7.9l14.2 14.1s2.6-6.1 7.9-11.3l137.7-137.8z" fill="#fc3"/><path d="m17 227.1s5.9 8.4 10.7 13.2 14 11.5 14 11.5z" fill="#bfbfbf"/><path d="m249.1 49.6 2.8-4.1-28.6-28.6-4 2.7" fill="#ebe9e9"/><path d="m36.4 246.6 4.3-4.4 5.2 5.2-4.3 4.4z" fill="#3d2812"/><path d="m22.2 232.4-5.2-5.3 4.4-4.4 5.2 5.3z" fill="#e2d9ac"/><path d="m40.8 242.2-4.3 4.4-14.2-14.1 4.3-4.4z" fill="#fcc332"/><path d="m190.8 97.4-4.4-4.3-137.8 137.8c-5.2 5.2-7.9 11.3-7.9 11.3l5.2 5.2s1.7-7 7-12.2z" fill="#473015"/><path d="m171.4 78-137.8 137.8c-5.3 5.2-12.2 7-12.2 7l5.2 5.3s6.1-2.7 11.3-7.9l137.8-137.8z" fill="#ede5b2"/></svg>