<?xml version="1.0" encoding="utf-8"?>
<!DOCTYPE svg>
<svg version="1.1" baseProfile="full" xmlns="http://www.w3.org/2000/svg" xmlns:xlink="http://www.w3.org/1999/xlink" x="0px" y="0px" width="256px" height="256px" viewBox="0 0 256 256" enable-background="new 0 0 256 256" xml:space="preserve">
<path fill="#ffffff" d="M58.664,206.98c0.307-0.309,0.609-0.461,1.01-0.453c0.402,0.012,0.715,0.203,1.182,0.676c0.346,0.336,0.549,0.594,0.631,0.941c0-0.086,0.027-0.164,0.004-0.242c-0.082-0.355-0.289-0.613-0.635-0.961c-0.467-0.461-0.779-0.664-1.178-0.672c-0.398,0-0.707,0.152-1.014,0.461l-0.852,0.855l0.129,0.125L58.664,206.98z M66.27,199.383l0.404,0.395l0.129-0.125l-0.533-0.535L64.389,201l0.131,0.125L66.27,199.383z M64.096,201.559l0.4,0.402l0.129-0.133l-0.533-0.531l-1.881,1.887l0.131,0.125L64.096,201.559z M57.227,208.422l0.408,0.395l0.129-0.125l-0.537-0.527l-1.875,1.875l0.125,0.133L57.227,208.422z M68.543,197.105l0.408,0.395l0.125-0.117l-0.533-0.535l-1.691,1.691l0.129,0.125L68.543,197.105z M53.52,212.125l1.602,0.75l-0.154-0.336l-1.447-0.672l-0.602,0.605l0.178,0.066L53.52,212.125z M71.898,197.289c0.213-0.211,0.256-0.395,0.203-0.578c-0.029,0.098-0.088,0.191-0.203,0.309l-0.322,0.328l-1.1-1.098l-0.131,0.125l1.23,1.23L71.898,197.289z M72.467,193.172l3.244,1.539l0.01-0.02l-0.467-0.461l-2.787-1.309l-0.549,0.551l0.131,0.125L72.467,193.172z M69.115,199.672l-1.033-1.039l-0.125,0.137l1.158,1.152l0.98-0.98l0.404,0.406l0.129-0.125l-0.533-0.531L69.115,199.672z M63.77,206.77l-0.414,0.402l-0.855-1.27l-0.289-0.18l-0.01,0.008l1.154,1.711l0.568-0.566L63.77,206.77z M66.148,200.566l3.293,3.301l0.131-0.137l-3.299-3.289L66.148,200.566z M70.812,201.367l-1.033-1.039l-0.125,0.133l1.158,1.156l1.125-1.117l0.438,0.434l0.129-0.125l-0.566-0.566L70.812,201.367z M60.832,204.559l0.102,0.152l0.375-0.363l4.682,2.98l0.158-0.164l-4.846-3.078L60.832,204.559z M63.789,208.078l0.586,0.863l0.102-0.105l-0.582-0.863L63.789,208.078z M63.967,202.75l3.297,3.289l0.131-0.125l-3.299-3.297L63.967,202.75z M72.082,198.105l1.557,1.566l0.131-0.133l-1.559-1.566L72.082,198.105z M74.086,194.73h-0.014l2.25,2.25l0.129-0.113l-1.932-1.945L74.086,194.73z M73.332,192.059l0.129,0.113l0.438-0.422l3.832,3.828l0.131-0.125l-3.963-3.973L73.332,192.059z M72.316,195.395c-0.764-0.762-1.49-0.836-2.162-0.164l-0.914,0.914l0.135,0.125l0.779-0.777c0.672-0.676,1.398-0.609,2.162,0.16c0.463,0.465,0.664,0.926,0.5,1.48l2.246,1.117l0.174-0.184l-2.42-1.191C72.977,196.309,72.773,195.848,72.316,195.395z M51.971,214.73l-0.125,0.137l1.164,1.16l0.977-0.98l0.402,0.414l0.131-0.133l-0.533-0.539l-0.982,0.98L51.971,214.73z M50.566,215.883l0.131-0.113l-0.539-0.539l-1.875,1.875l0.125,0.125l1.75-1.75L50.566,215.883z M50.039,216.672l3.297,3.301l0.131-0.125l-3.299-3.309L50.039,216.672z M54.701,217.473l-1.033-1.039l-0.125,0.125l1.158,1.172l1.125-1.125l0.438,0.434l0.131-0.125l-0.568-0.566L54.701,217.473z M52.434,213.211l0.408,0.406l0.125-0.137l-0.533-0.52l-1.688,1.684l0.129,0.125L52.434,213.211z M57.105,209.617l3.293,3.285l0.131-0.133l-3.293-3.289L57.105,209.617z M56.572,214.328l0.76,1.633l0.086-0.078l-0.697-1.488L56.572,214.328z M60.529,208.617l-0.27,0.266l-1.217-1.211l-0.129,0.137l1.346,1.344l0.27-0.277c0.234-0.23,0.279-0.414,0.221-0.598C60.721,208.383,60.654,208.5,60.529,208.617z M54.98,210.402L54.379,211l0.082,0.191l0.52-0.52l1.131,2.637l2.711,1.172l0.182-0.172l-2.893-1.262L54.98,210.402z M60.793,209.684l1.418,1.414l0.131-0.125l-1.418-1.426L60.793,209.684z M222.961,254.27C222.605,253.922,222.754,254.066,222.961,254.27L222.961,254.27z M178.043,163.598c0,0,4.842,5.508,7.428,8.086c2.588,2.586,8.221,7.949,8.221,7.949s-3.32-4-7.293-7.98C182.418,167.691,178.043,163.598,178.043,163.598z M201.895,173.039c-13.678-13.672-27.414-28.637-39.943-42.23l35.625-35.625c9.059-9.051,29-18.531,29-18.531l25.006-25l4.418-6.52l-32.346-32.344l-6.506,4.402l-25.02,25.031c0,0-9.465,19.941-18.518,29l-34.904,34.895c-0.779-0.809-1.568-1.617-2.332-2.367c-13.102-13.105-34.836-32.809-44.572-41.559l23.395-23.395v-5.969c0,0-4.756-6.695-15.447-17.387C89.062,4.75,82.352,0,82.352,0h-5.963L0,76.383v5.965c0,0,4.746,6.711,15.441,17.402c8.477,8.473,17.4,15.441,17.4,15.441h5.961l23.355-23.363c8.76,9.75,28.453,31.48,41.562,44.586c0.76,0.75,1.568,1.539,2.371,2.336l-74.76,74.75c-4.385,4.383-11.611,6.367-11.611,6.367l-6.885,6.883c0,0,5.535,8.789,12.605,15.867l0,0C32.504,249.691,42.004,256,42.004,256l6.924-6.934c0,0,1.98-7.219,6.365-11.605l75.496-75.488c13.586,12.527,28.557,26.258,42.23,39.949c26.432,26.426,49.678,52.086,50.332,52.73c3.645,3.656,12.918-0.547,21.826-9.461c9.385-9.383,12.773-18.5,9.664-21.613C253.684,222.422,228.312,199.48,201.895,173.039z M95.934,70.23c10.971,9.922,27.508,25.105,38.188,35.789c0.744,0.75,1.537,1.559,2.326,2.363l-5.793,5.789c-3.467-3.461-7.27-7.25-7.27-7.25s3.428,4.367,6.576,7.945l-4.086,4.086c-4.621-4.684-8.543-8.645-10.125-10.23c-4.707-4.703-9.674-9.539-11.664-11.531c-1.984-1.98-5.432-6.094-7.557-8.219c-2.121-2.117-5.697-5.301-8.217-7.82c-0.736-0.738-1.898-1.875-3.227-3.172c1.23-1.383,2.65-2.703,4.105-3.863c3.453,3.719,7.4,7.902,11.184,11.672c9.746,9.75,20.611,19.152,20.611,19.152S113.039,96.992,101.039,85c-3.963-3.961-7.885-7.883-11.309-11.309C91.951,72,94.191,70.703,95.934,70.23C95.938,70.23,95.938,70.23,95.934,70.23z M122.303,122.52l-1.832,1.828c-1.484-1.445-2.904-2.84-4.092-4.02c-7.033-7.039-15.678-16.059-24.09-24.473c-3.197-3.203-7.303-7.336-11.168-11.238c0.297-0.867,0.662-1.75,1.125-2.617c4.283,4.105,8.945,8.617,12.562,12.223c4.758,4.758,12.195,11,12.195,11c-5.494-5.637-12.148-13.031-14.508-15.395c-2.473-2.48-6.049-5.75-9.562-8.945c0.408-0.66,0.875-1.305,1.398-1.961c1.385,1.145,2.529,2.105,3.451,3.031c2.721,2.719,7.193,7.027,8.783,8.613c1.588,1.586,5.934,5.836,9.117,9.012c3.178,3.18,9.84,10.422,11.494,12.074c2.951,2.945,5.496,5.406,8.096,7.906l-2.264,2.258c-9.227-8.547-20.477-18.758-20.477-18.758C104.855,105.383,112.967,113.355,122.303,122.52z M58.059,64.809l-4.51-4.5l-0.871,0.855l-0.701-0.703l0.158-0.152l0.543,0.539l0.871-0.867l4.51,4.512l0.59-0.59l0.16,0.164L58.059,64.809z M54.293,59.23l0.711-0.711l0.16,0.172l-0.707,0.711L54.293,59.23z M59.779,63.098l-1.674-3.789l-3.461-1.52l0.227-0.223l3.234,1.414l1.674,3.789l0.691-0.691l0.102,0.219L59.779,63.098z M56.566,55.867l0.102-0.098l0.875,1.902l-0.188-0.094L56.566,55.867z M61.871,61l-2.227-1.02l-0.184-0.402l2.41,1.094l0.566-0.555l0.227,0.094L61.871,61z M62.996,59.875l-5.217-5.223l0.162-0.152L63,59.559l0.592-0.598l0.158,0.172L62.996,59.875z M59.23,54.289l0.391-0.387c0.59-0.574,0.99-0.172,1.48,0.309c0.375,0.387,0.645,0.672,0.553,1.039c-0.078-0.23-0.293-0.461-0.553-0.711c-0.49-0.5-0.891-0.895-1.48-0.316l-0.232,0.238L59.23,54.289z M61.707,56.77l0.385-0.387c0.441-0.441,0.557-0.875,0.533-1.305c0,0,0,0,0,0.008c0.135,0.539,0.01,1.078-0.539,1.625l-0.221,0.223L61.707,56.77z M41.635,41.633C26.871,56.402,5.938,78.691,5.938,78.691s4.27,8.164,13.336,17.23c9.068,9.078,17.23,13.328,17.23,13.328l0.973,2.742h-3.621c0,0-5.576-3.934-16.154-14.512C7.125,86.914,3.191,81.336,3.191,81.336v-3.625L77.721,3.203h3.615c0,0,5.582,3.93,16.154,14.508C108.066,28.277,112,33.855,112,33.855v3.625l-2.746-0.98c0,0-4.57-7.848-13.633-16.922c-9.068-9.059-16.93-13.637-16.93-13.637S56.404,26.867,41.635,41.633z M80.773,85.797c5.332,5.086,10.812,10.355,13.197,12.742c5.352,5.344,13.283,14,18.15,18.863c1.5,1.5,4.49,4.309,7.875,7.426l-1.135,1.133c-6.029-5.875-14.312-13.883-25.848-25.422c-4.609-4.605-8.869-8.781-12.562-12.336C80.467,87.402,80.572,86.598,80.773,85.797z M83.629,95.422c-1.768-1.77-2.688-3.594-3.027-5.43c6.537,6.316,13.941,13.527,19.145,18.719c5.215,5.23,12.08,11.828,18.504,17.867l-1.717,1.711C105.635,117.402,90.951,102.73,83.629,95.422z M48.658,230.836c-5.24,5.242-7.865,11.355-7.865,11.355l0,0l-4.369,4.367l5.25,5.25c0,0-9.135-6.617-13.973-11.453c-4.83-4.836-10.711-13.23-10.711-13.23l4.371-4.375c0,0,6.99-1.742,12.23-6.98L171.043,78.309L171.361,78l4.514-4.52c9.168-9.164,19.221-29.691,19.221-29.691l24.111-24.117l4.066-2.75l28.602,28.617l-2.75,4.059l0,0l0,0l-24.111,24.113c0,0-24.898,5.672-34.066,14.848l-4.832,4.824h-0.004L48.658,230.836z M250.543,233.566c-3.404-2.961-15.352-13.355-18.014-16.02c-3.115-3.105-11.934-11.949-13.783-13.816c-1.857-1.848-8.52-7.059-8.52-7.059s4.6,5.039,5.869,6.289c1.256,1.27,8.279,7.098,13.516,12.336c4.5,4.5,16.504,16.703,19.807,20.059c-1.066,1.547-2.467,3.297-4.273,5.27c-2.871-2.508-11.934-10.453-15.928-14.453c-4.775-4.77-9.02-8.613-14.059-13.652c-5.029-5.039-10.004-9.453-14.447-13.895c-4.441-4.453-17.23-17.797-17.23-17.797s13.059,14.922,17.895,19.758c4.842,4.836,8.283,7.223,14.053,12.992s14.477,14.844,17.924,18.289c2.783,2.785,8.912,7.641,11.172,9.402c-0.514,0.547-1.033,1.098-1.609,1.672c-0.871,0.867-1.688,1.637-2.48,2.367c0.004,0,0.004-0.012,0.014-0.02c-0.812-0.098-1.693-0.77-2.773-1.855c-1.213-1.211-25.799-26.203-52.236-52.637c-9.816-9.824-29.23-27.73-31.951-30.113c-2.188-1.926-3.236-3.855-3.525-5.801c2.895,2.656,5.799,5.406,8.428,8.02c7.568,7.578,15.535,14.598,15.535,14.598s-12.957-13.336-18.664-19.039c-1.27-1.27-3.158-2.969-5.375-4.883c0.033-1.098,0.283-2.184,0.727-3.27c3.605,3.547,6.297,6.191,7.422,7.324c5.635,5.637,12.068,12.598,15.381,15.906c3.307,3.328,12.457,12.73,12.457,12.73s-12.328-13.922-19.482-21.078c-3.461-3.461-9.359-9.5-15.428-15.711c0.223-0.441,0.457-0.883,0.73-1.348c0.236-0.383,0.539-0.797,0.838-1.199c6.48,6.684,12.543,12.941,14.523,14.922c6.506,6.5,15.443,15.867,20.014,20.434c4.572,4.578,14.91,14.488,20.15,19.719c5.234,5.242,12.197,11.953,16.832,16.609c4.643,4.633,17.205,15.285,17.205,15.285s-19.984-19.691-27.143-26.855c-7.154-7.152-16.236-15.199-20.678-19.645c-6.193-6.191-16.371-17.105-21.607-22.344c-5.234-5.23-6.83-6.164-7.951-7.289c-0.809-0.809-6.629-6.902-10.947-11.367c2.971-3.758,8.092-7.652,11.707-7.961c11.129,12.066,23.102,24.961,35,36.867c26.438,26.441,52.576,50.164,52.852,50.441C252.674,225.941,253.654,228.328,250.543,233.566z"/>
</svg>
