<?xml version="1.0" encoding="utf-8"?>
<!DOCTYPE svg>
<svg version="1.1" baseProfile="full" xmlns="http://www.w3.org/2000/svg" xmlns:xlink="http://www.w3.org/1999/xlink" x="0px" y="0px" width="128px" height="128px" viewBox="0 0 128 128" enable-background="new 0 0 128 128" xml:space="preserve">
<path d="M122.602,122.602c-4.469,4.441-9.117,6.543-10.918,4.715c-0.68-0.664,0,0,0,0c-0.332-0.309-11.957-13.125-25.168-26.355l0,0C74.547,89.004,60.52,76.867,51.863,68.266c-8.646-8.689-23.012-24.83-23.023-24.846l0,0l-0.959-1.08l6.967-7.572l7.484-6.871l1.076,0.951c0.008,0.008,16.16,14.393,24.842,23.027c8.617,8.645,20.734,22.695,32.695,34.66l0,0c13.23,13.199,25.906,24.676,26.461,25.273C128.973,113.348,127.258,117.93,122.602,122.602z"/>
<linearGradient id="SVGID_1_" gradientUnits="userSpaceOnUse" x1="474.6748" y1="964.7275" x2="488.7097" y2="950.6921" gradientTransform="matrix(1 0 0 1 -403 -879)">
<stop offset="0.1484" style="stop-color:#7b6c35"/>
<stop offset="0.8352" style="stop-color:#b9aa69"/>
</linearGradient>
<path fill="url(#SVGID_1_)" d="M67.027,53.012c-8.543-8.576-24.684-22.959-24.684-22.959l-6.412,5.887l-5.887,6.416c0,0,14.375,16.148,22.955,24.699c8.568,8.586,22.617,20.754,34.652,32.777c13.215,13.207,24.949,26.156,25.152,26.355c0.203,0.211,2.676,1.242,8.656-4.719c5.969-5.949,4.914-8.449,4.789-8.602c-0.141-0.117-13.211-11.969-26.422-25.207C87.781,75.617,75.625,61.588,67.027,53.012z"/>
<linearGradient id="SVGID_2_" gradientUnits="userSpaceOnUse" x1="474.6621" y1="964.7178" x2="488.4886" y2="950.8914" gradientTransform="matrix(1 0 0 1 -403 -879)">
<stop offset="0.0934" style="stop-color:#2b2414"/>
<stop offset="0.7363" style="stop-color:#624e22"/>
</linearGradient>
<path fill="url(#SVGID_2_)" d="M120.234,122.652c-0.422-0.051-0.852-0.395-1.406-0.918c-0.594-0.625-12.898-13.105-26.109-26.336c-4.918-4.914-14.617-13.859-15.953-15.043c-2.391-2.082-2.18-4.207-0.934-6.27c1.293-2.09,4.402-4.711,6.48-4.906c-2.02-2.18-3.977-4.291-5.867-6.332c-5.77,3.262-12.438,7.09-13.393,6.066c-4.609-4.518-16.293-16.273-21.24-21.207c-2.168-2.168-1.877-4.49-0.652-6.787c1.344-2.512,4.775-5.252,6.812-5.812l0,0c-3.328-3-5.629-5.055-5.629-5.055l-6.412,5.887l-5.887,6.416c0,0,14.375,16.148,22.955,24.699c8.568,8.586,22.617,20.754,34.652,32.777c13.215,13.207,24.949,26.156,25.152,26.355C112.984,126.383,115.152,127.289,120.234,122.652z"/>
<path fill="#6b5600" d="M96.836,89.809c0,0-1.645-1.992-3.633-3.961c-1.992-2.012-4.168-4.051-4.168-4.051s2.426,2.766,3.699,4.059C94.02,87.152,96.836,89.809,96.836,89.809z M66.742,58.432c-1.814-1.896-5.047-4.975-5.047-4.975s2.938,3.65,4.641,5.367C68.02,60.564,68.625,60.316,66.742,58.432z M62.404,65.9c-3.053-3.049-7.961-7.693-15.896-15.625c-6.137-6.135-11.047-10.723-12.584-12.146l-0.352,0.379c2.119,2.057,11.275,10.828,16.303,15.852c5.713,5.709,15.418,14.75,17.98,16.891c2.617,2.117,7.551,6.418,11.332,10.195c3.793,3.797,7.773,7.336,7.773,7.336s-6.461-6.688-9.336-9.539C74.797,76.406,65.871,69.398,62.404,65.9z M60.5,52.473c0,0-3.973-3.969-9.973-9.969c-4.592-4.596-9.184-9.168-10.412-10.408l-0.02,0.016c1.225,1.365,5.9,6.584,10.092,10.781C55.068,47.771,60.5,52.473,60.5,52.473z M48.293,45.289c0.799,0.783,2.959,2.91,4.551,4.508c1.588,1.578,4.92,5.199,5.748,6.027c3.301,3.309,5.588,5.371,9.545,9.283C72.004,68.973,81.609,79,83.539,80.938c3.258,3.242,7.711,7.926,10,10.211c2.27,2.281,7.445,7.23,10.078,9.848c2.617,2.633,6.094,6.008,8.41,8.312c2.348,2.32,8.605,7.629,8.605,7.629s-10-9.836-13.57-13.414c-3.578-3.586-8.133-7.609-10.355-9.812c-3.078-3.109-8.16-8.551-10.777-11.176c-2.625-2.621-3.418-3.098-3.984-3.645c-0.574-0.543-6.047-6.289-7.484-7.773c-1.449-1.418-14.229-14.41-16.576-16.754c-2.354-2.355-4.832-4.771-5.828-5.764c-1.004-1-2.713-3.043-3.781-4.111c-1.072-1.061-2.855-2.656-4.111-3.916c-1.191-1.193-4.428-4.305-6.42-6.293l-0.705,0.637c3.412,3.348,5.545,4.752,6.854,6.061C45.256,42.34,47.488,44.492,48.293,45.289z M56.068,58.711c2.428,2.438,12.639,11.629,12.639,11.629s-6.994-6.629-10.512-10.164c-3.516-3.527-7.84-8.035-12.051-12.24c-3.5-3.52-9.217-9.291-11.02-11.111l-0.529,0.568c2.369,2.236,10.141,9.615,12.393,11.891C49.668,51.947,53.629,56.271,56.068,58.711z M107.586,106.258c-2.523-2.508-5.008-4.723-7.234-6.938c-2.234-2.219-8.609-8.891-8.609-8.891s6.531,7.449,8.957,9.859c2.402,2.422,4.145,3.609,7.008,6.5c2.879,2.895,7.246,7.438,8.973,9.141c1.398,1.387,4.461,3.82,5.586,4.699c0.082-0.109,0.207-0.215,0.312-0.32c-1.445-1.27-5.977-5.238-7.961-7.23C112.25,110.684,110.109,108.789,107.586,106.258z M116.258,108.789c-1.547-1.562-5.945-6-6.875-6.91c-0.918-0.926-4.266-3.535-4.266-3.535s2.305,2.52,2.945,3.145c0.621,0.621,4.141,3.551,6.75,6.176c2.25,2.242,8.242,8.332,9.887,10.016c0.23-0.309,0.41-0.602,0.582-0.898C123.57,115.312,117.594,110.125,116.258,108.789z M53.512,52.615c-2.756-2.807-6.08-6.523-7.26-7.691c-2.721-2.736-8.084-7.381-10-9.275l-0.32,0.291l-0.051,0.053c1.963,1.896,7.836,7.436,11.527,11.111C49.793,49.5,53.512,52.615,53.512,52.615z M51.271,51.531c2.98,2.984,24.936,24.488,27.764,27.316c2.797,2.781,6.027,6.281,7.691,7.941c1.629,1.641,6.203,6.355,6.203,6.355s-6.148-6.973-9.73-10.551C79.617,79.012,70.863,70,66.863,65.939C63.885,62.92,51.271,51.531,51.271,51.531z"/>
<linearGradient id="SVGID_3_" gradientUnits="userSpaceOnUse" x1="485.6816" y1="953.6543" x2="476.0068" y2="963.3296" gradientTransform="matrix(1 0 0 1 -403 -879)">
<stop offset="0.5165" style="stop-color:#2d2400"/>
<stop offset="0.8626" style="stop-color:#211700"/>
</linearGradient>
<path fill="url(#SVGID_3_)" d="M86.914,95.996c-4.082-4.066-11.949-11.492-15.375-14.895c-0.586-0.578-7.52-7.352-8.951-8.805c-1.443-1.469-14.195-13.029-16.553-15.373c-2.348-2.363-4.996-5.564-5.996-6.553c-1-1-2.879-3.207-3.936-4.279c-1.064-1.061-2.688-2.803-3.947-4.061c-0.432-0.436-0.756-0.68-0.932-0.76l-0.152,0.133c0.084,0.191,0.332,0.539,0.824,1.012c1.359,1.352,3.104,3.523,3.912,4.312c0.791,0.791,3.443,3.396,5.035,4.979c1.584,1.598,4.596,5.053,5.428,5.889c3.305,3.297,5.904,5.041,9.816,9.025C60,70.473,69.273,79.773,71.207,81.703c3.285,3.27,8.043,7.332,10.32,9.613c2.301,2.285,7.469,7.727,10.082,10.336c2.617,2.637,6.074,6.223,8.414,8.539c2.312,2.316,8.613,8.199,8.613,8.199c-9.633-9.77-9.316-10.074-12.684-13.414C92.398,101.398,89.117,98.234,86.914,95.996z M108.203,113.125c-3.289-3.258-5.742-5.883-9.211-9.344c-3.465-3.434-7.344-7.098-10.391-10.137c-3.062-3.027-11.836-11.492-11.836-11.492s8.656,9.113,11.984,12.383c3.328,3.332,5.984,6.02,9.957,9.973c3.98,3.945,9.973,10.172,12.348,12.5c1.98,1.992,7.57,7,7.57,7l0.867-0.703C119.492,123.305,113.117,118.008,108.203,113.125z M42.26,50.988c2.852,3.043,20.832,19.645,23.355,22.426c2.74,2.785,14.283,13.602,14.283,13.602s-7.82-7.828-11.527-11.836c-3.699-3.996-18.055-16.473-22.527-21.256c-4.484-4.795-12.355-12.607-12.355-12.607l-0.688,0.551C32.805,41.871,39.416,47.936,42.26,50.988z M113.871,123.438c-2.188-2.293-4.367-4.098-4.367-4.098s2.559,3.355,3.762,4.418c0.828,0.738,1.707,1.633,2.238,2.172c0.23-0.102,0.469-0.195,0.707-0.312C115.734,125.258,114.973,124.625,113.871,123.438z M66.789,68.516c-0.023,0.008-0.039,0.023-0.07,0.023c1.105,1.039,1.98,1.801,1.98,1.801S67.883,69.57,66.789,68.516z M75,77.422c-0.039-0.203-0.039-0.406-0.039-0.613c-2.703-2.332-6.344-5.395-9.438-7.953c-0.092,0.02-0.172,0.051-0.248,0.082c1.189,1.102,1.982,1.859,2.58,2.312C69.52,72.621,72.258,74.953,75,77.422z M75.48,74.773c-2.434-2.531-4.926-5.074-6.863-7.102c-0.219,0.117-0.41,0.219-0.637,0.328c2.723,2.633,5.316,5.172,7.324,7.152C75.367,75.047,75.414,74.891,75.48,74.773z M44.867,36.844c-2.242-2.248-4.039-4.039-4.752-4.748l-0.02,0.016c0.664,0.752,2.393,2.678,4.5,4.953C44.695,36.984,44.779,36.924,44.867,36.844z M76.48,73.203c-0.887-0.875-1.605-1.656-2.035-2.082c-0.473-0.434-2.117-2.164-4.172-4.266c-0.09,0.043-0.195,0.082-0.289,0.129c1.805,1.867,4.086,4.207,6.281,6.48C76.34,73.375,76.406,73.289,76.48,73.203z M40.568,42.309c-2.275-2.285-4.373-4.412-5.377-5.42c-0.172,0.207-0.328,0.416-0.488,0.6c1.156,1.096,3.389,3.207,5.689,5.408C40.436,42.707,40.5,42.504,40.568,42.309z M42.553,38.992c-1.48-1.436-3.434-3.332-4.812-4.709l-0.68,0.621l-0.021,0.012c2.201,2.152,3.865,3.508,5.121,4.549C42.293,39.301,42.408,39.145,42.553,38.992z M40.232,44.104c-2.92-2.824-5.096-4.852-6.137-5.814c-0.123,0.168-0.225,0.307-0.316,0.428c1.145,1.1,3.656,3.504,6.525,6.279C40.248,44.699,40.229,44.412,40.232,44.104z M41.16,40.92c0.088-0.152,0.203-0.324,0.301-0.484c-2.098-1.908-4.168-3.76-5.209-4.787l-0.221,0.195c-0.047,0.061-0.084,0.104-0.127,0.168c1,0.965,3.004,2.863,5.225,4.992C41.137,40.977,41.148,40.947,41.16,40.92z"/>
<path d="M41.184,0c0,0,3.344,2.371,8.697,7.725l0,0c5.348,5.336,7.727,8.699,7.727,8.699v2.988L19.4,57.6h-2.984l0,0c0,0-4.461-3.475-8.703-7.729l0,0C2.367,44.531,0,41.184,0,41.184v-2.988L38.191,0H41.184z"/>
<linearGradient id="SVGID_4_" gradientUnits="userSpaceOnUse" x1="423.2285" y1="899.2295" x2="440.3736" y2="916.3749" gradientTransform="matrix(1 0 0 1 -403 -879)">
<stop offset="0" style="stop-color:#ffffff"/>
<stop offset="1" style="stop-color:#666666"/>
</linearGradient>
<path fill="url(#SVGID_4_)" d="M40.668,1.596h-1.805L1.596,38.863v1.812c0,0,1.969,2.785,7.248,8.072c5.293,5.283,8.08,7.256,8.08,7.256h1.809L56,18.748v-1.824c0,0-1.951-2.775-7.252-8.076C43.461,3.576,40.668,1.596,40.668,1.596z"/>
<linearGradient id="SVGID_5_" gradientUnits="userSpaceOnUse" x1="423.2285" y1="899.2295" x2="440.3736" y2="916.3749" gradientTransform="matrix(1 0 0 1 -403 -879)">
<stop offset="0" style="stop-color:#ffffff"/>
<stop offset="1" style="stop-color:#666666"/>
</linearGradient>
<path fill="url(#SVGID_5_)" d="M40.668,1.596h-1.805L1.596,38.863v1.812c0,0,1.969,2.785,7.248,8.072c5.293,5.283,8.08,7.256,8.08,7.256h1.809L56,18.748v-1.824c0,0-1.951-2.775-7.252-8.076C43.461,3.576,40.668,1.596,40.668,1.596z"/>
<linearGradient id="SVGID_6_" gradientUnits="userSpaceOnUse" x1="412.6387" y1="926.9639" x2="450.8047" y2="888.7974" gradientTransform="matrix(1 0 0 1 -403 -879)">
<stop offset="0.0769" style="stop-color:#0a0a0a"/>
<stop offset="0.533" style="stop-color:#0f0f0f"/>
<stop offset="0.9121" style="stop-color:#1a1a1a"/>
</linearGradient>
<path fill="url(#SVGID_6_)" d="M54.637,18.26c0,0-10.469,11.145-17.854,18.523C29.4,44.16,18.248,54.629,18.248,54.629s-4.088-2.125-8.611-6.668c-4.533-4.525-6.668-8.605-6.668-8.605S13.428,28.203,20.82,20.816c7.383-7.369,18.523-17.844,18.523-17.844s3.932,2.287,8.469,6.832C52.34,14.324,54.637,18.26,54.637,18.26z"/>
<linearGradient id="SVGID_7_" gradientUnits="userSpaceOnUse" x1="404.1582" y1="918.3008" x2="421.2971" y2="935.44" gradientTransform="matrix(1 0 0 1 -403 -879)">
<stop offset="0" style="stop-color:#999999"/>
<stop offset="1" style="stop-color:#1a1a1a"/>
</linearGradient>
<path fill="url(#SVGID_7_)" d="M18.248,54.629c0,0-4.092-2.125-8.615-6.668c-4.533-4.525-6.668-8.605-6.668-8.605l-1.369-0.492v1.812c0,0,1.969,2.785,7.248,8.072c5.293,5.283,8.08,7.256,8.08,7.256h1.809L18.248,54.629z"/>
<linearGradient id="SVGID_8_" gradientUnits="userSpaceOnUse" x1="442.2979" y1="880.1572" x2="459.4426" y2="897.3016" gradientTransform="matrix(1 0 0 1 -403 -879)">
<stop offset="0" style="stop-color:#cccccc"/>
<stop offset="1" style="stop-color:#333333"/>
</linearGradient>
<path fill="url(#SVGID_8_)" d="M56,18.744v-1.82c0,0-1.951-2.775-7.252-8.076c-5.287-5.275-8.08-7.256-8.08-7.256h-1.805l0.488,1.373c0,0,3.932,2.287,8.465,6.832c4.523,4.523,6.82,8.459,6.82,8.459L56,18.744z"/>
<path fill="#494949" d="M26.775,30.148l-0.432,0.436l-0.355-0.352L27.225,29l0.355,0.344l-0.432,0.436l2.26,2.26l-0.377,0.369L26.775,30.148z"/>
<path fill="#494949" d="M29.061,29.652L27.316,28.9l0.4-0.4l1.059,0.5l-0.488-1.068l0.4-0.389l0.744,1.74l1.9,0.828l-0.4,0.389l-1.199-0.549l0.555,1.205l-0.398,0.4L29.061,29.652z"/>
<path fill="#494949" d="M28.896,27.34l0.559-0.564c0.205-0.211,0.408-0.307,0.664-0.303c0.266,0,0.465,0.131,0.781,0.447c0.229,0.225,0.359,0.396,0.412,0.629c0.076,0.268,0,0.535-0.26,0.811l-0.189,0.189l1.021,1.016L31.5,29.939L28.896,27.34z M30.508,28.188l0.176-0.176c0.305-0.305,0.121-0.492-0.131-0.744c-0.252-0.244-0.449-0.439-0.736-0.152l-0.201,0.197L30.508,28.188z"/>
<path fill="#191919" d="M26.775,29.84l-0.432,0.42l-0.355-0.344l1.236-1.24l0.355,0.348l-0.432,0.438l2.26,2.256l-0.377,0.371L26.775,29.84z"/>
<path fill="#191919" d="M29.061,29.34l-1.744-0.76l0.4-0.393l1.059,0.488l-0.488-1.064l0.4-0.395l0.74,1.744l1.9,0.828l-0.396,0.402l-1.203-0.559l0.555,1.195l-0.398,0.396L29.061,29.34z"/>
<path fill="#191919" d="M28.896,27.012l0.559-0.561c0.205-0.199,0.408-0.303,0.67-0.303c0.26,0.008,0.459,0.131,0.779,0.443c0.229,0.232,0.359,0.396,0.412,0.625c0.076,0.271,0,0.543-0.26,0.811l-0.193,0.197l1.021,1.02L31.5,29.615L28.896,27.012z M30.508,27.871l0.176-0.184c0.301-0.295,0.117-0.484-0.131-0.73c-0.252-0.25-0.449-0.457-0.74-0.16l-0.201,0.195L30.508,27.871z"/>
<path fill="#2d2d2d" d="M26.775,29.992l-0.432,0.428l-0.355-0.355l1.236-1.232l0.355,0.352l-0.432,0.432l2.26,2.264l-0.377,0.361L26.775,29.992z"/>
<path fill="#2d2d2d" d="M29.061,29.496l-1.744-0.76l0.4-0.393l1.059,0.496l-0.488-1.064l0.4-0.4l0.74,1.746l1.9,0.83l-0.396,0.393l-1.199-0.551l0.555,1.195l-0.398,0.4L29.061,29.496z"/>
<path fill="#2d2d2d" d="M28.896,27.168l0.559-0.557c0.205-0.199,0.408-0.307,0.67-0.307c0.264,0.004,0.463,0.139,0.779,0.443c0.221,0.229,0.355,0.404,0.408,0.631c0.076,0.277,0,0.537-0.26,0.812l-0.189,0.201l1.021,1.016L31.5,29.779L28.896,27.168z M30.508,28.031l0.176-0.176c0.297-0.295,0.121-0.484-0.131-0.752c-0.252-0.244-0.449-0.439-0.74-0.152l-0.201,0.197L30.508,28.031z"/>
<path d="M12.717,121.316L12.717,121.316c-3.533-3.543-6.309-7.918-6.309-7.918l3.451-3.453c0,0,3.613-0.98,5.797-3.188l0,0l71.156-71.146c4.52-4.531,9.25-14.5,9.25-14.5L108.57,8.6l3.27-2.211L128,22.568l-2.227,3.26l-12.5,12.508c0,0-9.957,4.732-14.5,9.256l0,0l-71.125,71.15c-2.193,2.203-3.18,5.785-3.18,5.785L21,128C21,128,16.248,124.828,12.717,121.316z"/>
<linearGradient id="SVGID_9_" gradientUnits="userSpaceOnUse" x1="490.707" y1="907.2637" x2="527.5547" y2="907.2637" gradientTransform="matrix(1 0 0 1 -403 -879)">
<stop offset="0.125" style="stop-color:#cdcdcb"/>
<stop offset="0.875" style="stop-color:#a09ea1"/>
</linearGradient>
<path fill="url(#SVGID_9_)" d="M109.617,9.844L109.617,9.844l-12.07,12.041c0,0-2.848,12.455-7.43,17.039l-2.41,2.416l5.34,5.344l2.422-2.416c4.566-4.58,17.008-7.428,17.008-7.428l12.078-12.039l0,0L109.617,9.844z"/>
<path fill="#616161" d="M93.062,46.688l2.172,2.188l2.41-2.41c4.59-4.594,14.852-9.621,14.852-9.621s-12.441,2.852-17.02,7.428L93.062,46.688z"/>
<path fill="#EBE9E9" d="M85.523,39.16l2.188,2.184l2.418-2.416c4.578-4.584,7.418-17.039,7.418-17.039S92.52,32.16,87.938,36.752L85.523,39.16z"/>
<path fill="#FFCC33" d="M87.855,41.184l-68.883,68.902c-2.621,2.602-5.664,3.938-5.664,3.938l7.088,7.07l0,0c0,0,1.316-3.059,3.928-5.656l68.887-68.906L87.855,41.184z"/>
<path fill="#bfbfbf" d="M8.5,113.562c0,0,2.932,4.203,5.359,6.617c2.416,2.422,6.977,5.727,6.977,5.727L8.5,113.562z"/>
<polygon fill="#ebe9e9" points="124.562,24.805 125.938,22.771 111.641,8.473 109.617,9.844"/>
<path fill="#ba9c0a" d="M24.74,108.508l-0.324,0.309l-0.271-0.238l0.939-0.938l0.264,0.258l-0.328,0.309l1.721,1.73l-0.289,0.27L24.74,108.508z"/>
<path fill="#ba9c0a" d="M25.371,107.332l0.846-0.855l0.268,0.281l-0.557,0.555l0.576,0.586L27,107.414l0.264,0.25l-0.488,0.469l0.576,0.609l0.561-0.59l0.283,0.309l-0.844,0.848L25.371,107.332z"/>
<path fill="#ba9c0a" d="M27.771,106.809l-1.316-0.582l0.305-0.289l0.805,0.371l-0.381-0.789l0.305-0.312l0.568,1.332l1.443,0.625l-0.301,0.309l-0.912-0.43l0.42,0.902l-0.299,0.312L27.771,106.809z"/>
<path fill="#ba9c0a" d="M28.271,104.961l-0.336,0.32l-0.264-0.258l0.939-0.938l0.264,0.25l-0.326,0.336l1.715,1.711l-0.287,0.281L28.271,104.961z"/>
<path fill="#ba9c0a" d="M28.904,103.773l0.436-0.402c0.148-0.16,0.301-0.242,0.5-0.23c0.205,0,0.355,0.102,0.584,0.328c0.18,0.18,0.283,0.305,0.32,0.484c0.049,0.195,0,0.402-0.195,0.609l-0.156,0.133l0.779,0.797l-0.279,0.266L28.904,103.773z M30.129,104.457l0.139-0.141c0.225-0.223,0.104-0.363-0.1-0.566c-0.191-0.188-0.336-0.344-0.561-0.109l-0.146,0.141L30.129,104.457z"/>
<path fill="#ba9c0a" d="M30.408,102.266l0.244-0.242l2.42,1.555l-0.279,0.273l-0.514-0.324l-0.387,0.387l0.336,0.5l-0.281,0.289L30.408,102.266z M31.107,102.727h-0.012l0.588,0.867l0.281-0.281L31.107,102.727z"/>
<path fill="#ba9c0a" d="M31.707,101.527l-0.322,0.32l-0.277-0.246l0.941-0.965l0.264,0.277l-0.328,0.336l1.711,1.711l-0.279,0.297L31.707,101.527z"/>
<path fill="#ba9c0a" d="M32.801,100.422l-0.332,0.344l-0.262-0.293l0.938-0.91l0.26,0.262l-0.328,0.316l1.721,1.73l-0.285,0.27L32.801,100.422z"/>
<path fill="#ba9c0a" d="M33.428,99.266l0.84-0.844l0.264,0.262l-0.562,0.582l0.584,0.562l0.486-0.492l0.27,0.289l-0.488,0.461l0.58,0.598l0.568-0.582l0.279,0.289l-0.844,0.859L33.428,99.266z"/>
<path fill="#ba9c0a" d="M34.625,98.086l0.455-0.477c0.328-0.328,0.688-0.309,1.08,0.078c0.232,0.242,0.328,0.469,0.248,0.75l1.217,0.605l-0.309,0.309l-1.109-0.594l-0.168,0.164l0.846,0.844l-0.281,0.27L34.625,98.086z M35.793,98.664l0.168-0.145c0.184-0.211,0.107-0.348-0.09-0.547c-0.195-0.199-0.336-0.27-0.555-0.059l-0.141,0.129L35.793,98.664z"/>
<path fill="#ba9c0a" d="M35.973,96.734l0.264-0.277l1.619,0.754h0.004l-1.195-1.207l0.283-0.27l1.984,1.977l-0.271,0.27l-1.621-0.754l-0.004,0.016l1.193,1.188l-0.289,0.281L35.973,96.734z"/>
<path fill="#ecd74c" d="M24.74,108.758l-0.324,0.32l-0.271-0.281l0.939-0.918l0.264,0.25l-0.328,0.332l1.721,1.711l-0.289,0.289L24.74,108.758z"/>
<path fill="#ecd74c" d="M25.371,107.594l0.846-0.844l0.268,0.266l-0.557,0.547l0.576,0.566L27,107.66l0.264,0.246l-0.488,0.492l0.576,0.598l0.561-0.582l0.283,0.305l-0.844,0.836L25.371,107.594z"/>
<path fill="#ecd74c" d="M27.771,107.062l-1.316-0.562l0.305-0.309l0.805,0.379l-0.381-0.797l0.305-0.293l0.568,1.312l1.443,0.629l-0.301,0.281l-0.912-0.41l0.42,0.91l-0.303,0.312L27.771,107.062z"/>
<path fill="#ecd74c" d="M28.271,105.227l-0.336,0.32l-0.264-0.258l0.939-0.957l0.27,0.27l-0.328,0.328l1.715,1.703l-0.287,0.328L28.271,105.227z"/>
<path fill="#ecd74c" d="M28.904,104.07l0.436-0.434c0.148-0.152,0.301-0.246,0.5-0.238c0.205,0,0.355,0.109,0.584,0.336c0.18,0.172,0.283,0.305,0.32,0.473c0.049,0.207,0,0.402-0.195,0.625l-0.156,0.145l0.779,0.781l-0.279,0.277L28.904,104.07z M30.129,104.703l0.139-0.125c0.225-0.242,0.104-0.387-0.1-0.574c-0.191-0.188-0.336-0.332-0.561-0.098l-0.146,0.137L30.129,104.703z"/>
<path fill="#ecd74c" d="M30.408,102.527l0.244-0.23l2.42,1.539l-0.271,0.289l-0.514-0.352l-0.387,0.391l0.34,0.508l-0.285,0.301L30.408,102.527z M31.107,102.984h-0.012l0.588,0.871l0.281-0.27L31.107,102.984z"/>
<path fill="#ecd74c" d="M31.707,101.773l-0.322,0.336l-0.277-0.281l0.941-0.922l0.264,0.266l-0.328,0.336l1.711,1.711l-0.279,0.301L31.707,101.773z"/>
<path fill="#ecd74c" d="M32.801,100.695l-0.332,0.324l-0.262-0.262l0.938-0.938l0.26,0.258l-0.328,0.328l1.721,1.727l-0.285,0.273L32.801,100.695z"/>
<path fill="#ecd74c" d="M33.428,99.539l0.84-0.867l0.264,0.289l-0.562,0.559l0.584,0.566l0.486-0.457l0.27,0.234l-0.488,0.48l0.58,0.594l0.568-0.578l0.279,0.285l-0.844,0.871L33.428,99.539z"/>
<path fill="#ecd74c" d="M34.625,98.336l0.455-0.465c0.328-0.332,0.688-0.301,1.08,0.09c0.232,0.223,0.328,0.453,0.248,0.734l1.217,0.602l-0.309,0.305l-1.109-0.582l-0.168,0.164l0.846,0.836l-0.281,0.293L34.625,98.336z M35.793,98.938l0.168-0.172c0.184-0.188,0.107-0.328-0.09-0.539c-0.195-0.188-0.336-0.266-0.555-0.066l-0.141,0.145L35.793,98.938z"/>
<path fill="#ecd74c" d="M35.973,96.996l0.264-0.27l1.619,0.738h0.004l-1.195-1.184l0.283-0.305l1.984,1.988l-0.271,0.293l-1.621-0.781l-0.004,0.008l1.193,1.203l-0.289,0.285L35.973,96.996z"/>
<path fill="#fcc332" d="M24.74,108.625l-0.324,0.328l-0.271-0.262l0.939-0.965l0.264,0.293l-0.328,0.316l1.721,1.727l-0.289,0.289L24.74,108.625z"/>
<path fill="#fcc332" d="M25.371,107.465l0.846-0.871l0.268,0.262l-0.557,0.582l0.576,0.586L27,107.52l0.264,0.262l-0.488,0.5l0.576,0.582l0.561-0.555l0.283,0.27l-0.844,0.859L25.371,107.465z"/>
<path fill="#fcc332" d="M27.771,106.961l-1.316-0.594l0.305-0.305l0.805,0.375l-0.381-0.789l0.305-0.309l0.568,1.297l1.443,0.645l-0.301,0.312l-0.912-0.422l0.42,0.922l-0.303,0.258L27.771,106.961z"/>
<path fill="#fcc332" d="M28.271,105.102l-0.336,0.32l-0.264-0.277l0.939-0.938l0.27,0.273l-0.328,0.332l1.715,1.715l-0.287,0.281L28.271,105.102z"/>
<path fill="#fcc332" d="M28.904,103.914l0.436-0.406c0.148-0.168,0.301-0.242,0.5-0.234c0.205,0,0.355,0.102,0.584,0.32c0.18,0.18,0.283,0.305,0.32,0.492c0.049,0.203,0,0.395-0.195,0.602l-0.156,0.156l0.779,0.773l-0.279,0.273L28.904,103.914z M30.129,104.57l0.139-0.125c0.225-0.246,0.104-0.367-0.1-0.562c-0.191-0.191-0.336-0.34-0.561-0.117l-0.146,0.141L30.129,104.57z"/>
<path fill="#fcc332" d="M30.408,102.406l0.244-0.242l2.42,1.539l-0.279,0.281l-0.514-0.32l-0.387,0.383l0.336,0.492l-0.281,0.301L30.408,102.406z M31.107,102.875h-0.012l0.588,0.852l0.281-0.289L31.107,102.875z"/>
<path fill="#fcc332" d="M31.707,101.652l-0.322,0.328l-0.277-0.254l0.941-0.945l0.264,0.266l-0.328,0.324l1.711,1.73l-0.279,0.281L31.707,101.652z"/>
<path fill="#fcc332" d="M32.801,100.547l-0.332,0.352l-0.262-0.289l0.938-0.922l0.26,0.258l-0.328,0.32L34.797,102l-0.285,0.273L32.801,100.547z"/>
<path fill="#fcc332" d="M33.428,99.406l0.84-0.844l0.264,0.246l-0.562,0.574l0.584,0.582l0.486-0.48l0.27,0.25l-0.488,0.492l0.58,0.574l0.568-0.551l0.279,0.27l-0.844,0.863L33.428,99.406z"/>
<path fill="#fcc332" d="M34.625,98.207l0.455-0.449c0.328-0.352,0.688-0.312,1.08,0.066c0.232,0.23,0.328,0.469,0.248,0.738l1.217,0.605l-0.309,0.309l-1.109-0.598l-0.168,0.184l0.846,0.828l-0.281,0.273L34.625,98.207z M35.793,98.789l0.168-0.156c0.184-0.203,0.107-0.336-0.09-0.531c-0.195-0.188-0.336-0.27-0.555-0.066l-0.141,0.152L35.793,98.789z"/>
<path fill="#fcc332" d="M35.973,96.871l0.264-0.277l1.619,0.754h0.004l-1.195-1.215l0.283-0.277l1.984,1.992l-0.271,0.254l-1.621-0.746l-0.004,0.012l1.193,1.195l-0.289,0.27L35.973,96.871z"/>
<rect fill="#3D2812" x="19.086" y="121.625" transform="matrix(-0.7042 0.71 -0.71 -0.7042 122.8133 195.7839)" width="3.081" height="3.694"/>
<rect fill="#e2d9ac" x="9.036" y="112.234" transform="matrix(0.705 0.7092 -0.7092 0.705 83.9079 25.8405)" width="3.712" height="3.094"/>
<rect fill="#fcc332" x="14.212" y="113.636" transform="matrix(0.7049 -0.7093 0.7093 0.7049 -79.5133 46.1904)" width="3.084" height="10.034"/>
<path fill="#473015" d="M95.391,48.717l-2.18-2.168l-68.887,68.889c-2.617,2.598-3.928,5.648-3.928,5.648l2.623,2.602c0,0,0.873-3.488,3.5-6.094L95.391,48.717z"/>
<path fill="#ede5b2" d="M85.691,39l-68.883,68.898c-2.641,2.621-6.125,3.477-6.125,3.477l2.621,2.652c0,0,3.051-1.336,5.668-3.941l68.883-68.902L85.691,39z"/>
</svg>
