<?xml version="1.0" encoding="utf-8"?>
<!DOCTYPE svg>
<svg version="1.1" baseProfile="full" xmlns="http://www.w3.org/2000/svg" xmlns:xlink="http://www.w3.org/1999/xlink" x="0px" y="0px" width="256px" height="256px" viewBox="0 0 256 256" enable-background="new 0 0 256 256" xml:space="preserve">
<linearGradient id="svg-carver-grad1" gradientUnits="userSpaceOnUse" x1="715.8447" y1="-1214.4536" x2="743.9158" y2="-1186.3815" gradientTransform="matrix(1 0 0 -1 -572.5 -1043)">
	<stop offset="0.1484" style="stop-color:#7b6c35"/>
	<stop offset="0.8352" style="stop-color:#b9aa69"/>
</linearGradient>
<linearGradient id="svg-carver-grad2" gradientUnits="userSpaceOnUse" x1="715.8223" y1="-1214.4341" x2="743.4769" y2="-1186.7797" gradientTransform="matrix(1 0 0 -1 -572.5 -1043)">
	<stop offset="0.0934" style="stop-color:#2b2414"/>
	<stop offset="0.7363" style="stop-color:#624e22"/>
</linearGradient>
<linearGradient id="svg-carver-grad3" gradientUnits="userSpaceOnUse" x1="737.8633" y1="-1192.3071" x2="718.5123" y2="-1211.6592" gradientTransform="matrix(1 0 0 -1 -572.5 -1043)">
	<stop offset="0.5165" style="stop-color:#2d2400"/>
	<stop offset="0.8626" style="stop-color:#211700"/>
</linearGradient>
<linearGradient id="svg-carver-grad4" gradientUnits="userSpaceOnUse" x1="612.957" y1="-1083.4609" x2="647.2459" y2="-1117.7504" gradientTransform="matrix(1 0 0 -1 -572.5 -1043)">
	<stop offset="0" style="stop-color:#ffffff"/>
	<stop offset="1" style="stop-color:#666666"/>
</linearGradient>
<linearGradient id="svg-carver-grad5" gradientUnits="userSpaceOnUse" x1="591.7773" y1="-1138.9253" x2="668.1085" y2="-1062.5931" gradientTransform="matrix(1 0 0 -1 -572.5 -1043)">
	<stop offset="0.0769" style="stop-color:#0a0a0a"/>
	<stop offset="0.533" style="stop-color:#0f0f0f"/>
	<stop offset="0.9121" style="stop-color:#1a1a1a"/>
</linearGradient>
<linearGradient id="svg-carver-grad6" gradientUnits="userSpaceOnUse" x1="574.8174" y1="-1121.6025" x2="609.0938" y2="-1155.8796" gradientTransform="matrix(1 0 0 -1 -572.5 -1043)">
	<stop offset="0" style="stop-color:#999999"/>
	<stop offset="1" style="stop-color:#1a1a1a"/>
</linearGradient>
<linearGradient id="svg-carver-grad7" gradientUnits="userSpaceOnUse" x1="651.0947" y1="-1045.3135" x2="685.3849" y2="-1079.603" gradientTransform="matrix(1 0 0 -1 -572.5 -1043)">
	<stop offset="0" style="stop-color:#cccccc"/>
	<stop offset="1" style="stop-color:#333333"/>
</linearGradient>
<linearGradient id="svg-carver-grad8" gradientUnits="userSpaceOnUse" x1="747.9141" y1="-1099.5278" x2="821.6094" y2="-1099.5278" gradientTransform="matrix(1 0 0 -1 -572.5 -1043)">
	<stop offset="0.125" style="stop-color:#cdcdcb"/>
	<stop offset="0.875" style="stop-color:#a09ea1"/>
</linearGradient>
<path d="M245.203,245.203c-8.938,8.883-18.234,13.086-21.836,9.43c-1.359-1.328,0,0,0,0c-0.664-0.617-23.914-26.25-50.336-52.709l0,0c-23.938-23.916-51.991-48.189-69.306-65.393C86.434,119.154,57.702,86.872,57.68,86.84l0,0l-1.918-2.16l13.935-15.144l14.968-13.742l2.152,1.902c0.016,0.016,32.319,28.786,49.684,46.054c17.234,17.29,41.469,45.391,65.391,69.32l0,0c26.459,26.398,51.812,49.352,52.922,50.547C257.945,226.695,254.516,235.859,245.203,245.203z"/>
<path fill="url(#svg-carver-grad1)" d="M134.055,106.024c-17.087-17.152-49.369-45.919-49.369-45.919L71.862,71.88L60.088,84.712c0,0,28.75,32.296,45.91,49.397c17.136,17.172,45.234,41.508,69.303,65.555c26.432,26.414,49.898,52.312,50.305,52.711c0.406,0.422,5.352,2.484,17.312-9.439c11.938-11.896,9.828-16.896,9.578-17.203c-0.281-0.234-26.422-23.939-52.844-50.414C175.562,151.234,151.25,123.176,134.055,106.024z"/>
<path fill="url(#svg-carver-grad2)" d="M240.469,245.305c-0.844-0.102-1.705-0.791-2.812-1.836c-1.188-1.25-25.797-26.211-52.219-52.672c-9.836-9.828-29.234-27.719-31.906-30.086c-4.781-4.164-4.359-8.414-1.867-12.541c2.586-4.18,8.805-9.422,12.961-9.811c-4.041-4.361-7.955-8.582-11.734-12.665c-11.541,6.524-24.877,14.181-26.786,12.132c-9.219-9.036-32.587-32.546-42.48-42.414c-4.336-4.336-3.754-8.98-1.304-13.574c2.688-5.023,9.55-10.504,13.624-11.624l0,0c-6.656-6-11.259-10.11-11.259-10.11L71.862,71.878L60.088,84.71c0,0,28.75,32.296,45.91,49.399c17.136,17.172,45.234,41.508,69.303,65.553c26.432,26.414,49.898,52.311,50.305,52.709C225.969,252.766,230.305,254.578,240.469,245.305z"/>
<path fill="#6b5600" d="M193.672,179.617c0,0-3.289-3.984-7.266-7.922c-3.984-4.023-8.336-8.102-8.336-8.102s4.852,5.531,7.398,8.117C188.039,174.305,193.672,179.617,193.672,179.617z M133.484,116.864c-3.629-3.792-10.095-9.95-10.095-9.95s5.876,7.3,9.282,10.734C136.039,121.128,137.25,120.632,133.484,116.864z M124.808,131.801c-6.105-6.099-15.922-15.387-31.792-31.251C80.742,88.28,70.922,79.104,67.848,76.258l-0.704,0.758c4.238,4.114,22.551,21.656,32.606,31.704c11.426,11.418,30.836,29.499,35.961,33.782c5.234,4.234,15.102,12.836,22.664,20.389c7.586,7.596,15.545,14.674,15.545,14.674s-12.922-13.377-18.672-19.078C149.594,152.812,131.742,138.797,124.808,131.801z M121,104.946c0,0-7.946-7.938-19.946-19.938C91.87,75.816,82.686,66.672,80.23,64.192l-0.04,0.031c2.449,2.73,11.8,13.168,20.184,21.562C110.136,95.542,121,104.946,121,104.946z M96.586,90.578c1.598,1.565,5.918,5.82,9.102,9.016c3.177,3.156,9.841,10.398,11.496,12.055c6.603,6.617,11.177,10.741,19.09,18.566c7.734,7.73,26.945,27.785,30.805,31.66c6.516,6.484,15.422,15.854,20,20.422c4.539,4.562,14.891,14.461,20.156,19.697c5.234,5.266,12.188,12.016,16.82,16.623c4.695,4.641,17.209,15.258,17.209,15.258s-20-19.672-27.139-26.828c-7.156-7.172-16.266-15.217-20.711-19.623c-6.156-6.217-16.32-17.102-21.555-22.352c-5.25-5.242-6.836-6.197-7.969-7.291c-1.146-1.086-12.094-12.578-14.967-15.545c-2.896-2.836-28.458-28.82-33.151-33.508c-4.708-4.711-9.664-9.543-11.656-11.528c-2.008-2-5.426-6.086-7.562-8.222c-2.144-2.122-5.71-5.312-8.222-7.832c-2.382-2.387-8.856-8.61-12.84-12.586l-1.41,1.273c6.824,6.696,11.09,9.504,13.708,12.122C90.512,84.68,94.976,88.984,96.586,90.578z M112.136,117.422c4.856,4.876,25.278,23.258,25.278,23.258s-13.988-13.258-21.024-20.328c-7.031-7.054-15.68-16.069-24.102-24.479c-7-7.04-18.435-18.582-22.04-22.222l-1.058,1.136c4.737,4.472,20.281,19.229,24.785,23.782C99.336,103.894,107.258,112.542,112.136,117.422z M215.172,212.516c-5.047-5.016-10.016-9.445-14.469-13.875c-4.467-4.438-17.217-17.781-17.217-17.781s13.061,14.896,17.914,19.717c4.803,4.844,8.291,7.217,14.016,13c5.758,5.791,14.492,14.877,17.947,18.283c2.795,2.773,8.922,7.639,11.172,9.396c0.164-0.217,0.414-0.43,0.623-0.639c-2.891-2.541-11.955-10.477-15.922-14.461C224.5,221.367,220.219,217.578,215.172,212.516z M232.516,217.578c-3.094-3.125-11.891-12-13.75-13.82c-1.836-1.852-8.531-7.07-8.531-7.07s4.609,5.039,5.891,6.289c1.242,1.242,8.281,7.104,13.5,12.354c4.5,4.484,16.484,16.664,19.773,20.033c0.461-0.619,0.82-1.205,1.164-1.797C247.141,230.625,235.188,220.25,232.516,217.578z M107.024,105.23c-5.513-5.614-12.16-13.047-14.521-15.383c-5.442-5.472-16.168-14.762-20-18.55l-0.64,0.582l-0.103,0.106c3.926,3.792,15.672,14.872,23.055,22.222C99.586,99,107.024,105.23,107.024,105.23z M102.542,103.062c5.96,5.968,49.872,48.977,55.528,54.633c5.594,5.561,12.055,12.561,15.383,15.881c3.258,3.283,12.406,12.709,12.406,12.709s-12.297-13.945-19.461-21.102c-7.164-7.16-24.672-25.184-32.672-33.305C127.77,125.84,102.542,103.062,102.542,103.062z"/>
<path fill="url(#svg-carver-grad3)" d="M173.828,191.992c-8.164-8.133-23.898-22.984-30.75-29.789c-1.172-1.156-15.04-14.705-17.902-17.611c-2.886-2.938-28.39-26.058-33.105-30.746c-4.696-4.726-9.992-11.128-11.992-13.105c-2-2-5.758-6.414-7.872-8.559c-2.128-2.122-5.376-5.605-7.894-8.122c-0.864-0.872-1.513-1.359-1.864-1.52l-0.305,0.266c0.169,0.382,0.664,1.078,1.648,2.024c2.718,2.704,6.208,7.046,7.824,8.624c1.582,1.582,6.886,6.792,10.069,9.958c3.168,3.196,9.192,10.105,10.856,11.778c6.61,6.594,11.808,10.081,19.632,18.05c7.826,7.705,26.373,26.307,30.24,30.166c6.57,6.539,16.086,14.664,20.641,19.227c4.602,4.57,14.938,15.453,20.164,20.672c5.234,5.273,12.148,12.445,16.828,17.078c4.623,4.631,17.227,16.398,17.227,16.398c-19.268-19.541-18.633-20.148-25.369-26.828C184.797,202.797,178.234,196.469,173.828,191.992z M216.406,226.25c-6.578-6.516-11.484-11.766-18.422-18.688c-6.93-6.867-14.688-14.195-20.781-20.273c-6.125-6.055-23.672-22.984-23.672-22.984s17.311,18.227,23.967,24.766c6.656,6.664,11.967,12.039,19.914,19.945c7.959,7.891,19.947,20.344,24.697,25c3.959,3.984,15.139,14,15.139,14l1.734-1.406C238.984,246.609,226.234,236.016,216.406,226.25z M84.52,101.976c5.704,6.087,41.664,39.29,46.711,44.853c5.48,5.57,28.566,27.203,28.566,27.203s-15.641-15.656-23.055-23.672c-7.398-7.992-36.11-32.945-45.055-42.512c-8.968-9.59-24.71-25.214-24.71-25.214l-1.376,1.103C65.61,83.742,78.832,95.872,84.52,101.976z M227.742,246.875c-4.375-4.586-8.734-8.195-8.734-8.195s5.117,6.711,7.523,8.836c1.656,1.477,3.414,3.266,4.477,4.344c0.461-0.203,0.938-0.391,1.414-0.623C231.469,250.516,229.945,249.25,227.742,246.875z M133.578,137.031c-0.047,0.016-0.078,0.047-0.141,0.047c2.211,2.078,3.961,3.602,3.961,3.602S135.766,139.141,133.578,137.031z M150,154.844c-0.078-0.406-0.078-0.812-0.078-1.227c-5.406-4.664-12.688-10.789-18.875-15.906c-0.184,0.041-0.344,0.104-0.496,0.164c2.377,2.205,3.963,3.719,5.16,4.625C139.039,145.242,144.516,149.906,150,154.844z M150.961,149.547c-4.869-5.062-9.852-10.148-13.727-14.205c-0.438,0.234-0.82,0.439-1.273,0.656c5.445,5.266,10.631,10.344,14.648,14.303C150.734,150.094,150.828,149.781,150.961,149.547z M89.734,73.688c-4.484-4.495-8.078-8.077-9.504-9.495l-0.04,0.031c1.327,1.505,4.785,5.356,9,9.906C89.39,73.968,89.558,73.848,89.734,73.688z M152.961,146.406c-1.775-1.75-3.211-3.312-4.07-4.164c-0.945-0.867-4.234-4.328-8.344-8.531c-0.18,0.086-0.391,0.164-0.578,0.258c3.609,3.734,8.172,8.414,12.562,12.959C152.68,146.75,152.812,146.578,152.961,146.406z M81.136,84.618c-4.55-4.57-8.746-8.824-10.754-10.84c-0.344,0.414-0.656,0.832-0.976,1.2c2.312,2.191,6.777,6.413,11.378,10.815C80.872,85.414,81,85.008,81.136,84.618z M85.106,77.984c-2.96-2.872-6.868-6.664-9.624-9.418l-1.36,1.241l-0.042,0.024c4.402,4.304,7.729,7.016,10.242,9.098C84.586,78.602,84.816,78.29,85.106,77.984z M80.464,88.208c-5.84-5.648-10.191-9.704-12.273-11.628c-0.246,0.336-0.45,0.614-0.633,0.855c2.29,2.2,7.312,7.009,13.051,12.559C80.496,89.398,80.458,88.824,80.464,88.208z M82.32,81.84c0.176-0.304,0.405-0.647,0.602-0.968c-4.196-3.816-8.336-7.521-10.418-9.574l-0.441,0.39c-0.095,0.123-0.169,0.209-0.255,0.337c2,1.93,6.009,5.726,10.45,9.983C82.274,81.954,82.296,81.894,82.32,81.84z"/>
<path d="M82.368,0c0,0,6.688,4.742,17.394,15.45l0,0c10.696,10.672,15.454,17.397,15.454,17.397v5.977L38.8,115.2h-5.968l0,0c0,0-8.922-6.95-17.406-15.458l0,0C4.734,89.062,0,82.368,0,82.368v-5.977L76.382,0H82.368z"/>
<path fill="url(#svg-carver-grad4)" d="M81.336,3.192h-3.61L3.192,77.726v3.624c0,0,3.938,5.57,14.495,16.145c10.587,10.565,16.16,14.512,16.16,14.512h3.618L112,37.496v-3.648c0,0-3.902-5.55-14.504-16.151C86.922,7.152,81.336,3.192,81.336,3.192z"/>
<path fill="url(#svg-carver-grad4)" d="M81.336,3.192h-3.61L3.192,77.726v3.624c0,0,3.938,5.57,14.495,16.145c10.587,10.565,16.16,14.512,16.16,14.512h3.618L112,37.496v-3.648c0,0-3.902-5.55-14.504-16.151C86.922,7.152,81.336,3.192,81.336,3.192z"/>
<path fill="url(#svg-carver-grad5)" d="M109.274,36.52c0,0-20.938,22.291-35.708,37.047c-14.767,14.754-37.07,35.691-37.07,35.691s-8.176-4.25-17.222-13.336c-9.066-9.05-13.337-17.21-13.337-17.21s20.919-22.306,35.702-37.08C56.406,26.895,78.686,5.944,78.686,5.944s7.864,4.573,16.938,13.664C104.68,28.648,109.274,36.52,109.274,36.52z"/>
<path fill="url(#svg-carver-grad6)" d="M36.496,109.258c0,0-8.184-4.25-17.23-13.336C10.2,86.872,5.93,78.712,5.93,78.712l-2.737-0.983v3.623c0,0,3.938,5.57,14.495,16.145c10.587,10.566,16.16,14.512,16.16,14.512h3.618L36.496,109.258z"/>
<path fill="url(#svg-carver-grad7)" d="M112,37.488v-3.641c0,0-3.902-5.55-14.504-16.151C86.922,7.146,81.336,3.184,81.336,3.184h-3.61l0.977,2.746c0,0,7.864,4.574,16.93,13.664c9.046,9.046,13.641,16.918,13.641,16.918L112,37.488z"/>
<g fill="#494949">
	<path d="M53.55,60.296l-0.864,0.872l-0.71-0.704L54.45,58l0.71,0.688l-0.864,0.873l4.521,4.52l-0.754,0.738L53.55,60.296z"/>
	<path d="M58.122,59.304l-3.49-1.504l0.8-0.8l2.118,1l-0.976-2.136l0.8-0.778l1.488,3.48l3.8,1.655L61.862,61l-2.398-1.098l1.11,2.41l-0.796,0.8L58.122,59.304z"/>
	<path d="M57.792,54.68l1.118-1.128c0.41-0.422,0.815-0.614,1.328-0.605c0.531,0,0.93,0.262,1.562,0.894c0.458,0.45,0.718,0.792,0.824,1.258c0.152,0.536,0,1.07-0.521,1.622l-0.378,0.378l2.042,2.032L63,59.878L57.792,54.68z M61.016,56.376l0.353-0.352c0.609-0.61,0.242-0.984-0.262-1.488c-0.505-0.488-0.898-0.878-1.473-0.304l-0.401,0.394L61.016,56.376z"/>
</g>
<g fill="#191919">
	<path d="M53.55,59.68l-0.864,0.84l-0.71-0.688l2.473-2.48l0.71,0.696l-0.864,0.876l4.521,4.512l-0.755,0.742L53.55,59.68z"/>
	<path d="M58.122,58.68l-3.488-1.52l0.8-0.786l2.118,0.976l-0.976-2.128l0.8-0.79l1.48,3.488l3.8,1.656l-0.792,0.804l-2.406-1.118l1.11,2.391l-0.796,0.792L58.122,58.68z"/>
	<path d="M57.792,54.024l1.118-1.122c0.41-0.398,0.815-0.606,1.34-0.606c0.52,0.017,0.918,0.262,1.558,0.886c0.458,0.465,0.719,0.792,0.824,1.25c0.152,0.542,0,1.086-0.52,1.622l-0.387,0.395l2.042,2.04L63,59.23L57.792,54.024z M61.016,55.742l0.353-0.368c0.602-0.59,0.233-0.968-0.262-1.46c-0.505-0.5-0.898-0.914-1.48-0.32l-0.402,0.391L61.016,55.742z"/>
</g>
<g fill="#2d2d2d">
	<path d="M53.55,59.984l-0.864,0.855l-0.71-0.71l2.473-2.464l0.71,0.704l-0.864,0.864l4.521,4.527l-0.755,0.723L53.55,59.984z"/>
	<path d="M58.122,58.992l-3.488-1.521l0.8-0.786l2.118,0.992l-0.976-2.128l0.8-0.8l1.48,3.492l3.8,1.66l-0.792,0.785l-2.398-1.102l1.11,2.39l-0.796,0.801L58.122,58.992z"/>
	<path d="M57.792,54.336l1.118-1.114c0.41-0.397,0.815-0.613,1.34-0.613c0.528,0.008,0.926,0.277,1.558,0.886c0.442,0.458,0.71,0.808,0.816,1.262c0.152,0.555,0,1.074-0.521,1.624l-0.378,0.402l2.042,2.032L63,59.558L57.792,54.336z M61.016,56.062l0.353-0.353c0.594-0.59,0.242-0.968-0.262-1.504c-0.505-0.488-0.898-0.878-1.48-0.304l-0.402,0.394L61.016,56.062z"/>
</g>
<path d="M25.434,242.633L25.434,242.633c-7.065-7.086-12.617-15.836-12.617-15.836l6.901-6.906c0,0,7.227-1.961,11.595-6.377l0,0L173.625,71.222c9.039-9.062,18.5-29,18.5-29L217.141,17.2l6.539-4.422L256,45.136l-4.453,6.521l-25,25.016c0,0-19.914,9.464-29,18.512l0,0L55.296,237.484c-4.386,4.406-6.36,11.57-6.36,11.57L42,256C42,256,32.496,249.656,25.434,242.633z"/>
<path fill="url(#svg-carver-grad8)" d="M219.234,19.688L219.234,19.688L195.094,43.77c0,0-5.695,24.91-14.859,34.078l-4.82,4.832l10.68,10.688l4.844-4.832c9.133-9.16,34.016-14.856,34.016-14.856l24.156-24.078l0,0L219.234,19.688z"/>
<path fill="#616161" d="M186.125,93.376l4.344,4.376l4.82-4.82c9.18-9.188,29.703-19.242,29.703-19.242s-24.883,5.704-34.039,14.856L186.125,93.376z"/>
<path fill="#ebe9e9" d="M171.047,78.32l4.375,4.367l4.836-4.831c9.156-9.169,14.836-34.078,14.836-34.078s-10.055,20.542-19.219,29.726L171.047,78.32z"/>
<path fill="#ffcc33" d="M175.711,82.368L37.944,220.172c-5.242,5.203-11.328,7.875-11.328,7.875l14.176,14.141l0,0c0,0,2.632-6.117,7.856-11.312L186.422,93.064L175.711,82.368z"/>
<path fill="#bfbfbf" d="M17,227.125c0,0,5.864,8.406,10.718,13.234c4.832,4.844,13.954,11.453,13.954,11.453L17,227.125z"/>
<polygon fill="#ebe9e9" points="249.125,49.61 251.875,45.542 223.281,16.946 219.234,19.688"/>
<g fill="#ba9c0a">
	<path d="M49.48,217.016l-0.648,0.617l-0.542-0.475l1.878-1.877l0.528,0.516l-0.656,0.619l3.442,3.459l-0.578,0.541L49.48,217.016z"/>
	<path d="M50.742,214.664l1.691-1.711l0.536,0.562l-1.113,1.109l1.151,1.172L54,214.828l0.528,0.5l-0.977,0.938l1.152,1.219l1.122-1.18l0.565,0.617l-1.688,1.695L50.742,214.664z"/>
	<path d="M55.542,213.617l-2.632-1.164l0.609-0.578l1.61,0.742l-0.762-1.578l0.609-0.623l1.137,2.664L59,214.33l-0.602,0.619l-1.824-0.861l0.84,1.803l-0.598,0.625L55.542,213.617z"/>
	<path d="M56.542,209.922l-0.672,0.641l-0.528-0.516l1.878-1.877l0.528,0.5l-0.652,0.672l3.431,3.422l-0.574,0.562L56.542,209.922z"/>
	<path d="M57.808,207.547l0.872-0.805c0.296-0.32,0.603-0.484,1-0.461c0.41,0,0.71,0.205,1.168,0.656c0.36,0.359,0.566,0.609,0.641,0.969c0.098,0.391,0,0.805-0.391,1.219l-0.312,0.266l1.558,1.594l-0.558,0.531L57.808,207.547z M60.258,208.914l0.278-0.281c0.45-0.447,0.208-0.727-0.2-1.133c-0.382-0.375-0.672-0.688-1.122-0.219l-0.292,0.283L60.258,208.914z"/>
	<path d="M60.816,204.531l0.487-0.484l4.84,3.111l-0.558,0.545l-1.028-0.648l-0.773,0.775l0.672,1l-0.562,0.578L60.816,204.531z M62.214,205.453H62.19l1.176,1.734l0.562-0.562L62.214,205.453z"/>
	<path d="M63.414,203.055l-0.645,0.641l-0.554-0.492l1.882-1.932l0.528,0.555l-0.656,0.672l3.422,3.422l-0.558,0.594L63.414,203.055z"/>
	<path d="M65.602,200.844l-0.664,0.688l-0.523-0.586l1.876-1.82l0.52,0.525l-0.655,0.631l3.441,3.461l-0.569,0.539L65.602,200.844z"/>
	<path d="M66.856,198.531l1.68-1.688l0.528,0.523l-1.124,1.164l1.168,1.125l0.972-0.984l0.54,0.578l-0.977,0.922l1.16,1.195l1.137-1.164l0.558,0.578L70.81,202.5L66.856,198.531z"/>
	<path d="M69.25,196.172l0.91-0.953c0.656-0.656,1.376-0.619,2.16,0.156c0.464,0.484,0.655,0.938,0.496,1.5l2.434,1.209l-0.618,0.619l-2.218-1.189l-0.336,0.328l1.691,1.689l-0.562,0.539L69.25,196.172z M71.586,197.328l0.336-0.289c0.368-0.422,0.214-0.697-0.18-1.094c-0.391-0.398-0.672-0.541-1.11-0.119l-0.282,0.258L71.586,197.328z"/>
	<path d="M71.946,193.469l0.527-0.555l3.238,1.508h0.008l-2.39-2.414l0.566-0.539l3.968,3.953l-0.542,0.539l-3.242-1.508l-0.008,0.033l2.386,2.377l-0.578,0.561L71.946,193.469z"/>
</g>
<g fill="#ecd74c">
	<path d="M49.48,217.516l-0.648,0.641l-0.542-0.562l1.878-1.836l0.528,0.5l-0.656,0.664l3.442,3.422l-0.578,0.578L49.48,217.516z"/>
	<path d="M50.742,215.188l1.691-1.688l0.536,0.531l-1.113,1.094l1.151,1.133L54,215.32l0.528,0.492l-0.977,0.984l1.152,1.195l1.122-1.164l0.565,0.609l-1.688,1.672L50.742,215.188z"/>
	<path d="M55.542,214.125L52.91,213l0.609-0.617l1.61,0.758l-0.762-1.594l0.609-0.586l1.137,2.623L59,214.842l-0.602,0.562l-1.824-0.82l0.84,1.82l-0.606,0.623L55.542,214.125z"/>
	<path d="M56.542,210.453l-0.672,0.641l-0.528-0.516l1.878-1.914l0.54,0.539l-0.656,0.656l3.431,3.406l-0.574,0.656L56.542,210.453z"/>
	<path d="M57.808,208.141l0.872-0.869c0.296-0.303,0.603-0.49,1-0.475c0.41,0,0.71,0.217,1.168,0.672c0.36,0.344,0.566,0.609,0.641,0.945c0.098,0.414,0,0.805-0.391,1.25l-0.312,0.289l1.558,1.562l-0.558,0.555L57.808,208.141z M60.258,209.406l0.278-0.25c0.45-0.484,0.208-0.773-0.2-1.148c-0.382-0.375-0.672-0.664-1.122-0.195l-0.292,0.273L60.258,209.406z"/>
	<path d="M60.816,205.055l0.487-0.461l4.84,3.078l-0.542,0.578l-1.027-0.703l-0.774,0.781l0.681,1.016l-0.57,0.602L60.816,205.055z M62.214,205.969H62.19l1.176,1.742l0.562-0.541L62.214,205.969z"/>
	<path d="M63.414,203.547l-0.645,0.672l-0.554-0.562l1.882-1.844l0.528,0.531l-0.656,0.672l3.422,3.422l-0.558,0.602L63.414,203.547z"/>
	<path d="M65.602,201.391l-0.664,0.648l-0.523-0.525l1.876-1.877l0.52,0.518l-0.655,0.654l3.441,3.455l-0.569,0.545L65.602,201.391z"/>
	<path d="M66.856,199.078l1.68-1.734l0.528,0.578l-1.124,1.117l1.168,1.133l0.972-0.914l0.54,0.469l-0.977,0.959l1.16,1.189l1.137-1.156l0.558,0.57l-1.688,1.742L66.856,199.078z"/>
	<path d="M69.25,196.672l0.91-0.93c0.656-0.664,1.376-0.602,2.16,0.18c0.464,0.445,0.655,0.906,0.496,1.469l2.434,1.203l-0.618,0.609l-2.218-1.164l-0.336,0.328l1.691,1.672l-0.562,0.586L69.25,196.672z M71.586,197.875l0.336-0.344c0.368-0.375,0.214-0.656-0.18-1.078c-0.391-0.375-0.672-0.531-1.11-0.131l-0.282,0.291L71.586,197.875z"/>
	<path d="M71.946,193.992l0.527-0.539l3.238,1.475h0.008l-2.39-2.369l0.566-0.609l3.968,3.977l-0.542,0.586l-3.242-1.562l-0.008,0.016l2.386,2.406l-0.578,0.57L71.946,193.992z"/>
</g>
<g fill="#fcc332">
	<path d="M49.48,217.25l-0.648,0.656l-0.542-0.523l1.878-1.93l0.528,0.586l-0.656,0.631l3.442,3.455l-0.578,0.578L49.48,217.25z"/>
	<path d="M50.742,214.93l1.691-1.742l0.536,0.523l-1.113,1.164l1.151,1.172L54,215.039l0.528,0.525l-0.977,1l1.152,1.164l1.122-1.111l0.565,0.541l-1.688,1.717L50.742,214.93z"/>
	<path d="M55.542,213.922l-2.632-1.188l0.609-0.609l1.61,0.75l-0.762-1.578l0.609-0.619l1.137,2.594L59,214.562l-0.602,0.623l-1.824-0.844l0.84,1.844l-0.606,0.518L55.542,213.922z"/>
	<path d="M56.542,210.203l-0.672,0.641l-0.528-0.555l1.878-1.875l0.54,0.547l-0.656,0.664l3.431,3.43l-0.574,0.562L56.542,210.203z"/>
	<path d="M57.808,207.828l0.872-0.812c0.296-0.336,0.603-0.484,1-0.469c0.41,0,0.71,0.205,1.168,0.641c0.36,0.359,0.566,0.609,0.641,0.984c0.098,0.406,0,0.789-0.391,1.203l-0.312,0.312l1.558,1.547l-0.558,0.547L57.808,207.828z M60.258,209.141l0.278-0.25c0.45-0.492,0.208-0.734-0.2-1.125c-0.382-0.383-0.672-0.68-1.122-0.234l-0.292,0.283L60.258,209.141z"/>
	<path d="M60.816,204.812l0.487-0.484l4.84,3.078l-0.558,0.562l-1.028-0.641l-0.773,0.766l0.672,0.984l-0.562,0.602L60.816,204.812z M62.214,205.75H62.19l1.176,1.703l0.562-0.578L62.214,205.75z"/>
	<path d="M63.414,203.305l-0.645,0.656l-0.554-0.508l1.882-1.891l0.528,0.531l-0.656,0.648l3.422,3.461l-0.558,0.561L63.414,203.305z"/>
	<path d="M65.602,201.094l-0.664,0.703l-0.523-0.578l1.876-1.844l0.52,0.516l-0.655,0.641L69.594,204l-0.569,0.547L65.602,201.094z"/>
	<path d="M66.856,198.812l1.68-1.688l0.528,0.492l-1.124,1.146l1.168,1.164l0.972-0.959l0.54,0.5l-0.977,0.984l1.16,1.146l1.137-1.102l0.558,0.541l-1.688,1.725L66.856,198.812z"/>
	<path d="M69.25,196.414l0.91-0.898c0.656-0.703,1.376-0.625,2.16,0.133c0.464,0.461,0.655,0.938,0.496,1.477l2.434,1.209l-0.618,0.619l-2.218-1.197l-0.336,0.369l1.691,1.656l-0.562,0.545L69.25,196.414z M71.586,197.578l0.336-0.312c0.368-0.406,0.214-0.672-0.18-1.062c-0.391-0.375-0.672-0.539-1.11-0.131l-0.282,0.303L71.586,197.578z"/>
	<path d="M71.946,193.742l0.527-0.555l3.238,1.508h0.008l-2.39-2.43l0.566-0.555l3.968,3.984l-0.542,0.508l-3.242-1.492l-0.008,0.025l2.386,2.389l-0.578,0.541L71.946,193.742z"/>
</g>
<rect fill="#3d2812" x="38.165" y="243.266" transform="matrix(0.7042 -0.71 0.71 0.7042 -163.1479 102.3442)" width="6.162" height="7.387"/>
<rect fill="#e2d9ac" x="18.075" y="224.467" transform="matrix(-0.7051 -0.7091 0.7091 -0.7051 -124.2261 403.4569)" width="7.423" height="6.189"/>
<rect fill="#fcc332" x="28.421" y="227.275" transform="matrix(-0.7049 0.7093 -0.7093 -0.7049 222.0406 382.2389)" width="6.168" height="20.068"/>
<path fill="#473015" d="M190.781,97.434l-4.359-4.336L48.648,230.875c-5.234,5.197-7.856,11.297-7.856,11.297l5.246,5.203c0,0,1.746-6.975,7-12.188L190.781,97.434z"/>
<path fill="#ede5b2" d="M171.383,78L33.616,215.797c-5.282,5.242-12.25,6.953-12.25,6.953l5.242,5.305c0,0,6.102-2.672,11.336-7.883L175.711,82.368L171.383,78z"/>
</svg>
