<?xml version="1.0" encoding="utf-8"?>
<!DOCTYPE svg>
<svg version="1.1" baseProfile="full" xmlns="http://www.w3.org/2000/svg" xmlns:xlink="http://www.w3.org/1999/xlink" x="0px" y="0px" width="64px" height="64px" viewBox="0 0 64 64" enable-background="new 0 0 64 64" xml:space="preserve">
<path fill="#ffffff" d="M14.666,51.745c0.077-0.077,0.152-0.115,0.252-0.113c0.101,0.003,0.179,0.051,0.295,0.169c0.086,0.084,0.137,0.148,0.158,0.235c0-0.021,0.007-0.041,0.001-0.061c-0.021-0.089-0.072-0.153-0.159-0.24c-0.117-0.115-0.195-0.166-0.294-0.168c-0.1,0-0.177,0.038-0.253,0.115l-0.213,0.214l0.032,0.031L14.666,51.745z M16.567,49.846l0.101,0.099l0.032-0.031l-0.133-0.134l-0.47,0.471l0.033,0.031L16.567,49.846z M16.024,50.39l0.1,0.101l0.032-0.033l-0.133-0.133l-0.47,0.472l0.033,0.031L16.024,50.39z M14.307,52.105l0.102,0.099l0.032-0.031l-0.134-0.132l-0.469,0.469l0.031,0.033L14.307,52.105z M17.136,49.276l0.102,0.099l0.031-0.029l-0.133-0.134l-0.423,0.423l0.032,0.031L17.136,49.276z M13.38,53.031l0.4,0.188l-0.039-0.084l-0.362-0.168l-0.15,0.151l0.044,0.017L13.38,53.031z M17.975,49.322c0.053-0.053,0.064-0.099,0.051-0.145c-0.007,0.024-0.022,0.048-0.051,0.077l-0.081,0.082l-0.275-0.274l-0.033,0.031l0.308,0.308L17.975,49.322z M18.117,48.293l0.811,0.385l0.002-0.005l-0.117-0.115l-0.697-0.327l-0.137,0.138l0.033,0.031L18.117,48.293z M17.279,49.918l-0.258-0.26l-0.031,0.034l0.29,0.288l0.245-0.245l0.101,0.102l0.032-0.031l-0.133-0.133L17.279,49.918z M15.942,51.692l-0.104,0.101l-0.214-0.317l-0.072-0.045l-0.002,0.002l0.289,0.428l0.142-0.142L15.942,51.692z M16.537,50.142l0.823,0.825l0.033-0.034l-0.825-0.822L16.537,50.142z M17.703,50.342l-0.258-0.26l-0.031,0.033l0.29,0.289l0.281-0.279l0.109,0.108l0.032-0.031l-0.142-0.142L17.703,50.342z M15.208,51.14l0.025,0.038l0.094-0.091l1.17,0.745l0.04-0.041l-1.211-0.77L15.208,51.14z M15.947,52.02l0.146,0.216l0.025-0.026l-0.146-0.216L15.947,52.02z M15.992,50.688l0.824,0.822l0.033-0.031l-0.825-0.824L15.992,50.688z M18.021,49.526l0.389,0.392l0.033-0.033l-0.39-0.392L18.021,49.526z M18.521,48.683h-0.003l0.562,0.562l0.032-0.028L18.63,48.73L18.521,48.683z M18.333,48.015l0.032,0.028l0.109-0.105l0.958,0.957l0.033-0.031l-0.991-0.993L18.333,48.015z M18.079,48.849c-0.191-0.19-0.373-0.209-0.541-0.041l-0.229,0.229l0.034,0.031l0.195-0.194c0.168-0.169,0.35-0.152,0.541,0.04c0.116,0.116,0.166,0.231,0.125,0.37l0.562,0.279l0.043-0.046l-0.605-0.298C18.244,49.077,18.193,48.962,18.079,48.849z M12.993,53.683l-0.031,0.034l0.291,0.29l0.244-0.245l0.101,0.104l0.033-0.033l-0.133-0.135l-0.246,0.245L12.993,53.683z M12.642,53.971l0.033-0.028l-0.135-0.135l-0.469,0.469l0.031,0.031l0.438-0.438L12.642,53.971z M12.51,54.168l0.824,0.825l0.033-0.031l-0.825-0.827L12.51,54.168z M13.675,54.368l-0.258-0.26l-0.031,0.031l0.29,0.293l0.281-0.281l0.109,0.108l0.033-0.031l-0.142-0.142L13.675,54.368z M13.108,53.303l0.102,0.102l0.031-0.034l-0.133-0.13l-0.422,0.421l0.032,0.031L13.108,53.303z M14.276,52.404l0.823,0.821l0.033-0.033l-0.823-0.822L14.276,52.404z M14.143,53.582l0.19,0.408l0.021-0.02l-0.174-0.372L14.143,53.582z M15.132,52.154l-0.067,0.066l-0.304-0.303l-0.032,0.034l0.336,0.336l0.067-0.069c0.059-0.058,0.07-0.104,0.055-0.149C15.18,52.096,15.164,52.125,15.132,52.154z M13.745,52.601l-0.15,0.149l0.021,0.048l0.13-0.13l0.283,0.659l0.678,0.293l0.045-0.043l-0.723-0.315L13.745,52.601z M15.198,52.421l0.354,0.354l0.033-0.031l-0.354-0.356L15.198,52.421z M55.74,63.567C55.651,63.48,55.688,63.517,55.74,63.567L55.74,63.567z M44.511,40.899c0,0,1.21,1.377,1.856,2.021c0.647,0.646,2.056,1.987,2.056,1.987s-0.83-1-1.823-1.995C45.604,41.923,44.511,40.899,44.511,40.899z M50.474,43.26c-3.419-3.418-6.854-7.159-9.985-10.558l8.906-8.906c2.264-2.263,7.25-4.633,7.25-4.633l6.251-6.25L64,11.283l-8.086-8.086l-1.627,1.101l-6.255,6.258c0,0-2.366,4.985-4.63,7.25l-8.726,8.724c-0.194-0.202-0.392-0.404-0.583-0.592c-3.275-3.276-8.709-8.202-11.143-10.39l5.849-5.849V8.207c0,0-1.189-1.674-3.862-4.347C22.266,1.188,20.588,0,20.588,0h-1.491L0,19.096v1.491c0,0,1.187,1.678,3.86,4.351c2.119,2.118,4.35,3.86,4.35,3.86h1.49l5.839-5.841c2.19,2.438,7.113,7.87,10.391,11.146c0.19,0.188,0.392,0.385,0.593,0.584L7.833,53.375c-1.096,1.096-2.903,1.592-2.903,1.592l-1.721,1.721c0,0,1.384,2.197,3.151,3.967l0,0C8.126,62.423,10.501,64,10.501,64l1.731-1.733c0,0,0.495-1.805,1.591-2.901l18.874-18.872c3.396,3.132,7.139,6.564,10.558,9.987c6.608,6.606,12.419,13.021,12.583,13.183c0.911,0.914,3.229-0.137,5.457-2.365c2.346-2.346,3.193-4.625,2.416-5.403C63.421,55.605,57.078,49.87,50.474,43.26z M23.983,17.558c2.743,2.48,6.877,6.276,9.547,8.947c0.187,0.188,0.384,0.39,0.581,0.591l-1.448,1.447c-0.867-0.865-1.817-1.812-1.817-1.812s0.857,1.092,1.644,1.986l-1.021,1.021c-1.155-1.171-2.136-2.161-2.531-2.558c-1.177-1.176-2.418-2.385-2.916-2.883c-0.496-0.495-1.358-1.523-1.889-2.055c-0.53-0.529-1.424-1.325-2.054-1.955c-0.184-0.185-0.475-0.469-0.807-0.793c0.308-0.346,0.663-0.676,1.026-0.966c0.863,0.93,1.85,1.976,2.796,2.918c2.437,2.438,5.153,4.788,5.153,4.788s-1.987-1.987-4.987-4.985c-0.991-0.99-1.971-1.971-2.827-2.827C22.988,18,23.548,17.676,23.983,17.558C23.984,17.558,23.984,17.558,23.983,17.558z M30.576,30.63l-0.458,0.457c-0.371-0.361-0.726-0.71-1.023-1.005c-1.758-1.76-3.919-4.015-6.022-6.118c-0.799-0.801-1.826-1.834-2.792-2.81c0.074-0.217,0.166-0.438,0.281-0.654c1.071,1.026,2.236,2.154,3.141,3.056c1.189,1.189,3.049,2.75,3.049,2.75c-1.374-1.409-3.037-3.258-3.627-3.849c-0.618-0.62-1.512-1.438-2.391-2.236c0.102-0.165,0.219-0.326,0.35-0.49c0.346,0.286,0.632,0.526,0.863,0.758c0.68,0.68,1.798,1.757,2.196,2.153c0.397,0.396,1.483,1.459,2.279,2.253c0.794,0.795,2.46,2.605,2.874,3.019c0.738,0.736,1.374,1.352,2.024,1.977l-0.566,0.564c-2.307-2.137-5.119-4.689-5.119-4.689C26.214,26.346,28.242,28.339,30.576,30.63z M14.515,16.202l-1.127-1.125l-0.218,0.214l-0.175-0.176l0.04-0.038l0.136,0.135l0.218-0.217l1.127,1.128l0.147-0.147l0.04,0.041L14.515,16.202z M13.573,14.808l0.178-0.178l0.04,0.043l-0.177,0.178L13.573,14.808z M14.945,15.774l-0.418-0.947l-0.865-0.38l0.057-0.056l0.809,0.354l0.418,0.947l0.173-0.173l0.025,0.055L14.945,15.774z M14.142,13.967l0.025-0.024l0.219,0.476l-0.047-0.023L14.142,13.967z M15.468,15.25l-0.557-0.255l-0.046-0.101l0.603,0.273l0.142-0.139l0.057,0.023L15.468,15.25z M15.749,14.969l-1.304-1.306l0.041-0.038l1.265,1.265l0.148-0.149l0.04,0.043L15.749,14.969z M14.808,13.572l0.098-0.097c0.147-0.144,0.248-0.043,0.37,0.077c0.094,0.097,0.161,0.168,0.138,0.26c-0.02-0.058-0.073-0.115-0.138-0.178c-0.123-0.125-0.223-0.224-0.37-0.079l-0.058,0.06L14.808,13.572z M15.427,14.192l0.096-0.097c0.11-0.11,0.139-0.219,0.133-0.326c0,0,0,0,0,0.002c0.034,0.135,0.002,0.27-0.135,0.406l-0.055,0.056L15.427,14.192z M10.409,10.408c-3.691,3.692-8.924,9.265-8.924,9.265s1.067,2.041,3.334,4.308c2.267,2.27,4.308,3.332,4.308,3.332l0.243,0.686H8.464c0,0-1.394-0.983-4.039-3.628c-2.644-2.642-3.627-4.036-3.627-4.036v-0.906L19.43,0.801h0.904c0,0,1.396,0.982,4.039,3.627C27.017,7.069,28,8.464,28,8.464V9.37l-0.687-0.245c0,0-1.143-1.962-3.408-4.23c-2.267-2.265-4.232-3.409-4.232-3.409S14.101,6.717,10.409,10.408z M20.193,21.449c1.333,1.271,2.703,2.589,3.299,3.186c1.338,1.336,3.321,3.5,4.538,4.716c0.375,0.375,1.123,1.077,1.969,1.856l-0.284,0.283c-1.507-1.469-3.578-3.471-6.462-6.355c-1.152-1.151-2.217-2.195-3.141-3.084C20.117,21.851,20.143,21.649,20.193,21.449z M20.907,23.855c-0.442-0.442-0.672-0.898-0.757-1.357c1.634,1.579,3.485,3.382,4.786,4.68c1.304,1.308,3.02,2.957,4.626,4.467l-0.429,0.428C26.409,29.351,22.738,25.683,20.907,23.855z M12.165,57.709c-1.31,1.311-1.966,2.839-1.966,2.839l0,0L9.106,61.64l1.312,1.312c0,0-2.284-1.654-3.493-2.863c-1.208-1.209-2.678-3.308-2.678-3.308l1.093-1.094c0,0,1.748-0.436,3.058-1.745l34.363-34.365L42.84,19.5l1.129-1.13c2.292-2.291,4.805-7.423,4.805-7.423l6.028-6.029l1.017-0.688l7.15,7.154l-0.688,1.015l0,0l0,0l-6.027,6.028c0,0-6.225,1.418-8.518,3.712l-1.207,1.206h-0.002L12.165,57.709z M62.636,58.392c-0.851-0.74-3.838-3.339-4.503-4.005c-0.779-0.776-2.984-2.987-3.446-3.454c-0.464-0.462-2.13-1.765-2.13-1.765s1.15,1.26,1.467,1.572c0.314,0.317,2.07,1.774,3.379,3.084c1.125,1.125,4.127,4.176,4.952,5.015c-0.267,0.387-0.616,0.824-1.068,1.317c-0.718-0.627-2.983-2.613-3.981-3.613c-1.194-1.192-2.256-2.153-3.516-3.413c-1.257-1.26-2.5-2.363-3.611-3.474c-1.11-1.113-4.308-4.449-4.308-4.449s3.265,3.73,4.474,4.939c1.211,1.209,2.07,1.806,3.514,3.248c1.441,1.442,3.619,3.711,4.48,4.572c0.695,0.696,2.229,1.91,2.793,2.351c-0.129,0.137-0.258,0.274-0.402,0.418c-0.218,0.217-0.422,0.409-0.62,0.592c0.001,0,0.001-0.003,0.003-0.005c-0.203-0.024-0.423-0.192-0.693-0.464c-0.303-0.303-6.449-6.551-13.059-13.159c-2.454-2.456-7.308-6.933-7.988-7.528c-0.547-0.481-0.809-0.964-0.881-1.45c0.724,0.664,1.449,1.352,2.107,2.005c1.892,1.895,3.883,3.649,3.883,3.649s-3.238-3.334-4.666-4.76c-0.316-0.317-0.789-0.742-1.344-1.221c0.009-0.274,0.071-0.546,0.182-0.817c0.902,0.887,1.574,1.548,1.855,1.831c1.409,1.409,3.018,3.149,3.846,3.977c0.826,0.832,3.114,3.183,3.114,3.183s-3.082-3.48-4.87-5.27c-0.865-0.865-2.34-2.375-3.857-3.928c0.056-0.11,0.114-0.221,0.183-0.337c0.06-0.096,0.135-0.199,0.21-0.3c1.619,1.671,3.135,3.235,3.631,3.73c1.626,1.625,3.86,3.967,5.003,5.108c1.144,1.145,3.728,3.622,5.038,4.93c1.309,1.311,3.049,2.988,4.207,4.152c1.161,1.158,4.302,3.821,4.302,3.821s-4.996-4.923-6.786-6.714c-1.788-1.788-4.059-3.8-5.169-4.911c-1.548-1.548-4.093-4.276-5.401-5.586c-1.309-1.308-1.708-1.541-1.988-1.822c-0.202-0.202-1.657-1.726-2.736-2.842c0.742-0.939,2.022-1.913,2.926-1.99c2.783,3.017,5.775,6.24,8.75,9.217c6.609,6.61,13.145,12.541,13.213,12.61C63.168,56.485,63.414,57.082,62.636,58.392z"/>
</svg>
