<?xml version="1.0" encoding="utf-8"?>
<!DOCTYPE svg>
<svg version="1.1" baseProfile="full" xmlns="http://www.w3.org/2000/svg" xmlns:xlink="http://www.w3.org/1999/xlink" x="0px" y="0px" width="128px" height="128px" viewBox="0 0 128 128" enable-background="new 0 0 128 128" xml:space="preserve">
<path d="M29.332,103.49c0.153-0.154,0.305-0.23,0.505-0.227c0.201,0.006,0.357,0.102,0.591,0.338c0.173,0.168,0.274,0.297,0.315,0.471c0-0.043,0.014-0.082,0.002-0.121c-0.041-0.178-0.145-0.307-0.317-0.48c-0.233-0.23-0.39-0.332-0.589-0.336c-0.199,0-0.354,0.076-0.507,0.23l-0.426,0.428l0.064,0.062L29.332,103.49z M33.135,99.691l0.202,0.197l0.064-0.062l-0.267-0.268l-0.94,0.941l0.065,0.062L33.135,99.691z M32.048,100.779l0.2,0.201l0.064-0.066l-0.267-0.266l-0.94,0.943l0.065,0.062L32.048,100.779z M28.613,104.211l0.204,0.197l0.064-0.062l-0.269-0.264l-0.938,0.938l0.062,0.066L28.613,104.211z M34.271,98.553l0.204,0.197l0.062-0.059l-0.267-0.268l-0.846,0.846l0.064,0.062L34.271,98.553z M26.76,106.062l0.801,0.375l-0.077-0.168l-0.724-0.336l-0.301,0.303l0.089,0.033L26.76,106.062z M35.949,98.645c0.106-0.105,0.128-0.197,0.102-0.289c-0.015,0.049-0.044,0.096-0.102,0.154l-0.161,0.164l-0.55-0.549l-0.065,0.062l0.615,0.615L35.949,98.645z M36.233,96.586l1.622,0.77l0.005-0.01l-0.233-0.23l-1.394-0.654l-0.274,0.275l0.065,0.062L36.233,96.586z M34.558,99.836l-0.517-0.52l-0.062,0.068l0.579,0.576l0.49-0.49l0.202,0.203l0.064-0.062l-0.267-0.266L34.558,99.836z M31.885,103.385l-0.207,0.201l-0.428-0.635l-0.145-0.09l-0.005,0.004l0.577,0.855l0.284-0.283L31.885,103.385z M33.074,100.283l1.646,1.65l0.065-0.068l-1.649-1.645L33.074,100.283z M35.406,100.684l-0.517-0.52l-0.062,0.066l0.579,0.578l0.562-0.559l0.219,0.217l0.064-0.062l-0.283-0.283L35.406,100.684z M30.416,102.279l0.051,0.076l0.188-0.182l2.341,1.49l0.079-0.082l-2.423-1.539L30.416,102.279z M31.895,104.039l0.293,0.432l0.051-0.053l-0.291-0.432L31.895,104.039z M31.983,101.375l1.648,1.645l0.065-0.062l-1.649-1.648L31.983,101.375z M36.041,99.053l0.778,0.783l0.065-0.066l-0.779-0.783L36.041,99.053z M37.043,97.365h-0.007l1.125,1.125l0.064-0.057l-0.966-0.973L37.043,97.365z M36.666,96.029l0.064,0.057l0.219-0.211l1.916,1.914l0.065-0.062l-1.981-1.986L36.666,96.029z M36.158,97.697c-0.382-0.381-0.745-0.418-1.081-0.082l-0.457,0.457l0.067,0.062l0.39-0.389c0.336-0.338,0.699-0.305,1.081,0.08c0.231,0.232,0.332,0.463,0.25,0.74l1.123,0.559l0.087-0.092l-1.21-0.596C36.488,98.154,36.387,97.924,36.158,97.697z M25.985,107.365l-0.062,0.068l0.582,0.58l0.488-0.49l0.201,0.207l0.065-0.066l-0.267-0.27l-0.491,0.49L25.985,107.365z M25.283,107.941l0.065-0.057l-0.27-0.27l-0.938,0.938l0.062,0.062l0.875-0.875L25.283,107.941z M25.02,108.336l1.648,1.65l0.065-0.062l-1.649-1.654L25.02,108.336z M27.351,108.736l-0.517-0.52l-0.062,0.062l0.579,0.586l0.562-0.562l0.219,0.217l0.065-0.062l-0.284-0.283L27.351,108.736z M26.217,106.605l0.204,0.203l0.062-0.068l-0.267-0.26l-0.844,0.842l0.064,0.062L26.217,106.605z M28.553,104.809l1.646,1.643l0.065-0.066l-1.646-1.645L28.553,104.809z M28.286,107.164l0.38,0.816l0.043-0.039l-0.349-0.744L28.286,107.164z M30.265,104.309l-0.135,0.133l-0.608-0.605l-0.064,0.068l0.673,0.672l0.135-0.139c0.117-0.115,0.14-0.207,0.11-0.299C30.36,104.191,30.327,104.25,30.265,104.309z M27.49,105.201l-0.301,0.299l0.041,0.096l0.26-0.26l0.565,1.318l1.355,0.586l0.091-0.086l-1.446-0.631L27.49,105.201z M30.396,104.842l0.709,0.707l0.065-0.062l-0.709-0.713L30.396,104.842z M111.48,127.135C111.303,126.961,111.377,127.033,111.48,127.135L111.48,127.135z M89.021,81.799c0,0,2.421,2.754,3.714,4.043c1.294,1.293,4.11,3.975,4.11,3.975s-1.66-2-3.646-3.99C91.209,83.846,89.021,81.799,89.021,81.799z M100.947,86.52c-6.839-6.836-13.707-14.318-19.972-21.115l17.812-17.812c4.529-4.525,14.5-9.266,14.5-9.266l12.503-12.5l2.209-3.26L111.827,6.395l-3.253,2.201l-12.51,12.516c0,0-4.732,9.971-9.259,14.5L69.354,53.059c-0.39-0.404-0.784-0.809-1.166-1.184c-6.551-6.553-17.418-16.404-22.286-20.779l11.697-11.697v-2.984c0,0-2.378-3.348-7.724-8.693C44.531,2.375,41.176,0,41.176,0h-2.981L0,38.191v2.982c0,0,2.373,3.355,7.721,8.701c4.238,4.236,8.7,7.721,8.7,7.721h2.98l11.678-11.682c4.38,4.875,14.227,15.74,20.781,22.293c0.38,0.375,0.784,0.77,1.186,1.168l-37.38,37.375c-2.192,2.191-5.806,3.184-5.806,3.184l-3.442,3.441c0,0,2.768,4.395,6.303,7.934l0,0c3.531,3.537,8.281,6.691,8.281,6.691l3.462-3.467c0,0,0.99-3.609,3.183-5.803l37.748-37.744c6.793,6.264,14.278,13.129,21.115,19.975c13.216,13.213,24.839,26.043,25.166,26.365c1.822,1.828,6.459-0.273,10.913-4.73c4.692-4.691,6.387-9.25,4.832-10.807C126.842,111.211,114.156,99.74,100.947,86.52z M47.967,35.115c5.485,4.961,13.754,12.553,19.094,17.895c0.372,0.375,0.769,0.779,1.163,1.182l-2.896,2.895c-1.733-1.73-3.635-3.625-3.635-3.625s1.714,2.184,3.288,3.973l-2.043,2.043c-2.311-2.342-4.271-4.322-5.062-5.115c-2.354-2.352-4.837-4.77-5.832-5.766c-0.992-0.99-2.716-3.047-3.778-4.109c-1.061-1.059-2.849-2.65-4.108-3.91c-0.368-0.369-0.949-0.938-1.613-1.586c0.615-0.691,1.325-1.352,2.053-1.932c1.727,1.859,3.7,3.951,5.592,5.836c4.873,4.875,10.306,9.576,10.306,9.576S56.52,48.496,50.52,42.5c-1.981-1.98-3.942-3.941-5.654-5.654C45.976,36,47.096,35.352,47.967,35.115C47.969,35.115,47.969,35.115,47.967,35.115z M61.151,61.26l-0.916,0.914c-0.742-0.723-1.452-1.42-2.046-2.01c-3.517-3.52-7.839-8.029-12.045-12.236c-1.599-1.602-3.651-3.668-5.584-5.619c0.148-0.434,0.331-0.875,0.562-1.309c2.142,2.053,4.473,4.309,6.281,6.111c2.379,2.379,6.098,5.5,6.098,5.5c-2.747-2.818-6.074-6.516-7.254-7.697c-1.236-1.24-3.024-2.875-4.781-4.473c0.204-0.33,0.438-0.652,0.699-0.98c0.692,0.572,1.265,1.053,1.726,1.516c1.36,1.359,3.597,3.514,4.392,4.307c0.794,0.793,2.967,2.918,4.559,4.506c1.589,1.59,4.92,5.211,5.747,6.037c1.476,1.473,2.748,2.703,4.048,3.953l-1.132,1.129c-4.613-4.273-10.238-9.379-10.238-9.379C52.428,52.691,56.483,56.678,61.151,61.26z M29.029,32.404l-2.255-2.25l-0.436,0.428l-0.351-0.352l0.079-0.076l0.271,0.27l0.436-0.434l2.255,2.256l0.295-0.295l0.08,0.082L29.029,32.404z M27.146,29.615l0.355-0.355l0.08,0.086l-0.354,0.355L27.146,29.615z M29.89,31.549l-0.837-1.895l-1.73-0.76l0.113-0.111l1.617,0.707l0.837,1.895l0.346-0.346l0.051,0.109L29.89,31.549z M28.283,27.934l0.051-0.049l0.438,0.951l-0.094-0.047L28.283,27.934z M30.936,30.5l-1.113-0.51l-0.092-0.201l1.205,0.547l0.283-0.277l0.113,0.047L30.936,30.5z M31.498,29.938l-2.608-2.611l0.081-0.076l2.529,2.529l0.296-0.299l0.079,0.086L31.498,29.938z M29.615,27.145l0.195-0.193c0.295-0.287,0.495-0.086,0.74,0.154c0.188,0.193,0.322,0.336,0.276,0.52c-0.039-0.115-0.146-0.23-0.276-0.355c-0.245-0.25-0.445-0.447-0.74-0.158l-0.116,0.119L29.615,27.145z M30.854,28.385l0.192-0.193c0.221-0.221,0.278-0.438,0.267-0.652c0,0,0,0,0,0.004c0.067,0.27,0.005,0.539-0.27,0.812l-0.11,0.111L30.854,28.385z M20.817,20.816C13.436,28.201,2.969,39.346,2.969,39.346s2.135,4.082,6.668,8.615c4.534,4.539,8.615,6.664,8.615,6.664l0.486,1.371h-1.811c0,0-2.788-1.967-8.077-7.256c-5.288-5.283-7.255-8.072-7.255-8.072v-1.812L38.86,1.602h1.808c0,0,2.791,1.965,8.077,7.254C54.033,14.139,56,16.928,56,16.928v1.812l-1.373-0.49c0,0-2.285-3.924-6.816-8.461c-4.534-4.529-8.465-6.818-8.465-6.818S28.202,13.434,20.817,20.816z M40.387,42.898c2.666,2.543,5.406,5.178,6.599,6.371c2.676,2.672,6.642,7,9.075,9.432c0.75,0.75,2.245,2.154,3.938,3.713l-0.567,0.566c-3.015-2.938-7.156-6.941-12.924-12.711c-2.305-2.303-4.435-4.391-6.281-6.168C40.233,43.701,40.286,43.299,40.387,42.898z M41.814,47.711c-0.884-0.885-1.344-1.797-1.514-2.715c3.269,3.158,6.971,6.764,9.572,9.359c2.607,2.615,6.04,5.914,9.252,8.934l-0.858,0.855C52.817,58.701,45.476,51.365,41.814,47.711z M24.329,115.418c-2.62,2.621-3.933,5.678-3.933,5.678l0,0l-2.185,2.184l2.625,2.625c0,0-4.567-3.309-6.986-5.727c-2.415-2.418-5.355-6.615-5.355-6.615l2.186-2.188c0,0,3.495-0.871,6.115-3.49l68.726-68.73L85.681,39l2.257-2.26c4.584-4.582,9.61-14.846,9.61-14.846l12.056-12.059l2.033-1.375l14.301,14.309l-1.375,2.029l0,0l0,0l-12.056,12.057c0,0-12.449,2.836-17.033,7.424l-2.416,2.412h-0.002L24.329,115.418z M125.271,116.783c-1.702-1.48-7.676-6.678-9.007-8.01c-1.558-1.553-5.967-5.975-6.892-6.908c-0.929-0.924-4.26-3.529-4.26-3.529s2.3,2.52,2.935,3.145c0.628,0.635,4.14,3.549,6.758,6.168c2.25,2.25,8.252,8.352,9.903,10.029c-0.533,0.773-1.233,1.648-2.137,2.635c-1.436-1.254-5.967-5.227-7.964-7.227c-2.388-2.385-4.51-4.307-7.029-6.826c-2.515-2.52-5.002-4.727-7.224-6.947c-2.221-2.227-8.615-8.898-8.615-8.898s6.529,7.461,8.947,9.879c2.421,2.418,4.142,3.611,7.026,6.496s7.238,7.422,8.962,9.145c1.392,1.393,4.456,3.82,5.586,4.701c-0.257,0.273-0.517,0.549-0.805,0.836c-0.436,0.434-0.844,0.818-1.24,1.184c0.002,0,0.002-0.006,0.007-0.01c-0.406-0.049-0.847-0.385-1.387-0.928c-0.606-0.605-12.899-13.102-26.118-26.318c-4.908-4.912-14.615-13.865-15.976-15.057c-1.094-0.963-1.618-1.928-1.763-2.9c1.447,1.328,2.899,2.703,4.214,4.01c3.784,3.789,7.768,7.299,7.768,7.299s-6.479-6.668-9.332-9.52c-0.635-0.635-1.579-1.484-2.688-2.441c0.017-0.549,0.142-1.092,0.363-1.635c1.803,1.773,3.148,3.096,3.711,3.662c2.817,2.818,6.034,6.299,7.69,7.953c1.653,1.664,6.229,6.365,6.229,6.365s-6.164-6.961-9.741-10.539c-1.73-1.73-4.68-4.75-7.714-7.855c0.111-0.221,0.229-0.441,0.365-0.674c0.118-0.191,0.27-0.398,0.419-0.6c3.24,3.342,6.271,6.471,7.262,7.461c3.253,3.25,7.722,7.934,10.007,10.217c2.286,2.289,7.455,7.244,10.075,9.859c2.617,2.621,6.099,5.977,8.416,8.305c2.321,2.316,8.603,7.643,8.603,7.643s-9.992-9.846-13.571-13.428c-3.577-3.576-8.118-7.6-10.339-9.822c-3.097-3.096-8.186-8.553-10.804-11.172c-2.617-2.615-3.415-3.082-3.976-3.645c-0.404-0.404-3.314-3.451-5.474-5.684c1.485-1.879,4.046-3.826,5.854-3.98c5.564,6.033,11.551,12.48,17.5,18.434c13.219,13.221,26.288,25.082,26.426,25.221C126.337,112.971,126.827,114.164,125.271,116.783z"/>
</svg>
