<?xml version="1.0" encoding="utf-8"?>
<!DOCTYPE svg>
<svg version="1.1" baseProfile="full" xmlns="http://www.w3.org/2000/svg" xmlns:xlink="http://www.w3.org/1999/xlink" x="0px" y="0px" width="32px" height="32px" viewBox="0 0 32 32" enable-background="new 0 0 32 32" xml:space="preserve">
<path d="M30.651,30.651c-1.118,1.11-2.28,1.635-2.73,1.178c-0.17-0.166,0,0,0,0c-0.083-0.077-2.99-3.281-6.292-6.589l0,0c-2.992-2.989-6.499-6.023-8.663-8.173c-2.162-2.173-5.753-6.208-5.756-6.212l0,0l-0.24-0.27l1.742-1.893l1.871-1.718l0.269,0.238c0.002,0.002,4.04,3.598,6.211,5.757c2.154,2.161,5.183,5.673,8.173,8.665l0,0c3.308,3.299,6.477,6.169,6.615,6.318C32.243,28.337,31.814,29.482,30.651,30.651z"/>
<linearGradient id="SVGID_1_" gradientUnits="userSpaceOnUse" x1="251.4199" y1="-351.4312" x2="254.9278" y2="-347.9232" gradientTransform="matrix(1 0 0 -1 -233.5 -330)">
<stop offset="0.1484" style="stop-color:#7b6c35"/>
<stop offset="0.8352" style="stop-color:#b9aa69"/>
</linearGradient>
<path fill="url(#SVGID_1_)" d="M16.757,13.253c-2.136-2.144-6.171-5.74-6.171-5.74L8.983,8.985l-1.472,1.604c0,0,3.594,4.037,5.739,6.174c2.142,2.147,5.654,5.189,8.663,8.195c3.304,3.302,6.238,6.539,6.288,6.589c0.051,0.052,0.669,0.311,2.164-1.18c1.493-1.487,1.229-2.112,1.197-2.15c-0.035-0.03-3.302-2.993-6.605-6.302C21.946,18.904,18.906,15.397,16.757,13.253z"/>
<linearGradient id="SVGID_2_" gradientUnits="userSpaceOnUse" x1="251.416" y1="-351.4292" x2="254.8721" y2="-347.9731" gradientTransform="matrix(1 0 0 -1 -233.5 -330)">
<stop offset="0.0934" style="stop-color:#2b2414"/>
<stop offset="0.7363" style="stop-color:#624e22"/>
</linearGradient>
<path fill="url(#SVGID_2_)" d="M30.059,30.663c-0.106-0.012-0.213-0.099-0.352-0.23c-0.149-0.156-3.224-3.276-6.528-6.583c-1.229-1.229-3.654-3.465-3.987-3.761c-0.598-0.521-0.545-1.052-0.234-1.567c0.323-0.523,1.1-1.178,1.62-1.227c-0.505-0.545-0.994-1.073-1.467-1.583c-1.442,0.815-3.109,1.772-3.348,1.516c-1.152-1.129-4.073-4.068-5.31-5.301c-0.542-0.542-0.469-1.123-0.163-1.697c0.336-0.628,1.194-1.313,1.703-1.453l0,0c-0.832-0.75-1.407-1.264-1.407-1.264L8.983,8.985l-1.472,1.604c0,0,3.594,4.037,5.739,6.174c2.142,2.147,5.654,5.189,8.663,8.195c3.304,3.302,6.238,6.539,6.288,6.589C28.246,31.596,28.788,31.822,30.059,30.663z"/>
<path fill="#6b5600" d="M24.209,22.452c0,0-0.411-0.498-0.908-0.99c-0.498-0.503-1.042-1.013-1.042-1.013s0.606,0.691,0.924,1.015C23.505,21.788,24.209,22.452,24.209,22.452z M16.686,14.608c-0.454-0.474-1.262-1.244-1.262-1.244s0.734,0.913,1.16,1.342C17.005,15.141,17.156,15.079,16.686,14.608z M15.601,16.475c-0.763-0.762-1.99-1.923-3.974-3.906c-1.534-1.534-2.762-2.681-3.146-3.037L8.393,9.627c0.53,0.514,2.819,2.707,4.076,3.963c1.428,1.427,3.854,3.688,4.495,4.223c0.654,0.529,1.887,1.604,2.833,2.548c0.948,0.95,1.943,1.834,1.943,1.834s-1.615-1.672-2.334-2.384C18.699,19.101,16.468,17.349,15.601,16.475z M15.125,13.118c0,0-0.993-0.992-2.493-2.492c-1.148-1.149-2.296-2.292-2.603-2.602l-0.005,0.004c0.306,0.341,1.475,1.646,2.523,2.695C13.767,11.943,15.125,13.118,15.125,13.118z M12.073,11.322c0.2,0.196,0.74,0.728,1.138,1.127c0.397,0.395,1.23,1.3,1.437,1.507c0.825,0.827,1.397,1.343,2.386,2.321c0.967,0.966,3.368,3.473,3.851,3.957c0.814,0.811,1.928,1.982,2.5,2.553c0.567,0.57,1.861,1.808,2.519,2.462c0.654,0.658,1.524,1.502,2.103,2.078c0.587,0.58,2.151,1.908,2.151,1.908s-2.5-2.459-3.393-3.354c-0.894-0.897-2.033-1.903-2.588-2.453c-0.77-0.777-2.041-2.138-2.695-2.794c-0.656-0.656-0.854-0.775-0.995-0.911c-0.144-0.136-1.513-1.573-1.872-1.944c-0.362-0.354-3.557-3.602-4.144-4.188c-0.588-0.589-1.208-1.193-1.457-1.441c-0.251-0.25-0.678-0.761-0.945-1.028c-0.268-0.265-0.714-0.664-1.028-0.979c-0.298-0.298-1.107-1.076-1.605-1.573L9.26,8.729c0.853,0.837,1.386,1.188,1.713,1.515C11.314,10.585,11.872,11.123,12.073,11.322z M14.017,14.678c0.607,0.609,3.16,2.907,3.16,2.907s-1.749-1.657-2.628-2.541c-0.879-0.882-1.96-2.009-3.013-3.06c-0.875-0.88-2.304-2.323-2.755-2.778L8.649,9.348c0.592,0.559,2.535,2.404,3.098,2.973C12.417,12.987,13.407,14.068,14.017,14.678zM26.896,26.564c-0.63-0.627-1.252-1.18-1.808-1.734c-0.558-0.554-2.153-2.222-2.153-2.222s1.633,1.862,2.24,2.464c0.601,0.606,1.036,0.903,1.752,1.625c0.719,0.724,1.812,1.859,2.243,2.286c0.349,0.346,1.115,0.955,1.396,1.174c0.021-0.027,0.052-0.054,0.078-0.08c-0.361-0.317-1.493-1.31-1.99-1.808C28.062,27.671,27.527,27.197,26.896,26.564zM29.064,27.197c-0.386-0.39-1.486-1.5-1.719-1.727c-0.229-0.232-1.066-0.884-1.066-0.884s0.576,0.63,0.736,0.786c0.156,0.156,1.036,0.888,1.688,1.544c0.562,0.561,2.061,2.083,2.472,2.504c0.057-0.077,0.102-0.151,0.146-0.224C30.892,28.828,29.399,27.531,29.064,27.197z M13.378,13.154c-0.689-0.702-1.52-1.631-1.815-1.923c-0.68-0.684-2.021-1.845-2.5-2.319l-0.08,0.073L8.97,8.998c0.491,0.474,1.959,1.859,2.882,2.778C12.448,12.375,13.378,13.154,13.378,13.154z M12.818,12.883c0.745,0.746,6.234,6.122,6.941,6.829c0.699,0.695,1.507,1.57,1.922,1.985c0.408,0.411,1.552,1.589,1.552,1.589s-1.537-1.743-2.433-2.637c-0.896-0.896-3.084-3.149-4.084-4.164C15.971,15.73,12.818,12.883,12.818,12.883z"/>
<linearGradient id="SVGID_3_" gradientUnits="userSpaceOnUse" x1="254.1709" y1="-348.6626" x2="251.752" y2="-351.0816" gradientTransform="matrix(1 0 0 -1 -233.5 -330)">
<stop offset="0.5165" style="stop-color:#2d2400"/>
<stop offset="0.8626" style="stop-color:#211700"/>
</linearGradient>
<path fill="url(#SVGID_3_)" d="M21.729,23.999c-1.021-1.016-2.988-2.873-3.844-3.723c-0.146-0.145-1.88-1.839-2.238-2.202c-0.361-0.367-3.549-3.257-4.138-3.843c-0.587-0.591-1.249-1.391-1.499-1.638c-0.25-0.25-0.72-0.802-0.984-1.07c-0.266-0.265-0.672-0.701-0.987-1.015c-0.108-0.109-0.189-0.17-0.233-0.19l-0.038,0.033c0.021,0.048,0.083,0.135,0.206,0.253c0.34,0.338,0.776,0.881,0.978,1.078c0.198,0.198,0.861,0.849,1.259,1.245c0.396,0.399,1.149,1.263,1.357,1.472c0.826,0.824,1.476,1.26,2.454,2.256c0.978,0.963,3.296,3.289,3.78,3.771c0.821,0.817,2.011,1.833,2.58,2.403c0.575,0.572,1.867,1.932,2.52,2.584c0.654,0.659,1.519,1.556,2.104,2.135c0.578,0.579,2.153,2.05,2.153,2.05c-2.408-2.443-2.329-2.519-3.17-3.354C23.099,25.349,22.279,24.559,21.729,23.999z M27.051,28.281c-0.822-0.814-1.436-1.471-2.303-2.335c-0.866-0.859-1.836-1.775-2.597-2.535c-0.766-0.757-2.959-2.873-2.959-2.873s2.163,2.278,2.995,3.096c0.832,0.833,1.496,1.505,2.49,2.493c0.995,0.986,2.493,2.543,3.087,3.125c0.495,0.498,1.892,1.75,1.892,1.75l0.217-0.176C29.873,30.826,28.279,29.502,27.051,28.281z M10.565,12.747c0.713,0.761,5.208,4.911,5.839,5.606c0.685,0.697,3.571,3.401,3.571,3.401s-1.956-1.957-2.882-2.959c-0.925-0.999-4.514-4.118-5.632-5.314c-1.121-1.199-3.089-3.152-3.089-3.152l-0.172,0.138C8.201,10.468,9.854,11.984,10.565,12.747z M28.468,30.859c-0.547-0.573-1.092-1.024-1.092-1.024s0.639,0.839,0.94,1.104c0.208,0.185,0.427,0.409,0.56,0.544c0.058-0.026,0.117-0.05,0.177-0.079C28.934,31.314,28.743,31.156,28.468,30.859z M16.697,17.129c-0.005,0.002-0.01,0.006-0.017,0.006c0.276,0.26,0.495,0.45,0.495,0.45S16.971,17.392,16.697,17.129z M18.75,19.355c-0.01-0.05-0.01-0.101-0.01-0.153c-0.676-0.583-1.586-1.349-2.359-1.988c-0.023,0.005-0.043,0.012-0.062,0.021c0.297,0.275,0.495,0.464,0.645,0.578C17.38,18.155,18.064,18.738,18.75,19.355z M18.87,18.694c-0.609-0.634-1.231-1.269-1.716-1.776c-0.054,0.029-0.102,0.055-0.159,0.082c0.681,0.658,1.329,1.293,1.831,1.788C18.842,18.762,18.854,18.723,18.87,18.694z M11.217,9.211c-0.561-0.562-1.01-1.01-1.188-1.187l-0.005,0.004c0.166,0.188,0.598,0.669,1.125,1.238C11.174,9.246,11.195,9.231,11.217,9.211z M19.12,18.301c-0.221-0.219-0.401-0.414-0.509-0.521c-0.118-0.108-0.529-0.541-1.042-1.066c-0.023,0.01-0.05,0.021-0.073,0.032c0.451,0.467,1.021,1.052,1.571,1.62C19.085,18.344,19.101,18.322,19.12,18.301z M10.142,10.577c-0.569-0.571-1.093-1.103-1.344-1.355c-0.043,0.052-0.082,0.104-0.122,0.15c0.289,0.274,0.847,0.802,1.422,1.352C10.109,10.677,10.125,10.626,10.142,10.577zM10.638,9.748c-0.37-0.359-0.858-0.833-1.203-1.177l-0.17,0.155L9.26,8.729c0.55,0.538,0.966,0.877,1.28,1.137C10.573,9.825,10.602,9.786,10.638,9.748z M10.058,11.026c-0.73-0.706-1.274-1.213-1.534-1.454C8.493,9.614,8.468,9.649,8.445,9.679c0.286,0.275,0.914,0.876,1.631,1.57C10.062,11.175,10.057,11.103,10.058,11.026z M10.29,10.23c0.022-0.038,0.051-0.081,0.075-0.121c-0.524-0.477-1.042-0.94-1.302-1.197L9.008,8.961C8.996,8.976,8.987,8.987,8.976,9.003c0.25,0.241,0.751,0.716,1.306,1.248C10.284,10.244,10.287,10.237,10.29,10.23z"/>
<path d="M10.296,0c0,0,0.836,0.593,2.174,1.931l0,0c1.337,1.334,1.932,2.175,1.932,2.175v0.747l-9.552,9.547H4.104l0,0c0,0-1.115-0.869-2.176-1.932l0,0C0.592,11.133,0,10.296,0,10.296V9.549L9.548,0H10.296z"/>
<linearGradient id="SVGID_4_" gradientUnits="userSpaceOnUse" x1="238.5576" y1="-335.0566" x2="242.8437" y2="-339.3428" gradientTransform="matrix(1 0 0 -1 -233.5 -330)">
<stop offset="0" style="stop-color:#ffffff"/>
<stop offset="1" style="stop-color:#666666"/>
</linearGradient>
<path fill="url(#SVGID_4_)" d="M10.167,0.399H9.716L0.399,9.716v0.453c0,0,0.492,0.696,1.812,2.018c1.323,1.321,2.02,1.814,2.02,1.814h0.452L14,4.687V4.231c0,0-0.488-0.694-1.813-2.019C10.865,0.894,10.167,0.399,10.167,0.399z"/>
<linearGradient id="SVGID_5_" gradientUnits="userSpaceOnUse" x1="238.5576" y1="-335.0566" x2="242.8437" y2="-339.3428" gradientTransform="matrix(1 0 0 -1 -233.5 -330)">
<stop offset="0" style="stop-color:#ffffff"/>
<stop offset="1" style="stop-color:#666666"/>
</linearGradient>
<path fill="url(#SVGID_5_)" d="M10.167,0.399H9.716L0.399,9.716v0.453c0,0,0.492,0.696,1.812,2.018c1.323,1.321,2.02,1.814,2.02,1.814h0.452L14,4.687V4.231c0,0-0.488-0.694-1.813-2.019C10.865,0.894,10.167,0.399,10.167,0.399z"/>
<linearGradient id="SVGID_6_" gradientUnits="userSpaceOnUse" x1="235.9102" y1="-341.9917" x2="245.4533" y2="-332.4485" gradientTransform="matrix(1 0 0 -1 -233.5 -330)">
<stop offset="0.0769" style="stop-color:#0a0a0a"/>
<stop offset="0.533" style="stop-color:#0f0f0f"/>
<stop offset="0.9121" style="stop-color:#1a1a1a"/>
</linearGradient>
<path fill="url(#SVGID_6_)" d="M13.659,4.565c0,0-2.617,2.786-4.463,4.631c-1.846,1.844-4.634,4.461-4.634,4.461S3.54,13.126,2.409,11.99c-1.133-1.131-1.667-2.151-1.667-2.151s2.615-2.788,4.463-4.635c1.846-1.842,4.631-4.461,4.631-4.461s0.983,0.572,2.117,1.708C13.085,3.581,13.659,4.565,13.659,4.565z"/>
<linearGradient id="SVGID_7_" gradientUnits="userSpaceOnUse" x1="233.7891" y1="-339.8257" x2="238.0738" y2="-344.1105" gradientTransform="matrix(1 0 0 -1 -233.5 -330)">
<stop offset="0" style="stop-color:#999999"/>
<stop offset="1" style="stop-color:#1a1a1a"/>
</linearGradient>
<path fill="url(#SVGID_7_)" d="M4.562,13.657c0,0-1.023-0.531-2.154-1.667c-1.133-1.131-1.667-2.151-1.667-2.151L0.399,9.716v0.453c0,0,0.492,0.696,1.812,2.018c1.323,1.321,2.02,1.814,2.02,1.814h0.452L4.562,13.657z"/>
<linearGradient id="SVGID_8_" gradientUnits="userSpaceOnUse" x1="243.3252" y1="-330.29" x2="247.61" y2="-334.5747" gradientTransform="matrix(1 0 0 -1 -233.5 -330)">
<stop offset="0" style="stop-color:#cccccc"/>
<stop offset="1" style="stop-color:#333333"/>
</linearGradient>
<path fill="url(#SVGID_8_)" d="M14,4.686V4.231c0,0-0.488-0.694-1.813-2.019c-1.322-1.319-2.02-1.814-2.02-1.814H9.716l0.122,0.343c0,0,0.983,0.572,2.116,1.708c1.131,1.131,1.705,2.115,1.705,2.115L14,4.686z"/>
<path fill="#494949" d="M6.694,7.537L6.586,7.646L6.497,7.558L6.806,7.25l0.089,0.086L6.787,7.445L7.352,8.01L7.258,8.102L6.694,7.537z"/>
<path fill="#494949" d="M7.265,7.413L6.829,7.225l0.1-0.1L7.194,7.25L7.072,6.983l0.1-0.097l0.186,0.435l0.475,0.207L7.733,7.625L7.433,7.488l0.139,0.301l-0.1,0.1L7.265,7.413z"/>
<path fill="#494949" d="M7.224,6.835l0.14-0.141C7.415,6.641,7.466,6.617,7.53,6.618c0.066,0,0.116,0.033,0.195,0.112c0.057,0.056,0.09,0.099,0.103,0.157c0.019,0.067,0,0.134-0.065,0.203L7.716,7.137l0.255,0.254L7.875,7.485L7.224,6.835zM7.627,7.047l0.044-0.044C7.747,6.927,7.701,6.88,7.638,6.817C7.575,6.756,7.526,6.707,7.454,6.779l-0.05,0.049L7.627,7.047z"/>
<path fill="#191919" d="M6.694,7.46L6.586,7.565L6.497,7.479l0.309-0.31l0.089,0.087L6.787,7.365l0.565,0.564L7.258,8.022L6.694,7.46z"/>
<path fill="#191919" d="M7.265,7.335l-0.436-0.19l0.1-0.098l0.265,0.122L7.072,6.903l0.1-0.099L7.357,7.24l0.475,0.207L7.733,7.548l-0.301-0.14l0.139,0.299l-0.1,0.099L7.265,7.335z"/>
<path fill="#191919" d="M7.224,6.753l0.14-0.14c0.051-0.05,0.102-0.076,0.167-0.076C7.596,6.539,7.646,6.57,7.726,6.648c0.057,0.058,0.09,0.099,0.103,0.156c0.019,0.068,0,0.136-0.065,0.203L7.716,7.056l0.255,0.255L7.875,7.404L7.224,6.753zM7.627,6.968l0.044-0.046c0.075-0.074,0.029-0.121-0.033-0.183c-0.063-0.062-0.112-0.114-0.185-0.04l-0.05,0.049L7.627,6.968z"/>
<path fill="#2d2d2d" d="M6.694,7.498L6.586,7.605L6.497,7.516l0.309-0.308l0.089,0.088L6.787,7.404l0.565,0.566L7.258,8.06L6.694,7.498z"/>
<path fill="#2d2d2d" d="M7.265,7.374l-0.436-0.19l0.1-0.098L7.194,7.21L7.072,6.944l0.1-0.1L7.357,7.28l0.475,0.208L7.733,7.586L7.433,7.448l0.139,0.299l-0.1,0.1L7.265,7.374z"/>
<path fill="#2d2d2d" d="M7.224,6.792l0.14-0.139c0.051-0.05,0.102-0.077,0.167-0.077c0.066,0.001,0.116,0.035,0.195,0.111c0.055,0.057,0.089,0.101,0.102,0.158c0.019,0.069,0,0.134-0.065,0.203L7.716,7.098l0.255,0.254L7.875,7.445L7.224,6.792zM7.627,7.008l0.044-0.044C7.745,6.89,7.701,6.843,7.638,6.776c-0.063-0.061-0.112-0.11-0.185-0.038l-0.05,0.049L7.627,7.008z"/>
<path d="M3.179,30.329L3.179,30.329c-0.883-0.885-1.577-1.979-1.577-1.979l0.863-0.864c0,0,0.903-0.245,1.449-0.796l0,0L21.703,8.903c1.13-1.133,2.312-3.625,2.312-3.625l3.127-3.128l0.818-0.553L32,5.642l-0.556,0.815l-3.126,3.127c0,0-2.489,1.183-3.624,2.314l0,0L6.912,29.686c-0.548,0.55-0.795,1.446-0.795,1.446L5.25,32C5.25,32,4.062,31.207,3.179,30.329z"/>
<linearGradient id="SVGID_9_" gradientUnits="userSpaceOnUse" x1="255.4277" y1="-337.0669" x2="264.6396" y2="-337.0669" gradientTransform="matrix(1 0 0 -1 -233.5 -330)">
<stop offset="0.125" style="stop-color:#cdcdcb"/>
<stop offset="0.875" style="stop-color:#a09ea1"/>
</linearGradient>
<path fill="url(#SVGID_9_)" d="M27.404,2.461L27.404,2.461l-3.018,3.01c0,0-0.711,3.114-1.857,4.26l-0.602,0.604l1.334,1.336l0.606-0.604c1.142-1.145,4.252-1.857,4.252-1.857l3.02-3.01l0,0L27.404,2.461z"/>
<path fill="#616161" d="M23.265,11.672l0.543,0.547l0.603-0.603c1.147-1.148,3.713-2.405,3.713-2.405s-3.111,0.713-4.255,1.857L23.265,11.672z"/>
<path fill="#ebe9e9" d="M21.381,9.79l0.547,0.546l0.604-0.604c1.145-1.146,1.855-4.26,1.855-4.26S23.13,8.04,21.985,9.188L21.381,9.79z"/>
<path fill="#ffcc33" d="M21.964,10.296L4.743,27.521c-0.655,0.651-1.416,0.985-1.416,0.985l1.772,1.768l0,0c0,0,0.329-0.765,0.982-1.414l17.222-17.227L21.964,10.296z"/>
<path fill="#bfbfbf" d="M2.125,28.39c0,0,0.733,1.052,1.34,1.655c0.604,0.606,1.744,1.431,1.744,1.431L2.125,28.39z"/>
<polygon fill="#ebe9e9" points="31.141,6.201 31.484,5.693 27.91,2.118 27.404,2.461"/>
<path fill="#ba9c0a" d="M6.185,27.127l-0.081,0.077l-0.068-0.06l0.235-0.234l0.066,0.064l-0.082,0.078l0.43,0.433l-0.072,0.067L6.185,27.127z"/>
<path fill="#ba9c0a" d="M6.343,26.833l0.211-0.214l0.067,0.07l-0.139,0.139l0.144,0.146l0.124-0.12l0.066,0.062l-0.122,0.117l0.144,0.152l0.14-0.147l0.071,0.077l-0.211,0.212L6.343,26.833z"/>
<path fill="#ba9c0a" d="M6.943,26.702l-0.329-0.146l0.076-0.071l0.201,0.092L6.796,26.38l0.076-0.078l0.142,0.333l0.361,0.156L7.3,26.868l-0.228-0.107l0.105,0.225l-0.075,0.079L6.943,26.702z"/>
<path fill="#ba9c0a" d="M7.068,26.24l-0.084,0.081l-0.066-0.065l0.235-0.234l0.066,0.062l-0.082,0.084l0.429,0.428l-0.072,0.07L7.068,26.24z"/>
<path fill="#ba9c0a" d="M7.226,25.944l0.109-0.101c0.037-0.04,0.075-0.061,0.125-0.058c0.051,0,0.089,0.026,0.146,0.082c0.045,0.045,0.071,0.076,0.08,0.121c0.012,0.049,0,0.101-0.049,0.153l-0.039,0.033l0.195,0.199l-0.07,0.067L7.226,25.944zM7.532,26.114l0.035-0.035c0.056-0.055,0.026-0.091-0.025-0.141c-0.048-0.047-0.084-0.086-0.14-0.028l-0.037,0.036L7.532,26.114z"/>
<path fill="#ba9c0a" d="M7.602,25.567l0.061-0.061l0.605,0.388l-0.07,0.069L8.07,25.882l-0.097,0.097l0.084,0.125l-0.07,0.072L7.602,25.567z M7.777,25.682H7.774l0.147,0.216l0.07-0.07L7.777,25.682z"/>
<path fill="#ba9c0a" d="M7.927,25.382l-0.081,0.08l-0.069-0.062l0.235-0.241l0.066,0.07l-0.082,0.084l0.428,0.427l-0.07,0.075L7.927,25.382z"/>
<path fill="#ba9c0a" d="M8.2,25.105l-0.083,0.086l-0.065-0.073l0.234-0.227l0.065,0.065l-0.082,0.079l0.43,0.433l-0.071,0.067L8.2,25.105z"/>
<path fill="#ba9c0a" d="M8.357,24.817l0.21-0.212l0.066,0.066l-0.141,0.146l0.146,0.14l0.122-0.123l0.067,0.072l-0.122,0.116l0.145,0.149l0.142-0.145l0.07,0.071l-0.211,0.216L8.357,24.817z"/>
<path fill="#ba9c0a" d="M8.656,24.521l0.114-0.118c0.082-0.083,0.172-0.078,0.27,0.019c0.058,0.06,0.082,0.117,0.062,0.188l0.304,0.151l-0.077,0.077l-0.277-0.149L9.01,24.73l0.211,0.212l-0.07,0.067L8.656,24.521z M8.948,24.666L8.99,24.63c0.046-0.053,0.027-0.087-0.022-0.137c-0.049-0.049-0.084-0.067-0.139-0.015l-0.035,0.033L8.948,24.666z"/>
<path fill="#ba9c0a" d="M8.993,24.183l0.066-0.069l0.405,0.189h0.001l-0.299-0.302l0.071-0.068l0.496,0.495l-0.068,0.067L9.26,24.306l-0.001,0.005l0.298,0.297l-0.072,0.07L8.993,24.183z"/>
<path fill="#ecd74c" d="M6.185,27.189l-0.081,0.081l-0.068-0.071l0.235-0.229l0.066,0.062l-0.082,0.083l0.43,0.428l-0.072,0.072L6.185,27.189z"/>
<path fill="#ecd74c" d="M6.343,26.899l0.211-0.212l0.067,0.067l-0.139,0.137l0.144,0.141l0.124-0.117l0.066,0.062l-0.122,0.123l0.144,0.149l0.14-0.145l0.071,0.076l-0.211,0.209L6.343,26.899z"/>
<path fill="#ecd74c" d="M6.943,26.766l-0.329-0.141l0.076-0.077l0.201,0.094l-0.095-0.199l0.076-0.073l0.142,0.328l0.361,0.158L7.3,26.926l-0.228-0.103l0.105,0.228l-0.076,0.078L6.943,26.766z"/>
<path fill="#ecd74c" d="M7.068,26.307l-0.084,0.08l-0.066-0.065l0.235-0.239L7.22,26.15l-0.082,0.083l0.429,0.425L7.495,26.74L7.068,26.307z"/>
<path fill="#ecd74c" d="M7.226,26.017l0.109-0.108c0.037-0.038,0.075-0.062,0.125-0.06c0.051,0,0.089,0.028,0.146,0.084c0.045,0.043,0.071,0.077,0.08,0.119c0.012,0.052,0,0.101-0.049,0.156l-0.039,0.036l0.195,0.195l-0.07,0.07L7.226,26.017zM7.532,26.176l0.035-0.031c0.056-0.061,0.026-0.097-0.025-0.144c-0.048-0.047-0.084-0.083-0.14-0.025l-0.037,0.035L7.532,26.176z"/>
<path fill="#ecd74c" d="M7.602,25.632l0.061-0.058l0.605,0.385L8.2,26.031l-0.128-0.087l-0.097,0.097l0.085,0.127l-0.071,0.075L7.602,25.632z M7.777,25.746H7.774l0.147,0.218l0.07-0.068L7.777,25.746z"/>
<path fill="#ecd74c" d="M7.927,25.444l-0.081,0.083l-0.069-0.07l0.235-0.231l0.066,0.067l-0.082,0.084l0.428,0.427l-0.07,0.076L7.927,25.444z"/>
<path fill="#ecd74c" d="M8.2,25.174l-0.083,0.081l-0.065-0.065l0.234-0.235l0.065,0.065l-0.082,0.081l0.43,0.432l-0.071,0.068L8.2,25.174z"/>
<path fill="#ecd74c" d="M8.357,24.885l0.21-0.217l0.066,0.072l-0.141,0.14l0.146,0.141l0.122-0.114l0.067,0.059l-0.122,0.12l0.145,0.149l0.142-0.145l0.07,0.071l-0.211,0.218L8.357,24.885z"/>
<path fill="#ecd74c" d="M8.656,24.584l0.114-0.116c0.082-0.083,0.172-0.076,0.27,0.022c0.058,0.056,0.082,0.114,0.062,0.184l0.304,0.15l-0.077,0.077l-0.277-0.146L9.01,24.796l0.211,0.209l-0.07,0.073L8.656,24.584z M8.948,24.735l0.042-0.043c0.046-0.048,0.027-0.083-0.022-0.135c-0.049-0.047-0.084-0.067-0.139-0.017l-0.035,0.036L8.948,24.735z"/>
<path fill="#ecd74c" d="M8.993,24.249l0.066-0.068l0.405,0.185h0.001l-0.299-0.296l0.071-0.076l0.496,0.497l-0.068,0.073L9.26,24.369l-0.001,0.002l0.298,0.301l-0.072,0.071L8.993,24.249z"/>
<path fill="#fcc332" d="M6.185,27.156l-0.081,0.082l-0.068-0.065l0.235-0.242l0.066,0.074l-0.082,0.079l0.43,0.431l-0.072,0.073L6.185,27.156z"/>
<path fill="#fcc332" d="M6.343,26.866l0.211-0.217l0.067,0.065l-0.139,0.146l0.144,0.146l0.124-0.126l0.066,0.066l-0.122,0.125l0.144,0.145l0.14-0.139l0.071,0.068L6.838,27.36L6.343,26.866z"/>
<path fill="#fcc332" d="M6.943,26.74l-0.329-0.148l0.076-0.076l0.201,0.094l-0.095-0.198l0.076-0.077l0.142,0.324l0.361,0.161L7.3,26.899l-0.228-0.106l0.105,0.231l-0.076,0.064L6.943,26.74z"/>
<path fill="#fcc332" d="M7.068,26.276l-0.084,0.079l-0.066-0.069l0.235-0.234L7.22,26.12l-0.082,0.083l0.429,0.429l-0.072,0.07L7.068,26.276z"/>
<path fill="#fcc332" d="M7.226,25.979l0.109-0.102c0.037-0.042,0.075-0.06,0.125-0.058c0.051,0,0.089,0.025,0.146,0.08c0.045,0.044,0.071,0.076,0.08,0.122c0.012,0.051,0,0.099-0.049,0.151l-0.039,0.039l0.195,0.193l-0.07,0.069L7.226,25.979zM7.532,26.143l0.035-0.031c0.056-0.062,0.026-0.092-0.025-0.141c-0.048-0.048-0.084-0.085-0.14-0.029l-0.037,0.034L7.532,26.143z"/>
<path fill="#fcc332" d="M7.602,25.601l0.061-0.06l0.605,0.385l-0.07,0.07l-0.128-0.08l-0.097,0.096l0.084,0.123l-0.07,0.075L7.602,25.601z M7.777,25.719H7.774l0.147,0.212l0.07-0.072L7.777,25.719z"/>
<path fill="#fcc332" d="M7.927,25.413l-0.081,0.082l-0.069-0.064l0.235-0.236l0.066,0.067l-0.082,0.081l0.428,0.432l-0.07,0.071L7.927,25.413z"/>
<path fill="#fcc332" d="M8.2,25.137l-0.083,0.087l-0.065-0.072l0.234-0.23l0.065,0.064l-0.082,0.081l0.43,0.433l-0.071,0.068L8.2,25.137z"/>
<path fill="#fcc332" d="M8.357,24.851l0.21-0.211l0.066,0.062l-0.141,0.144l0.146,0.145l0.122-0.12l0.067,0.062l-0.122,0.123l0.145,0.144l0.142-0.137l0.07,0.067l-0.211,0.216L8.357,24.851z"/>
<path fill="#fcc332" d="M8.656,24.552l0.114-0.112c0.082-0.089,0.172-0.078,0.27,0.016c0.058,0.057,0.082,0.117,0.062,0.185l0.304,0.151l-0.077,0.077L9.052,24.72L9.01,24.765l0.211,0.208l-0.07,0.068L8.656,24.552z M8.948,24.697l0.042-0.039c0.046-0.05,0.027-0.084-0.022-0.133c-0.049-0.047-0.084-0.067-0.139-0.016l-0.035,0.038L8.948,24.697z"/>
<path fill="#fcc332" d="M8.993,24.218l0.066-0.07l0.405,0.189h0.001l-0.299-0.304l0.071-0.069l0.496,0.498l-0.068,0.064L9.26,24.339l-0.001,0.003l0.298,0.298l-0.072,0.068L8.993,24.218z"/>
<rect fill="#3d2812" x="4.771" y="30.408" transform="matrix(0.7042 -0.71 0.71 0.7042 -20.3917 12.7907)" width="0.77" height="0.924"/>
<rect fill="#e2d9ac" x="2.26" y="28.059" transform="matrix(-0.705 -0.7092 0.7092 -0.705 -15.5302 50.4317)" width="0.928" height="0.774"/>
<rect fill="#fcc332" x="3.552" y="28.409" transform="matrix(-0.7049 0.7093 -0.7093 -0.7049 27.7544 47.7799)" width="0.771" height="2.509"/>
<path fill="#473015" d="M23.848,12.179l-0.545-0.542L6.081,28.859c-0.654,0.65-0.982,1.412-0.982,1.412l0.656,0.651c0,0,0.218-0.872,0.875-1.523L23.848,12.179z"/>
<path fill="#ede5b2" d="M21.423,9.75L4.202,26.974c-0.66,0.656-1.531,0.87-1.531,0.87l0.655,0.663c0,0,0.763-0.334,1.417-0.985l17.221-17.226L21.423,9.75z"/>
</svg>
