<?xml version="1.0" encoding="utf-8"?>
<!DOCTYPE svg>
<svg version="1.1" baseProfile="full" xmlns="http://www.w3.org/2000/svg" xmlns:xlink="http://www.w3.org/1999/xlink" x="0px" y="0px" width="32px" height="32px" viewBox="0 0 32 32" enable-background="new 0 0 32 32" xml:space="preserve">
<path fill="#ffffff" d="M7.333,25.873c0.039-0.039,0.076-0.058,0.126-0.057c0.051,0.001,0.09,0.025,0.148,0.084c0.043,0.042,0.068,0.074,0.079,0.118c0-0.011,0.004-0.021,0.001-0.03c-0.01-0.044-0.036-0.077-0.08-0.12C7.549,25.81,7.51,25.785,7.46,25.784c-0.05,0-0.088,0.019-0.127,0.058l-0.106,0.107l0.016,0.016L7.333,25.873z M8.284,24.923l0.05,0.049l0.017-0.016L8.284,24.89l-0.235,0.235l0.016,0.016L8.284,24.923z M8.012,25.195l0.05,0.05l0.016-0.017l-0.067-0.066l-0.235,0.236l0.016,0.016L8.012,25.195z M7.153,26.053l0.051,0.049l0.017-0.016l-0.067-0.066l-0.234,0.234l0.016,0.017L7.153,26.053z M8.568,24.638l0.051,0.049l0.016-0.015l-0.067-0.067l-0.211,0.211l0.016,0.016L8.568,24.638z M6.69,26.516l0.2,0.094l-0.02-0.042L6.69,26.483l-0.075,0.076l0.022,0.008L6.69,26.516z M8.987,24.661c0.026-0.026,0.032-0.049,0.025-0.072c-0.004,0.012-0.011,0.024-0.025,0.039l-0.04,0.041L8.81,24.531l-0.016,0.016l0.154,0.154L8.987,24.661z M9.058,24.146l0.406,0.192l0.001-0.002l-0.059-0.058l-0.349-0.164L8.99,24.184L9.006,24.2L9.058,24.146z M8.64,24.959l-0.129-0.13l-0.016,0.017L8.64,24.99l0.123-0.123l0.05,0.051l0.016-0.016l-0.066-0.066L8.64,24.959z M7.971,25.846l-0.052,0.05l-0.107-0.159l-0.036-0.022l-0.001,0.001l0.144,0.214l0.071-0.071L7.971,25.846z M8.269,25.071l0.412,0.413l0.016-0.017l-0.412-0.411L8.269,25.071z M8.852,25.171l-0.129-0.13l-0.016,0.017l0.145,0.145l0.141-0.14l0.055,0.054l0.016-0.016L8.992,25.03L8.852,25.171z M7.604,25.57l0.013,0.019l0.047-0.045l0.585,0.373l0.02-0.021l-0.605-0.385L7.604,25.57z M7.974,26.01l0.073,0.108l0.013-0.013l-0.073-0.108L7.974,26.01z M7.996,25.344l0.413,0.411l0.016-0.016l-0.412-0.412L7.996,25.344z M9.01,24.763l0.195,0.196l0.016-0.017l-0.195-0.196L9.01,24.763z M9.261,24.341H9.259l0.281,0.281l0.017-0.014l-0.242-0.243L9.261,24.341z M9.167,24.007l0.016,0.014l0.055-0.053l0.479,0.479l0.016-0.016l-0.495-0.497L9.167,24.007z M9.04,24.424c-0.095-0.095-0.186-0.104-0.271-0.021l-0.114,0.114l0.017,0.016l0.097-0.097c0.084-0.084,0.175-0.076,0.271,0.02c0.058,0.058,0.083,0.116,0.062,0.185l0.281,0.14l0.021-0.023l-0.302-0.149C9.122,24.539,9.097,24.481,9.04,24.424z M6.497,26.841l-0.016,0.017l0.145,0.145l0.122-0.123l0.051,0.052l0.016-0.017l-0.067-0.067l-0.123,0.123L6.497,26.841z M6.321,26.985l0.016-0.014L6.27,26.904l-0.234,0.234l0.016,0.016l0.219-0.219L6.321,26.985z M6.255,27.084l0.412,0.413l0.016-0.016l-0.412-0.414L6.255,27.084z M6.838,27.184l-0.129-0.13L6.693,27.07l0.145,0.146l0.141-0.141l0.055,0.054l0.016-0.016l-0.071-0.071L6.838,27.184z M6.554,26.651l0.051,0.051l0.016-0.017L6.554,26.62l-0.211,0.21l0.016,0.016L6.554,26.651z M7.138,26.202l0.412,0.411l0.016-0.017l-0.412-0.411L7.138,26.202z M7.071,26.791l0.095,0.204l0.011-0.01L7.09,26.799L7.071,26.791z M7.566,26.077L7.532,26.11L7.38,25.959l-0.016,0.017l0.168,0.168l0.034-0.035c0.03-0.029,0.035-0.052,0.028-0.075C7.59,26.048,7.582,26.062,7.566,26.077z M6.873,26.3l-0.075,0.075l0.01,0.024l0.065-0.065l0.141,0.33l0.339,0.146l0.023-0.021l-0.362-0.158L6.873,26.3z M7.599,26.21l0.177,0.177l0.016-0.016l-0.177-0.178L7.599,26.21z M27.87,31.784C27.826,31.74,27.844,31.758,27.87,31.784L27.87,31.784z M22.255,20.45c0,0,0.605,0.688,0.929,1.011c0.323,0.323,1.027,0.994,1.027,0.994s-0.416-0.5-0.911-0.998C22.803,20.961,22.255,20.45,22.255,20.45z M25.237,21.63c-1.71-1.709-3.427-3.58-4.993-5.279l4.453-4.453c1.132-1.131,3.625-2.316,3.625-2.316l3.125-3.125L32,5.642l-4.043-4.043l-0.812,0.55l-3.127,3.129c0,0-1.184,2.493-2.314,3.625l-4.363,4.362c-0.099-0.101-0.196-0.202-0.292-0.296c-1.638-1.638-4.354-4.101-5.571-5.195l2.924-2.924V4.104c0,0-0.594-0.837-1.931-2.173C11.133,0.594,10.294,0,10.294,0H9.549L0,9.548v0.746c0,0,0.593,0.839,1.93,2.175c1.06,1.059,2.175,1.93,2.175,1.93h0.746l2.919-2.92c1.095,1.219,3.556,3.935,5.195,5.573c0.095,0.094,0.196,0.192,0.296,0.292l-9.345,9.344c-0.548,0.548-1.451,0.796-1.451,0.796l-0.861,0.86c0,0,0.692,1.099,1.576,1.983l0,0C4.063,31.211,5.25,32,5.25,32l0.866-0.867c0,0,0.248-0.902,0.795-1.451l9.437-9.436c1.698,1.566,3.57,3.282,5.279,4.994c3.304,3.303,6.209,6.511,6.291,6.591c0.457,0.457,1.615-0.068,2.728-1.183c1.173-1.173,1.598-2.312,1.209-2.702C31.71,27.803,28.539,24.935,25.237,21.63z M11.992,8.779c1.371,1.24,3.438,3.138,4.773,4.474c0.093,0.094,0.192,0.195,0.291,0.295l-0.724,0.724c-0.433-0.433-0.909-0.906-0.909-0.906s0.429,0.546,0.822,0.993l-0.511,0.511c-0.578-0.585-1.068-1.081-1.266-1.279c-0.588-0.588-1.209-1.192-1.458-1.441c-0.248-0.248-0.679-0.762-0.945-1.027c-0.265-0.265-0.712-0.663-1.027-0.978c-0.092-0.092-0.237-0.234-0.403-0.396c0.154-0.173,0.331-0.338,0.513-0.483c0.432,0.465,0.925,0.988,1.398,1.459c1.218,1.219,2.576,2.394,2.576,2.394s-0.993-0.994-2.493-2.493c-0.495-0.495-0.986-0.985-1.414-1.414C11.494,9,11.774,8.838,11.992,8.779C11.992,8.779,11.992,8.779,11.992,8.779z M15.288,15.315l-0.229,0.229c-0.186-0.181-0.363-0.355-0.512-0.502c-0.879-0.88-1.959-2.007-3.011-3.059c-0.4-0.4-0.913-0.917-1.396-1.405c0.037-0.108,0.083-0.219,0.141-0.327c0.535,0.513,1.118,1.077,1.57,1.528c0.595,0.595,1.524,1.375,1.524,1.375c-0.687-0.705-1.519-1.629-1.813-1.924c-0.309-0.31-0.756-0.719-1.195-1.118c0.051-0.083,0.109-0.163,0.175-0.245c0.173,0.143,0.316,0.263,0.432,0.379c0.34,0.34,0.899,0.878,1.098,1.077c0.198,0.198,0.742,0.729,1.14,1.126c0.397,0.397,1.23,1.303,1.437,1.509c0.369,0.368,0.687,0.676,1.012,0.988l-0.283,0.282c-1.153-1.068-2.559-2.345-2.559-2.345C13.107,13.173,14.121,14.169,15.288,15.315z M7.257,8.101L6.693,7.539L6.585,7.646L6.497,7.558l0.02-0.019l0.068,0.067l0.108-0.108l0.564,0.564l0.074-0.074l0.02,0.021L7.257,8.101z M6.787,7.404l0.089-0.089l0.02,0.021L6.807,7.425L6.787,7.404z M7.472,7.887L7.263,7.414l-0.433-0.19l0.028-0.028l0.404,0.177l0.209,0.474L7.559,7.76l0.012,0.027L7.472,7.887z M7.071,6.983l0.013-0.012l0.109,0.238L7.169,7.197L7.071,6.983z M7.734,7.625L7.456,7.498l-0.023-0.05l0.301,0.137l0.071-0.069l0.028,0.012L7.734,7.625z M7.875,7.484L7.222,6.832l0.021-0.019l0.632,0.632L7.949,7.37l0.02,0.021L7.875,7.484z M7.404,6.786l0.049-0.048c0.074-0.072,0.124-0.021,0.185,0.039c0.047,0.048,0.081,0.084,0.069,0.13C7.697,6.877,7.67,6.849,7.638,6.817c-0.062-0.062-0.111-0.112-0.185-0.04l-0.029,0.03L7.404,6.786z M7.713,7.096l0.048-0.048c0.056-0.055,0.07-0.109,0.067-0.163c0,0,0,0,0,0.001c0.017,0.067,0.001,0.135-0.067,0.203L7.733,7.117L7.713,7.096z M5.204,5.204C3.359,7.05,0.742,9.836,0.742,9.836s0.534,1.021,1.667,2.154c1.133,1.135,2.154,1.666,2.154,1.666l0.122,0.343H4.232c0,0-0.697-0.492-2.019-1.814c-1.322-1.321-1.814-2.018-1.814-2.018V9.714L9.715,0.4h0.452c0,0,0.698,0.491,2.02,1.813C13.508,3.535,14,4.232,14,4.232v0.453l-0.343-0.123c0,0-0.571-0.981-1.704-2.115c-1.133-1.132-2.116-1.705-2.116-1.705S7.05,3.358,5.204,5.204z M10.097,10.725c0.667,0.636,1.352,1.294,1.65,1.593c0.668,0.668,1.66,1.75,2.269,2.358c0.188,0.188,0.561,0.539,0.984,0.928l-0.142,0.142c-0.753-0.734-1.789-1.735-3.23-3.178c-0.577-0.576-1.109-1.098-1.57-1.542C10.058,10.925,10.071,10.825,10.097,10.725z M10.454,11.928c-0.221-0.221-0.336-0.449-0.378-0.679c0.817,0.79,1.743,1.691,2.393,2.34c0.652,0.654,1.51,1.479,2.313,2.233l-0.214,0.214C13.204,14.675,11.369,12.841,10.454,11.928z M6.083,28.854c-0.655,0.655-0.983,1.419-0.983,1.419l0,0L4.553,30.82l0.656,0.656c0,0-1.142-0.827-1.746-1.432c-0.604-0.604-1.339-1.654-1.339-1.654l0.546-0.547c0,0,0.874-0.218,1.529-0.873L21.38,9.789l0.041-0.039l0.563-0.565c1.146-1.146,2.403-3.711,2.403-3.711l3.014-3.015l0.507-0.344l3.576,3.577L31.141,6.2l0,0l0,0l-3.013,3.014c0,0-3.113,0.709-4.26,1.856l-0.603,0.603l0,0L6.083,28.854z M31.317,29.196c-0.426-0.37-1.918-1.669-2.251-2.002c-0.389-0.388-1.491-1.494-1.722-1.727c-0.233-0.231-1.065-0.882-1.065-0.882s0.575,0.63,0.733,0.786c0.156,0.159,1.035,0.887,1.69,1.542c0.562,0.562,2.062,2.088,2.476,2.507c-0.134,0.193-0.309,0.412-0.535,0.659c-0.359-0.313-1.492-1.307-1.992-1.807c-0.596-0.596-1.127-1.077-1.757-1.707c-0.627-0.63-1.25-1.182-1.805-1.737c-0.555-0.557-2.154-2.225-2.154-2.225s1.632,1.865,2.237,2.47s1.035,0.903,1.756,1.624s1.81,1.855,2.241,2.286c0.348,0.348,1.115,0.955,1.396,1.175c-0.064,0.068-0.128,0.137-0.201,0.209c-0.109,0.108-0.21,0.205-0.31,0.296c0.001,0,0.001-0.001,0.001-0.002c-0.101-0.012-0.211-0.096-0.346-0.232c-0.151-0.151-3.225-3.275-6.529-6.58c-1.228-1.228-3.654-3.466-3.995-3.764c-0.273-0.241-0.404-0.482-0.44-0.725c0.362,0.332,0.725,0.676,1.053,1.002c0.947,0.947,1.942,1.825,1.942,1.825s-1.62-1.667-2.333-2.38c-0.158-0.159-0.395-0.371-0.672-0.61c0.005-0.137,0.036-0.273,0.092-0.409c0.449,0.443,0.786,0.774,0.928,0.916c0.704,0.705,1.507,1.575,1.922,1.988c0.414,0.416,1.557,1.591,1.557,1.591s-1.541-1.74-2.436-2.635c-0.433-0.433-1.169-1.188-1.928-1.964c0.028-0.055,0.058-0.11,0.091-0.168c0.029-0.048,0.067-0.1,0.104-0.15c0.81,0.835,1.569,1.618,1.816,1.865c0.812,0.812,1.93,1.983,2.501,2.554c0.571,0.572,1.864,1.811,2.518,2.465c0.655,0.655,1.525,1.494,2.104,2.076c0.581,0.579,2.15,1.911,2.15,1.911s-2.498-2.461-3.392-3.357c-0.895-0.894-2.03-1.9-2.585-2.456c-0.774-0.774-2.047-2.138-2.701-2.793c-0.654-0.654-0.854-0.771-0.994-0.911c-0.101-0.101-0.828-0.863-1.369-1.421c0.373-0.47,1.012-0.957,1.464-0.995c1.392,1.508,2.887,3.12,4.375,4.608c3.306,3.305,6.572,6.271,6.606,6.305C31.584,28.243,31.707,28.541,31.317,29.196z"/>
</svg>
