<?xml version="1.0" encoding="utf-8"?>
<!DOCTYPE svg>
<svg version="1.1" baseProfile="full" xmlns="http://www.w3.org/2000/svg" xmlns:xlink="http://www.w3.org/1999/xlink" x="0px" y="0px" width="64px" height="64px" viewBox="0 0 64 64" enable-background="new 0 0 64 64" xml:space="preserve">
<path d="M61.301,61.301c-2.234,2.221-4.559,3.271-5.459,2.357c-0.34-0.332,0,0,0,0c-0.166-0.154-5.979-6.562-12.584-13.178l0,0c-5.984-5.979-12.998-12.047-17.326-16.348C21.608,29.788,14.426,21.718,14.42,21.71l0,0l-0.479-0.54l3.483-3.786l3.742-3.436l0.538,0.476c0.004,0.004,8.08,7.196,12.421,11.514c4.309,4.322,10.367,11.348,16.348,17.33l0,0c6.615,6.6,12.953,12.338,13.23,12.637C64.486,56.674,63.629,58.965,61.301,61.301z"/>
<linearGradient id="SVGID_1_" gradientUnits="userSpaceOnUse" x1="438.8369" y1="921.8643" x2="445.8549" y2="914.846" gradientTransform="matrix(1 0 0 1 -403 -879)">
<stop offset="0.1484" style="stop-color:#7b6c35"/>
<stop offset="0.8352" style="stop-color:#b9aa69"/>
</linearGradient>
<path fill="url(#SVGID_1_)" d="M33.514,26.506c-4.271-4.288-12.342-11.479-12.342-11.479l-3.206,2.943l-2.943,3.208c0,0,7.188,8.074,11.478,12.35c4.284,4.293,11.309,10.377,17.326,16.389c6.607,6.604,12.475,13.078,12.576,13.178c0.102,0.105,1.338,0.621,4.328-2.359c2.984-2.975,2.457-4.225,2.395-4.301c-0.07-0.059-6.605-5.984-13.211-12.604C43.891,37.809,37.812,30.794,33.514,26.506z"/>
<linearGradient id="SVGID_2_" gradientUnits="userSpaceOnUse" x1="438.8311" y1="921.8584" x2="445.7441" y2="914.9454" gradientTransform="matrix(1 0 0 1 -403 -879)">
<stop offset="0.0934" style="stop-color:#2b2414"/>
<stop offset="0.7363" style="stop-color:#624e22"/>
</linearGradient>
<path fill="url(#SVGID_2_)" d="M60.117,61.326c-0.211-0.025-0.426-0.197-0.703-0.459c-0.297-0.312-6.449-6.553-13.055-13.168c-2.459-2.457-7.309-6.93-7.977-7.521c-1.195-1.041-1.09-2.104-0.467-3.135c0.646-1.045,2.201-2.355,3.24-2.453c-1.01-1.09-1.988-2.146-2.934-3.166c-2.885,1.631-6.219,3.545-6.696,3.033c-2.305-2.259-8.146-8.137-10.62-10.604c-1.084-1.084-0.938-2.245-0.326-3.394c0.672-1.256,2.388-2.626,3.406-2.906l0,0c-1.664-1.5-2.814-2.527-2.814-2.527l-3.206,2.943l-2.943,3.208c0,0,7.188,8.074,11.478,12.35c4.284,4.293,11.309,10.377,17.326,16.389c6.607,6.604,12.475,13.078,12.576,13.178C56.492,63.191,57.576,63.645,60.117,61.326z"/>
<path fill="#6b5600" d="M48.418,44.904c0,0-0.822-0.996-1.816-1.98c-0.996-1.006-2.084-2.025-2.084-2.025s1.213,1.383,1.85,2.029C47.01,43.576,48.418,44.904,48.418,44.904z M33.371,29.216c-0.907-0.948-2.523-2.487-2.523-2.487s1.469,1.825,2.32,2.684C34.01,30.282,34.312,30.158,33.371,29.216z M31.202,32.95c-1.526-1.524-3.98-3.847-7.948-7.812c-3.068-3.067-5.523-5.361-6.292-6.073l-0.176,0.189c1.06,1.028,5.638,5.414,8.151,7.926c2.856,2.854,7.709,7.375,8.99,8.445c1.309,1.059,3.775,3.209,5.666,5.098c1.896,1.898,3.887,3.668,3.887,3.668s-3.23-3.344-4.668-4.77C37.398,38.203,32.936,34.699,31.202,32.95z M30.25,26.236c0,0-1.986-1.984-4.986-4.984c-2.296-2.298-4.592-4.584-5.206-5.204l-0.01,0.008c0.612,0.683,2.95,3.292,5.046,5.391C27.534,23.886,30.25,26.236,30.25,26.236z M24.146,22.645c0.399,0.392,1.479,1.455,2.275,2.254c0.794,0.789,2.46,2.6,2.874,3.014c1.65,1.654,2.794,2.686,4.772,4.642c1.934,1.933,6.736,6.946,7.701,7.915c1.629,1.621,3.855,3.963,5,5.105c1.135,1.141,3.723,3.615,5.039,4.924c1.309,1.316,3.047,3.004,4.205,4.156c1.174,1.16,4.303,3.814,4.303,3.814s-5-4.918-6.785-6.707c-1.789-1.793-4.066-3.805-5.178-4.906c-1.539-1.555-4.08-4.275-5.389-5.588c-1.312-1.311-1.709-1.549-1.992-1.822c-0.287-0.271-3.023-3.145-3.742-3.887c-0.725-0.709-7.114-7.205-8.288-8.377c-1.177-1.178-2.416-2.386-2.914-2.882c-0.502-0.5-1.356-1.521-1.891-2.056c-0.536-0.53-1.428-1.328-2.056-1.958c-0.596-0.597-2.214-2.152-3.21-3.146l-0.353,0.318c1.706,1.674,2.772,2.376,3.427,3.03C22.628,21.17,23.744,22.246,24.146,22.645z M28.034,29.355c1.214,1.219,6.319,5.814,6.319,5.814s-3.497-3.314-5.256-5.082c-1.758-1.764-3.92-4.018-6.025-6.12c-1.75-1.76-4.608-4.646-5.51-5.556l-0.265,0.284c1.185,1.118,5.07,4.808,6.196,5.945C24.834,25.974,26.814,28.136,28.034,29.355z M53.793,53.129c-1.262-1.254-2.504-2.361-3.617-3.469c-1.117-1.109-4.305-4.445-4.305-4.445s3.266,3.725,4.479,4.93c1.201,1.211,2.072,1.805,3.504,3.25c1.439,1.447,3.623,3.719,4.486,4.57c0.699,0.693,2.23,1.91,2.793,2.35c0.041-0.055,0.104-0.107,0.156-0.16c-0.723-0.635-2.988-2.619-3.98-3.615C56.125,55.342,55.055,54.395,53.793,53.129z M58.129,54.395c-0.773-0.781-2.973-3-3.438-3.455c-0.459-0.463-2.133-1.768-2.133-1.768s1.152,1.26,1.473,1.572c0.311,0.311,2.07,1.775,3.375,3.088c1.125,1.121,4.121,4.166,4.943,5.008c0.115-0.154,0.205-0.301,0.291-0.449C61.785,57.656,58.797,55.062,58.129,54.395z M26.756,26.308c-1.378-1.403-3.04-3.262-3.63-3.846c-1.36-1.368-4.042-3.69-5-4.638l-0.16,0.146l-0.025,0.026c0.981,0.948,3.918,3.718,5.764,5.556C24.896,24.75,26.756,26.308,26.756,26.308z M25.636,25.766c1.49,1.492,12.468,12.244,13.882,13.658c1.398,1.391,3.014,3.141,3.846,3.971c0.814,0.82,3.102,3.178,3.102,3.178s-3.074-3.486-4.865-5.275c-1.791-1.791-6.168-6.297-8.168-8.327C31.942,31.46,25.636,25.766,25.636,25.766z"/>
<linearGradient id="SVGID_3_" gradientUnits="userSpaceOnUse" x1="444.3418" y1="916.3281" x2="439.5038" y2="921.1663" gradientTransform="matrix(1 0 0 1 -403 -879)">
<stop offset="0.5165" style="stop-color:#2d2400"/>
<stop offset="0.8626" style="stop-color:#211700"/>
</linearGradient>
<path fill="url(#SVGID_3_)" d="M43.457,47.998c-2.041-2.033-5.975-5.746-7.688-7.447c-0.293-0.289-3.76-3.676-4.476-4.402c-0.722-0.734-7.098-6.515-8.276-7.687c-1.174-1.182-2.498-2.782-2.998-3.276c-0.5-0.5-1.439-1.604-1.968-2.14c-0.532-0.53-1.344-1.401-1.974-2.03c-0.216-0.218-0.378-0.34-0.466-0.38l-0.076,0.066c0.042,0.096,0.166,0.27,0.412,0.506c0.68,0.676,1.552,1.762,1.956,2.156c0.396,0.396,1.722,1.698,2.518,2.489c0.792,0.799,2.298,2.526,2.714,2.944c1.652,1.648,2.952,2.521,4.908,4.513c1.956,1.926,6.593,6.576,7.56,7.541c1.643,1.635,4.021,3.666,5.16,4.807c1.15,1.143,3.734,3.863,5.041,5.168c1.309,1.318,3.037,3.111,4.207,4.27c1.156,1.158,4.307,4.1,4.307,4.1c-4.816-4.885-4.658-5.037-6.342-6.707C46.199,50.699,44.559,49.117,43.457,47.998z M54.102,56.562c-1.645-1.629-2.871-2.941-4.605-4.672c-1.732-1.717-3.672-3.549-5.195-5.068c-1.531-1.514-5.918-5.746-5.918-5.746s4.328,4.557,5.992,6.191c1.664,1.666,2.992,3.01,4.979,4.986c1.99,1.973,4.986,5.086,6.174,6.25c0.99,0.996,3.785,3.5,3.785,3.5l0.434-0.352C59.746,61.652,56.559,59.004,54.102,56.562z M21.13,25.494c1.426,1.521,10.416,9.822,11.678,11.213c1.37,1.393,7.142,6.801,7.142,6.801s-3.91-3.914-5.764-5.918c-1.85-1.998-9.027-8.236-11.264-10.628c-2.242-2.397-6.178-6.304-6.178-6.304L16.4,20.934C16.402,20.936,19.708,23.968,21.13,25.494z M56.936,61.719c-1.094-1.146-2.184-2.049-2.184-2.049s1.279,1.678,1.881,2.209c0.414,0.369,0.854,0.816,1.119,1.086c0.115-0.051,0.234-0.098,0.354-0.156C57.867,62.629,57.486,62.312,56.936,61.719z M33.395,34.258c-0.012,0.004-0.02,0.012-0.035,0.012c0.553,0.52,0.99,0.9,0.99,0.9S33.941,34.785,33.395,34.258z M37.5,38.711c-0.02-0.102-0.02-0.203-0.02-0.307c-1.352-1.166-3.172-2.697-4.719-3.977c-0.046,0.01-0.086,0.025-0.124,0.041c0.595,0.551,0.991,0.93,1.29,1.156C34.76,36.311,36.129,37.477,37.5,38.711z M37.74,37.387c-1.217-1.266-2.463-2.537-3.432-3.551c-0.109,0.059-0.205,0.109-0.318,0.164c1.361,1.316,2.658,2.586,3.662,3.576C37.684,37.523,37.707,37.445,37.74,37.387z M22.434,18.422c-1.121-1.124-2.02-2.02-2.376-2.374l-0.01,0.008c0.332,0.376,1.196,1.339,2.25,2.477C22.348,18.492,22.39,18.462,22.434,18.422z M38.24,36.602c-0.443-0.438-0.803-0.828-1.018-1.041c-0.236-0.217-1.059-1.082-2.086-2.133c-0.045,0.021-0.098,0.041-0.145,0.064c0.902,0.934,2.043,2.104,3.141,3.24C38.17,36.688,38.203,36.645,38.24,36.602z M20.284,21.154c-1.138-1.143-2.187-2.206-2.688-2.71c-0.086,0.104-0.164,0.208-0.244,0.3c0.578,0.548,1.694,1.604,2.845,2.704C20.218,21.354,20.25,21.252,20.284,21.154z M21.276,19.496c-0.74-0.718-1.717-1.666-2.406-2.354l-0.34,0.311l-0.011,0.006c1.101,1.076,1.933,1.754,2.561,2.274C21.146,19.65,21.204,19.572,21.276,19.496z M20.116,22.052c-1.46-1.412-2.548-2.426-3.068-2.907c-0.062,0.084-0.112,0.153-0.158,0.214c0.572,0.55,1.828,1.752,3.263,3.14C20.124,22.35,20.114,22.206,20.116,22.052z M20.58,20.46c0.044-0.076,0.102-0.162,0.15-0.242c-1.049-0.954-2.084-1.88-2.604-2.394l-0.11,0.098c-0.023,0.03-0.042,0.052-0.063,0.084c0.5,0.482,1.502,1.432,2.612,2.496C20.568,20.488,20.574,20.474,20.58,20.46z"/>
<path d="M20.592,0c0,0,1.672,1.186,4.349,3.862l0,0c2.674,2.668,3.863,4.35,3.863,4.35v1.494L9.7,28.8H8.208l0,0c0,0-2.23-1.737-4.352-3.864l0,0C1.184,22.266,0,20.592,0,20.592v-1.494L19.096,0H20.592z"/>
<linearGradient id="SVGID_4_" gradientUnits="userSpaceOnUse" x1="413.1152" y1="889.1152" x2="421.6874" y2="897.6876" gradientTransform="matrix(1 0 0 1 -403 -879)">
<stop offset="0" style="stop-color:#ffffff"/>
<stop offset="1" style="stop-color:#666666"/>
</linearGradient>
<path fill="url(#SVGID_4_)" d="M20.334,0.798h-0.902L0.798,19.432v0.906c0,0,0.984,1.393,3.624,4.036c2.646,2.642,4.04,3.628,4.04,3.628h0.904L28,9.374V8.462c0,0-0.976-1.388-3.626-4.038C21.73,1.788,20.334,0.798,20.334,0.798z"/>
<linearGradient id="SVGID_5_" gradientUnits="userSpaceOnUse" x1="413.1152" y1="889.1152" x2="421.6874" y2="897.6876" gradientTransform="matrix(1 0 0 1 -403 -879)">
<stop offset="0" style="stop-color:#ffffff"/>
<stop offset="1" style="stop-color:#666666"/>
</linearGradient>
<path fill="url(#SVGID_5_)" d="M20.334,0.798h-0.902L0.798,19.432v0.906c0,0,0.984,1.393,3.624,4.036c2.646,2.642,4.04,3.628,4.04,3.628h0.904L28,9.374V8.462c0,0-0.976-1.388-3.626-4.038C21.73,1.788,20.334,0.798,20.334,0.798z"/>
<linearGradient id="SVGID_6_" gradientUnits="userSpaceOnUse" x1="407.8203" y1="902.9824" x2="426.9031" y2="883.8994" gradientTransform="matrix(1 0 0 1 -403 -879)">
<stop offset="0.0769" style="stop-color:#0a0a0a"/>
<stop offset="0.533" style="stop-color:#0f0f0f"/>
<stop offset="0.9121" style="stop-color:#1a1a1a"/>
</linearGradient>
<path fill="url(#SVGID_6_)" d="M27.318,9.13c0,0-5.234,5.572-8.927,9.262c-3.691,3.688-9.268,8.923-9.268,8.923S7.08,26.252,4.818,23.98c-2.267-2.263-3.334-4.303-3.334-4.303s5.229-5.576,8.926-9.27c3.691-3.685,9.262-8.922,9.262-8.922s1.966,1.144,4.234,3.416C26.17,7.162,27.318,9.13,27.318,9.13z"/>
<linearGradient id="SVGID_7_" gradientUnits="userSpaceOnUse" x1="403.5801" y1="898.6514" x2="412.1488" y2="907.2203" gradientTransform="matrix(1 0 0 1 -403 -879)">
<stop offset="0" style="stop-color:#999999"/>
<stop offset="1" style="stop-color:#1a1a1a"/>
</linearGradient>
<path fill="url(#SVGID_7_)" d="M9.124,27.314c0,0-2.046-1.062-4.308-3.334c-2.267-2.263-3.334-4.303-3.334-4.303l-0.685-0.246v0.906c0,0,0.984,1.393,3.624,4.036c2.646,2.642,4.04,3.628,4.04,3.628h0.904L9.124,27.314z"/>
<linearGradient id="SVGID_8_" gradientUnits="userSpaceOnUse" x1="422.6494" y1="879.5791" x2="431.2218" y2="888.1513" gradientTransform="matrix(1 0 0 1 -403 -879)">
<stop offset="0" style="stop-color:#cccccc"/>
<stop offset="1" style="stop-color:#333333"/>
</linearGradient>
<path fill="url(#SVGID_8_)" d="M28,9.372v-0.91c0,0-0.976-1.388-3.626-4.038c-2.644-2.638-4.04-3.628-4.04-3.628h-0.902l0.244,0.687c0,0,1.966,1.144,4.232,3.416c2.262,2.262,3.41,4.229,3.41,4.229L28,9.372z"/>
<path fill="#494949" d="M13.388,15.074l-0.216,0.218l-0.178-0.176l0.618-0.616l0.178,0.172l-0.216,0.218l1.13,1.13l-0.188,0.185L13.388,15.074z"/>
<path fill="#494949" d="M14.53,14.826l-0.872-0.376l0.2-0.2l0.529,0.25l-0.244-0.534l0.2-0.194l0.372,0.87l0.95,0.414l-0.2,0.194l-0.6-0.274l0.277,0.603l-0.199,0.2L14.53,14.826z"/>
<path fill="#494949" d="M14.448,13.67l0.279-0.282c0.103-0.105,0.204-0.153,0.332-0.151c0.133,0,0.232,0.065,0.391,0.224c0.114,0.112,0.18,0.198,0.206,0.314c0.038,0.134,0,0.268-0.13,0.405l-0.095,0.095l0.511,0.508L15.75,14.97L14.448,13.67z M15.254,14.094l0.088-0.088c0.152-0.152,0.061-0.246-0.065-0.372c-0.126-0.122-0.225-0.22-0.368-0.076l-0.101,0.099L15.254,14.094z"/>
<path fill="#191919" d="M13.388,14.92l-0.216,0.21l-0.178-0.172l0.618-0.62l0.178,0.174l-0.216,0.219l1.13,1.128l-0.188,0.186L13.388,14.92z"/>
<path fill="#191919" d="M14.53,14.67l-0.872-0.38l0.2-0.196l0.529,0.244l-0.244-0.532l0.2-0.197l0.37,0.872l0.95,0.414l-0.198,0.201l-0.602-0.279l0.277,0.598l-0.199,0.198L14.53,14.67z"/>
<path fill="#191919" d="M14.448,13.506l0.279-0.28c0.103-0.1,0.204-0.151,0.335-0.151c0.13,0.004,0.229,0.065,0.39,0.222c0.114,0.116,0.18,0.198,0.206,0.312c0.038,0.136,0,0.271-0.13,0.405l-0.097,0.099l0.511,0.51l-0.192,0.186L14.448,13.506z M15.254,13.936l0.088-0.092c0.15-0.147,0.059-0.242-0.065-0.365c-0.126-0.125-0.225-0.229-0.37-0.08l-0.101,0.098L15.254,13.936z"/>
<path fill="#2d2d2d" d="M13.388,14.996l-0.216,0.214l-0.178-0.178l0.618-0.616l0.178,0.176l-0.216,0.216l1.13,1.132l-0.188,0.181L13.388,14.996z"/>
<path fill="#2d2d2d" d="M14.53,14.748l-0.872-0.38l0.2-0.196l0.529,0.248l-0.244-0.532l0.2-0.2l0.37,0.873l0.95,0.415l-0.198,0.196l-0.6-0.275l0.277,0.598l-0.199,0.2L14.53,14.748z"/>
<path fill="#2d2d2d" d="M14.448,13.584l0.279-0.278c0.103-0.1,0.204-0.153,0.335-0.153c0.132,0.002,0.231,0.069,0.39,0.222c0.11,0.114,0.178,0.202,0.204,0.315c0.038,0.139,0,0.269-0.13,0.406l-0.095,0.101l0.511,0.508L15.75,14.89L14.448,13.584z M15.254,14.016l0.088-0.088c0.148-0.147,0.061-0.242-0.065-0.376c-0.126-0.122-0.225-0.22-0.37-0.076l-0.101,0.099L15.254,14.016z"/>
<path d="M6.358,60.658L6.358,60.658c-1.767-1.771-3.154-3.959-3.154-3.959l1.726-1.727c0,0,1.807-0.49,2.898-1.594l0,0l35.578-35.573c2.26-2.266,4.625-7.25,4.625-7.25L54.285,4.3l1.635-1.105l8.08,8.09l-1.113,1.63l-6.25,6.254c0,0-4.979,2.366-7.25,4.628l0,0L13.824,59.371c-1.097,1.102-1.59,2.893-1.59,2.893L10.5,64C10.5,64,8.124,62.414,6.358,60.658z"/>
<linearGradient id="SVGID_9_" gradientUnits="userSpaceOnUse" x1="446.8535" y1="893.1318" x2="465.2773" y2="893.1318" gradientTransform="matrix(1 0 0 1 -403 -879)">
<stop offset="0.125" style="stop-color:#cdcdcb"/>
<stop offset="0.875" style="stop-color:#a09ea1"/>
</linearGradient>
<path fill="url(#SVGID_9_)" d="M54.809,4.922L54.809,4.922l-6.035,6.021c0,0-1.424,6.228-3.715,8.52l-1.205,1.208l2.67,2.672l1.211-1.208c2.283-2.29,8.504-3.714,8.504-3.714l6.039-6.02l0,0L54.809,4.922z"/>
<path fill="#616161" d="M46.531,23.344l1.086,1.094l1.205-1.205c2.295-2.297,7.426-4.811,7.426-4.811s-6.221,1.426-8.51,3.714L46.531,23.344z"/>
<path fill="#ebe9e9" d="M42.762,19.58l1.094,1.092l1.209-1.208c2.289-2.292,3.709-8.52,3.709-8.52s-2.514,5.136-4.805,7.432L42.762,19.58z"/>
<path fill="#ffcc33" d="M43.928,20.592L9.486,55.043c-1.311,1.301-2.832,1.969-2.832,1.969l3.544,3.535l0,0c0,0,0.658-1.529,1.964-2.828l34.443-34.453L43.928,20.592z"/>
<path fill="#bfbfbf" d="M4.25,56.781c0,0,1.466,2.102,2.68,3.309c1.208,1.211,3.488,2.863,3.488,2.863L4.25,56.781z"/>
<polygon fill="#ebe9e9" points="62.281,12.402 62.969,11.386 55.82,4.236 54.809,4.922"/>
<path fill="#ba9c0a" d="M12.37,54.254l-0.162,0.154l-0.136-0.119l0.47-0.469l0.132,0.129l-0.164,0.154l0.86,0.865l-0.145,0.135L12.37,54.254z"/>
<path fill="#ba9c0a" d="M12.686,53.666l0.423-0.428l0.134,0.141l-0.278,0.277l0.288,0.293l0.248-0.242l0.132,0.125l-0.244,0.234l0.288,0.305l0.28-0.295l0.142,0.154l-0.422,0.424L12.686,53.666z"/>
<path fill="#ba9c0a" d="M13.886,53.404l-0.658-0.291l0.152-0.145l0.402,0.186l-0.19-0.395l0.152-0.156l0.284,0.666l0.722,0.312l-0.15,0.154l-0.456-0.215l0.21,0.451l-0.149,0.156L13.886,53.404z"/>
<path fill="#ba9c0a" d="M14.136,52.48l-0.168,0.16l-0.132-0.129l0.47-0.469l0.132,0.125l-0.163,0.168l0.857,0.855l-0.144,0.141L14.136,52.48z"/>
<path fill="#ba9c0a" d="M14.452,51.887l0.218-0.201c0.074-0.08,0.15-0.121,0.25-0.115c0.103,0,0.178,0.051,0.292,0.164c0.09,0.09,0.142,0.152,0.16,0.242c0.024,0.098,0,0.201-0.098,0.305l-0.078,0.066l0.39,0.398l-0.14,0.133L14.452,51.887z M15.064,52.229l0.069-0.07c0.112-0.111,0.052-0.182-0.05-0.283c-0.096-0.094-0.168-0.172-0.28-0.055l-0.073,0.07L15.064,52.229z"/>
<path fill="#ba9c0a" d="M15.204,51.133l0.122-0.121l1.21,0.777l-0.14,0.137l-0.257-0.162l-0.193,0.193l0.168,0.25l-0.141,0.145L15.204,51.133z M15.554,51.363h-0.006l0.294,0.434l0.141-0.141L15.554,51.363z"/>
<path fill="#ba9c0a" d="M15.854,50.764l-0.161,0.16l-0.139-0.123l0.471-0.482l0.132,0.139l-0.164,0.168l0.855,0.855l-0.14,0.148L15.854,50.764z"/>
<path fill="#ba9c0a" d="M16.4,50.211l-0.166,0.172l-0.131-0.146l0.469-0.455l0.13,0.131l-0.164,0.158l0.86,0.865l-0.143,0.135L16.4,50.211z"/>
<path fill="#ba9c0a" d="M16.714,49.633l0.42-0.422l0.132,0.131l-0.281,0.291l0.292,0.281l0.243-0.246l0.135,0.145l-0.244,0.23l0.29,0.299l0.284-0.291l0.14,0.145l-0.422,0.43L16.714,49.633z"/>
<path fill="#ba9c0a" d="M17.312,49.043l0.228-0.238c0.164-0.164,0.344-0.154,0.54,0.039c0.116,0.121,0.164,0.234,0.124,0.375l0.608,0.303l-0.154,0.154l-0.555-0.297l-0.084,0.082l0.423,0.422l-0.141,0.135L17.312,49.043z M17.896,49.332l0.084-0.072c0.092-0.105,0.054-0.174-0.045-0.273c-0.098-0.1-0.168-0.135-0.277-0.029l-0.07,0.064L17.896,49.332z"/>
<path fill="#ba9c0a" d="M17.986,48.367l0.132-0.139l0.81,0.377h0.002l-0.598-0.604l0.142-0.135l0.992,0.988L19.33,48.99l-0.811-0.377l-0.002,0.008l0.597,0.594l-0.145,0.141L17.986,48.367z"/>
<path fill="#ecd74c" d="M12.37,54.379l-0.162,0.16l-0.136-0.141l0.47-0.459l0.132,0.125L12.51,54.23l0.86,0.855l-0.145,0.145L12.37,54.379z"/>
<path fill="#ecd74c" d="M12.686,53.797l0.423-0.422l0.134,0.133l-0.278,0.273l0.288,0.283L13.5,53.83l0.132,0.123l-0.244,0.246l0.288,0.299l0.28-0.291l0.142,0.152l-0.422,0.418L12.686,53.797z"/>
<path fill="#ecd74c" d="M13.886,53.531l-0.658-0.281l0.152-0.154l0.402,0.189l-0.19-0.398l0.152-0.146l0.284,0.656l0.722,0.314l-0.15,0.141l-0.456-0.205l0.21,0.455l-0.151,0.156L13.886,53.531z"/>
<path fill="#ecd74c" d="M14.136,52.613l-0.168,0.16l-0.132-0.129l0.47-0.479l0.135,0.135l-0.164,0.164l0.857,0.852L14.99,53.48L14.136,52.613z"/>
<path fill="#ecd74c" d="M14.452,52.035l0.218-0.217c0.074-0.076,0.15-0.123,0.25-0.119c0.103,0,0.178,0.055,0.292,0.168c0.09,0.086,0.142,0.152,0.16,0.236c0.024,0.104,0,0.201-0.098,0.312l-0.078,0.072l0.39,0.391l-0.14,0.139L14.452,52.035z M15.064,52.352l0.069-0.062c0.112-0.121,0.052-0.193-0.05-0.287c-0.096-0.094-0.168-0.166-0.28-0.049l-0.073,0.068L15.064,52.352z"/>
<path fill="#ecd74c" d="M15.204,51.264l0.122-0.115l1.21,0.77L16.4,52.062l-0.257-0.176l-0.193,0.195l0.17,0.254l-0.143,0.15L15.204,51.264z M15.554,51.492h-0.006l0.294,0.436l0.141-0.135L15.554,51.492z"/>
<path fill="#ecd74c" d="M15.854,50.887l-0.161,0.168l-0.139-0.141l0.471-0.461l0.132,0.133l-0.164,0.168l0.855,0.855l-0.14,0.15L15.854,50.887z"/>
<path fill="#ecd74c" d="M16.4,50.348l-0.166,0.162l-0.131-0.131l0.469-0.469l0.13,0.129l-0.164,0.164l0.86,0.863l-0.143,0.137L16.4,50.348z"/>
<path fill="#ecd74c" d="M16.714,49.77l0.42-0.434l0.132,0.145l-0.281,0.279l0.292,0.283l0.243-0.229l0.135,0.117l-0.244,0.24l0.29,0.297l0.284-0.289l0.14,0.143l-0.422,0.436L16.714,49.77z"/>
<path fill="#ecd74c" d="M17.312,49.168l0.228-0.232c0.164-0.166,0.344-0.15,0.54,0.045c0.116,0.111,0.164,0.227,0.124,0.367l0.608,0.301l-0.154,0.152l-0.555-0.291l-0.084,0.082l0.423,0.418l-0.141,0.146L17.312,49.168z M17.896,49.469l0.084-0.086c0.092-0.094,0.054-0.164-0.045-0.27c-0.098-0.094-0.168-0.133-0.277-0.033l-0.07,0.072L17.896,49.469z"/>
<path fill="#ecd74c" d="M17.986,48.498l0.132-0.135l0.81,0.369h0.002l-0.598-0.592l0.142-0.152l0.992,0.994l-0.136,0.146l-0.811-0.391l-0.002,0.004l0.597,0.602l-0.145,0.143L17.986,48.498z"/>
<path fill="#fcc332" d="M12.37,54.312l-0.162,0.164l-0.136-0.131l0.47-0.482l0.132,0.146l-0.164,0.158l0.86,0.863l-0.145,0.145L12.37,54.312z"/>
<path fill="#fcc332" d="M12.686,53.732l0.423-0.436l0.134,0.131l-0.278,0.291l0.288,0.293L13.5,53.76l0.132,0.131l-0.244,0.25l0.288,0.291l0.28-0.277l0.142,0.135l-0.422,0.43L12.686,53.732z"/>
<path fill="#fcc332" d="M13.886,53.48l-0.658-0.297l0.152-0.152l0.402,0.188l-0.19-0.395l0.152-0.154l0.284,0.648l0.722,0.322l-0.15,0.156l-0.456-0.211l0.21,0.461l-0.151,0.129L13.886,53.48z"/>
<path fill="#fcc332" d="M14.136,52.551l-0.168,0.16l-0.132-0.139l0.47-0.469l0.135,0.137l-0.164,0.166l0.857,0.857l-0.144,0.141L14.136,52.551z"/>
<path fill="#fcc332" d="M14.452,51.957l0.218-0.203c0.074-0.084,0.15-0.121,0.25-0.117c0.103,0,0.178,0.051,0.292,0.16c0.09,0.09,0.142,0.152,0.16,0.246c0.024,0.102,0,0.197-0.098,0.301l-0.078,0.078l0.39,0.387l-0.14,0.137L14.452,51.957z M15.064,52.285l0.069-0.062c0.112-0.123,0.052-0.184-0.05-0.281c-0.096-0.096-0.168-0.17-0.28-0.059l-0.073,0.07L15.064,52.285z"/>
<path fill="#fcc332" d="M15.204,51.203l0.122-0.121l1.21,0.77l-0.14,0.141l-0.257-0.16l-0.193,0.191l0.168,0.246l-0.141,0.15L15.204,51.203z M15.554,51.438h-0.006l0.294,0.426l0.141-0.145L15.554,51.438z"/>
<path fill="#fcc332" d="M15.854,50.826l-0.161,0.164l-0.139-0.127l0.471-0.473l0.132,0.133l-0.164,0.162l0.855,0.865l-0.14,0.141L15.854,50.826z"/>
<path fill="#fcc332" d="M16.4,50.273l-0.166,0.176l-0.131-0.145l0.469-0.461l0.13,0.129l-0.164,0.16L17.398,51l-0.143,0.137L16.4,50.273z"/>
<path fill="#fcc332" d="M16.714,49.703l0.42-0.422l0.132,0.123l-0.281,0.287l0.292,0.291l0.243-0.24l0.135,0.125l-0.244,0.246L17.7,50.4l0.284-0.275l0.14,0.135l-0.422,0.432L16.714,49.703z"/>
<path fill="#fcc332" d="M17.312,49.104l0.228-0.225c0.164-0.176,0.344-0.156,0.54,0.033c0.116,0.115,0.164,0.234,0.124,0.369l0.608,0.303l-0.154,0.154l-0.555-0.299l-0.084,0.092l0.423,0.414l-0.141,0.137L17.312,49.104z M17.896,49.395l0.084-0.078c0.092-0.102,0.054-0.168-0.045-0.266c-0.098-0.094-0.168-0.135-0.277-0.033l-0.07,0.076L17.896,49.395z"/>
<path fill="#fcc332" d="M17.986,48.436l0.132-0.139l0.81,0.377h0.002l-0.598-0.607l0.142-0.139l0.992,0.996l-0.136,0.127l-0.811-0.373l-0.002,0.006l0.597,0.598l-0.145,0.135L17.986,48.436z"/>
<rect fill="#3d2812" x="9.543" y="60.813" transform="matrix(-0.7042 0.71 -0.71 -0.7042 61.4067 97.892)" width="1.541" height="1.847"/>
<rect fill="#e2d9ac" x="4.518" y="56.117" transform="matrix(0.705 0.7092 -0.7092 0.705 41.954 12.9202)" width="1.856" height="1.547"/>
<rect fill="#fcc332" x="7.106" y="56.818" transform="matrix(0.7049 -0.7093 0.7093 0.7049 -39.7566 23.0952)" width="1.542" height="5.017"/>
<path fill="#473015" d="M47.695,24.358l-1.09-1.084L12.162,57.719c-1.309,1.299-1.964,2.824-1.964,2.824l1.312,1.301c0,0,0.437-1.744,1.75-3.047L47.695,24.358z"/>
<path fill="#ede5b2" d="M42.846,19.5L8.404,53.949c-1.32,1.311-3.062,1.738-3.062,1.738l1.311,1.326c0,0,1.525-0.668,2.834-1.971l34.441-34.451L42.846,19.5z"/>
</svg>
